<svg width="97" height="20" viewBox="0 0 97 20" fill="none" xmlns="http://www.w3.org/2000/svg">
<path fill-rule="evenodd" clip-rule="evenodd" d="M84.9249 20H72.6013H23.5897H11.2661V19.9914L9.01299 19.9898C4.03377 19.9898 0 15.516 0 9.9949C0 4.4738 4.03377 0 9.01299 0L11.2661 2.63395e-05H84.9249L87.178 0C92.1572 0 96.191 4.4738 96.191 9.9949C96.191 15.516 92.1572 19.9898 87.178 19.9898L84.9249 19.9914V20Z" fill="#00A9DF"/>
<path d="M32.72 11.91C32.72 13.09 31.8 14.07 30.16 14.07C28.65 14.07 27.47 13.32 27.42 11.9H29.24C29.29 12.44 29.63 12.7 30.11 12.7C30.61 12.7 30.93 12.45 30.93 12.04C30.93 10.74 27.42 11.44 27.44 8.95C27.44 7.62 28.53 6.88 30 6.88C31.53 6.88 32.56 7.64 32.63 8.98H30.78C30.75 8.53 30.43 8.26 29.97 8.25C29.56 8.24 29.25 8.45 29.25 8.89C29.25 10.11 32.72 9.56 32.72 11.91ZM36.2323 9.71C35.6723 9.71 35.2423 10.05 35.1423 10.67H37.2823C37.2823 10.06 36.8023 9.71 36.2323 9.71ZM38.9023 12.15C38.6323 13.24 37.6423 14.08 36.2523 14.08C34.6123 14.08 33.4323 12.98 33.4323 11.21C33.4323 9.44 34.5923 8.34 36.2523 8.34C37.8823 8.34 39.0323 9.42 39.0323 11.12C39.0323 11.28 39.0223 11.45 39.0023 11.62H35.1323C35.1923 12.35 35.6423 12.69 36.1923 12.69C36.6723 12.69 36.9423 12.45 37.0823 12.15H38.9023ZM39.9345 14V6.6H41.6445V14H39.9345ZM42.5437 11.2C42.5437 9.44 43.6337 8.34 45.0037 8.34C45.8337 8.34 46.4237 8.72 46.7237 9.21V8.42H48.4337V14H46.7237V13.21C46.4137 13.7 45.8237 14.08 44.9937 14.08C43.6337 14.08 42.5437 12.96 42.5437 11.2ZM46.7237 11.21C46.7237 10.32 46.1537 9.83 45.5037 9.83C44.8637 9.83 44.2837 10.31 44.2837 11.2C44.2837 12.09 44.8637 12.59 45.5037 12.59C46.1537 12.59 46.7237 12.1 46.7237 11.21ZM53.5208 14V10.97C53.5208 10.21 53.1008 9.79 52.4508 9.79C51.8008 9.79 51.3808 10.21 51.3808 10.97V14H49.6708V8.42H51.3808V9.16C51.7208 8.69 52.3208 8.36 53.0708 8.36C54.3608 8.36 55.2208 9.24 55.2208 10.74V14H53.5208ZM57.2591 7.84C56.6491 7.84 56.2391 7.43 56.2391 6.92C56.2391 6.4 56.6491 5.99 57.2591 5.99C57.8591 5.99 58.2691 6.4 58.2691 6.92C58.2691 7.43 57.8591 7.84 57.2591 7.84ZM56.4091 8.42H58.1191V14.72C58.1191 16.17 57.3091 16.66 56.1491 16.66H55.4791V15.21H55.8891C56.2691 15.21 56.4091 15.07 56.4091 14.74V8.42ZM64.8585 8.42V14H63.1485V13.24C62.8085 13.72 62.2085 14.06 61.4585 14.06C60.1685 14.06 59.2985 13.17 59.2985 11.68V8.42H60.9985V11.45C60.9985 12.21 61.4285 12.63 62.0685 12.63C62.7285 12.63 63.1485 12.21 63.1485 11.45V8.42H64.8585ZM66.3568 12.06V9.84H65.6768V8.42H66.3568V7.06H68.0668V8.42H69.1868V9.84H68.0668V12.08C68.0668 12.41 68.2068 12.55 68.5868 12.55H69.1968V14H68.3268C67.1668 14 66.3568 13.51 66.3568 12.06ZM73.9993 14V10.97C73.9993 10.21 73.5793 9.79 72.9293 9.79C72.2793 9.79 71.8593 10.21 71.8593 10.97V14H70.1493V8.42H71.8593V9.16C72.1993 8.69 72.7993 8.36 73.5493 8.36C74.8393 8.36 75.6993 9.24 75.6993 10.74V14H73.9993ZM79.4576 11.91L80.7376 8.42H82.5876L79.0876 16.65H77.2476L78.5276 13.81L76.2576 8.42H78.1676L79.4576 11.91ZM82.8659 11.2C82.8659 9.44 83.9559 8.34 85.3259 8.34C86.1559 8.34 86.7459 8.72 87.0459 9.21V8.42H88.7559V14H87.0459V13.21C86.7359 13.7 86.1459 14.08 85.3159 14.08C83.9559 14.08 82.8659 12.96 82.8659 11.2ZM87.0459 11.21C87.0459 10.32 86.4759 9.83 85.8259 9.83C85.1859 9.83 84.6059 10.31 84.6059 11.2C84.6059 12.09 85.1859 12.59 85.8259 12.59C86.4759 12.59 87.0459 12.1 87.0459 11.21Z" fill="white"/>
<path opacity="0.987" fill-rule="evenodd" clip-rule="evenodd" d="M15.6548 4.76172C15.9971 4.76172 16.3394 4.76172 16.6816 4.76172C18.0023 4.91029 19.1519 5.43112 20.1303 6.32422C20.4688 5.98568 20.8074 5.64714 21.1459 5.30859C21.4839 5.15213 21.7368 5.2377 21.9048 5.56529C21.9048 6.77065 21.9048 7.976 21.9048 9.18136C21.8373 9.37158 21.7033 9.48692 21.5031 9.52734C20.3116 9.54928 19.1211 9.54183 17.9316 9.50502C17.648 9.36899 17.555 9.14949 17.6526 8.84654C17.6675 8.81678 17.6824 8.78701 17.6973 8.75725C18.047 8.40754 18.3967 8.05786 18.7464 7.70815C18.7613 7.69326 18.7613 7.67839 18.7464 7.6635C17.641 6.71769 16.3873 6.45355 14.9852 6.87109C14.1804 7.14783 13.5368 7.6352 13.0544 8.33315C12.8519 8.71009 12.6621 9.09328 12.4852 9.4827C12.4554 9.49759 12.4257 9.51245 12.3959 9.52734C12.1318 9.53107 11.8676 9.53478 11.6035 9.5385C11.3084 9.54138 11.0145 9.53022 10.7218 9.50502C10.6156 9.40478 10.5821 9.28201 10.6214 9.13672C11.1972 7.01324 12.5328 5.61815 14.6281 4.95145C14.9695 4.86608 15.3117 4.80284 15.6548 4.76172Z" fill="white"/>
<path opacity="0.987" fill-rule="evenodd" clip-rule="evenodd" d="M16.6819 16.19C16.3471 16.19 16.0123 16.19 15.6775 16.19C14.3575 16.0541 13.2154 15.5332 12.2511 14.6275C11.9126 14.9661 11.574 15.3046 11.2355 15.6431C10.8975 15.7996 10.6446 15.714 10.4766 15.3864C10.4766 14.1811 10.4766 12.9757 10.4766 11.7704C10.5436 11.5808 10.6775 11.4654 10.8783 11.4244C12.0698 11.4025 13.2603 11.4099 14.4498 11.4467C14.7334 11.5827 14.8264 11.8023 14.7288 12.1052C14.7139 12.135 14.699 12.1647 14.6842 12.1945C14.3307 12.5479 13.9773 12.9013 13.6239 13.2548C14.7266 14.2167 15.984 14.492 17.3962 14.0806C18.201 13.8039 18.8446 13.3165 19.327 12.6186C19.5295 12.2416 19.7193 11.8585 19.8962 11.469C19.926 11.4541 19.9557 11.4393 19.9855 11.4244C20.4989 11.4095 21.0123 11.4095 21.5257 11.4244C21.6832 11.4752 21.7465 11.5831 21.7154 11.7481C21.3162 13.3964 20.3899 14.6502 18.9364 15.5092C18.228 15.888 17.4765 16.115 16.6819 16.19Z" fill="white"/>
</svg>
