<svg width="142" height="353" viewBox="0 0 142 353" fill="none" xmlns="http://www.w3.org/2000/svg">
<path d="M176.08 351.16C272.774 351.16 351.16 272.774 351.16 176.08C351.16 79.386 272.774 1 176.08 1C79.386 1 1 79.386 1 176.08C1 272.774 79.386 351.16 176.08 351.16Z" stroke="white" stroke-width="2" stroke-linecap="round" stroke-linejoin="round"/>
<path d="M176.08 334.499C263.572 334.499 334.498 263.573 334.498 176.081C334.498 88.5893 263.572 17.6631 176.08 17.6631C88.5883 17.6631 17.6621 88.5893 17.6621 176.081C17.6621 263.573 88.5883 334.499 176.08 334.499Z" stroke="white" stroke-width="2" stroke-linecap="round" stroke-linejoin="round"/>
<path d="M176.08 317.848C254.377 317.848 317.848 254.377 317.848 176.08C317.848 97.7841 254.377 34.3125 176.08 34.3125C97.7842 34.3125 34.3125 97.7841 34.3125 176.08C34.3125 254.377 97.7842 317.848 176.08 317.848Z" stroke="white" stroke-width="2" stroke-linecap="round" stroke-linejoin="round"/>
<path d="M176.081 301.197C245.181 301.197 301.198 245.18 301.198 176.08C301.198 106.979 245.181 50.9619 176.081 50.9619C106.98 50.9619 50.9629 106.979 50.9629 176.08C50.9629 245.18 106.98 301.197 176.081 301.197Z" stroke="white" stroke-width="2" stroke-linecap="round" stroke-linejoin="round"/>
<path d="M176.243 284.505C236.148 284.421 284.642 235.791 284.559 175.886C284.475 115.981 235.845 67.4866 175.94 67.5702C116.035 67.6539 67.5405 116.284 67.6241 176.189C67.7077 236.094 116.338 284.588 176.243 284.505Z" stroke="white" stroke-width="2" stroke-linecap="round" stroke-linejoin="round"/>
</svg>
