<svg width="65" height="15" viewBox="0 0 65 15" fill="none" xmlns="http://www.w3.org/2000/svg">
<rect y="1" width="17.875" height="3.25" fill="#5046F0"/>
<rect y="5.875" width="17.875" height="3.25" fill="#5046F0"/>
<rect y="10.75" width="17.875" height="3.25" fill="#5046F0"/>
<path d="M29.41 11L28.99 9.76H26.37L25.95 11H24.16L26.7 3.98H28.68L31.22 11H29.41ZM28.55 8.44L27.68 5.87L26.82 8.44H28.55ZM35.703 6.26C35.703 5.74 35.403 5.4 34.763 5.4H33.703V7.14H34.763C35.403 7.14 35.703 6.81 35.703 6.26ZM31.993 3.98H34.863C36.583 3.98 37.443 4.97 37.443 6.19C37.443 7.07 36.963 7.9 35.883 8.22L37.503 11H35.573L34.113 8.35H33.703V11H31.993V3.98ZM38.1365 5.35V3.98H43.5665V5.35H41.7065V11H39.9965V5.35H38.1365ZM44.4247 11V3.98H46.1347V11H44.4247ZM47.0839 7.48C47.0839 5.38 48.5439 3.9 50.6139 3.9C52.2839 3.9 53.5439 4.84 53.9439 6.36H52.0639C51.7739 5.76 51.2439 5.46 50.5939 5.46C49.5439 5.46 48.8239 6.24 48.8239 7.48C48.8239 8.72 49.5439 9.5 50.5939 9.5C51.2439 9.5 51.7739 9.2 52.0639 8.6H53.9439C53.5439 10.12 52.2839 11.05 50.6139 11.05C48.5439 11.05 47.0839 9.58 47.0839 7.48ZM54.9911 3.98H56.7011V9.68H58.9411V11H54.9911V3.98ZM64.0567 3.98V5.35H61.4667V6.77H63.7567V8.09H61.4667V9.63H64.0567V11H59.7567V3.98H64.0567Z" fill="#5046F0"/>
</svg>
