<svg width="67" height="15" viewBox="0 0 67 15" fill="none" xmlns="http://www.w3.org/2000/svg">
<path opacity="0.992" fill-rule="evenodd" clip-rule="evenodd" d="M5.48438 1.8999C5.82813 1.8999 6.17187 1.8999 6.51562 1.8999C8.86652 2.19245 10.5423 3.4112 11.543 5.55615C11.7843 6.14647 11.9366 6.75585 12 7.38428C12 7.72803 12 8.07177 12 8.41553C11.7075 10.7664 10.4887 12.4422 8.34375 13.4429C7.75343 13.6842 7.14405 13.8366 6.51562 13.8999C6.17187 13.8999 5.82813 13.8999 5.48438 13.8999C3.13348 13.6074 1.45769 12.3886 0.457031 10.2437C0.215703 9.65333 0.0633591 9.04396 0 8.41553C0 8.07177 0 7.72803 0 7.38428C0.292549 5.03338 1.5113 3.35759 3.65625 2.35693C4.24657 2.11561 4.85595 1.96326 5.48438 1.8999ZM6.39844 4.22021C6.91692 4.1879 7.25677 4.41446 7.41797 4.8999C7.45924 5.43011 7.22098 5.76212 6.70312 5.896C6.2877 5.95187 5.96346 5.80736 5.73047 5.4624C5.53613 5.00636 5.64159 4.63527 6.04688 4.34912C6.16252 4.29374 6.2797 4.25077 6.39844 4.22021ZM5.55469 6.70459C6.59984 6.71488 7.00219 7.2305 6.76172 8.25146C6.57063 8.90284 6.39874 9.55909 6.24609 10.2202C6.13964 10.7856 6.37012 11.0161 6.9375 10.9116C7.07353 10.8834 7.20635 10.8522 7.33594 10.8179C7.30043 10.9443 7.26136 11.0694 7.21875 11.1929C6.8697 11.3431 6.51033 11.4603 6.14062 11.5444C5.75325 11.6077 5.39388 11.5374 5.0625 11.3335C4.73754 11.0453 4.62427 10.6899 4.72266 10.2671C4.87978 9.60732 5.05167 8.95107 5.23828 8.29834C5.31195 8.0315 5.31195 7.76589 5.23828 7.50146C5.18339 7.4252 5.10916 7.38222 5.01562 7.37256C4.74595 7.32707 4.48425 7.36222 4.23047 7.47803C4.23989 7.33879 4.27505 7.20597 4.33594 7.07959C4.72917 6.90156 5.13541 6.77657 5.55469 6.70459Z" fill="#5046F0"/>
<path d="M21.41 11L20.99 9.76H18.37L17.95 11H16.16L18.7 3.98H20.68L23.22 11H21.41ZM20.55 8.44L19.68 5.87L18.82 8.44H20.55ZM27.863 8.86C27.863 8.36 27.513 8.07 26.943 8.07H25.703V9.62H26.963C27.533 9.62 27.863 9.36 27.863 8.86ZM27.693 6.09C27.693 5.61 27.383 5.35 26.823 5.35H25.703V6.82H26.823C27.383 6.82 27.693 6.57 27.693 6.09ZM29.593 9.09C29.593 10.25 28.743 11 27.263 11H23.993V3.98H27.153C28.583 3.98 29.433 4.69 29.433 5.8C29.433 6.65 28.923 7.2 28.243 7.4C29.063 7.57 29.593 8.29 29.593 9.09ZM37.4948 7.47C37.4948 9.58 35.8948 11.07 33.9048 11.07C31.9148 11.07 30.2948 9.58 30.2948 7.47C30.2948 5.36 31.9148 3.88 33.9048 3.88C35.9048 3.88 37.4948 5.36 37.4948 7.47ZM32.0448 7.47C32.0448 8.7 32.7648 9.51 33.9048 9.51C35.0248 9.51 35.7548 8.7 35.7548 7.47C35.7548 6.22 35.0248 5.43 33.9048 5.43C32.7648 5.43 32.0448 6.22 32.0448 7.47ZM38.4162 8.17V3.98H40.1262V8.18C40.1262 9.01 40.5362 9.49 41.3462 9.49C42.1562 9.49 42.5862 9.01 42.5862 8.18V3.98H44.2962V8.17C44.2962 10.11 42.9362 11.07 41.3162 11.07C39.6862 11.07 38.4162 10.11 38.4162 8.17ZM45.117 5.35V3.98H50.547V5.35H48.687V11H46.977V5.35H45.117ZM53.4943 8.17V3.98H55.2043V8.18C55.2043 9.01 55.6143 9.49 56.4243 9.49C57.2343 9.49 57.6643 9.01 57.6643 8.18V3.98H59.3743V8.17C59.3743 10.11 58.0143 11.07 56.3943 11.07C54.7643 11.07 53.4943 10.11 53.4943 8.17ZM65.6751 8.91C65.6751 10.09 64.7551 11.07 63.1151 11.07C61.6051 11.07 60.4251 10.32 60.3751 8.9H62.1951C62.2451 9.44 62.5851 9.7 63.0651 9.7C63.5651 9.7 63.8851 9.45 63.8851 9.04C63.8851 7.74 60.3751 8.44 60.3951 5.95C60.3951 4.62 61.4851 3.88 62.9551 3.88C64.4851 3.88 65.5151 4.64 65.5851 5.98H63.7351C63.7051 5.53 63.3851 5.26 62.9251 5.25C62.5151 5.24 62.2051 5.45 62.2051 5.89C62.2051 7.11 65.6751 6.56 65.6751 8.91Z" fill="#5046F0"/>
</svg>
