<svg width="109" height="14" viewBox="0 0 109 14" fill="none" xmlns="http://www.w3.org/2000/svg">
<path d="M20.0409 10L19.6629 8.884H17.3049L16.9269 10H15.3159L17.6019 3.682H19.3839L21.6699 10H20.0409ZM19.2669 7.696L18.4839 5.383L17.7099 7.696H19.2669ZM25.8306 10V7.273C25.8306 6.589 25.4526 6.211 24.8676 6.211C24.2826 6.211 23.9046 6.589 23.9046 7.273V10H22.3656V4.978H23.9046V5.644C24.2106 5.221 24.7506 4.924 25.4256 4.924C26.5866 4.924 27.3606 5.716 27.3606 7.066V10H25.8306ZM28.1241 7.48C28.1241 5.896 29.1051 4.906 30.3381 4.906C31.0041 4.906 31.5801 5.212 31.8861 5.671V3.34H33.4251V10H31.8861V9.28C31.6071 9.739 31.0761 10.072 30.3381 10.072C29.1051 10.072 28.1241 9.064 28.1241 7.48ZM31.8861 7.489C31.8861 6.688 31.3731 6.247 30.7881 6.247C30.2121 6.247 29.6901 6.679 29.6901 7.48C29.6901 8.281 30.2121 8.731 30.7881 8.731C31.3731 8.731 31.8861 8.29 31.8861 7.489ZM36.0775 7.669V10H34.5385V4.978H36.0775V5.815C36.4285 5.284 36.9775 4.924 37.6525 4.924V6.553H37.2295C36.5005 6.553 36.0775 6.805 36.0775 7.669ZM43.3021 7.489C43.3021 9.082 42.1501 10.072 40.6741 10.072C39.1981 10.072 38.0821 9.082 38.0821 7.489C38.0821 5.896 39.2251 4.906 40.6921 4.906C42.1681 4.906 43.3021 5.896 43.3021 7.489ZM39.6481 7.489C39.6481 8.335 40.1161 8.74 40.6741 8.74C41.2231 8.74 41.7361 8.335 41.7361 7.489C41.7361 6.634 41.2321 6.238 40.6921 6.238C40.1341 6.238 39.6481 6.634 39.6481 7.489ZM44.1185 10V4.978H45.6575V10H44.1185ZM44.8925 4.456C44.3435 4.456 43.9745 4.087 43.9745 3.628C43.9745 3.16 44.3435 2.791 44.8925 2.791C45.4325 2.791 45.8015 3.16 45.8015 3.628C45.8015 4.087 45.4325 4.456 44.8925 4.456ZM46.4668 7.48C46.4668 5.896 47.4478 4.906 48.6808 4.906C49.3468 4.906 49.9228 5.212 50.2288 5.671V3.34H51.7678V10H50.2288V9.28C49.9498 9.739 49.4188 10.072 48.6808 10.072C47.4478 10.072 46.4668 9.064 46.4668 7.48ZM50.2288 7.489C50.2288 6.688 49.7158 6.247 49.1308 6.247C48.5548 6.247 48.0328 6.679 48.0328 7.48C48.0328 8.281 48.5548 8.731 49.1308 8.731C49.7158 8.731 50.2288 8.29 50.2288 7.489ZM59.0995 10L58.7215 8.884H56.3635L55.9855 10H54.3745L56.6605 3.682H58.4425L60.7285 10H59.0995ZM58.3255 7.696L57.5425 5.383L56.7685 7.696H58.3255ZM62.9632 5.689C63.2422 5.248 63.7732 4.906 64.5112 4.906C65.7442 4.906 66.7252 5.896 66.7252 7.48C66.7252 9.064 65.7442 10.072 64.5112 10.072C63.7732 10.072 63.2422 9.721 62.9632 9.298V12.394H61.4242V4.978H62.9632V5.689ZM65.1592 7.48C65.1592 6.679 64.6372 6.247 64.0522 6.247C63.4762 6.247 62.9542 6.688 62.9542 7.489C62.9542 8.29 63.4762 8.731 64.0522 8.731C64.6372 8.731 65.1592 8.281 65.1592 7.48ZM69.0716 5.689C69.3506 5.248 69.8816 4.906 70.6196 4.906C71.8526 4.906 72.8336 5.896 72.8336 7.48C72.8336 9.064 71.8526 10.072 70.6196 10.072C69.8816 10.072 69.3506 9.721 69.0716 9.298V12.394H67.5326V4.978H69.0716V5.689ZM71.2676 7.48C71.2676 6.679 70.7456 6.247 70.1606 6.247C69.5846 6.247 69.0626 6.688 69.0626 7.489C69.0626 8.29 69.5846 8.731 70.1606 8.731C70.7456 8.731 71.2676 8.281 71.2676 7.48ZM73.641 10V3.34H75.18V10H73.641ZM76.2953 10V4.978H77.8343V10H76.2953ZM77.0693 4.456C76.5203 4.456 76.1513 4.087 76.1513 3.628C76.1513 3.16 76.5203 2.791 77.0693 2.791C77.6093 2.791 77.9783 3.16 77.9783 3.628C77.9783 4.087 77.6093 4.456 77.0693 4.456ZM78.6436 7.489C78.6436 5.905 79.6876 4.906 81.1636 4.906C82.4236 4.906 83.3146 5.599 83.5756 6.796H81.9376C81.8116 6.445 81.5596 6.22 81.1366 6.22C80.5876 6.22 80.2096 6.652 80.2096 7.489C80.2096 8.326 80.5876 8.758 81.1366 8.758C81.5596 8.758 81.8026 8.551 81.9376 8.182H83.5756C83.3146 9.343 82.4236 10.072 81.1636 10.072C79.6876 10.072 78.6436 9.082 78.6436 7.489ZM84.0928 7.48C84.0928 5.896 85.0738 4.906 86.3068 4.906C87.0538 4.906 87.5848 5.248 87.8548 5.689V4.978H89.3938V10H87.8548V9.289C87.5758 9.73 87.0448 10.072 86.2978 10.072C85.0738 10.072 84.0928 9.064 84.0928 7.48ZM87.8548 7.489C87.8548 6.688 87.3418 6.247 86.7568 6.247C86.1808 6.247 85.6588 6.679 85.6588 7.48C85.6588 8.281 86.1808 8.731 86.7568 8.731C87.3418 8.731 87.8548 8.29 87.8548 7.489ZM90.7502 8.254V6.256H90.1382V4.978H90.7502V3.754H92.2892V4.978H93.2972V6.256H92.2892V8.272C92.2892 8.569 92.4152 8.695 92.7572 8.695H93.3062V10H92.5232C91.4792 10 90.7502 9.559 90.7502 8.254ZM94.1635 10V4.978H95.7025V10H94.1635ZM94.9375 4.456C94.3885 4.456 94.0195 4.087 94.0195 3.628C94.0195 3.16 94.3885 2.791 94.9375 2.791C95.4775 2.791 95.8465 3.16 95.8465 3.628C95.8465 4.087 95.4775 4.456 94.9375 4.456ZM101.732 7.489C101.732 9.082 100.58 10.072 99.1038 10.072C97.6278 10.072 96.5118 9.082 96.5118 7.489C96.5118 5.896 97.6548 4.906 99.1218 4.906C100.598 4.906 101.732 5.896 101.732 7.489ZM98.0778 7.489C98.0778 8.335 98.5458 8.74 99.1038 8.74C99.6528 8.74 100.166 8.335 100.166 7.489C100.166 6.634 99.6618 6.238 99.1218 6.238C98.5638 6.238 98.0778 6.634 98.0778 7.489ZM106.013 10V7.273C106.013 6.589 105.635 6.211 105.05 6.211C104.465 6.211 104.087 6.589 104.087 7.273V10H102.548V4.978H104.087V5.644C104.393 5.221 104.933 4.924 105.608 4.924C106.769 4.924 107.543 5.716 107.543 7.066V10H106.013Z" fill="#685FFF"/>
<path opacity="0.981" fill-rule="evenodd" clip-rule="evenodd" d="M2.95312 1C3 1 3.04688 1 3.09375 1C3.28116 1.31216 3.45694 1.63247 3.62109 1.96094C3.63424 1.97317 3.64988 1.98098 3.66797 1.98438C4.61327 1.60938 5.5586 1.60938 6.50391 1.98438C6.522 1.98098 6.53763 1.97317 6.55078 1.96094C6.71494 1.63247 6.89072 1.31216 7.07812 1C7.125 1 7.17188 1 7.21875 1C7.25972 1.0389 7.27144 1.08578 7.25391 1.14062C7.09191 1.45686 6.92393 1.76936 6.75 2.07812C7.37747 2.42046 7.85013 2.91265 8.16797 3.55469C8.33709 3.94328 8.42693 4.34952 8.4375 4.77344C6.20313 4.77344 3.96874 4.77344 1.73438 4.77344C1.75603 3.89041 2.09196 3.15212 2.74219 2.55859C2.9614 2.38662 3.18797 2.22647 3.42188 2.07812C3.24795 1.76936 3.07997 1.45686 2.91797 1.14062C2.90044 1.08578 2.91216 1.0389 2.95312 1ZM3.46875 3.01562C3.73388 3.00339 3.84715 3.12839 3.80859 3.39062C3.7207 3.52877 3.5996 3.57175 3.44531 3.51953C3.2531 3.34122 3.26091 3.17325 3.46875 3.01562ZM6.51562 3.01562C6.79978 3.00679 6.90525 3.1396 6.83203 3.41406C6.66762 3.59786 6.51138 3.59003 6.36328 3.39062C6.31786 3.22396 6.36865 3.09896 6.51562 3.01562Z" fill="#685FFF"/>
<path opacity="0.98" fill-rule="evenodd" clip-rule="evenodd" d="M0.703126 4.86719C1.12242 4.88425 1.38414 5.09519 1.48828 5.5C1.50391 6.6172 1.50391 7.73437 1.48828 8.85156C1.3975 9.23936 1.15141 9.4503 0.750001 9.48438C0.361962 9.4491 0.115869 9.24597 0.0117193 8.875C-0.00390644 7.7422 -0.00390644 6.60937 0.0117193 5.47656C0.107358 5.11851 0.337826 4.91538 0.703126 4.86719Z" fill="#685FFF"/>
<path opacity="0.98" fill-rule="evenodd" clip-rule="evenodd" d="M9.37501 4.86719C9.77506 4.88087 10.0368 5.0762 10.1602 5.45312C10.1758 6.59376 10.1758 7.73437 10.1602 8.875C10.0152 9.34415 9.69879 9.53556 9.21094 9.44922C8.92789 9.34579 8.75211 9.14657 8.6836 8.85156C8.66797 7.73437 8.66797 6.6172 8.6836 5.5C8.76584 5.12521 8.9963 4.91427 9.37501 4.86719Z" fill="#685FFF"/>
<path opacity="0.99" fill-rule="evenodd" clip-rule="evenodd" d="M6.51581 13C6.39082 13 6.2658 13 6.14081 13C5.85232 12.9185 5.66873 12.731 5.59003 12.4375C5.57831 11.836 5.5744 11.2344 5.57831 10.6328C5.25019 10.6328 4.92206 10.6328 4.59394 10.6328C4.59785 11.2344 4.59394 11.836 4.58222 12.4375C4.50352 12.731 4.31993 12.9185 4.03144 13C3.90645 13 3.78143 13 3.65644 13C3.39101 12.9103 3.21523 12.7307 3.12909 12.4609C3.09502 11.8526 3.0833 11.2432 3.09394 10.6328C2.87505 10.6367 2.65629 10.6328 2.43769 10.6211C2.11247 10.5537 1.89764 10.3623 1.79316 10.0469C1.75854 8.36784 1.74682 6.68814 1.758 5.00781C3.97676 5.00781 6.19549 5.00781 8.41425 5.00781C8.42543 6.68814 8.41371 8.36784 8.37909 10.0469C8.27393 10.363 8.0591 10.5544 7.73456 10.6211C7.51596 10.6328 7.2972 10.6367 7.07831 10.6328C7.08223 11.2266 7.07831 11.8204 7.06659 12.4141C6.9885 12.7124 6.80491 12.9078 6.51581 13Z" fill="#685FFF"/>
</svg>
