<svg width="137" height="23" viewBox="0 0 137 23" fill="none" xmlns="http://www.w3.org/2000/svg">
<path d="M137 1H0V21H137V1Z" fill="#685FFF"/>
<path d="M10.92 6.98V8.35H8.33V9.77H10.62V11.09H8.33V12.63H10.92V14H6.62V6.98H10.92ZM14.6602 6.98C16.9002 6.98 18.3402 8.4 18.3402 10.49C18.3402 12.57 16.9002 14 14.6602 14H12.0302V6.98H14.6602ZM13.7402 12.52H14.5502C15.8402 12.52 16.6002 11.78 16.6002 10.49C16.6002 9.2 15.8402 8.44 14.5502 8.44H13.7402V12.52ZM19.2658 11.17V6.98H20.9758V11.18C20.9758 12.01 21.3858 12.49 22.1958 12.49C23.0058 12.49 23.4358 12.01 23.4358 11.18V6.98H25.1458V11.17C25.1458 13.11 23.7858 14.07 22.1658 14.07C20.5358 14.07 19.2658 13.11 19.2658 11.17ZM26.0566 10.48C26.0566 8.38 27.5166 6.9 29.5866 6.9C31.2566 6.9 32.5166 7.84 32.9166 9.36H31.0366C30.7466 8.76 30.2166 8.46 29.5666 8.46C28.5166 8.46 27.7966 9.24 27.7966 10.48C27.7966 11.72 28.5166 12.5 29.5666 12.5C30.2166 12.5 30.7466 12.2 31.0366 11.6H32.9166C32.5166 13.12 31.2566 14.05 29.5866 14.05C27.5166 14.05 26.0566 12.58 26.0566 10.48ZM38.7538 14L38.3338 12.76H35.7138L35.2938 14H33.5038L36.0438 6.98H38.0238L40.5638 14H38.7538ZM37.8938 11.44L37.0238 8.87L36.1638 11.44H37.8938ZM40.9568 8.35V6.98H46.3868V8.35H44.5268V14H42.8168V8.35H40.9568ZM47.245 14V6.98H48.955V14H47.245ZM57.1042 10.47C57.1042 12.58 55.5042 14.07 53.5142 14.07C51.5242 14.07 49.9042 12.58 49.9042 10.47C49.9042 8.36 51.5242 6.88 53.5142 6.88C55.5142 6.88 57.1042 8.36 57.1042 10.47ZM51.6542 10.47C51.6542 11.7 52.3742 12.51 53.5142 12.51C54.6342 12.51 55.3642 11.7 55.3642 10.47C55.3642 9.22 54.6342 8.43 53.5142 8.43C52.3742 8.43 51.6542 9.22 51.6542 10.47ZM62.6255 6.98H64.3355V14H62.6255L59.7655 9.67V14H58.0555V6.98H59.7655L62.6255 11.33V6.98Z" fill="white"/>
<path d="M120.522 23C126.885 23 132.044 17.8513 132.044 11.5C132.044 5.14873 126.885 0 120.522 0C114.159 0 109 5.14873 109 11.5C109 17.8513 114.159 23 120.522 23Z" fill="#12B6EA"/>
<path opacity="0.989" fill-rule="evenodd" clip-rule="evenodd" d="M127.357 8.99404C127.357 9.09687 127.357 9.19967 127.357 9.3025C127.283 9.45577 127.162 9.55392 126.993 9.59693C124.726 10.4101 122.455 11.2093 120.179 11.9945C117.837 11.1812 115.5 10.354 113.168 9.51281C113.095 9.45353 113.039 9.38342 113 9.3025C113 9.19967 113 9.09687 113 8.99404C113.092 8.81205 113.241 8.70456 113.449 8.67156C115.686 7.87132 117.929 7.09083 120.179 6.33008C122.523 7.12378 124.86 7.94167 127.189 8.78373C127.263 8.84301 127.319 8.91311 127.357 8.99404Z" fill="white"/>
<path opacity="0.966" fill-rule="evenodd" clip-rule="evenodd" d="M126.32 10.6768C126.344 11.8965 126.358 13.121 126.362 14.3502C126.802 14.682 126.896 15.0932 126.643 15.5841C126.577 15.6922 126.488 15.7764 126.376 15.8364C126.353 16.5747 126.339 17.3131 126.334 18.0517C126.184 18.3293 125.964 18.3994 125.675 18.262C125.602 18.2077 125.551 18.1376 125.521 18.0517C125.485 17.3144 125.466 16.576 125.465 15.8364C125.066 15.5173 124.973 15.1247 125.185 14.6587C125.259 14.5517 125.348 14.4583 125.451 14.3783C125.47 13.2473 125.488 12.1162 125.507 10.9852C125.783 10.8871 126.054 10.7843 126.32 10.6768Z" fill="white"/>
<path opacity="0.983" fill-rule="evenodd" clip-rule="evenodd" d="M115.943 11.3774C117.262 11.8372 118.579 12.2998 119.897 12.7655C120.084 12.8216 120.271 12.8216 120.458 12.7655C121.768 12.3056 123.076 11.8429 124.384 11.3774C124.416 12.0502 124.421 12.7232 124.398 13.3964C124.286 13.6669 124.104 13.8772 123.851 14.0274C122.994 14.4497 122.087 14.6927 121.131 14.7565C119.7 14.8966 118.307 14.7283 116.953 14.2517C116.611 14.1162 116.317 13.9153 116.069 13.6488C116.024 13.568 115.987 13.4839 115.957 13.3964C115.943 12.7235 115.938 12.0505 115.943 11.3774Z" fill="white"/>
</svg>
