<svg width="7" height="151" viewBox="0 0 7 151" fill="none" xmlns="http://www.w3.org/2000/svg">
<path d="M4 61.8453C4 61.9291 3.77575 62 3.49696 62C3.21817 62 3 61.9291 3 61.8453V0.154647C3 0.0676547 3.22423 0 3.49696 0C3.77575 0 4 0.0708766 4 0.154647V61.8453Z" fill="#00A9DF"/>
<path d="M4 150.775C4 150.897 3.77575 151 3.49696 151C3.21817 151 3 150.897 3 150.775V61.2245C3 61.0982 3.22423 61 3.49696 61C3.77575 61 4 61.1029 4 61.2245V150.775Z" fill="#00A9DF"/>
<path d="M3.49999 33C5.43299 33 7 31.433 7 29.5C7 27.567 5.43299 26 3.49999 26C1.567 26 0 27.567 0 29.5C0 31.433 1.567 33 3.49999 33Z" fill="#C1BDFF"/>
<path d="M3.50054 31.7442C4.74024 31.7442 5.74522 30.7393 5.74522 29.4996C5.74522 28.2599 4.74024 27.2549 3.50054 27.2549C2.26084 27.2549 1.25586 28.2599 1.25586 29.4996C1.25586 30.7393 2.26084 31.7442 3.50054 31.7442Z" fill="#685FFF"/>
<path d="M3.49999 77C5.43299 77 7 75.433 7 73.5C7 71.567 5.43299 70 3.49999 70C1.567 70 0 71.567 0 73.5C0 75.433 1.567 77 3.49999 77Z" fill="#C1BDFF"/>
<path d="M3.50054 75.7442C4.74024 75.7442 5.74522 74.7393 5.74522 73.4996C5.74522 72.2599 4.74024 71.2549 3.50054 71.2549C2.26084 71.2549 1.25586 72.2599 1.25586 73.4996C1.25586 74.7393 2.26084 75.7442 3.50054 75.7442Z" fill="#685FFF"/>
<path d="M3.49999 131C5.43299 131 7 129.433 7 127.5C7 125.567 5.43299 124 3.49999 124C1.567 124 0 125.567 0 127.5C0 129.433 1.567 131 3.49999 131Z" fill="#C1BDFF"/>
<path d="M3.50054 129.744C4.74024 129.744 5.74522 128.739 5.74522 127.5C5.74522 126.26 4.74024 125.255 3.50054 125.255C2.26084 125.255 1.25586 126.26 1.25586 127.5C1.25586 128.739 2.26084 129.744 3.50054 129.744Z" fill="#685FFF"/>
</svg>
