<svg width="131" height="92" viewBox="0 0 131 92" fill="none" xmlns="http://www.w3.org/2000/svg">
<path d="M118.426 5.89618H119.374C119.434 6.20218 119.608 6.37018 119.926 6.37018C120.358 6.37018 120.508 6.00418 120.508 5.17018C120.334 5.41618 120.01 5.56018 119.638 5.56018C118.888 5.56018 118.312 5.09218 118.312 4.16218C118.312 3.27418 118.888 2.69818 119.818 2.69818C121.066 2.69818 121.414 3.54418 121.414 4.87618C121.414 6.37018 121.066 7.19818 119.89 7.19818C118.936 7.19818 118.474 6.56818 118.426 5.89618ZM119.872 4.75018C120.208 4.75018 120.424 4.53418 120.424 4.18018C120.424 3.79018 120.196 3.58018 119.848 3.58018C119.494 3.58018 119.278 3.80818 119.278 4.17418C119.278 4.50418 119.47 4.75018 119.872 4.75018ZM121.961 4.93018C121.961 3.64618 122.399 2.71018 123.647 2.71018C124.895 2.71018 125.333 3.64618 125.333 4.93018C125.333 6.22618 124.895 7.16218 123.647 7.16218C122.399 7.16218 121.961 6.22618 121.961 4.93018ZM124.325 4.93018C124.325 4.25818 124.253 3.67018 123.647 3.67018C123.041 3.67018 122.969 4.25818 122.969 4.93018C122.969 5.62618 123.041 6.20218 123.647 6.20218C124.253 6.20218 124.325 5.62618 124.325 4.93018ZM125.791 3.90418C125.791 3.23818 126.223 2.89018 126.793 2.89018C127.363 2.89018 127.789 3.23818 127.789 3.90418C127.789 4.57018 127.363 4.91818 126.793 4.91818C126.223 4.91818 125.791 4.57018 125.791 3.90418ZM126.787 3.49018C126.607 3.49018 126.499 3.61618 126.499 3.90418C126.499 4.18618 126.607 4.31218 126.787 4.31218C126.967 4.31218 127.081 4.18618 127.081 3.90418C127.081 3.61618 126.967 3.49018 126.787 3.49018ZM126.565 7.18018L128.875 2.95618H129.865L127.555 7.18018H126.565ZM128.647 6.23218C128.647 5.56018 129.073 5.21818 129.643 5.21818C130.213 5.21818 130.639 5.56018 130.639 6.23218C130.639 6.89818 130.213 7.24618 129.643 7.24618C129.073 7.24618 128.647 6.89818 128.647 6.23218ZM129.637 5.81818C129.457 5.81818 129.349 5.95018 129.349 6.23218C129.349 6.51418 129.457 6.64018 129.637 6.64018C129.817 6.64018 129.931 6.51418 129.931 6.23218C129.931 5.95018 129.817 5.81818 129.637 5.81818Z" fill="black"/>
<path d="M53 3.18018H111.155C112.256 3.18018 113.155 4.07873 113.155 5.18018C113.155 6.28162 112.256 7.18018 111.155 7.18018H53V3.18018Z" fill="#685FFF"/>
<path d="M45 3.18018H101.003V7.18018H45C43.8986 7.18018 43 6.28162 43 5.18018C43 4.07873 43.8986 3.18018 45 3.18018Z" fill="url(#paint0_linear_489_9466)"/>
<path d="M103.5 9.18018C105.985 9.18018 108 7.16548 108 4.6802C108 2.19492 105.985 0.180176 103.5 0.180176C101.015 0.180176 99 2.19492 99 4.6802C99 7.16548 101.015 9.18018 103.5 9.18018Z" fill="url(#paint1_linear_489_9466)"/>
<path d="M0.462891 2.87061H1.28613V5.65967C1.28613 5.8999 1.30664 6.06982 1.34766 6.16943C1.39062 6.26904 1.45996 6.34912 1.55566 6.40967C1.65332 6.46826 1.77051 6.49756 1.90723 6.49756C2.05176 6.49756 2.17578 6.46436 2.2793 6.39795C2.38477 6.33154 2.45703 6.24756 2.49609 6.146C2.53711 6.04248 2.55762 5.84619 2.55762 5.55713V2.87061H3.38086V5.43994C3.38086 5.87354 3.35645 6.17432 3.30762 6.34229C3.25879 6.51025 3.16504 6.67236 3.02637 6.82861C2.88965 6.98486 2.73145 7.10107 2.55176 7.17725C2.37207 7.25146 2.16309 7.28857 1.9248 7.28857C1.6123 7.28857 1.33984 7.21729 1.10742 7.07471C0.876953 6.93018 0.711914 6.75049 0.612305 6.53564C0.512695 6.31885 0.462891 5.95361 0.462891 5.43994V2.87061ZM4.27734 2.87061H5.0918V7.18018H4.27734V2.87061ZM5.6543 7.94775L7.59082 2.74756H8.15918L6.21973 7.94775H5.6543ZM8.74805 2.87061H9.57129V5.65967C9.57129 5.8999 9.5918 6.06982 9.63281 6.16943C9.67578 6.26904 9.74512 6.34912 9.84082 6.40967C9.93848 6.46826 10.0557 6.49756 10.1924 6.49756C10.3369 6.49756 10.4609 6.46436 10.5645 6.39795C10.6699 6.33154 10.7422 6.24756 10.7812 6.146C10.8223 6.04248 10.8428 5.84619 10.8428 5.55713V2.87061H11.666V5.43994C11.666 5.87354 11.6416 6.17432 11.5928 6.34229C11.5439 6.51025 11.4502 6.67236 11.3115 6.82861C11.1748 6.98486 11.0166 7.10107 10.8369 7.17725C10.6572 7.25146 10.4482 7.28857 10.21 7.28857C9.89746 7.28857 9.625 7.21729 9.39258 7.07471C9.16211 6.93018 8.99707 6.75049 8.89746 6.53564C8.79785 6.31885 8.74805 5.95361 8.74805 5.43994V2.87061ZM12.3398 2.87061H13.2627L14.165 4.25049L15.0762 2.87061H15.999L14.6279 4.95654L16.084 7.18018H15.1611L14.165 5.66553L13.1777 7.18018H12.249L13.7051 4.95654L12.3398 2.87061ZM18.3896 2.87061H19.3623C19.9893 2.87061 20.4551 2.94873 20.7598 3.10498C21.0645 3.25928 21.3154 3.51123 21.5127 3.86084C21.71 4.21045 21.8086 4.61865 21.8086 5.08545C21.8086 5.41748 21.7529 5.72314 21.6416 6.00244C21.5322 6.27979 21.3799 6.51025 21.1846 6.69385C20.9912 6.87744 20.7812 7.00439 20.5547 7.07471C20.3281 7.14502 19.9355 7.18018 19.377 7.18018H18.3896V2.87061ZM19.207 3.66162V6.37744H19.5879C19.9629 6.37744 20.2344 6.33447 20.4023 6.24854C20.5723 6.1626 20.7109 6.01807 20.8184 5.81494C20.9258 5.61182 20.9795 5.36182 20.9795 5.06494C20.9795 4.60791 20.8516 4.25342 20.5957 4.00146C20.3652 3.7749 19.9951 3.66162 19.4854 3.66162H19.207ZM25.6934 5.81787H23.124C23.1611 6.04443 23.2598 6.2251 23.4199 6.35986C23.582 6.49268 23.7881 6.55908 24.0381 6.55908C24.3369 6.55908 24.5938 6.45459 24.8086 6.24561L25.4824 6.56201C25.3145 6.80029 25.1133 6.97705 24.8789 7.09229C24.6445 7.20557 24.3662 7.26221 24.0439 7.26221C23.5439 7.26221 23.1367 7.10498 22.8223 6.79053C22.5078 6.47412 22.3506 6.07861 22.3506 5.604C22.3506 5.11768 22.5068 4.71436 22.8193 4.39404C23.1338 4.07178 23.5273 3.91064 24 3.91064C24.502 3.91064 24.9102 4.07178 25.2246 4.39404C25.5391 4.71436 25.6963 5.13818 25.6963 5.66553L25.6934 5.81787ZM24.8906 5.18799C24.8379 5.01025 24.7334 4.86572 24.5771 4.75439C24.4229 4.64307 24.2432 4.5874 24.0381 4.5874C23.8154 4.5874 23.6201 4.6499 23.4521 4.7749C23.3467 4.85303 23.249 4.99072 23.1592 5.18799H24.8906ZM28.2949 4.43799L27.7998 4.93311C27.5986 4.73389 27.416 4.63428 27.252 4.63428C27.1621 4.63428 27.0918 4.65381 27.041 4.69287C26.9902 4.72998 26.9648 4.77686 26.9648 4.8335C26.9648 4.87646 26.9805 4.9165 27.0117 4.95361C27.0449 4.98877 27.125 5.0376 27.252 5.1001L27.5449 5.24658C27.8535 5.39893 28.0654 5.5542 28.1807 5.7124C28.2959 5.87061 28.3535 6.05615 28.3535 6.26904C28.3535 6.55225 28.249 6.78857 28.04 6.97803C27.833 7.16748 27.5547 7.26221 27.2051 7.26221C26.7402 7.26221 26.3691 7.08057 26.0918 6.71729L26.584 6.18115C26.6777 6.29053 26.7871 6.37939 26.9121 6.44775C27.0391 6.51416 27.1514 6.54736 27.249 6.54736C27.3545 6.54736 27.4395 6.52197 27.5039 6.47119C27.5684 6.42041 27.6006 6.36182 27.6006 6.29541C27.6006 6.17236 27.4844 6.05225 27.252 5.93506L26.9824 5.80029C26.4668 5.54053 26.209 5.21533 26.209 4.82471C26.209 4.57275 26.3057 4.35791 26.499 4.18018C26.6943 4.00049 26.9434 3.91064 27.2461 3.91064C27.4531 3.91064 27.6475 3.95654 27.8291 4.04834C28.0127 4.13818 28.168 4.26807 28.2949 4.43799ZM29.2998 2.68018C29.4404 2.68018 29.5605 2.73096 29.6602 2.83252C29.7617 2.93408 29.8125 3.05713 29.8125 3.20166C29.8125 3.34424 29.7627 3.46631 29.6631 3.56787C29.5635 3.66748 29.4443 3.71729 29.3057 3.71729C29.1631 3.71729 29.041 3.6665 28.9395 3.56494C28.8398 3.46143 28.79 3.33643 28.79 3.18994C28.79 3.04932 28.8398 2.9292 28.9395 2.82959C29.0391 2.72998 29.1592 2.68018 29.2998 2.68018ZM28.8984 3.99268H29.7012V7.18018H28.8984V3.99268ZM32.7832 3.99268H33.5801V6.72314C33.5801 7.26221 33.4717 7.65869 33.2549 7.9126C32.9639 8.25635 32.5254 8.42822 31.9395 8.42822C31.627 8.42822 31.3643 8.38916 31.1514 8.31104C30.9385 8.23291 30.7588 8.11768 30.6123 7.96533C30.4658 7.81494 30.3574 7.63135 30.2871 7.41455H31.1689C31.2471 7.50439 31.3477 7.57178 31.4707 7.6167C31.5938 7.66357 31.7393 7.68701 31.9072 7.68701C32.1221 7.68701 32.2949 7.65381 32.4258 7.5874C32.5566 7.521 32.6484 7.43506 32.7012 7.32959C32.7559 7.22412 32.7832 7.04248 32.7832 6.78467C32.6426 6.92529 32.4951 7.02686 32.3408 7.08936C32.1865 7.1499 32.0117 7.18018 31.8164 7.18018C31.3887 7.18018 31.0273 7.02588 30.7324 6.71729C30.4375 6.40869 30.29 6.01807 30.29 5.54541C30.29 5.03955 30.4463 4.6333 30.7588 4.32666C31.042 4.04932 31.3799 3.91064 31.7725 3.91064C31.9561 3.91064 32.1289 3.94482 32.291 4.01318C32.4551 4.07959 32.6191 4.18994 32.7832 4.34424V3.99268ZM31.9541 4.65771C31.7021 4.65771 31.4941 4.74268 31.3301 4.9126C31.166 5.08057 31.084 5.29248 31.084 5.54834C31.084 5.81396 31.168 6.03174 31.3359 6.20166C31.5039 6.37158 31.7148 6.45654 31.9688 6.45654C32.2168 6.45654 32.4209 6.37354 32.5811 6.20752C32.7432 6.0415 32.8242 5.82373 32.8242 5.5542C32.8242 5.28857 32.7432 5.07275 32.5811 4.90674C32.4189 4.74072 32.21 4.65771 31.9541 4.65771ZM34.3887 3.99268H35.1855V4.31787C35.3672 4.16553 35.5312 4.06006 35.6777 4.00146C35.8262 3.94092 35.9775 3.91064 36.1318 3.91064C36.4482 3.91064 36.7168 4.021 36.9375 4.2417C37.123 4.4292 37.2158 4.70654 37.2158 5.07373V7.18018H36.4248V5.78271C36.4248 5.40186 36.4072 5.14893 36.3721 5.02393C36.3389 4.89893 36.2793 4.8042 36.1934 4.73975C36.1094 4.67334 36.0049 4.64014 35.8799 4.64014C35.7178 4.64014 35.5781 4.69482 35.4609 4.8042C35.3457 4.91162 35.2656 5.06104 35.2207 5.25244C35.1973 5.35205 35.1855 5.56787 35.1855 5.8999V7.18018H34.3887V3.99268Z" fill="black"/>
<path d="M117.99 20.8282C117.654 20.6482 117.426 20.3482 117.426 19.8862C117.426 19.2622 117.912 18.7102 118.944 18.7102C119.976 18.7102 120.456 19.2622 120.456 19.8862C120.456 20.3362 120.222 20.6542 119.892 20.8282C120.318 21.0322 120.564 21.3982 120.564 21.8962C120.564 22.7722 119.838 23.2642 118.944 23.2642C118.05 23.2642 117.324 22.7722 117.324 21.8962C117.324 21.3982 117.57 21.0262 117.99 20.8282ZM118.944 20.5522C119.238 20.5522 119.46 20.3602 119.46 20.0422C119.46 19.7122 119.25 19.5262 118.944 19.5262C118.638 19.5262 118.428 19.7122 118.428 20.0482C118.428 20.3662 118.65 20.5522 118.944 20.5522ZM118.944 21.2722C118.578 21.2722 118.314 21.4762 118.314 21.8482C118.314 22.1782 118.548 22.4242 118.944 22.4242C119.334 22.4242 119.562 22.1722 119.562 21.8482C119.562 21.4882 119.31 21.2722 118.944 21.2722ZM121.443 18.7942H124.245V19.6942H122.373V20.5222C122.529 20.3482 122.829 20.2222 123.177 20.2222C124.131 20.2222 124.497 20.9482 124.497 21.6562C124.497 22.5802 123.957 23.1802 122.985 23.1802C122.001 23.1802 121.431 22.6342 121.395 21.8782H122.397C122.439 22.1062 122.613 22.3102 122.949 22.3102C123.339 22.3102 123.507 22.0282 123.507 21.6502C123.507 21.2542 123.309 21.0442 122.943 21.0442C122.655 21.0442 122.487 21.2002 122.433 21.4042H121.443V18.7942ZM124.979 19.9042C124.979 19.2382 125.411 18.8902 125.981 18.8902C126.551 18.8902 126.977 19.2382 126.977 19.9042C126.977 20.5702 126.551 20.9182 125.981 20.9182C125.411 20.9182 124.979 20.5702 124.979 19.9042ZM125.975 19.4902C125.795 19.4902 125.687 19.6162 125.687 19.9042C125.687 20.1862 125.795 20.3122 125.975 20.3122C126.155 20.3122 126.269 20.1862 126.269 19.9042C126.269 19.6162 126.155 19.4902 125.975 19.4902ZM125.753 23.1802L128.063 18.9562H129.053L126.743 23.1802H125.753ZM127.835 22.2322C127.835 21.5602 128.261 21.2182 128.831 21.2182C129.401 21.2182 129.827 21.5602 129.827 22.2322C129.827 22.8982 129.401 23.2462 128.831 23.2462C128.261 23.2462 127.835 22.8982 127.835 22.2322ZM128.825 21.8182C128.645 21.8182 128.537 21.9502 128.537 22.2322C128.537 22.5142 128.645 22.6402 128.825 22.6402C129.005 22.6402 129.119 22.5142 129.119 22.2322C129.119 21.9502 129.005 21.8182 128.825 21.8182Z" fill="black"/>
<path d="M48 19.1802L110.5 19.1802C111.601 19.1802 112.5 20.0787 112.5 21.1802C112.5 22.2816 111.601 23.1802 110.5 23.1802H48V19.1802Z" fill="#685FFF"/>
<path d="M45 19.1802L98.5 19.1802V23.1802H45C43.8986 23.1802 43 22.2816 43 21.1802C43 20.0787 43.8986 19.1802 45 19.1802Z" fill="url(#paint2_linear_489_9466)"/>
<path d="M99.5 25.1802C101.985 25.1802 104 23.1655 104 20.6802C104 18.1949 101.985 16.1802 99.5 16.1802C97.0147 16.1802 95 18.1949 95 20.6802C95 23.1655 97.0147 25.1802 99.5 25.1802Z" fill="url(#paint3_linear_489_9466)"/>
<path d="M1.13965 19.9341H0.351562C0.392578 19.6157 0.506836 19.3599 0.694336 19.1665C0.956055 18.897 1.28516 18.7622 1.68164 18.7622C2.03516 18.7622 2.33105 18.8745 2.56934 19.0991C2.80957 19.3237 2.92969 19.5903 2.92969 19.8989C2.92969 20.0903 2.87695 20.2651 2.77148 20.4233C2.66797 20.5815 2.5166 20.7095 2.31738 20.8071C2.5791 20.8853 2.7832 21.022 2.92969 21.2173C3.07812 21.4106 3.15234 21.6392 3.15234 21.9028C3.15234 22.2896 3.00977 22.6177 2.72461 22.8872C2.43945 23.1548 2.07617 23.2886 1.63477 23.2886C1.2168 23.2886 0.875977 23.1626 0.612305 22.9106C0.348633 22.6567 0.204102 22.312 0.178711 21.8765H0.990234C1.02539 22.0991 1.10254 22.2651 1.22168 22.3745C1.34277 22.4819 1.49512 22.5356 1.67871 22.5356C1.87012 22.5356 2.02832 22.4741 2.15332 22.3511C2.28027 22.228 2.34375 22.0776 2.34375 21.8999C2.34375 21.7046 2.25879 21.5396 2.08887 21.4048C1.91895 21.27 1.67383 21.2007 1.35352 21.1968V20.4937C1.55078 20.478 1.69727 20.4478 1.79297 20.4028C1.89062 20.356 1.96582 20.2925 2.01855 20.2124C2.07324 20.1323 2.10059 20.0474 2.10059 19.9575C2.10059 19.8403 2.05957 19.7437 1.97754 19.6675C1.89551 19.5894 1.78809 19.5503 1.65527 19.5503C1.53809 19.5503 1.43164 19.5864 1.33594 19.6587C1.24023 19.729 1.1748 19.8208 1.13965 19.9341ZM3.8584 18.8706H4.83105C5.45801 18.8706 5.92383 18.9487 6.22852 19.105C6.5332 19.2593 6.78418 19.5112 6.98145 19.8608C7.17871 20.2104 7.27734 20.6187 7.27734 21.0854C7.27734 21.4175 7.22168 21.7231 7.11035 22.0024C7.00098 22.2798 6.84863 22.5103 6.65332 22.6938C6.45996 22.8774 6.25 23.0044 6.02344 23.0747C5.79688 23.145 5.4043 23.1802 4.8457 23.1802H3.8584V18.8706ZM4.67578 19.6616V22.3774H5.05664C5.43164 22.3774 5.70312 22.3345 5.87109 22.2485C6.04102 22.1626 6.17969 22.0181 6.28711 21.8149C6.39453 21.6118 6.44824 21.3618 6.44824 21.0649C6.44824 20.6079 6.32031 20.2534 6.06445 20.0015C5.83398 19.7749 5.46387 19.6616 4.9541 19.6616H4.67578Z" fill="black"/>
<path d="M117.99 36.8282C117.654 36.6482 117.426 36.3482 117.426 35.8862C117.426 35.2622 117.912 34.7102 118.944 34.7102C119.976 34.7102 120.456 35.2622 120.456 35.8862C120.456 36.3362 120.222 36.6542 119.892 36.8282C120.318 37.0322 120.564 37.3982 120.564 37.8962C120.564 38.7722 119.838 39.2642 118.944 39.2642C118.05 39.2642 117.324 38.7722 117.324 37.8962C117.324 37.3982 117.57 37.0262 117.99 36.8282ZM118.944 36.5522C119.238 36.5522 119.46 36.3602 119.46 36.0422C119.46 35.7122 119.25 35.5262 118.944 35.5262C118.638 35.5262 118.428 35.7122 118.428 36.0482C118.428 36.3662 118.65 36.5522 118.944 36.5522ZM118.944 37.2722C118.578 37.2722 118.314 37.4762 118.314 37.8482C118.314 38.1782 118.548 38.4242 118.944 38.4242C119.334 38.4242 119.562 38.1722 119.562 37.8482C119.562 37.4882 119.31 37.2722 118.944 37.2722ZM121.161 36.9302C121.161 35.6462 121.599 34.7102 122.847 34.7102C124.095 34.7102 124.533 35.6462 124.533 36.9302C124.533 38.2262 124.095 39.1622 122.847 39.1622C121.599 39.1622 121.161 38.2262 121.161 36.9302ZM123.525 36.9302C123.525 36.2582 123.453 35.6702 122.847 35.6702C122.241 35.6702 122.169 36.2582 122.169 36.9302C122.169 37.6262 122.241 38.2022 122.847 38.2022C123.453 38.2022 123.525 37.6262 123.525 36.9302ZM124.991 35.9042C124.991 35.2382 125.423 34.8902 125.993 34.8902C126.563 34.8902 126.989 35.2382 126.989 35.9042C126.989 36.5702 126.563 36.9182 125.993 36.9182C125.423 36.9182 124.991 36.5702 124.991 35.9042ZM125.987 35.4902C125.807 35.4902 125.699 35.6162 125.699 35.9042C125.699 36.1862 125.807 36.3122 125.987 36.3122C126.167 36.3122 126.281 36.1862 126.281 35.9042C126.281 35.6162 126.167 35.4902 125.987 35.4902ZM125.765 39.1802L128.075 34.9562H129.065L126.755 39.1802H125.765ZM127.847 38.2322C127.847 37.5602 128.273 37.2182 128.843 37.2182C129.413 37.2182 129.839 37.5602 129.839 38.2322C129.839 38.8982 129.413 39.2462 128.843 39.2462C128.273 39.2462 127.847 38.8982 127.847 38.2322ZM128.837 37.8182C128.657 37.8182 128.549 37.9502 128.549 38.2322C128.549 38.5142 128.657 38.6402 128.837 38.6402C129.017 38.6402 129.131 38.5142 129.131 38.2322C129.131 37.9502 129.017 37.8182 128.837 37.8182Z" fill="black"/>
<path d="M56 35.1802L111.155 35.1802C112.256 35.1802 113.155 36.0787 113.155 37.1802C113.155 38.2816 112.256 39.1802 111.155 39.1802H56V35.1802Z" fill="#685FFF"/>
<path d="M45 35.1802L95.5 35.1802V39.1802H45C43.8986 39.1802 43 38.2816 43 37.1802C43 36.0787 43.8986 35.1802 45 35.1802Z" fill="url(#paint4_linear_489_9466)"/>
<path d="M95.5 41.1802C97.9853 41.1802 100 39.1655 100 36.6802C100 34.1949 97.9853 32.1802 95.5 32.1802C93.0147 32.1802 91 34.1949 91 36.6802C91 39.1655 93.0147 41.1802 95.5 41.1802Z" fill="url(#paint5_linear_489_9466)"/>
<path d="M0.164062 34.8706H0.972656L1.59375 37.6216L2.36426 34.8706H3.04688L3.82617 37.6216L4.44141 34.8706H5.25L4.28027 39.1802H3.49219L2.69824 36.394L1.91895 39.1802H1.13965L0.164062 34.8706ZM9 37.8179H6.43066C6.46777 38.0444 6.56641 38.2251 6.72656 38.3599C6.88867 38.4927 7.09473 38.5591 7.34473 38.5591C7.64355 38.5591 7.90039 38.4546 8.11523 38.2456L8.78906 38.562C8.62109 38.8003 8.41992 38.9771 8.18555 39.0923C7.95117 39.2056 7.67285 39.2622 7.35059 39.2622C6.85059 39.2622 6.44336 39.105 6.12891 38.7905C5.81445 38.4741 5.65723 38.0786 5.65723 37.604C5.65723 37.1177 5.81348 36.7144 6.12598 36.394C6.44043 36.0718 6.83398 35.9106 7.30664 35.9106C7.80859 35.9106 8.2168 36.0718 8.53125 36.394C8.8457 36.7144 9.00293 37.1382 9.00293 37.6655L9 37.8179ZM8.19727 37.188C8.14453 37.0103 8.04004 36.8657 7.88379 36.7544C7.72949 36.6431 7.5498 36.5874 7.34473 36.5874C7.12207 36.5874 6.92676 36.6499 6.75879 36.7749C6.65332 36.853 6.55566 36.9907 6.46582 37.188H8.19727ZM10.4443 34.7622V36.3442C10.5889 36.1997 10.7451 36.0913 10.9131 36.019C11.0811 35.9468 11.2607 35.9106 11.4521 35.9106C11.8682 35.9106 12.2217 36.0679 12.5127 36.3823C12.8037 36.6968 12.9492 37.1001 12.9492 37.5923C12.9492 38.0669 12.7988 38.4644 12.498 38.7847C12.1973 39.103 11.8408 39.2622 11.4287 39.2622C11.2451 39.2622 11.0742 39.23 10.916 39.1655C10.7578 39.0991 10.6006 38.9917 10.4443 38.8433V39.1802H9.65039V34.7622H10.4443ZM11.2852 36.6489C11.0332 36.6489 10.8242 36.7349 10.6582 36.9067C10.4922 37.0786 10.4092 37.3032 10.4092 37.5806C10.4092 37.8638 10.4922 38.0933 10.6582 38.269C10.8242 38.4429 11.0332 38.5298 11.2852 38.5298C11.5293 38.5298 11.7344 38.4409 11.9004 38.2632C12.0684 38.0854 12.1523 37.8589 12.1523 37.5835C12.1523 37.3101 12.0703 37.0864 11.9062 36.9126C11.7422 36.7368 11.5352 36.6489 11.2852 36.6489ZM15.5625 36.438L15.0674 36.9331C14.8662 36.7339 14.6836 36.6343 14.5195 36.6343C14.4297 36.6343 14.3594 36.6538 14.3086 36.6929C14.2578 36.73 14.2324 36.7769 14.2324 36.8335C14.2324 36.8765 14.248 36.9165 14.2793 36.9536C14.3125 36.9888 14.3926 37.0376 14.5195 37.1001L14.8125 37.2466C15.1211 37.3989 15.333 37.5542 15.4482 37.7124C15.5635 37.8706 15.6211 38.0562 15.6211 38.269C15.6211 38.5522 15.5166 38.7886 15.3076 38.978C15.1006 39.1675 14.8223 39.2622 14.4727 39.2622C14.0078 39.2622 13.6367 39.0806 13.3594 38.7173L13.8516 38.1812C13.9453 38.2905 14.0547 38.3794 14.1797 38.4478C14.3066 38.5142 14.4189 38.5474 14.5166 38.5474C14.6221 38.5474 14.707 38.522 14.7715 38.4712C14.8359 38.4204 14.8682 38.3618 14.8682 38.2954C14.8682 38.1724 14.752 38.0522 14.5195 37.9351L14.25 37.8003C13.7344 37.5405 13.4766 37.2153 13.4766 36.8247C13.4766 36.5728 13.5732 36.3579 13.7666 36.1802C13.9619 36.0005 14.2109 35.9106 14.5137 35.9106C14.7207 35.9106 14.915 35.9565 15.0967 36.0483C15.2803 36.1382 15.4355 36.2681 15.5625 36.438ZM16.5674 34.6802C16.708 34.6802 16.8281 34.731 16.9277 34.8325C17.0293 34.9341 17.0801 35.0571 17.0801 35.2017C17.0801 35.3442 17.0303 35.4663 16.9307 35.5679C16.8311 35.6675 16.7119 35.7173 16.5732 35.7173C16.4307 35.7173 16.3086 35.6665 16.207 35.5649C16.1074 35.4614 16.0576 35.3364 16.0576 35.1899C16.0576 35.0493 16.1074 34.9292 16.207 34.8296C16.3066 34.73 16.4268 34.6802 16.5674 34.6802ZM16.166 35.9927H16.9688V39.1802H16.166V35.9927ZM17.792 34.8179H18.5889V35.9927H19.0635V36.6812H18.5889V39.1802H17.792V36.6812H17.3818V35.9927H17.792V34.8179ZM22.6875 37.8179H20.1182C20.1553 38.0444 20.2539 38.2251 20.4141 38.3599C20.5762 38.4927 20.7822 38.5591 21.0322 38.5591C21.3311 38.5591 21.5879 38.4546 21.8027 38.2456L22.4766 38.562C22.3086 38.8003 22.1074 38.9771 21.873 39.0923C21.6387 39.2056 21.3604 39.2622 21.0381 39.2622C20.5381 39.2622 20.1309 39.105 19.8164 38.7905C19.502 38.4741 19.3447 38.0786 19.3447 37.604C19.3447 37.1177 19.501 36.7144 19.8135 36.394C20.1279 36.0718 20.5215 35.9106 20.9941 35.9106C21.4961 35.9106 21.9043 36.0718 22.2188 36.394C22.5332 36.7144 22.6904 37.1382 22.6904 37.6655L22.6875 37.8179ZM21.8848 37.188C21.832 37.0103 21.7275 36.8657 21.5713 36.7544C21.417 36.6431 21.2373 36.5874 21.0322 36.5874C20.8096 36.5874 20.6143 36.6499 20.4463 36.7749C20.3408 36.853 20.2432 36.9907 20.1533 37.188H21.8848Z" fill="black"/>
<path d="M118.168 50.8062H121.066V51.5682L119.56 55.1802H118.51L120.034 51.6822H118.168V50.8062ZM122.201 52.8282C121.865 52.6482 121.637 52.3482 121.637 51.8862C121.637 51.2622 122.123 50.7102 123.155 50.7102C124.187 50.7102 124.667 51.2622 124.667 51.8862C124.667 52.3362 124.433 52.6542 124.103 52.8282C124.529 53.0322 124.775 53.3982 124.775 53.8962C124.775 54.7722 124.049 55.2642 123.155 55.2642C122.261 55.2642 121.535 54.7722 121.535 53.8962C121.535 53.3982 121.781 53.0262 122.201 52.8282ZM123.155 52.5522C123.449 52.5522 123.671 52.3602 123.671 52.0422C123.671 51.7122 123.461 51.5262 123.155 51.5262C122.849 51.5262 122.639 51.7122 122.639 52.0482C122.639 52.3662 122.861 52.5522 123.155 52.5522ZM123.155 53.2722C122.789 53.2722 122.525 53.4762 122.525 53.8482C122.525 54.1782 122.759 54.4242 123.155 54.4242C123.545 54.4242 123.773 54.1722 123.773 53.8482C123.773 53.4882 123.521 53.2722 123.155 53.2722ZM125.288 51.9042C125.288 51.2382 125.72 50.8902 126.29 50.8902C126.86 50.8902 127.286 51.2382 127.286 51.9042C127.286 52.5702 126.86 52.9182 126.29 52.9182C125.72 52.9182 125.288 52.5702 125.288 51.9042ZM126.284 51.4902C126.104 51.4902 125.996 51.6162 125.996 51.9042C125.996 52.1862 126.104 52.3122 126.284 52.3122C126.464 52.3122 126.578 52.1862 126.578 51.9042C126.578 51.6162 126.464 51.4902 126.284 51.4902ZM126.062 55.1802L128.372 50.9562H129.362L127.052 55.1802H126.062ZM128.144 54.2322C128.144 53.5602 128.57 53.2182 129.14 53.2182C129.71 53.2182 130.136 53.5602 130.136 54.2322C130.136 54.8982 129.71 55.2462 129.14 55.2462C128.57 55.2462 128.144 54.8982 128.144 54.2322ZM129.134 53.8182C128.954 53.8182 128.846 53.9502 128.846 54.2322C128.846 54.5142 128.954 54.6402 129.134 54.6402C129.314 54.6402 129.428 54.5142 129.428 54.2322C129.428 53.9502 129.314 53.8182 129.134 53.8182Z" fill="black"/>
<path d="M56 51.1802H110.804C111.906 51.1802 112.804 52.0787 112.804 53.1802C112.804 54.2816 111.906 55.1802 110.804 55.1802H56V51.1802Z" fill="#685FFF"/>
<path d="M45 51.1802L94.5 51.1802V55.1802H45C43.8986 55.1802 43 54.2816 43 53.1802C43 52.0787 43.8986 51.1802 45 51.1802Z" fill="url(#paint6_linear_489_9466)"/>
<path d="M93.5 57.1802C95.9853 57.1802 98 55.1655 98 52.6802C98 50.1949 95.9853 48.1802 93.5 48.1802C91.0147 48.1802 89 50.1949 89 52.6802C89 55.1655 91.0147 57.1802 93.5 57.1802Z" fill="url(#paint7_linear_489_9466)"/>
<path d="M0.908203 50.8706H1.71094L2.70703 53.8765L3.71777 50.8706H4.50879L5.23535 55.1802H4.44434L3.98145 52.4585L3.06445 55.1802H2.34082L1.43555 52.4585L0.963867 55.1802H0.164062L0.908203 50.8706ZM5.80371 51.9927H6.6123V53.5278C6.6123 53.8267 6.63281 54.0347 6.67383 54.1519C6.71484 54.2671 6.78027 54.3569 6.87012 54.4214C6.96191 54.4858 7.07422 54.5181 7.20703 54.5181C7.33984 54.5181 7.45215 54.4868 7.54395 54.4243C7.6377 54.3599 7.70703 54.2661 7.75195 54.1431C7.78516 54.0513 7.80176 53.855 7.80176 53.5542V51.9927H8.60449V53.3433C8.60449 53.8999 8.56055 54.2808 8.47266 54.4858C8.36523 54.7358 8.20703 54.9282 7.99805 55.063C7.78906 55.1958 7.52344 55.2622 7.20117 55.2622C6.85156 55.2622 6.56836 55.1841 6.35156 55.0278C6.13672 54.8716 5.98535 54.6538 5.89746 54.3745C5.83496 54.1812 5.80371 53.8296 5.80371 53.3198V51.9927ZM9.3252 50.7622H10.125V55.1802H9.3252V50.7622ZM10.9482 50.8179H11.7451V51.9927H12.2197V52.6812H11.7451V55.1802H10.9482V52.6812H10.5381V51.9927H10.9482V50.8179ZM12.9639 50.6802C13.1045 50.6802 13.2246 50.731 13.3242 50.8325C13.4258 50.9341 13.4766 51.0571 13.4766 51.2017C13.4766 51.3442 13.4268 51.4663 13.3271 51.5679C13.2275 51.6675 13.1084 51.7173 12.9697 51.7173C12.8271 51.7173 12.7051 51.6665 12.6035 51.5649C12.5039 51.4614 12.4541 51.3364 12.4541 51.1899C12.4541 51.0493 12.5039 50.9292 12.6035 50.8296C12.7031 50.73 12.8232 50.6802 12.9639 50.6802ZM12.5625 51.9927H13.3652V55.1802H12.5625V51.9927ZM14.0859 51.9927H14.8887V52.3589C15.0254 52.2085 15.1768 52.0962 15.3428 52.022C15.5107 51.9478 15.6934 51.9106 15.8906 51.9106C16.0898 51.9106 16.2695 51.9595 16.4297 52.0571C16.5898 52.1548 16.7188 52.2974 16.8164 52.4849C16.9434 52.2974 17.0986 52.1548 17.2822 52.0571C17.4678 51.9595 17.6699 51.9106 17.8887 51.9106C18.1152 51.9106 18.3145 51.9634 18.4863 52.0688C18.6582 52.1743 18.7812 52.312 18.8555 52.4819C18.9316 52.6519 18.9697 52.9282 18.9697 53.311V55.1802H18.1641V53.563C18.1641 53.2017 18.1191 52.9575 18.0293 52.8306C17.9395 52.7017 17.8047 52.6372 17.625 52.6372C17.4883 52.6372 17.3652 52.6763 17.2559 52.7544C17.1484 52.8325 17.0684 52.9409 17.0156 53.0796C16.9629 53.2163 16.9365 53.437 16.9365 53.7417V55.1802H16.1309V53.6362C16.1309 53.3511 16.1094 53.145 16.0664 53.0181C16.0254 52.8892 15.9629 52.7935 15.8789 52.731C15.7949 52.6685 15.6934 52.6372 15.5742 52.6372C15.4414 52.6372 15.3203 52.6772 15.2109 52.7573C15.1035 52.8354 15.0225 52.9458 14.9678 53.0884C14.915 53.231 14.8887 53.4556 14.8887 53.7622V55.1802H14.0859V51.9927ZM22.9277 53.8179H20.3584C20.3955 54.0444 20.4941 54.2251 20.6543 54.3599C20.8164 54.4927 21.0225 54.5591 21.2725 54.5591C21.5713 54.5591 21.8281 54.4546 22.043 54.2456L22.7168 54.562C22.5488 54.8003 22.3477 54.9771 22.1133 55.0923C21.8789 55.2056 21.6006 55.2622 21.2783 55.2622C20.7783 55.2622 20.3711 55.105 20.0566 54.7905C19.7422 54.4741 19.585 54.0786 19.585 53.604C19.585 53.1177 19.7412 52.7144 20.0537 52.394C20.3682 52.0718 20.7617 51.9106 21.2344 51.9106C21.7363 51.9106 22.1445 52.0718 22.459 52.394C22.7734 52.7144 22.9307 53.1382 22.9307 53.6655L22.9277 53.8179ZM22.125 53.188C22.0723 53.0103 21.9678 52.8657 21.8115 52.7544C21.6572 52.6431 21.4775 52.5874 21.2725 52.5874C21.0498 52.5874 20.8545 52.6499 20.6865 52.7749C20.5811 52.853 20.4834 52.9907 20.3936 53.188H22.125ZM25.9336 50.7622H26.7305V55.1802H25.9336V54.8433C25.7773 54.9917 25.6201 55.0991 25.4619 55.1655C25.3057 55.23 25.1357 55.2622 24.9521 55.2622C24.54 55.2622 24.1836 55.103 23.8828 54.7847C23.582 54.4644 23.4316 54.0669 23.4316 53.5923C23.4316 53.1001 23.5771 52.6968 23.8682 52.3823C24.1592 52.0679 24.5127 51.9106 24.9287 51.9106C25.1201 51.9106 25.2998 51.9468 25.4678 52.019C25.6357 52.0913 25.791 52.1997 25.9336 52.3442V50.7622ZM25.0928 52.6489C24.8447 52.6489 24.6387 52.7368 24.4746 52.9126C24.3105 53.0864 24.2285 53.3101 24.2285 53.5835C24.2285 53.8589 24.3115 54.0854 24.4775 54.2632C24.6455 54.4409 24.8516 54.5298 25.0957 54.5298C25.3477 54.5298 25.5566 54.4429 25.7227 54.269C25.8887 54.0933 25.9717 53.8638 25.9717 53.5806C25.9717 53.3032 25.8887 53.0786 25.7227 52.9067C25.5566 52.7349 25.3467 52.6489 25.0928 52.6489ZM27.8525 50.6802C27.9932 50.6802 28.1133 50.731 28.2129 50.8325C28.3145 50.9341 28.3652 51.0571 28.3652 51.2017C28.3652 51.3442 28.3154 51.4663 28.2158 51.5679C28.1162 51.6675 27.9971 51.7173 27.8584 51.7173C27.7158 51.7173 27.5938 51.6665 27.4922 51.5649C27.3926 51.4614 27.3428 51.3364 27.3428 51.1899C27.3428 51.0493 27.3926 50.9292 27.4922 50.8296C27.5918 50.73 27.7119 50.6802 27.8525 50.6802ZM27.4512 51.9927H28.2539V55.1802H27.4512V51.9927ZM31.3359 51.9927H32.1328V55.1802H31.3359V54.8433C31.1797 54.9917 31.0225 55.0991 30.8643 55.1655C30.708 55.23 30.5381 55.2622 30.3545 55.2622C29.9424 55.2622 29.5859 55.103 29.2852 54.7847C28.9844 54.4644 28.834 54.0669 28.834 53.5923C28.834 53.1001 28.9795 52.6968 29.2705 52.3823C29.5615 52.0679 29.915 51.9106 30.3311 51.9106C30.5225 51.9106 30.7021 51.9468 30.8701 52.019C31.0381 52.0913 31.1934 52.1997 31.3359 52.3442V51.9927ZM30.4951 52.6489C30.2471 52.6489 30.041 52.7368 29.877 52.9126C29.7129 53.0864 29.6309 53.3101 29.6309 53.5835C29.6309 53.8589 29.7139 54.0854 29.8799 54.2632C30.0479 54.4409 30.2539 54.5298 30.498 54.5298C30.75 54.5298 30.959 54.4429 31.125 54.269C31.291 54.0933 31.374 53.8638 31.374 53.5806C31.374 53.3032 31.291 53.0786 31.125 52.9067C30.959 52.7349 30.749 52.6489 30.4951 52.6489Z" fill="black"/>
<path d="M118.168 66.8062H121.066V67.5682L119.56 71.1802H118.51L120.034 67.6822H118.168V66.8062ZM121.481 68.9302C121.481 67.6462 121.919 66.7102 123.167 66.7102C124.415 66.7102 124.853 67.6462 124.853 68.9302C124.853 70.2262 124.415 71.1622 123.167 71.1622C121.919 71.1622 121.481 70.2262 121.481 68.9302ZM123.845 68.9302C123.845 68.2582 123.773 67.6702 123.167 67.6702C122.561 67.6702 122.489 68.2582 122.489 68.9302C122.489 69.6262 122.561 70.2022 123.167 70.2022C123.773 70.2022 123.845 69.6262 123.845 68.9302ZM125.311 67.9042C125.311 67.2382 125.743 66.8902 126.313 66.8902C126.883 66.8902 127.309 67.2382 127.309 67.9042C127.309 68.5702 126.883 68.9182 126.313 68.9182C125.743 68.9182 125.311 68.5702 125.311 67.9042ZM126.307 67.4902C126.127 67.4902 126.019 67.6162 126.019 67.9042C126.019 68.1862 126.127 68.3122 126.307 68.3122C126.487 68.3122 126.601 68.1862 126.601 67.9042C126.601 67.6162 126.487 67.4902 126.307 67.4902ZM126.085 71.1802L128.395 66.9562H129.385L127.075 71.1802H126.085ZM128.167 70.2322C128.167 69.5602 128.593 69.2182 129.163 69.2182C129.733 69.2182 130.159 69.5602 130.159 70.2322C130.159 70.8982 129.733 71.2462 129.163 71.2462C128.593 71.2462 128.167 70.8982 128.167 70.2322ZM129.157 69.8182C128.977 69.8182 128.869 69.9502 128.869 70.2322C128.869 70.5142 128.977 70.6402 129.157 70.6402C129.337 70.6402 129.451 70.5142 129.451 70.2322C129.451 69.9502 129.337 69.8182 129.157 69.8182Z" fill="black"/>
<path d="M51 67.1802H110.655C111.756 67.1802 112.655 68.0787 112.655 69.1802C112.655 70.2816 111.756 71.1802 110.655 71.1802H51V67.1802Z" fill="#685FFF"/>
<path d="M45 67.1802L90 67.1802V71.1802H45C43.8986 71.1802 43 70.2816 43 69.1802C43 68.0787 43.8986 67.1802 45 67.1802Z" fill="url(#paint8_linear_489_9466)"/>
<path d="M88.5 73.1802C90.9853 73.1802 93 71.1655 93 68.6802C93 66.1949 90.9853 64.1802 88.5 64.1802C86.0147 64.1802 84 66.1949 84 68.6802C84 71.1655 86.0147 73.1802 88.5 73.1802Z" fill="url(#paint9_linear_489_9466)"/>
<path d="M0.495117 66.8706H1.28027L3.12891 69.7065V66.8706H3.94922V71.1802H3.16113L1.31543 68.353V71.1802H0.495117V66.8706ZM8.03906 69.8179H5.46973C5.50684 70.0444 5.60547 70.2251 5.76562 70.3599C5.92773 70.4927 6.13379 70.5591 6.38379 70.5591C6.68262 70.5591 6.93945 70.4546 7.1543 70.2456L7.82812 70.562C7.66016 70.8003 7.45898 70.9771 7.22461 71.0923C6.99023 71.2056 6.71191 71.2622 6.38965 71.2622C5.88965 71.2622 5.48242 71.105 5.16797 70.7905C4.85352 70.4741 4.69629 70.0786 4.69629 69.604C4.69629 69.1177 4.85254 68.7144 5.16504 68.394C5.47949 68.0718 5.87305 67.9106 6.3457 67.9106C6.84766 67.9106 7.25586 68.0718 7.57031 68.394C7.88477 68.7144 8.04199 69.1382 8.04199 69.6655L8.03906 69.8179ZM7.23633 69.188C7.18359 69.0103 7.0791 68.8657 6.92285 68.7544C6.76855 68.6431 6.58887 68.5874 6.38379 68.5874C6.16113 68.5874 5.96582 68.6499 5.79785 68.7749C5.69238 68.853 5.59473 68.9907 5.50488 69.188H7.23633ZM8.78613 66.8179H9.58301V67.9927H10.0576V68.6812H9.58301V71.1802H8.78613V68.6812H8.37598V67.9927H8.78613V66.8179ZM10.1338 67.9927H10.916L11.5576 69.8062L12.249 67.9927H12.7266L13.4033 69.7856L14.0449 67.9927H14.833L13.6699 71.1802H13.1631L12.4834 69.3638L11.7832 71.1802H11.2822L10.1338 67.9927ZM16.7842 67.9106C17.085 67.9106 17.3672 67.9858 17.6309 68.1362C17.8965 68.2866 18.1035 68.4907 18.252 68.7485C18.4004 69.0063 18.4746 69.2847 18.4746 69.5835C18.4746 69.8843 18.3994 70.1655 18.249 70.4272C18.1006 70.689 17.8975 70.894 17.6396 71.0425C17.3818 71.189 17.0977 71.2622 16.7871 71.2622C16.3301 71.2622 15.9395 71.1001 15.6152 70.7759C15.293 70.4497 15.1318 70.0542 15.1318 69.5894C15.1318 69.0913 15.3145 68.6763 15.6797 68.3442C16 68.0552 16.3682 67.9106 16.7842 67.9106ZM16.7959 68.6636C16.5479 68.6636 16.3408 68.7505 16.1748 68.9243C16.0107 69.0962 15.9287 69.3169 15.9287 69.5864C15.9287 69.8638 16.0098 70.0884 16.1719 70.2603C16.3359 70.4321 16.543 70.5181 16.793 70.5181C17.043 70.5181 17.251 70.4312 17.417 70.2573C17.583 70.0835 17.666 69.8599 17.666 69.5864C17.666 69.313 17.584 69.0913 17.4199 68.9214C17.2578 68.7495 17.0498 68.6636 16.7959 68.6636ZM18.9434 67.9927H19.6289V68.394C19.7031 68.2358 19.8018 68.1157 19.9248 68.0337C20.0479 67.9517 20.1826 67.9106 20.3291 67.9106C20.4326 67.9106 20.541 67.938 20.6543 67.9927L20.4053 68.6812C20.3115 68.6343 20.2344 68.6108 20.1738 68.6108C20.0508 68.6108 19.9463 68.687 19.8604 68.8394C19.7764 68.9917 19.7344 69.2905 19.7344 69.7358L19.7373 69.8911V71.1802H18.9434V67.9927ZM21.0586 66.7622H21.8584V69.3081L23.0361 67.9927H24.0381L22.667 69.522L24.2051 71.1802H23.2119L21.8584 69.7124V71.1802H21.0586V66.7622ZM24.8467 66.6802C24.9873 66.6802 25.1074 66.731 25.207 66.8325C25.3086 66.9341 25.3594 67.0571 25.3594 67.2017C25.3594 67.3442 25.3096 67.4663 25.21 67.5679C25.1104 67.6675 24.9912 67.7173 24.8525 67.7173C24.71 67.7173 24.5879 67.6665 24.4863 67.5649C24.3867 67.4614 24.3369 67.3364 24.3369 67.1899C24.3369 67.0493 24.3867 66.9292 24.4863 66.8296C24.5859 66.73 24.7061 66.6802 24.8467 66.6802ZM24.4453 67.9927H25.248V71.1802H24.4453V67.9927ZM25.9746 67.9927H26.7715V68.3179C26.9531 68.1655 27.1172 68.0601 27.2637 68.0015C27.4121 67.9409 27.5635 67.9106 27.7178 67.9106C28.0342 67.9106 28.3027 68.021 28.5234 68.2417C28.709 68.4292 28.8018 68.7065 28.8018 69.0737V71.1802H28.0107V69.7827C28.0107 69.4019 27.9932 69.1489 27.958 69.0239C27.9248 68.8989 27.8652 68.8042 27.7793 68.7397C27.6953 68.6733 27.5908 68.6401 27.4658 68.6401C27.3037 68.6401 27.1641 68.6948 27.0469 68.8042C26.9316 68.9116 26.8516 69.061 26.8066 69.2524C26.7832 69.3521 26.7715 69.5679 26.7715 69.8999V71.1802H25.9746V67.9927ZM31.9336 67.9927H32.7305V70.7231C32.7305 71.2622 32.6221 71.6587 32.4053 71.9126C32.1143 72.2563 31.6758 72.4282 31.0898 72.4282C30.7773 72.4282 30.5146 72.3892 30.3018 72.311C30.0889 72.2329 29.9092 72.1177 29.7627 71.9653C29.6162 71.8149 29.5078 71.6313 29.4375 71.4146H30.3193C30.3975 71.5044 30.498 71.5718 30.6211 71.6167C30.7441 71.6636 30.8896 71.687 31.0576 71.687C31.2725 71.687 31.4453 71.6538 31.5762 71.5874C31.707 71.521 31.7988 71.4351 31.8516 71.3296C31.9062 71.2241 31.9336 71.0425 31.9336 70.7847C31.793 70.9253 31.6455 71.0269 31.4912 71.0894C31.3369 71.1499 31.1621 71.1802 30.9668 71.1802C30.5391 71.1802 30.1777 71.0259 29.8828 70.7173C29.5879 70.4087 29.4404 70.0181 29.4404 69.5454C29.4404 69.0396 29.5967 68.6333 29.9092 68.3267C30.1924 68.0493 30.5303 67.9106 30.9229 67.9106C31.1064 67.9106 31.2793 67.9448 31.4414 68.0132C31.6055 68.0796 31.7695 68.1899 31.9336 68.3442V67.9927ZM31.1045 68.6577C30.8525 68.6577 30.6445 68.7427 30.4805 68.9126C30.3164 69.0806 30.2344 69.2925 30.2344 69.5483C30.2344 69.814 30.3184 70.0317 30.4863 70.2017C30.6543 70.3716 30.8652 70.4565 31.1191 70.4565C31.3672 70.4565 31.5713 70.3735 31.7314 70.2075C31.8936 70.0415 31.9746 69.8237 31.9746 69.5542C31.9746 69.2886 31.8936 69.0728 31.7314 68.9067C31.5693 68.7407 31.3604 68.6577 31.1045 68.6577Z" fill="black"/>
<path d="M121.39 83.9822H120.436C120.376 83.6942 120.232 83.5382 119.926 83.5382C119.464 83.5382 119.284 83.9282 119.278 84.7742C119.452 84.4922 119.806 84.3242 120.208 84.3242C120.97 84.3242 121.51 84.8222 121.51 85.7342C121.51 86.6042 120.958 87.2042 120.016 87.2042C118.696 87.2042 118.372 86.2682 118.372 84.9602C118.372 83.4602 118.84 82.7102 119.974 82.7102C120.916 82.7102 121.336 83.3342 121.39 83.9822ZM119.962 85.1342C119.638 85.1342 119.362 85.3262 119.362 85.7222C119.362 86.1062 119.584 86.3342 119.974 86.3342C120.322 86.3342 120.544 86.1122 120.544 85.7402C120.544 85.3742 120.346 85.1342 119.962 85.1342ZM122.372 82.7942H125.174V83.6942H123.302V84.5222C123.458 84.3482 123.758 84.2222 124.106 84.2222C125.06 84.2222 125.426 84.9482 125.426 85.6562C125.426 86.5802 124.886 87.1802 123.914 87.1802C122.93 87.1802 122.36 86.6342 122.324 85.8782H123.326C123.368 86.1062 123.542 86.3102 123.878 86.3102C124.268 86.3102 124.436 86.0282 124.436 85.6502C124.436 85.2542 124.238 85.0442 123.872 85.0442C123.584 85.0442 123.416 85.2002 123.362 85.4042H122.372V82.7942ZM125.909 83.9042C125.909 83.2382 126.341 82.8902 126.911 82.8902C127.481 82.8902 127.907 83.2382 127.907 83.9042C127.907 84.5702 127.481 84.9182 126.911 84.9182C126.341 84.9182 125.909 84.5702 125.909 83.9042ZM126.905 83.4902C126.725 83.4902 126.617 83.6162 126.617 83.9042C126.617 84.1862 126.725 84.3122 126.905 84.3122C127.085 84.3122 127.199 84.1862 127.199 83.9042C127.199 83.6162 127.085 83.4902 126.905 83.4902ZM126.683 87.1802L128.993 82.9562H129.983L127.673 87.1802H126.683ZM128.765 86.2322C128.765 85.5602 129.191 85.2182 129.761 85.2182C130.331 85.2182 130.757 85.5602 130.757 86.2322C130.757 86.8982 130.331 87.2462 129.761 87.2462C129.191 87.2462 128.765 86.8982 128.765 86.2322ZM129.755 85.8182C129.575 85.8182 129.467 85.9502 129.467 86.2322C129.467 86.5142 129.575 86.6402 129.755 86.6402C129.935 86.6402 130.049 86.5142 130.049 86.2322C130.049 85.9502 129.935 85.8182 129.755 85.8182Z" fill="black"/>
<path d="M62 83.1802H111.155C112.256 83.1802 113.155 84.0787 113.155 85.1802C113.155 86.2816 112.256 87.1802 111.155 87.1802H62V83.1802Z" fill="#685FFF"/>
<path d="M45 83.1802L86 83.1802V87.1802H45C43.8986 87.1802 43 86.2816 43 85.1802C43 84.0787 43.8986 83.1802 45 83.1802Z" fill="url(#paint10_linear_489_9466)"/>
<path d="M84.5 89.1802C86.9853 89.1802 89 87.1655 89 84.6802C89 82.1949 86.9853 80.1802 84.5 80.1802C82.0147 80.1802 80 82.1949 80 84.6802C80 87.1655 82.0147 89.1802 84.5 89.1802Z" fill="url(#paint11_linear_489_9466)"/>
<path d="M0.495117 78.8706H1.46777C2.09473 78.8706 2.56055 78.9487 2.86523 79.105C3.16992 79.2593 3.4209 79.5112 3.61816 79.8608C3.81543 80.2104 3.91406 80.6187 3.91406 81.0854C3.91406 81.4175 3.8584 81.7231 3.74707 82.0024C3.6377 82.2798 3.48535 82.5103 3.29004 82.6938C3.09668 82.8774 2.88672 83.0044 2.66016 83.0747C2.43359 83.145 2.04102 83.1802 1.48242 83.1802H0.495117V78.8706ZM1.3125 79.6616V82.3774H1.69336C2.06836 82.3774 2.33984 82.3345 2.50781 82.2485C2.67773 82.1626 2.81641 82.0181 2.92383 81.8149C3.03125 81.6118 3.08496 81.3618 3.08496 81.0649C3.08496 80.6079 2.95703 80.2534 2.70117 80.0015C2.4707 79.7749 2.10059 79.6616 1.59082 79.6616H1.3125ZM4.91895 78.6802C5.05957 78.6802 5.17969 78.731 5.2793 78.8325C5.38086 78.9341 5.43164 79.0571 5.43164 79.2017C5.43164 79.3442 5.38184 79.4663 5.28223 79.5679C5.18262 79.6675 5.06348 79.7173 4.9248 79.7173C4.78223 79.7173 4.66016 79.6665 4.55859 79.5649C4.45898 79.4614 4.40918 79.3364 4.40918 79.1899C4.40918 79.0493 4.45898 78.9292 4.55859 78.8296C4.6582 78.73 4.77832 78.6802 4.91895 78.6802ZM4.51758 79.9927H5.32031V83.1802H4.51758V79.9927ZM8.40234 79.9927H9.19922V82.7231C9.19922 83.2622 9.09082 83.6587 8.87402 83.9126C8.58301 84.2563 8.14453 84.4282 7.55859 84.4282C7.24609 84.4282 6.9834 84.3892 6.77051 84.311C6.55762 84.2329 6.37793 84.1177 6.23145 83.9653C6.08496 83.8149 5.97656 83.6313 5.90625 83.4146H6.78809C6.86621 83.5044 6.9668 83.5718 7.08984 83.6167C7.21289 83.6636 7.3584 83.687 7.52637 83.687C7.74121 83.687 7.91406 83.6538 8.04492 83.5874C8.17578 83.521 8.26758 83.4351 8.32031 83.3296C8.375 83.2241 8.40234 83.0425 8.40234 82.7847C8.26172 82.9253 8.11426 83.0269 7.95996 83.0894C7.80566 83.1499 7.63086 83.1802 7.43555 83.1802C7.00781 83.1802 6.64648 83.0259 6.35156 82.7173C6.05664 82.4087 5.90918 82.0181 5.90918 81.5454C5.90918 81.0396 6.06543 80.6333 6.37793 80.3267C6.66113 80.0493 6.99902 79.9106 7.3916 79.9106C7.5752 79.9106 7.74805 79.9448 7.91016 80.0132C8.07422 80.0796 8.23828 80.1899 8.40234 80.3442V79.9927ZM7.57324 80.6577C7.32129 80.6577 7.11328 80.7427 6.94922 80.9126C6.78516 81.0806 6.70312 81.2925 6.70312 81.5483C6.70312 81.814 6.78711 82.0317 6.95508 82.2017C7.12305 82.3716 7.33398 82.4565 7.58789 82.4565C7.83594 82.4565 8.04004 82.3735 8.2002 82.2075C8.3623 82.0415 8.44336 81.8237 8.44336 81.5542C8.44336 81.2886 8.3623 81.0728 8.2002 80.9067C8.03809 80.7407 7.8291 80.6577 7.57324 80.6577ZM10.3213 78.6802C10.4619 78.6802 10.582 78.731 10.6816 78.8325C10.7832 78.9341 10.834 79.0571 10.834 79.2017C10.834 79.3442 10.7842 79.4663 10.6846 79.5679C10.585 79.6675 10.4658 79.7173 10.3271 79.7173C10.1846 79.7173 10.0625 79.6665 9.96094 79.5649C9.86133 79.4614 9.81152 79.3364 9.81152 79.1899C9.81152 79.0493 9.86133 78.9292 9.96094 78.8296C10.0605 78.73 10.1807 78.6802 10.3213 78.6802ZM9.91992 79.9927H10.7227V83.1802H9.91992V79.9927ZM11.5459 78.8179H12.3428V79.9927H12.8174V80.6812H12.3428V83.1802H11.5459V80.6812H11.1357V79.9927H11.5459V78.8179ZM15.6035 79.9927H16.4004V83.1802H15.6035V82.8433C15.4473 82.9917 15.29 83.0991 15.1318 83.1655C14.9756 83.23 14.8057 83.2622 14.6221 83.2622C14.21 83.2622 13.8535 83.103 13.5527 82.7847C13.252 82.4644 13.1016 82.0669 13.1016 81.5923C13.1016 81.1001 13.2471 80.6968 13.5381 80.3823C13.8291 80.0679 14.1826 79.9106 14.5986 79.9106C14.79 79.9106 14.9697 79.9468 15.1377 80.019C15.3057 80.0913 15.4609 80.1997 15.6035 80.3442V79.9927ZM14.7627 80.6489C14.5146 80.6489 14.3086 80.7368 14.1445 80.9126C13.9805 81.0864 13.8984 81.3101 13.8984 81.5835C13.8984 81.8589 13.9814 82.0854 14.1475 82.2632C14.3154 82.4409 14.5215 82.5298 14.7656 82.5298C15.0176 82.5298 15.2266 82.4429 15.3926 82.269C15.5586 82.0933 15.6416 81.8638 15.6416 81.5806C15.6416 81.3032 15.5586 81.0786 15.3926 80.9067C15.2266 80.7349 15.0166 80.6489 14.7627 80.6489ZM17.124 78.7622H17.9238V83.1802H17.124V78.7622ZM0.908203 85.8706H1.71094L2.70703 88.8765L3.71777 85.8706H4.50879L5.23535 90.1802H4.44434L3.98145 87.4585L3.06445 90.1802H2.34082L1.43555 87.4585L0.963867 90.1802H0.164062L0.908203 85.8706ZM8.16211 86.9927H8.95898V90.1802H8.16211V89.8433C8.00586 89.9917 7.84863 90.0991 7.69043 90.1655C7.53418 90.23 7.36426 90.2622 7.18066 90.2622C6.76855 90.2622 6.41211 90.103 6.11133 89.7847C5.81055 89.4644 5.66016 89.0669 5.66016 88.5923C5.66016 88.1001 5.80566 87.6968 6.09668 87.3823C6.3877 87.0679 6.74121 86.9106 7.15723 86.9106C7.34863 86.9106 7.52832 86.9468 7.69629 87.019C7.86426 87.0913 8.01953 87.1997 8.16211 87.3442V86.9927ZM7.32129 87.6489C7.07324 87.6489 6.86719 87.7368 6.70312 87.9126C6.53906 88.0864 6.45703 88.3101 6.45703 88.5835C6.45703 88.8589 6.54004 89.0854 6.70605 89.2632C6.87402 89.4409 7.08008 89.5298 7.32422 89.5298C7.57617 89.5298 7.78516 89.4429 7.95117 89.269C8.11719 89.0933 8.2002 88.8638 8.2002 88.5806C8.2002 88.3032 8.11719 88.0786 7.95117 87.9067C7.78516 87.7349 7.5752 87.6489 7.32129 87.6489ZM9.58008 86.9927H10.2656V87.394C10.3398 87.2358 10.4385 87.1157 10.5615 87.0337C10.6846 86.9517 10.8193 86.9106 10.9658 86.9106C11.0693 86.9106 11.1777 86.938 11.291 86.9927L11.042 87.6812C10.9482 87.6343 10.8711 87.6108 10.8105 87.6108C10.6875 87.6108 10.583 87.687 10.4971 87.8394C10.4131 87.9917 10.3711 88.2905 10.3711 88.7358L10.374 88.8911V90.1802H9.58008V86.9927ZM11.6953 85.7622H12.4951V88.3081L13.6729 86.9927H14.6748L13.3037 88.522L14.8418 90.1802H13.8486L12.4951 88.7124V90.1802H11.6953V85.7622ZM18.3633 88.8179H15.7939C15.8311 89.0444 15.9297 89.2251 16.0898 89.3599C16.252 89.4927 16.458 89.5591 16.708 89.5591C17.0068 89.5591 17.2637 89.4546 17.4785 89.2456L18.1523 89.562C17.9844 89.8003 17.7832 89.9771 17.5488 90.0923C17.3145 90.2056 17.0361 90.2622 16.7139 90.2622C16.2139 90.2622 15.8066 90.105 15.4922 89.7905C15.1777 89.4741 15.0205 89.0786 15.0205 88.604C15.0205 88.1177 15.1768 87.7144 15.4893 87.394C15.8037 87.0718 16.1973 86.9106 16.6699 86.9106C17.1719 86.9106 17.5801 87.0718 17.8945 87.394C18.209 87.7144 18.3662 88.1382 18.3662 88.6655L18.3633 88.8179ZM17.5605 88.188C17.5078 88.0103 17.4033 87.8657 17.2471 87.7544C17.0928 87.6431 16.9131 87.5874 16.708 87.5874C16.4854 87.5874 16.29 87.6499 16.1221 87.7749C16.0166 87.853 15.9189 87.9907 15.8291 88.188H17.5605ZM19.1104 85.8179H19.9072V86.9927H20.3818V87.6812H19.9072V90.1802H19.1104V87.6812H18.7002V86.9927H19.1104V85.8179ZM21.126 85.6802C21.2666 85.6802 21.3867 85.731 21.4863 85.8325C21.5879 85.9341 21.6387 86.0571 21.6387 86.2017C21.6387 86.3442 21.5889 86.4663 21.4893 86.5679C21.3896 86.6675 21.2705 86.7173 21.1318 86.7173C20.9893 86.7173 20.8672 86.6665 20.7656 86.5649C20.666 86.4614 20.6162 86.3364 20.6162 86.1899C20.6162 86.0493 20.666 85.9292 20.7656 85.8296C20.8652 85.73 20.9854 85.6802 21.126 85.6802ZM20.7246 86.9927H21.5273V90.1802H20.7246V86.9927ZM22.2539 86.9927H23.0508V87.3179C23.2324 87.1655 23.3965 87.0601 23.543 87.0015C23.6914 86.9409 23.8428 86.9106 23.9971 86.9106C24.3135 86.9106 24.582 87.021 24.8027 87.2417C24.9883 87.4292 25.0811 87.7065 25.0811 88.0737V90.1802H24.29V88.7827C24.29 88.4019 24.2725 88.1489 24.2373 88.0239C24.2041 87.8989 24.1445 87.8042 24.0586 87.7397C23.9746 87.6733 23.8701 87.6401 23.7451 87.6401C23.583 87.6401 23.4434 87.6948 23.3262 87.8042C23.2109 87.9116 23.1309 88.061 23.0859 88.2524C23.0625 88.3521 23.0508 88.5679 23.0508 88.8999V90.1802H22.2539V86.9927ZM28.2129 86.9927H29.0098V89.7231C29.0098 90.2622 28.9014 90.6587 28.6846 90.9126C28.3936 91.2563 27.9551 91.4282 27.3691 91.4282C27.0566 91.4282 26.7939 91.3892 26.5811 91.311C26.3682 91.2329 26.1885 91.1177 26.042 90.9653C25.8955 90.8149 25.7871 90.6313 25.7168 90.4146H26.5986C26.6768 90.5044 26.7773 90.5718 26.9004 90.6167C27.0234 90.6636 27.1689 90.687 27.3369 90.687C27.5518 90.687 27.7246 90.6538 27.8555 90.5874C27.9863 90.521 28.0781 90.4351 28.1309 90.3296C28.1855 90.2241 28.2129 90.0425 28.2129 89.7847C28.0723 89.9253 27.9248 90.0269 27.7705 90.0894C27.6162 90.1499 27.4414 90.1802 27.2461 90.1802C26.8184 90.1802 26.457 90.0259 26.1621 89.7173C25.8672 89.4087 25.7197 89.0181 25.7197 88.5454C25.7197 88.0396 25.876 87.6333 26.1885 87.3267C26.4717 87.0493 26.8096 86.9106 27.2021 86.9106C27.3857 86.9106 27.5586 86.9448 27.7207 87.0132C27.8848 87.0796 28.0488 87.1899 28.2129 87.3442V86.9927ZM27.3838 87.6577C27.1318 87.6577 26.9238 87.7427 26.7598 87.9126C26.5957 88.0806 26.5137 88.2925 26.5137 88.5483C26.5137 88.814 26.5977 89.0317 26.7656 89.2017C26.9336 89.3716 27.1445 89.4565 27.3984 89.4565C27.6465 89.4565 27.8506 89.3735 28.0107 89.2075C28.1729 89.0415 28.2539 88.8237 28.2539 88.5542C28.2539 88.2886 28.1729 88.0728 28.0107 87.9067C27.8486 87.7407 27.6396 87.6577 27.3838 87.6577Z" fill="black"/>
<defs>
<linearGradient id="paint0_linear_489_9466" x1="39" y1="5.18018" x2="100" y2="5.18018" gradientUnits="userSpaceOnUse">
<stop stop-color="#00A9DF"/>
<stop offset="0.5" stop-color="#12B6EA"/>
<stop offset="1" stop-color="#29C0F0"/>
</linearGradient>
<linearGradient id="paint1_linear_489_9466" x1="113" y1="9.18018" x2="91.5" y2="9.18018" gradientUnits="userSpaceOnUse">
<stop stop-color="#29C0F0"/>
<stop offset="0.472716" stop-color="#12B6EA"/>
<stop offset="1" stop-color="#00A9DF"/>
</linearGradient>
<linearGradient id="paint2_linear_489_9466" x1="33.5" y1="21.1802" x2="101" y2="21.1802" gradientUnits="userSpaceOnUse">
<stop stop-color="#00A9DF"/>
<stop offset="0.5" stop-color="#12B6EA"/>
<stop offset="1" stop-color="#29C0F0"/>
</linearGradient>
<linearGradient id="paint3_linear_489_9466" x1="109" y1="25.1802" x2="87.5" y2="25.1802" gradientUnits="userSpaceOnUse">
<stop stop-color="#29C0F0"/>
<stop offset="0.472716" stop-color="#12B6EA"/>
<stop offset="1" stop-color="#00A9DF"/>
</linearGradient>
<linearGradient id="paint4_linear_489_9466" x1="32.5" y1="37.1802" x2="96" y2="37.1802" gradientUnits="userSpaceOnUse">
<stop stop-color="#00A9DF"/>
<stop offset="0.5" stop-color="#12B6EA"/>
<stop offset="1" stop-color="#29C0F0"/>
</linearGradient>
<linearGradient id="paint5_linear_489_9466" x1="105" y1="41.1802" x2="83.5" y2="41.1802" gradientUnits="userSpaceOnUse">
<stop stop-color="#29C0F0"/>
<stop offset="0.472716" stop-color="#12B6EA"/>
<stop offset="1" stop-color="#00A9DF"/>
</linearGradient>
<linearGradient id="paint6_linear_489_9466" x1="43" y1="53.1802" x2="94" y2="53.1802" gradientUnits="userSpaceOnUse">
<stop stop-color="#00A9DF"/>
<stop offset="0.5" stop-color="#12B6EA"/>
<stop offset="1" stop-color="#29C0F0"/>
</linearGradient>
<linearGradient id="paint7_linear_489_9466" x1="103" y1="57.1802" x2="81.5" y2="57.1802" gradientUnits="userSpaceOnUse">
<stop stop-color="#29C0F0"/>
<stop offset="0.472716" stop-color="#12B6EA"/>
<stop offset="1" stop-color="#00A9DF"/>
</linearGradient>
<linearGradient id="paint8_linear_489_9466" x1="44" y1="69.1802" x2="92" y2="69.1802" gradientUnits="userSpaceOnUse">
<stop stop-color="#00A9DF"/>
<stop offset="0.5" stop-color="#12B6EA"/>
<stop offset="1" stop-color="#29C0F0"/>
</linearGradient>
<linearGradient id="paint9_linear_489_9466" x1="98" y1="73.1802" x2="76.5" y2="73.1802" gradientUnits="userSpaceOnUse">
<stop stop-color="#29C0F0"/>
<stop offset="0.472716" stop-color="#12B6EA"/>
<stop offset="1" stop-color="#00A9DF"/>
</linearGradient>
<linearGradient id="paint10_linear_489_9466" x1="44" y1="85.1802" x2="85" y2="85.1802" gradientUnits="userSpaceOnUse">
<stop stop-color="#00A9DF"/>
<stop offset="0.5" stop-color="#12B6EA"/>
<stop offset="1" stop-color="#29C0F0"/>
</linearGradient>
<linearGradient id="paint11_linear_489_9466" x1="94" y1="89.1802" x2="72.5" y2="89.1802" gradientUnits="userSpaceOnUse">
<stop stop-color="#29C0F0"/>
<stop offset="0.472716" stop-color="#12B6EA"/>
<stop offset="1" stop-color="#00A9DF"/>
</linearGradient>
</defs>
</svg>
