<svg width="80" height="15" viewBox="0 0 80 15" fill="none" xmlns="http://www.w3.org/2000/svg">
<path d="M22.53 7.47C22.53 9.58 20.93 11.07 18.94 11.07C16.95 11.07 15.33 9.58 15.33 7.47C15.33 5.36 16.95 3.88 18.94 3.88C20.94 3.88 22.53 5.36 22.53 7.47ZM17.08 7.47C17.08 8.7 17.8 9.51 18.94 9.51C20.06 9.51 20.79 8.7 20.79 7.47C20.79 6.22 20.06 5.43 18.94 5.43C17.8 5.43 17.08 6.22 17.08 7.47ZM23.4513 8.17V3.98H25.1613V8.18C25.1613 9.01 25.5713 9.49 26.3813 9.49C27.1913 9.49 27.6213 9.01 27.6213 8.18V3.98H29.3313V8.17C29.3313 10.11 27.9713 11.07 26.3513 11.07C24.7213 11.07 23.4513 10.11 23.4513 8.17ZM34.2421 6.26C34.2421 5.74 33.9421 5.4 33.3021 5.4H32.2421V7.14H33.3021C33.9421 7.14 34.2421 6.81 34.2421 6.26ZM30.5321 3.98H33.4021C35.1221 3.98 35.9821 4.97 35.9821 6.19C35.9821 7.07 35.5021 7.9 34.4221 8.22L36.0421 11H34.1121L32.6521 8.35H32.2421V11H30.5321V3.98ZM44.2747 8.91C44.2747 10.09 43.3547 11.07 41.7147 11.07C40.2047 11.07 39.0247 10.32 38.9747 8.9H40.7947C40.8447 9.44 41.1847 9.7 41.6647 9.7C42.1647 9.7 42.4847 9.45 42.4847 9.04C42.4847 7.74 38.9747 8.44 38.9947 5.95C38.9947 4.62 40.0847 3.88 41.5547 3.88C43.0847 3.88 44.1147 4.64 44.1847 5.98H42.3347C42.3047 5.53 41.9847 5.26 41.5247 5.25C41.1147 5.24 40.8047 5.45 40.8047 5.89C40.8047 7.11 44.2747 6.56 44.2747 8.91ZM49.627 3.98V5.35H47.037V6.77H49.327V8.09H47.037V9.63H49.627V11H45.327V3.98H49.627ZM54.4472 6.26C54.4472 5.74 54.1472 5.4 53.5072 5.4H52.4472V7.14H53.5072C54.1472 7.14 54.4472 6.81 54.4472 6.26ZM50.7372 3.98H53.6072C55.3272 3.98 56.1872 4.97 56.1872 6.19C56.1872 7.07 55.7072 7.9 54.6272 8.22L56.2472 11H54.3172L52.8572 8.35H52.4472V11H50.7372V3.98ZM60.2906 9.28L62.0406 3.98H63.8506L61.3606 11H59.2206L56.7306 3.98H58.5506L60.2906 9.28ZM64.5653 11V3.98H66.2753V11H64.5653ZM67.2245 7.48C67.2245 5.38 68.6845 3.9 70.7545 3.9C72.4245 3.9 73.6845 4.84 74.0845 6.36H72.2045C71.9145 5.76 71.3845 5.46 70.7345 5.46C69.6845 5.46 68.9645 6.24 68.9645 7.48C68.9645 8.72 69.6845 9.5 70.7345 9.5C71.3845 9.5 71.9145 9.2 72.2045 8.6H74.0845C73.6845 10.12 72.4245 11.05 70.7545 11.05C68.6845 11.05 67.2245 9.58 67.2245 7.48ZM79.4317 3.98V5.35H76.8417V6.77H79.1317V8.09H76.8417V9.63H79.4317V11H75.1317V3.98H79.4317Z" fill="#4E46F0"/>
<path opacity="0.963" fill-rule="evenodd" clip-rule="evenodd" d="M6.32085 2.33291C6.4731 2.3239 6.62303 2.33639 6.77063 2.37039C6.98873 2.53013 7.21362 2.68005 7.44531 2.82018C7.69519 2.84517 7.94507 2.87016 8.19495 2.89514C8.36212 2.95423 8.49124 3.05834 8.58227 3.20749C8.64569 3.46953 8.72065 3.72774 8.80716 3.98212C8.97026 4.168 9.14517 4.34292 9.33191 4.50687C9.43494 4.66817 9.46825 4.84309 9.43186 5.03162C9.34558 5.25417 9.24563 5.47074 9.13201 5.68131C9.12483 5.74106 9.11234 5.79936 9.09452 5.85623C9.12768 6.05878 9.15267 6.26283 9.16949 6.46844C9.16946 6.69345 9.07783 6.86837 8.89462 6.99318C8.67805 7.09314 8.4615 7.19309 8.24493 7.29304C8.06944 7.48997 7.91534 7.70237 7.78265 7.93024C7.62045 8.09473 7.42472 8.1572 7.19543 8.11765C6.97101 8.05255 6.74612 7.99008 6.52075 7.93024C6.28584 7.98491 6.0526 8.04738 5.82109 8.11765C5.5918 8.1572 5.39607 8.09473 5.23387 7.93024C5.10118 7.70237 4.94708 7.48997 4.77159 7.29304C4.52621 7.18284 4.28467 7.06622 4.04694 6.94321C3.94891 6.85133 3.88644 6.73888 3.85953 6.60587C3.85555 6.35436 3.87637 6.10448 3.922 5.85623C3.90698 5.75193 3.87784 5.65198 3.83454 5.55637C3.73119 5.39132 3.6479 5.21641 3.58466 5.03162C3.5418 4.82834 3.58346 4.64508 3.7096 4.48188C3.89284 4.33196 4.05943 4.16537 4.20936 3.98212C4.29584 3.72787 4.37081 3.46966 4.43425 3.20749C4.50642 3.07702 4.61054 2.98123 4.7466 2.92013C4.9686 2.87344 5.19349 2.84845 5.42128 2.84517C5.51816 2.83876 5.60976 2.81377 5.69615 2.7702C5.89558 2.60766 6.1038 2.4619 6.32085 2.33291ZM6.29586 3.25747C7.27952 3.22633 7.96669 3.65946 8.35738 4.55685C8.63864 5.57079 8.34296 6.36623 7.4703 6.94321C6.55964 7.37103 5.74752 7.23359 5.03397 6.53091C4.47163 5.81387 4.39667 5.04756 4.80907 4.232C5.15711 3.67954 5.65272 3.35469 6.29586 3.25747ZM7.32037 4.43191C7.54294 4.48561 7.61376 4.61889 7.53277 4.83172C7.16185 5.19514 6.79952 5.56582 6.44579 5.94369C6.35001 6.01248 6.25006 6.0208 6.14593 5.96867C5.9078 5.73888 5.67873 5.5015 5.45876 5.25651C5.43372 5.00673 5.54617 4.90263 5.7961 4.94416C5.95358 5.07663 6.1035 5.21823 6.24589 5.36896C6.27087 5.38563 6.29586 5.38563 6.32085 5.36896C6.58665 5.07817 6.86152 4.79496 7.14546 4.51937C7.20075 4.47899 7.25908 4.44983 7.32037 4.43191Z" fill="#4E46F0"/>
<path opacity="0.94" fill-rule="evenodd" clip-rule="evenodd" d="M4.52159 7.58057C4.6734 7.73684 4.80251 7.91176 4.90891 8.10532C5.15142 8.3973 5.46377 8.53474 5.84596 8.51762C5.67937 8.86745 5.5128 9.21728 5.3462 9.56712C5.30592 9.58511 5.26844 9.58096 5.23375 9.55462C5.09947 9.31519 4.96203 9.0778 4.82145 8.84246C4.54146 8.87317 4.26242 8.91898 3.98435 8.9799C3.96506 8.97627 3.94839 8.96795 3.93438 8.95491C3.91771 8.91325 3.91771 8.87162 3.93438 8.82997C4.13728 8.41587 4.33303 7.99939 4.52159 7.58057Z" fill="#4E46F0"/>
<path opacity="0.939" fill-rule="evenodd" clip-rule="evenodd" d="M8.47125 7.58057C8.69147 7.98597 8.89553 8.40245 9.08346 8.82997C9.10013 8.87162 9.10013 8.91325 9.08346 8.95491C9.06944 8.96795 9.05278 8.97627 9.03348 8.9799C8.75562 8.919 8.47658 8.8732 8.19639 8.84246C8.0558 9.0778 7.91837 9.31519 7.78408 9.55462C7.7494 9.58096 7.71192 9.58511 7.67164 9.56712C7.51186 9.21426 7.34527 8.86443 7.17188 8.51762C7.56839 8.53551 7.88908 8.38973 8.13392 8.08033C8.23232 7.90306 8.34476 7.73647 8.47125 7.58057Z" fill="#4E46F0"/>
<path opacity="0.979" fill-rule="evenodd" clip-rule="evenodd" d="M3.69746 9.70453C3.88454 9.69349 4.06778 9.71433 4.24719 9.767C4.90643 10.0256 5.58111 10.2339 6.27123 10.3917C6.70412 10.5909 6.80822 10.9032 6.58358 11.3288C6.44782 11.4878 6.27707 11.542 6.07132 11.4912C5.62446 11.3722 5.17882 11.2514 4.73446 11.1288C4.52956 11.2101 4.5004 11.3309 4.647 11.4912C5.11346 11.6161 5.57988 11.7411 6.04633 11.866C6.39124 11.9267 6.65779 11.8101 6.84595 11.5162C7.64862 11.0857 8.43992 10.6359 9.21982 10.1668C9.52852 9.98052 9.86168 9.89721 10.2193 9.91693C10.621 10.041 10.7751 10.3118 10.6816 10.729C10.6389 10.8518 10.5681 10.9559 10.4692 11.0414C9.23648 11.7994 8.00372 12.5573 6.77099 13.3153C6.50646 13.4649 6.22325 13.5232 5.92139 13.4902C4.99404 13.2605 4.06948 13.0189 3.14772 12.7656C3.03877 12.7572 2.93882 12.7864 2.84786 12.853C2.42949 12.1748 2.02968 11.4835 1.64844 10.779C2.21204 10.418 2.79509 10.089 3.3976 9.79199C3.50063 9.7622 3.60058 9.73304 3.69746 9.70453Z" fill="#4E46F0"/>
<path opacity="0.965" fill-rule="evenodd" clip-rule="evenodd" d="M0.724045 10.4791C0.816043 10.475 0.907667 10.4791 0.998914 10.4916C1.04354 10.5112 1.08102 10.5403 1.11136 10.579C1.66942 11.5619 2.2275 12.5448 2.78556 13.5276C2.84521 13.6694 2.83271 13.8026 2.74808 13.9274C2.53133 14.0692 2.30644 14.1983 2.0734 14.3147C1.93407 14.3515 1.8133 14.3224 1.71107 14.2273C1.14468 13.2278 0.578282 12.2282 0.0118854 11.2287C-0.0141147 11.1053 0.00254237 10.9887 0.0618615 10.8789C0.286252 10.7481 0.506981 10.6148 0.724045 10.4791ZM0.649081 11.0288C0.879431 11.0172 0.954395 11.1172 0.873973 11.3287C0.752186 11.4312 0.648069 11.4146 0.561623 11.2787C0.544963 11.2287 0.544963 11.1787 0.561623 11.1288C0.595996 11.0987 0.62515 11.0653 0.649081 11.0288Z" fill="#4E46F0"/>
</svg>
