<svg width="136" height="24" viewBox="0 0 136 24" fill="none" xmlns="http://www.w3.org/2000/svg">
<path d="M136 1.18018H0V21.1802H136V1.18018Z" fill="#685FFF"/>
<path d="M8.33 10.3002H9.26C9.94 10.3002 10.23 9.96018 10.23 9.42018C10.23 8.88018 9.94 8.54018 9.26 8.54018H8.33V10.3002ZM11.97 9.42018C11.97 10.5802 11.18 11.6602 9.39 11.6602H8.33V14.1802H6.62V7.16018H9.39C11.11 7.16018 11.97 8.13018 11.97 9.42018ZM17.1602 7.16018V8.53018H14.5702V9.95018H16.8602V11.2702H14.5702V12.8102H17.1602V14.1802H12.8602V7.16018H17.1602ZM21.9804 9.44018C21.9804 8.92018 21.6804 8.58018 21.0404 8.58018H19.9804V10.3202H21.0404C21.6804 10.3202 21.9804 9.99018 21.9804 9.44018ZM18.2704 7.16018H21.1404C22.8604 7.16018 23.7204 8.15018 23.7204 9.37018C23.7204 10.2502 23.2404 11.0802 22.1604 11.4002L23.7804 14.1802H21.8504L20.3904 11.5302H19.9804V14.1802H18.2704V7.16018ZM29.8938 12.0902C29.8938 13.2702 28.9738 14.2502 27.3338 14.2502C25.8238 14.2502 24.6438 13.5002 24.5938 12.0802H26.4138C26.4638 12.6202 26.8038 12.8802 27.2838 12.8802C27.7838 12.8802 28.1038 12.6302 28.1038 12.2202C28.1038 10.9202 24.5938 11.6202 24.6138 9.13018C24.6138 7.80018 25.7038 7.06018 27.1738 7.06018C28.7038 7.06018 29.7338 7.82018 29.8038 9.16018H27.9538C27.9238 8.71018 27.6038 8.44018 27.1438 8.43018C26.7338 8.42018 26.4238 8.63018 26.4238 9.07018C26.4238 10.2902 29.8938 9.74018 29.8938 12.0902ZM37.8562 10.6502C37.8562 12.7602 36.2562 14.2502 34.2662 14.2502C32.2762 14.2502 30.6562 12.7602 30.6562 10.6502C30.6562 8.54018 32.2762 7.06018 34.2662 7.06018C36.2662 7.06018 37.8562 8.54018 37.8562 10.6502ZM32.4062 10.6502C32.4062 11.8802 33.1262 12.6902 34.2662 12.6902C35.3862 12.6902 36.1162 11.8802 36.1162 10.6502C36.1162 9.40018 35.3862 8.61018 34.2662 8.61018C33.1262 8.61018 32.4062 9.40018 32.4062 10.6502ZM43.3775 7.16018H45.0875V14.1802H43.3775L40.5175 9.85018V14.1802H38.8075V7.16018H40.5175L43.3775 11.5102V7.16018ZM51.117 14.1802L50.697 12.9402H48.077L47.657 14.1802H45.867L48.407 7.16018H50.387L52.927 14.1802H51.117ZM50.257 11.6202L49.387 9.05018L48.527 11.6202H50.257ZM53.7001 7.16018H55.4101V12.8602H57.6501V14.1802H53.7001V7.16018ZM65.6848 12.0902C65.6848 13.2702 64.7648 14.2502 63.1248 14.2502C61.6148 14.2502 60.4348 13.5002 60.3848 12.0802H62.2048C62.2548 12.6202 62.5948 12.8802 63.0748 12.8802C63.5748 12.8802 63.8948 12.6302 63.8948 12.2202C63.8948 10.9202 60.3848 11.6202 60.4048 9.13018C60.4048 7.80018 61.4948 7.06018 62.9648 7.06018C64.4948 7.06018 65.5248 7.82018 65.5948 9.16018H63.7448C63.7148 8.71018 63.3948 8.44018 62.9348 8.43018C62.5248 8.42018 62.2148 8.63018 62.2148 9.07018C62.2148 10.2902 65.6848 9.74018 65.6848 12.0902ZM70.8072 14.1802L68.4472 11.0802V14.1802H66.7372V7.16018H68.4472V10.2402L70.7872 7.16018H72.7972L70.0772 10.6002L72.8972 14.1802H70.8072ZM73.7098 14.1802V7.16018H75.4198V14.1802H73.7098ZM76.6591 7.16018H78.3691V12.8602H80.6091V14.1802H76.6591V7.16018ZM81.4247 7.16018H83.1347V12.8602H85.3747V14.1802H81.4247V7.16018Z" fill="white"/>
<path d="M119.522 23.1802C125.885 23.1802 131.044 18.0315 131.044 11.6802C131.044 5.32891 125.885 0.180176 119.522 0.180176C113.159 0.180176 108 5.32891 108 11.6802C108 18.0315 113.159 23.1802 119.522 23.1802Z" fill="#12B6EA"/>
<path opacity="0.981" fill-rule="evenodd" clip-rule="evenodd" d="M118.845 4.68018C119.228 4.68018 119.611 4.68018 119.994 4.68018C120.048 4.7148 120.091 4.76168 120.123 4.8208C120.134 5.00814 120.138 5.19564 120.134 5.3833C120.319 5.43067 120.495 5.50098 120.662 5.59424C120.783 5.47314 120.904 5.35205 121.025 5.23096C121.118 5.18613 121.212 5.18613 121.306 5.23096C121.544 5.46924 121.783 5.70752 122.021 5.9458C122.083 6.03605 122.091 6.1298 122.044 6.22705C121.914 6.34916 121.793 6.47807 121.681 6.61377C121.763 6.77698 121.833 6.94495 121.892 7.11768C122.079 7.13718 122.267 7.14889 122.455 7.15283C122.496 7.17123 122.532 7.19856 122.56 7.23486C122.594 7.53723 122.606 7.84192 122.595 8.14893C121.994 8.14893 121.392 8.14893 120.791 8.14893C120.891 7.40019 120.602 6.86504 119.923 6.54346C119.274 6.33771 118.731 6.49786 118.294 7.02393C118.058 7.36443 117.984 7.73551 118.072 8.13721C117.462 8.14893 116.853 8.15284 116.244 8.14893C116.24 7.86756 116.244 7.58631 116.255 7.30518C116.274 7.23292 116.317 7.18215 116.384 7.15283C116.572 7.14503 116.759 7.1372 116.947 7.12939C117.01 6.95521 117.081 6.78333 117.158 6.61377C117.037 6.47732 116.916 6.3406 116.794 6.20361C116.769 6.10147 116.785 6.00772 116.841 5.92236C117.081 5.66691 117.335 5.42863 117.603 5.20752C117.676 5.189 117.747 5.19681 117.814 5.23096C117.942 5.3514 118.071 5.47249 118.201 5.59424C118.35 5.50198 118.51 5.43167 118.681 5.3833C118.701 5.20412 118.712 5.02443 118.716 4.84424C118.739 4.7711 118.782 4.71641 118.845 4.68018Z" fill="white"/>
<path opacity="0.969" fill-rule="evenodd" clip-rule="evenodd" d="M119.243 7.14122C119.7 7.07839 119.993 7.26589 120.122 7.70372C120.14 7.85473 120.128 8.00318 120.086 8.14904C119.643 8.15668 119.202 8.14887 118.762 8.1256C118.629 7.65024 118.789 7.32211 119.243 7.14122Z" fill="white"/>
<path opacity="0.996" fill-rule="evenodd" clip-rule="evenodd" d="M122.314 16.6802C120.892 16.6802 119.47 16.6802 118.048 16.6802C117.937 16.6277 117.863 16.5418 117.825 16.4224C117.821 15.7113 117.81 15.0004 117.79 14.2896C116.339 13.7173 115.437 12.6704 115.083 11.1489C114.93 10.3697 114.989 9.60799 115.259 8.86378C118.064 8.84814 120.868 8.84814 123.673 8.86378C123.816 9.2538 123.906 9.65615 123.942 10.0708C124.39 10.7545 124.843 11.4342 125.302 12.1099C125.417 12.3512 125.358 12.5348 125.126 12.6607C124.728 12.6724 124.329 12.6763 123.931 12.6724C123.935 13.2037 123.931 13.7349 123.919 14.2661C123.886 14.385 123.812 14.467 123.696 14.5122C123.314 14.5239 122.931 14.5278 122.548 14.5239C122.552 15.1568 122.548 15.7896 122.536 16.4224C122.499 16.5418 122.425 16.6277 122.314 16.6802Z" fill="white"/>
</svg>
