<svg width="56" height="15" viewBox="0 0 56 15" fill="none" xmlns="http://www.w3.org/2000/svg">
<path opacity="0.992" fill-rule="evenodd" clip-rule="evenodd" d="M4.88718 1C5.13719 1 5.38717 1 5.63718 1C6.99466 1.22049 7.88917 1.98612 8.32077 3.29687C8.62631 4.59095 8.29427 5.68862 7.32468 6.58984C6.35505 7.34898 5.28473 7.52866 4.11374 7.12891C2.96216 6.64122 2.2942 5.77794 2.10984 4.53906C2.0095 3.18114 2.52904 2.13817 3.66843 1.41016C4.05316 1.19989 4.4594 1.06317 4.88718 1Z" fill="#4F46F0"/>
<path opacity="0.995" fill-rule="evenodd" clip-rule="evenodd" d="M10.3248 12.9998C6.94978 12.9998 3.57478 12.9998 0.199782 12.9998C0.106528 12.9572 0.0401206 12.8869 0.00056282 12.7888C-0.0220731 11.1193 0.638084 9.79506 1.98103 8.81619C2.97757 8.16594 4.07133 7.90424 5.26228 8.03104C7.31716 7.85732 8.88356 8.63856 9.9615 10.3748C10.379 11.1263 10.5665 11.9309 10.524 12.7888C10.4844 12.8869 10.418 12.9572 10.3248 12.9998Z" fill="#4F46F0"/>
<path d="M17.8613 7.12H18.7913C19.4713 7.12 19.7613 6.78 19.7613 6.24C19.7613 5.7 19.4713 5.36 18.7913 5.36H17.8613V7.12ZM21.5013 6.24C21.5013 7.4 20.7113 8.48 18.9213 8.48H17.8613V11H16.1513V3.98H18.9213C20.6413 3.98 21.5013 4.95 21.5013 6.24ZM26.1015 6.26C26.1015 5.74 25.8015 5.4 25.1615 5.4H24.1015V7.14H25.1615C25.8015 7.14 26.1015 6.81 26.1015 6.26ZM22.3915 3.98H25.2615C26.9815 3.98 27.8415 4.97 27.8415 6.19C27.8415 7.07 27.3615 7.9 26.2815 8.22L27.9015 11H25.9715L24.5115 8.35H24.1015V11H22.3915V3.98ZM35.8249 7.47C35.8249 9.58 34.2249 11.07 32.2349 11.07C30.2449 11.07 28.6249 9.58 28.6249 7.47C28.6249 5.36 30.2449 3.88 32.2349 3.88C34.2349 3.88 35.8249 5.36 35.8249 7.47ZM30.3749 7.47C30.3749 8.7 31.0949 9.51 32.2349 9.51C33.3549 9.51 34.0849 8.7 34.0849 7.47C34.0849 6.22 33.3549 5.43 32.2349 5.43C31.0949 5.43 30.3749 6.22 30.3749 7.47ZM36.7763 11V3.98H41.3463V5.35H38.4863V6.83H40.6263V8.16H38.4863V11H36.7763ZM42.245 11V3.98H43.955V11H42.245ZM45.1942 3.98H46.9042V9.68H49.1442V11H45.1942V3.98ZM54.2598 3.98V5.35H51.6698V6.77H53.9598V8.09H51.6698V9.63H54.2598V11H49.9598V3.98H54.2598Z" fill="#4F46F0"/>
</svg>
