<svg width="77" height="14" viewBox="0 0 77 14" fill="none" xmlns="http://www.w3.org/2000/svg">
<path d="M16.7029 7.453V3.682H18.2419V7.462C18.2419 8.209 18.6109 8.641 19.3399 8.641C20.0689 8.641 20.4559 8.209 20.4559 7.462V3.682H21.9949V7.453C21.9949 9.199 20.7709 10.063 19.3129 10.063C17.8459 10.063 16.7029 9.199 16.7029 7.453ZM23.0756 10V3.682H24.6146V10H23.0756ZM25.2619 11.683L27.6739 1.45H29.1589L26.7469 11.683H25.2619ZM29.781 7.453V3.682H31.32V7.462C31.32 8.209 31.689 8.641 32.418 8.641C33.147 8.641 33.534 8.209 33.534 7.462V3.682H35.073V7.453C35.073 9.199 33.849 10.063 32.391 10.063C30.924 10.063 29.781 9.199 29.781 7.453ZM40.0237 10L38.7367 8.065L37.6027 10H35.8567L37.8817 6.787L35.8117 3.682H37.6027L38.8717 5.59L39.9877 3.682H41.7337L39.7267 6.868L41.8147 10H40.0237ZM46.8615 3.682C48.8775 3.682 50.1735 4.96 50.1735 6.841C50.1735 8.713 48.8775 10 46.8615 10H44.4945V3.682H46.8615ZM46.0335 8.668H46.7625C47.9235 8.668 48.6075 8.002 48.6075 6.841C48.6075 5.68 47.9235 4.996 46.7625 4.996H46.0335V8.668ZM53.2476 6.139C52.7436 6.139 52.3566 6.445 52.2666 7.003H54.1926C54.1926 6.454 53.7606 6.139 53.2476 6.139ZM55.6506 8.335C55.4076 9.316 54.5166 10.072 53.2656 10.072C51.7896 10.072 50.7276 9.082 50.7276 7.489C50.7276 5.896 51.7716 4.906 53.2656 4.906C54.7326 4.906 55.7676 5.878 55.7676 7.408C55.7676 7.552 55.7586 7.705 55.7406 7.858H52.2576C52.3116 8.515 52.7166 8.821 53.2116 8.821C53.6436 8.821 53.8866 8.605 54.0126 8.335H55.6506ZM60.6565 8.542C60.6565 9.415 59.8825 10.072 58.6225 10.072C57.2815 10.072 56.3815 9.325 56.3095 8.353H57.8305C57.8665 8.704 58.1815 8.938 58.6045 8.938C59.0005 8.938 59.2075 8.758 59.2075 8.533C59.2075 7.723 56.4715 8.308 56.4715 6.463C56.4715 5.608 57.2005 4.906 58.5145 4.906C59.8105 4.906 60.5305 5.626 60.6295 6.616H59.2075C59.1625 6.274 58.9015 6.049 58.4695 6.049C58.1095 6.049 57.9115 6.193 57.9115 6.436C57.9115 7.237 60.6295 6.67 60.6565 8.542ZM61.598 10V4.978H63.137V10H61.598ZM62.372 4.456C61.823 4.456 61.454 4.087 61.454 3.628C61.454 3.16 61.823 2.791 62.372 2.791C62.912 2.791 63.281 3.16 63.281 3.628C63.281 4.087 62.912 4.456 62.372 4.456ZM63.9463 7.48C63.9463 5.896 64.9273 4.906 66.1603 4.906C66.8983 4.906 67.4383 5.239 67.7083 5.689V4.978H69.2473V9.991C69.2473 11.332 68.4733 12.475 66.7363 12.475C65.2423 12.475 64.2703 11.719 64.1353 10.522H65.6563C65.7553 10.9 66.1333 11.143 66.6643 11.143C67.2493 11.143 67.7083 10.837 67.7083 9.991V9.28C67.4293 9.721 66.8983 10.072 66.1603 10.072C64.9273 10.072 63.9463 9.064 63.9463 7.48ZM67.7083 7.489C67.7083 6.688 67.1953 6.247 66.6103 6.247C66.0343 6.247 65.5123 6.679 65.5123 7.48C65.5123 8.281 66.0343 8.731 66.6103 8.731C67.1953 8.731 67.7083 8.29 67.7083 7.489ZM73.8257 10V7.273C73.8257 6.589 73.4477 6.211 72.8627 6.211C72.2777 6.211 71.8997 6.589 71.8997 7.273V10H70.3607V4.978H71.8997V5.644C72.2057 5.221 72.7457 4.924 73.4207 4.924C74.5817 4.924 75.3557 5.716 75.3557 7.066V10H73.8257Z" fill="#685FFF"/>
<path opacity="0.984" fill-rule="evenodd" clip-rule="evenodd" d="M11.2976 1C11.4148 1 11.532 1 11.6492 1C11.8054 1.07812 11.9226 1.19531 12.0007 1.35156C12.0007 1.46875 12.0007 1.58594 12.0007 1.70312C11.8775 2.06679 11.7095 2.41054 11.4968 2.73438C10.296 4.42771 9.01477 6.06051 7.65307 7.63281C7.4565 7.8374 7.25729 8.02879 7.05542 8.20703C6.60352 7.3567 5.95507 6.70045 5.11011 6.23828C5.08782 6.22145 5.08393 6.20193 5.09839 6.17969C6.19742 5.03378 7.32631 3.9205 8.48511 2.83984C9.05897 2.36748 9.65272 1.92217 10.2664 1.50391C10.5902 1.29119 10.9339 1.12322 11.2976 1Z" fill="#685FFF"/>
<path opacity="0.969" fill-rule="evenodd" clip-rule="evenodd" d="M4.57031 6.71875C5.45145 7.13505 6.1038 7.78347 6.52734 8.66406C6.54298 8.6953 6.54298 8.72657 6.52734 8.75781C6.16184 9.09102 5.79855 9.42695 5.4375 9.76562C5.13443 8.7985 4.50162 8.15786 3.53906 7.84375C3.87469 7.46125 4.21845 7.08625 4.57031 6.71875Z" fill="#685FFF"/>
<path opacity="0.988" fill-rule="evenodd" clip-rule="evenodd" d="M1.57031 12.9999C1.20312 12.9999 0.835938 12.9999 0.46875 12.9999C0.316537 12.9778 0.160287 12.9622 0 12.9531C0 12.9374 0 12.9218 0 12.9062C0.360082 12.4317 0.551489 11.8926 0.574219 11.289C0.597007 10.9218 0.620445 10.5546 0.644531 10.1874C0.799268 9.43124 1.22505 8.88826 1.92188 8.55854C2.8657 8.24469 3.6821 8.44391 4.37109 9.1562C4.8382 9.78432 4.971 10.4796 4.76953 11.2421C4.61456 11.7329 4.31379 12.104 3.86719 12.3554C3.14414 12.7314 2.37851 12.9463 1.57031 12.9999Z" fill="#685FFF"/>
</svg>
