<svg width="55" height="14" viewBox="0 0 55 14" fill="none" xmlns="http://www.w3.org/2000/svg">
<path d="M17.9989 10L16.3969 3.682H18.0439L18.9529 8.281L20.0779 3.682H21.7699L22.8499 8.281L23.7679 3.682H25.4239L23.7769 10H21.9139L20.9059 5.842L19.8619 10H17.9989ZM28.4097 6.139C27.9057 6.139 27.5187 6.445 27.4287 7.003H29.3547C29.3547 6.454 28.9227 6.139 28.4097 6.139ZM30.8127 8.335C30.5697 9.316 29.6787 10.072 28.4277 10.072C26.9517 10.072 25.8897 9.082 25.8897 7.489C25.8897 5.896 26.9337 4.906 28.4277 4.906C29.8947 4.906 30.9297 5.878 30.9297 7.408C30.9297 7.552 30.9207 7.705 30.9027 7.858H27.4197C27.4737 8.515 27.8787 8.821 28.3737 8.821C28.8057 8.821 29.0487 8.605 29.1747 8.335H30.8127ZM33.2806 5.689C33.5596 5.239 34.1086 4.906 34.8286 4.906C36.0706 4.906 37.0426 5.896 37.0426 7.48C37.0426 9.064 36.0616 10.072 34.8286 10.072C34.0906 10.072 33.5596 9.739 33.2806 9.298V10H31.7416V3.34H33.2806V5.689ZM35.4766 7.48C35.4766 6.679 34.9546 6.247 34.3696 6.247C33.7936 6.247 33.2716 6.688 33.2716 7.489C33.2716 8.29 33.7936 8.731 34.3696 8.731C34.9546 8.731 35.4766 8.281 35.4766 7.48ZM41.927 8.542C41.927 9.415 41.153 10.072 39.893 10.072C38.552 10.072 37.652 9.325 37.58 8.353H39.101C39.137 8.704 39.452 8.938 39.875 8.938C40.271 8.938 40.478 8.758 40.478 8.533C40.478 7.723 37.742 8.308 37.742 6.463C37.742 5.608 38.471 4.906 39.785 4.906C41.081 4.906 41.801 5.626 41.9 6.616H40.478C40.433 6.274 40.172 6.049 39.74 6.049C39.38 6.049 39.182 6.193 39.182 6.436C39.182 7.237 41.9 6.67 41.927 8.542ZM42.8685 10V4.978H44.4075V10H42.8685ZM43.6425 4.456C43.0935 4.456 42.7245 4.087 42.7245 3.628C42.7245 3.16 43.0935 2.791 43.6425 2.791C44.1825 2.791 44.5515 3.16 44.5515 3.628C44.5515 4.087 44.1825 4.456 43.6425 4.456ZM45.7658 8.254V6.256H45.1538V4.978H45.7658V3.754H47.3048V4.978H48.3128V6.256H47.3048V8.272C47.3048 8.569 47.4308 8.695 47.7728 8.695H48.3218V10H47.5388C46.4948 10 45.7658 9.559 45.7658 8.254ZM51.3931 6.139C50.8891 6.139 50.5021 6.445 50.4121 7.003H52.3381C52.3381 6.454 51.9061 6.139 51.3931 6.139ZM53.7961 8.335C53.5531 9.316 52.6621 10.072 51.4111 10.072C49.9351 10.072 48.8731 9.082 48.8731 7.489C48.8731 5.896 49.9171 4.906 51.4111 4.906C52.8781 4.906 53.9131 5.878 53.9131 7.408C53.9131 7.552 53.9041 7.705 53.8861 7.858H50.4031C50.4571 8.515 50.8621 8.821 51.3571 8.821C51.7891 8.821 52.0321 8.605 52.1581 8.335H53.7961Z" fill="#685FFF"/>
<path opacity="0.978" fill-rule="evenodd" clip-rule="evenodd" d="M5.46094 1C5.8203 1 6.1797 1 6.53906 1C8.87745 1.30348 10.5454 2.52223 11.543 4.65625C11.7805 5.23935 11.9329 5.84092 12 6.46094C12 6.8203 12 7.1797 12 7.53906C11.9698 7.71491 11.9425 7.89459 11.918 8.07812C11.9048 8.09036 11.8892 8.09816 11.8711 8.10156C11.5599 8.00695 11.2513 7.90539 10.9453 7.79688C10.9306 7.70338 10.9384 7.60963 10.9688 7.51562C10.6487 7.4961 10.3284 7.48438 10.0078 7.48047C9.05761 7.15853 8.10448 6.84602 7.14844 6.54297C6.37652 6.45423 5.84918 6.77064 5.56641 7.49219C5.50146 7.70908 5.49363 7.92782 5.54297 8.14844C5.85839 9.11814 6.17871 10.0869 6.50391 11.0547C6.51171 11.2969 6.51954 11.5391 6.52734 11.7812C6.57713 11.755 6.62009 11.7198 6.65625 11.6758C6.67575 11.6597 6.69136 11.6636 6.70312 11.6875C6.83824 12.0812 6.97106 12.4757 7.10156 12.8711C7.09816 12.8892 7.09036 12.9048 7.07812 12.918C6.88709 12.9447 6.69959 12.972 6.51562 13C6.16406 13 5.8125 13 5.46094 13C3.12251 12.6965 1.45454 11.4777 0.457031 9.34375C0.219467 8.76065 0.0671231 8.15908 0 7.53906C0 7.1797 0 6.8203 0 6.46094C0.255185 4.35991 1.29425 2.77788 3.11719 1.71484C3.85479 1.32356 4.63603 1.08528 5.46094 1ZM5.46094 2.21875C5.48433 2.83972 5.49213 3.46471 5.48438 4.09375C5.11416 4.08885 4.74698 4.0537 4.38281 3.98828C4.55002 3.47809 4.78828 3.00545 5.09766 2.57031C5.2163 2.44772 5.3374 2.33053 5.46094 2.21875ZM6.51562 2.21875C6.75991 2.39662 6.95913 2.61538 7.11328 2.875C7.32204 3.22797 7.49002 3.59908 7.61719 3.98828C7.25323 4.05571 6.88603 4.09087 6.51562 4.09375C6.51562 3.46874 6.51562 2.84375 6.51562 2.21875ZM3.89062 2.47656C3.90335 2.47797 3.91116 2.48578 3.91406 2.5C3.69434 2.91598 3.50684 3.34567 3.35156 3.78906C3.05055 3.7135 2.7615 3.60803 2.48438 3.47266C2.90119 3.06523 3.36994 2.7332 3.89062 2.47656ZM8.08594 2.47656C8.61912 2.72751 9.09567 3.05954 9.51562 3.47266C9.2385 3.60803 8.94945 3.7135 8.64844 3.78906C8.48646 3.34018 8.29896 2.90268 8.08594 2.47656ZM1.78125 4.32812C2.05826 4.42701 2.3356 4.52856 2.61328 4.63281C2.7791 4.6889 2.94708 4.73577 3.11719 4.77344C3.02039 5.3399 2.95791 5.9102 2.92969 6.48438C2.29668 6.49218 1.66387 6.48438 1.03125 6.46094C1.13257 5.69596 1.38257 4.98503 1.78125 4.32812ZM10.1484 4.32812C10.176 4.32299 10.1994 4.3308 10.2188 4.35156C10.6221 4.99916 10.8721 5.70229 10.9688 6.46094C10.3361 6.48438 9.70331 6.49218 9.07031 6.48438C9.04209 5.9102 8.97961 5.3399 8.88281 4.77344C9.32334 4.6709 9.74522 4.52247 10.1484 4.32812ZM4.125 4.98438C4.57369 5.06352 5.0268 5.1104 5.48438 5.125C5.48438 5.57812 5.48438 6.03126 5.48438 6.48438C4.97655 6.48438 4.46876 6.48438 3.96094 6.48438C3.98163 5.98049 4.03634 5.48048 4.125 4.98438ZM7.85156 4.98438C7.9632 5.47497 8.0257 5.97496 8.03906 6.48438C7.53124 6.48438 7.02345 6.48438 6.51562 6.48438C6.51562 6.03126 6.51562 5.57812 6.51562 5.125C6.96783 5.11164 7.41314 5.06477 7.85156 4.98438ZM1.03125 7.49219C1.66406 7.49219 2.29688 7.49219 2.92969 7.49219C2.95959 8.07393 3.0221 8.65206 3.11719 9.22656C2.68772 9.32676 2.27366 9.47127 1.875 9.66016C1.84116 9.67846 1.80991 9.67455 1.78125 9.64844C1.36812 8.98722 1.11813 8.26846 1.03125 7.49219ZM3.96094 7.49219C4.46876 7.49219 4.97655 7.49219 5.48438 7.49219C5.48438 7.95313 5.48438 8.41405 5.48438 8.875C5.03062 8.8889 4.5814 8.93577 4.13672 9.01562C4.03795 8.51242 3.97936 8.0046 3.96094 7.49219ZM5.13281 9.90625C5.25 9.90625 5.36719 9.90625 5.48438 9.90625C5.48829 10.5313 5.48438 11.1563 5.47266 11.7812C5.08666 11.4551 4.79759 11.0567 4.60547 10.5859C4.53115 10.3941 4.45692 10.2027 4.38281 10.0117C4.63502 9.96866 4.88503 9.93351 5.13281 9.90625ZM3.32812 10.2109C3.35742 10.2127 3.37695 10.2284 3.38672 10.2578C3.53208 10.6947 3.70395 11.1166 3.90234 11.5234C3.37427 11.2693 2.90163 10.9372 2.48438 10.5273C2.51955 10.498 2.55862 10.4746 2.60156 10.457C2.84393 10.3671 3.08613 10.2851 3.32812 10.2109Z" fill="#685FFF"/>
<path opacity="0.984" fill-rule="evenodd" clip-rule="evenodd" d="M12.0009 9.32047C12.0009 9.41422 12.0009 9.50797 12.0009 9.60172C11.9506 9.70276 11.8725 9.77699 11.7666 9.82438C11.0644 10.0962 10.3612 10.3657 9.65719 10.633C9.36464 11.3745 9.07167 12.1166 8.77828 12.8595C8.72874 12.921 8.67014 12.9678 8.6025 13.0002C8.50875 13.0002 8.415 13.0002 8.32125 13.0002C8.22021 12.9498 8.14599 12.8717 8.0986 12.7658C7.56734 11.172 7.0361 9.57828 6.50485 7.98453C6.47799 7.63639 6.63814 7.47624 6.98532 7.50406C8.61378 8.04167 10.2388 8.58856 11.8603 9.14469C11.9217 9.19424 11.9686 9.25283 12.0009 9.32047Z" fill="#685FFF"/>
</svg>
