<svg width="136" height="24" viewBox="0 0 136 24" fill="none" xmlns="http://www.w3.org/2000/svg">
<path d="M136 1.18018H0V21.1802H136V1.18018Z" fill="#685FFF"/>
<path d="M8.03 15.1802L6.25 8.16018H8.08L9.09 13.2702L10.34 8.16018H12.22L13.42 13.2702L14.44 8.16018H16.28L14.45 15.1802H12.38L11.26 10.5602L10.1 15.1802H8.03ZM24.0476 11.6502C24.0476 13.7602 22.4476 15.2502 20.4576 15.2502C18.4676 15.2502 16.8476 13.7602 16.8476 11.6502C16.8476 9.54018 18.4676 8.06018 20.4576 8.06018C22.4576 8.06018 24.0476 9.54018 24.0476 11.6502ZM18.5976 11.6502C18.5976 12.8802 19.3176 13.6902 20.4576 13.6902C21.5776 13.6902 22.3076 12.8802 22.3076 11.6502C22.3076 10.4002 21.5776 9.61018 20.4576 9.61018C19.3176 9.61018 18.5976 10.4002 18.5976 11.6502ZM28.7089 10.4402C28.7089 9.92018 28.4089 9.58018 27.7689 9.58018H26.7089V11.3202H27.7689C28.4089 11.3202 28.7089 10.9902 28.7089 10.4402ZM24.9989 8.16018H27.8689C29.5889 8.16018 30.4489 9.15018 30.4489 10.3702C30.4489 11.2502 29.9689 12.0802 28.8889 12.4002L30.5089 15.1802H28.5789L27.1189 12.5302H26.7089V15.1802H24.9989V8.16018ZM35.5923 15.1802L33.2323 12.0802V15.1802H31.5223V8.16018H33.2323V11.2402L35.5723 8.16018H37.5823L34.8623 11.6002L37.6823 15.1802H35.5923ZM44.9141 8.16018V9.53018H42.3241V10.9502H44.6141V12.2702H42.3241V13.8102H44.9141V15.1802H40.6141V8.16018H44.9141ZM50.3243 15.1802L48.8943 13.0302L47.6343 15.1802H45.6943L47.9443 11.6102L45.6443 8.16018H47.6343L49.0443 10.2802L50.2843 8.16018H52.2243L49.9943 11.7002L52.3143 15.1802H50.3243ZM54.8827 11.3002H55.8127C56.4927 11.3002 56.7827 10.9602 56.7827 10.4202C56.7827 9.88018 56.4927 9.54018 55.8127 9.54018H54.8827V11.3002ZM58.5227 10.4202C58.5227 11.5802 57.7327 12.6602 55.9427 12.6602H54.8827V15.1802H53.1727V8.16018H55.9427C57.6627 8.16018 58.5227 9.13018 58.5227 10.4202ZM63.713 8.16018V9.53018H61.123V10.9502H63.413V12.2702H61.123V13.8102H63.713V15.1802H59.413V8.16018H63.713ZM68.5331 10.4402C68.5331 9.92018 68.2331 9.58018 67.5931 9.58018H66.5331V11.3202H67.5931C68.2331 11.3202 68.5331 10.9902 68.5331 10.4402ZM64.8231 8.16018H67.6931C69.4131 8.16018 70.2731 9.15018 70.2731 10.3702C70.2731 11.2502 69.7931 12.0802 68.7131 12.4002L70.3331 15.1802H68.4031L66.9431 12.5302H66.5331V15.1802H64.8231V8.16018ZM71.3466 15.1802V8.16018H73.0566V15.1802H71.3466ZM78.5958 8.16018V9.53018H76.0058V10.9502H78.2958V12.2702H76.0058V13.8102H78.5958V15.1802H74.2958V8.16018H78.5958ZM84.2759 8.16018H85.9859V15.1802H84.2759L81.4159 10.8502V15.1802H79.7059V8.16018H81.4159L84.2759 12.5102V8.16018ZM86.9355 11.6602C86.9355 9.56018 88.3955 8.08018 90.4655 8.08018C92.1355 8.08018 93.3955 9.02018 93.7955 10.5402H91.9155C91.6255 9.94018 91.0955 9.64018 90.4455 9.64018C89.3955 9.64018 88.6755 10.4202 88.6755 11.6602C88.6755 12.9002 89.3955 13.6802 90.4455 13.6802C91.0955 13.6802 91.6255 13.3802 91.9155 12.7802H93.7955C93.3955 14.3002 92.1355 15.2302 90.4655 15.2302C88.3955 15.2302 86.9355 13.7602 86.9355 11.6602ZM99.1427 8.16018V9.53018H96.5527V10.9502H98.8427V12.2702H96.5527V13.8102H99.1427V15.1802H94.8427V8.16018H99.1427Z" fill="white"/>
<path d="M119.522 23.1802C125.885 23.1802 131.044 18.0315 131.044 11.6802C131.044 5.32891 125.885 0.180176 119.522 0.180176C113.159 0.180176 108 5.32891 108 11.6802C108 18.0315 113.159 23.1802 119.522 23.1802Z" fill="#12B6EA"/>
<path opacity="0.958" fill-rule="evenodd" clip-rule="evenodd" d="M117.123 5.1821C118.292 5.17697 119.46 5.1821 120.629 5.19748C121.069 5.29854 121.33 5.57027 121.414 6.01268C121.429 6.22777 121.434 6.4431 121.429 6.65868C121.101 6.65868 120.773 6.65868 120.445 6.65868C120.445 6.49463 120.445 6.33055 120.445 6.16649C119.409 6.16649 118.374 6.16649 117.338 6.16649C117.338 6.33055 117.338 6.49463 117.338 6.65868C117.01 6.65868 116.682 6.65868 116.353 6.65868C116.348 6.41237 116.353 6.16627 116.369 5.92039C116.475 5.52202 116.726 5.27592 117.123 5.1821Z" fill="white"/>
<path opacity="0.984" fill-rule="evenodd" clip-rule="evenodd" d="M114.293 7.08953C117.411 7.07455 120.528 7.08993 123.644 7.13567C124.464 7.40438 124.833 7.97348 124.752 8.84297C123.788 8.83783 122.824 8.84297 121.86 8.85835C121.465 8.96602 121.214 9.21725 121.106 9.61202C121.091 10.2272 121.086 10.8424 121.091 11.4577C120.744 11.5666 120.395 11.6691 120.045 11.7654C120.101 10.9451 119.717 10.5965 118.892 10.7195C118.702 10.7246 118.512 10.7297 118.322 10.7348C118.059 10.7918 117.87 10.9405 117.753 11.1809C117.713 11.3734 117.697 11.5682 117.707 11.7654C116.143 11.2715 114.585 10.7587 113.031 10.2273C112.996 9.63279 112.99 9.03806 113.016 8.44306C113.115 7.6793 113.541 7.22811 114.293 7.08953Z" fill="white"/>
<path opacity="0.967" fill-rule="evenodd" clip-rule="evenodd" d="M122.014 9.27344C123.122 9.27344 124.229 9.27344 125.336 9.27344C125.331 9.83749 125.336 10.4015 125.352 10.9654C125.449 11.3499 125.69 11.5908 126.075 11.6883C126.639 11.7036 127.203 11.7088 127.767 11.7036C127.772 13.3956 127.767 15.0875 127.751 16.7794C127.707 16.977 127.589 17.1052 127.398 17.1639C126.48 17.1691 125.562 17.1742 124.644 17.1793C123.694 17.1841 122.746 17.1687 121.799 17.1332C121.689 17.075 121.612 16.9878 121.568 16.8717C121.548 14.4517 121.548 12.0318 121.568 9.61182C121.655 9.41257 121.804 9.29977 122.014 9.27344ZM122.722 10.2578C123.368 10.2527 124.014 10.2578 124.66 10.2732C124.917 10.3874 124.937 10.531 124.721 10.7039C124.044 10.7244 123.368 10.7244 122.691 10.7039C122.548 10.6401 122.502 10.5325 122.553 10.3809C122.599 10.3203 122.655 10.2793 122.722 10.2578ZM122.691 11.3653C123.368 11.3601 124.045 11.3653 124.721 11.3806C124.937 11.5536 124.917 11.6971 124.66 11.8113C124.014 11.8318 123.368 11.8318 122.722 11.8113C122.551 11.7665 122.494 11.6588 122.553 11.4883C122.595 11.44 122.642 11.399 122.691 11.3653ZM122.66 12.4727C123.983 12.4676 125.306 12.4727 126.628 12.4881C126.793 12.6214 126.793 12.7547 126.628 12.888C125.306 12.9085 123.983 12.9085 122.66 12.888C122.531 12.7963 122.505 12.6784 122.583 12.5342C122.614 12.5168 122.64 12.4963 122.66 12.4727ZM122.691 13.5494C123.983 13.5442 125.275 13.5494 126.567 13.5648C126.746 13.6302 126.792 13.7481 126.705 13.9185C126.669 13.9614 126.623 13.987 126.567 13.9954C125.275 14.0159 123.983 14.0159 122.691 13.9954C122.548 13.9317 122.502 13.824 122.553 13.6724C122.595 13.6241 122.642 13.5831 122.691 13.5494ZM122.66 14.6568C123.973 14.6517 125.285 14.6568 126.598 14.6722C126.789 14.79 126.799 14.9233 126.628 15.0721C125.306 15.0926 123.983 15.0926 122.66 15.0721C122.54 14.9932 122.509 14.8855 122.568 14.7491C122.607 14.7249 122.638 14.6941 122.66 14.6568ZM122.752 15.7335C124.003 15.7283 125.254 15.7335 126.505 15.7489C126.72 15.7882 126.787 15.9061 126.705 16.1026C126.678 16.1396 126.642 16.1652 126.598 16.1795C125.285 16.2 123.973 16.2 122.66 16.1795C122.508 16.0578 122.498 15.9245 122.629 15.7796C122.677 15.7732 122.718 15.7578 122.752 15.7335Z" fill="white"/>
<path opacity="0.938" fill-rule="evenodd" clip-rule="evenodd" d="M125.768 9.3042C126.447 9.93728 127.113 10.5884 127.767 11.2576C127.234 11.2781 126.701 11.2781 126.167 11.2576C125.945 11.2068 125.816 11.0683 125.783 10.8423C125.768 10.3297 125.762 9.817 125.768 9.3042Z" fill="white"/>
<path opacity="0.982" fill-rule="evenodd" clip-rule="evenodd" d="M113.277 10.7808C114.744 11.2644 116.21 11.7515 117.676 12.242C117.694 12.5238 117.719 12.8058 117.753 13.0879C117.843 13.3112 118.002 13.4599 118.23 13.534C118.661 13.5545 119.091 13.5545 119.522 13.534C119.783 13.4571 119.953 13.2879 120.03 13.0264C120.035 12.7694 120.05 12.5131 120.076 12.2573C120.404 12.1445 120.732 12.0318 121.06 11.919C121.091 13.1493 121.101 14.3797 121.091 15.6104C118.763 15.6155 116.436 15.6104 114.108 15.595C113.679 15.5147 113.407 15.2634 113.293 14.8414C113.277 13.4879 113.272 12.1343 113.277 10.7808ZM118.814 11.919C119.019 11.9232 119.106 12.0258 119.076 12.2266C118.946 12.3899 118.812 12.3899 118.676 12.2266C118.648 12.0887 118.694 11.9861 118.814 11.919Z" fill="white"/>
<path opacity="0.954" fill-rule="evenodd" clip-rule="evenodd" d="M118.291 11.1811C118.681 11.176 119.07 11.1811 119.46 11.1965C119.504 11.2108 119.54 11.2365 119.568 11.2734C119.618 11.8251 119.628 12.3788 119.598 12.9346C119.574 12.9895 119.538 13.0357 119.491 13.073C119.114 13.123 118.735 13.1333 118.353 13.1038C118.28 13.0931 118.224 13.0572 118.183 12.9961C118.163 12.4321 118.163 11.8681 118.183 11.3042C118.205 11.2473 118.24 11.2062 118.291 11.1811ZM118.814 11.9194C118.693 11.9866 118.647 12.0891 118.676 12.227C118.812 12.3903 118.945 12.3903 119.075 12.227C119.105 12.0262 119.018 11.9237 118.814 11.9194Z" fill="white"/>
</svg>
