<svg width="320" height="258" viewBox="0 0 320 258" fill="none" xmlns="http://www.w3.org/2000/svg">
<g style="mix-blend-mode:multiply" opacity="0.6">
<path d="M0 -1.42499e-05L-7.12097e-06 162.909C40.3427 89.4437 100.257 65.7881 194.876 104.954C268.885 135.584 309.707 103.679 326 90.927L326 0L0 -1.42499e-05Z" fill="#CBC8FF"/>
</g>
<g style="mix-blend-mode:multiply" opacity="0.6">
<path d="M0 -1.42499e-05L-4.86865e-06 111.382C18.4721 78.0192 59.2546 24.4103 125.586 39.0096C207.731 57.0961 261.708 171.861 326 116.717L326 0L0 -1.42499e-05Z" fill="#A6A0FF"/>
</g>
<g style="mix-blend-mode:multiply" opacity="0.6">
<path d="M0 -1.42499e-05L-3.36369e-06 76.9523C18.4721 53.8952 59.2546 16.8634 125.586 26.9346C207.731 39.452 261.708 118.746 326 80.6477L326 0L0 -1.42499e-05Z" fill="#A6A0FF"/>
</g>
<g style="mix-blend-mode:multiply" opacity="0.6">
<path d="M326 257.817L326 0L0 -1.42499e-05L-1.39462e-06 31.9051C20.0314 47.7796 55.4562 68.1562 106.914 70.2381C182.802 73.2829 295.173 -59.4383 326 257.817Z" fill="#857EFF"/>
</g>
<g style="mix-blend-mode:multiply" opacity="0.6">
<path d="M326 190.598L326 0L0 -1.42499e-05L-1.03174e-06 23.6035C20.0314 35.3403 55.4562 50.408 106.914 51.9434C182.802 54.1815 295.173 -43.9541 326 190.598Z" fill="#857EFF"/>
</g>
<g style="mix-blend-mode:multiply" opacity="0.6">
<path d="M21.7705 -7.81311e-06C43.901 17.7742 74.7477 43.0693 114.551 44.0062C147.117 44.7869 175.324 22.4065 200.514 0L21.7705 -7.81311e-06Z" fill="#685FFF"/>
</g>
<g style="mix-blend-mode:multiply" opacity="0.6">
<path d="M326 0L272.683 -2.33056e-06C276.601 19.5699 283.178 38.1769 294.134 53.7391C302.59 65.7621 313.545 73.5692 326 78.4877L326 0Z" fill="#685FFF"/>
</g>
</svg>
