<svg width="25" height="25" viewBox="0 0 25 25" fill="none" xmlns="http://www.w3.org/2000/svg">
<path d="M20.5092 2.8812C20.5538 2.91939 20.5983 2.95735 20.643 2.99555C20.6562 3.00874 20.6691 3.0217 20.6823 3.0349C20.6883 3.04092 20.6946 3.04717 20.7006 3.05318C20.7189 3.06638 20.7374 3.0798 20.7557 3.093C20.7886 3.11939 20.8214 3.14554 20.8543 3.17193C20.8599 3.17749 20.8654 3.18304 20.871 3.1886C20.9615 3.27262 21.052 3.35688 21.1425 3.44091C21.148 3.44646 21.1536 3.45202 21.1592 3.45757C21.3714 3.67632 21.5837 3.89483 21.796 4.11358C21.8015 4.11914 21.8071 4.12469 21.8126 4.13025C21.8198 4.14275 21.827 4.15525 21.8344 4.16775C21.8476 4.18094 21.8605 4.1939 21.8737 4.2071C21.899 4.23349 21.9244 4.25987 21.9497 4.28649C21.9552 4.29205 21.9608 4.29761 21.9663 4.30316C22.0311 4.38603 22.0962 4.46913 22.161 4.55223C22.1742 4.56542 22.1871 4.57839 22.2003 4.59158C22.3219 4.75153 22.4432 4.91125 22.5647 5.0712C22.583 5.09088 22.6015 5.11055 22.6198 5.13023C22.6846 5.2205 22.7494 5.31101 22.8142 5.40129C22.8107 5.45777 22.8232 5.50383 22.889 5.51448C22.9413 5.59758 22.9938 5.68068 23.0462 5.76378C23.0536 5.84086 23.0776 5.9073 23.1582 5.93739C23.1728 5.96702 23.1874 5.99642 23.2017 6.02605C23.2193 6.0478 23.2367 6.06933 23.2543 6.09109C23.2614 6.10984 23.2688 6.12859 23.276 6.14734C23.2881 6.16053 23.2999 6.17373 23.3119 6.18715C23.3577 6.26354 23.4033 6.34016 23.4492 6.41655C23.455 6.47719 23.4431 6.54641 23.5235 6.57164C23.5306 6.58414 23.538 6.59641 23.5452 6.60891C23.5573 6.63483 23.5691 6.66099 23.5811 6.68691C23.5883 6.69941 23.5957 6.71168 23.6029 6.72418C23.6096 6.79524 23.6038 6.87325 23.6964 6.89848C23.7091 6.91793 23.7221 6.9376 23.7348 6.95705C23.7413 6.97603 23.7475 6.99478 23.754 7.01376C23.7552 7.01978 23.7561 7.0258 23.7566 7.03181C23.7686 7.05774 23.7804 7.0839 23.7924 7.10982C23.7996 7.12232 23.807 7.13459 23.8142 7.14709C23.8262 7.17302 23.838 7.19917 23.8501 7.2251C23.8573 7.2376 23.8647 7.24987 23.8718 7.26237C23.8839 7.28829 23.8957 7.31445 23.9077 7.34037C23.9089 7.34639 23.9098 7.35241 23.9103 7.35843C23.9223 7.38435 23.9341 7.41051 23.9461 7.43644C23.9542 7.45958 23.9623 7.48273 23.9707 7.50611C23.9818 7.52787 23.9929 7.5494 24.004 7.57092C24.0177 7.59083 24.0313 7.61074 24.0452 7.63065C24.0508 7.6362 24.0563 7.64176 24.0619 7.64731C24.0885 7.73041 24.1149 7.81351 24.1415 7.89638C24.1297 7.92786 24.0964 7.96559 24.1637 7.97462C24.1691 7.98689 24.1744 7.99916 24.1797 8.01166C24.1797 8.0186 24.1792 8.02531 24.1792 8.03226V8.10911C24.1978 8.12184 24.2163 8.1348 24.2348 8.14753C24.2422 8.15471 24.2494 8.16165 24.2568 8.16883C24.2623 8.17439 24.2679 8.17994 24.2735 8.1855C24.2871 8.2311 24.3008 8.27693 24.3144 8.32253C24.32 8.32809 24.3255 8.33364 24.3311 8.3392C24.3651 8.4547 24.3989 8.56998 24.4327 8.68549C24.4216 8.69035 24.4107 8.69521 24.3996 8.70007C24.4107 8.70817 24.4216 8.71604 24.4327 8.72414C24.47 8.84104 24.51 8.95724 24.5434 9.07529C24.5677 9.1614 24.5829 9.25006 24.6024 9.33756C24.6144 9.35075 24.6262 9.36395 24.6383 9.37737C24.6542 9.44682 24.6853 9.51672 24.6832 9.5857C24.6788 9.72968 24.7977 9.85514 24.7396 10.0044C24.7572 10.0262 24.7746 10.0477 24.7922 10.0695C24.7952 10.075 24.8001 10.0804 24.8008 10.0864C24.8244 10.2406 24.848 10.3945 24.8709 10.5489C24.8852 10.6449 24.9028 10.7405 24.9107 10.8373C24.9174 10.9181 24.9123 10.9996 24.9123 11.0808C24.9299 11.1026 24.9473 11.1241 24.9649 11.1459C24.972 11.1732 24.9852 11.2003 24.9852 11.2276C24.9857 12.0845 24.9848 12.9414 24.9841 13.7981C24.8943 13.8201 24.8711 13.8859 24.9299 13.9525C24.9288 13.9974 24.9276 14.0423 24.9265 14.087C24.9211 14.1062 24.9158 14.1254 24.9105 14.1446C24.9093 14.1831 24.9082 14.2215 24.9072 14.2599C24.8846 14.2701 24.8619 14.2803 24.8309 14.2942C24.8459 14.3166 24.8591 14.3363 24.8723 14.356C24.8711 14.4136 24.87 14.4713 24.869 14.5289C24.8035 14.5634 24.7383 14.5981 24.8146 14.6826C24.8135 14.7465 24.8123 14.8104 24.8112 14.8743C24.8059 14.8872 24.8005 14.9002 24.7954 14.9131C24.7762 15.0027 24.757 15.0923 24.7378 15.1821C24.6984 15.1837 24.654 15.1821 24.6994 15.24C24.6982 15.2784 24.6971 15.3168 24.6961 15.3553C24.6734 15.3655 24.6508 15.3756 24.6197 15.3895C24.6348 15.412 24.648 15.4317 24.6612 15.4513C24.66 15.4833 24.6589 15.5155 24.6579 15.5474C24.6526 15.5666 24.6473 15.5858 24.642 15.605C24.6228 15.6754 24.6035 15.746 24.5843 15.8164C24.545 15.818 24.5005 15.8164 24.5459 15.8742C24.5447 15.8999 24.5436 15.9254 24.5427 15.9511C24.5373 15.9703 24.532 15.9895 24.5267 16.0087C24.5128 16.0599 24.4989 16.1113 24.4848 16.1624C24.4728 16.1687 24.4605 16.1749 24.4475 16.1833C24.4482 16.1823 24.4498 16.1791 24.4515 16.1761C24.4362 16.1668 24.4209 16.1578 24.4059 16.1485C24.4031 16.1539 24.4003 16.1592 24.3975 16.1645C24.414 16.1715 24.4302 16.1784 24.4475 16.1833C24.4487 16.1879 24.4489 16.1948 24.4489 16.2016C24.4485 16.2078 24.4475 16.2138 24.4464 16.2198C24.4364 16.2404 24.4265 16.261 24.4165 16.2816C24.4165 16.2923 24.4165 16.3029 24.4165 16.3134C24.3316 16.3164 24.3519 16.3515 24.3922 16.3928C24.3857 16.4312 24.3795 16.4696 24.373 16.5078C24.3336 16.5094 24.2892 16.5078 24.3346 16.5657C24.3334 16.5911 24.3322 16.6168 24.3313 16.6423C24.3049 16.662 24.217 16.6386 24.2769 16.7194C24.2758 16.7451 24.2746 16.7705 24.2737 16.7962C24.2473 16.8159 24.1593 16.7925 24.2193 16.8733C24.1862 16.9694 24.1531 17.0654 24.1198 17.1615C24.0867 17.1851 24.0047 17.1812 24.0654 17.2578C24.0642 17.2832 24.063 17.3089 24.0621 17.3344C24.0357 17.3541 23.9478 17.3307 24.0077 17.4115C24.0012 17.4369 23.995 17.4626 23.9885 17.4881C23.9492 17.4897 23.9047 17.4881 23.9501 17.546C23.9362 17.5906 23.9223 17.6351 23.9082 17.6798C23.8723 17.6828 23.8262 17.6761 23.8538 17.7381C23.8334 17.7957 23.813 17.8531 23.7929 17.9108C23.7809 17.917 23.7686 17.9233 23.7556 17.9316C23.7563 17.9307 23.758 17.9274 23.7596 17.9244C23.7443 17.9152 23.729 17.9061 23.714 17.8969C23.7112 17.9022 23.7084 17.9075 23.7056 17.9129C23.7221 17.9198 23.7383 17.9268 23.7556 17.9316C23.7568 17.9362 23.757 17.9432 23.757 17.9499C23.7566 17.9561 23.7556 17.9622 23.7545 17.9684C23.7214 17.992 23.6394 17.9881 23.7001 18.0647C23.6605 18.1543 23.6209 18.2439 23.5813 18.3335C23.5003 18.3541 23.5001 18.3545 23.5269 18.4105C23.5258 18.4233 23.5246 18.436 23.5237 18.449C23.486 18.4744 23.4482 18.4999 23.4105 18.5254C23.3501 18.5466 23.3663 18.5832 23.3913 18.6214C23.3982 18.6279 23.405 18.6346 23.4119 18.6411C23.3927 18.673 23.3735 18.7052 23.3543 18.7372C23.2422 18.7575 23.207 18.8135 23.2582 18.8911C23.2219 18.9612 23.189 19.033 23.1485 19.1008C23.1124 19.1614 23.0682 19.2175 23.0274 19.2753C22.9881 19.277 22.9436 19.2753 22.989 19.3332C22.9441 19.4036 22.8994 19.4739 22.8545 19.5445C22.8327 19.5445 22.8096 19.5395 22.7897 19.5455C22.7658 19.5526 22.745 19.5695 22.7228 19.5823C22.7411 19.6017 22.7594 19.6212 22.7779 19.6406C22.733 19.7047 22.6881 19.7688 22.6432 19.833C22.5341 19.8348 22.5307 19.8394 22.5663 19.9295C22.4983 20.0256 22.4318 20.1228 22.3617 20.2174C22.3175 20.2772 22.2677 20.333 22.2203 20.3904C22.1591 20.3809 22.1337 20.407 22.142 20.4677C22.0976 20.5251 22.0531 20.5827 22.0087 20.6401C21.9578 20.6408 21.8983 20.6327 21.9318 20.7172C21.9191 20.7364 21.9061 20.7554 21.8934 20.7746C21.8517 20.7732 21.8073 20.7686 21.8175 20.8339C21.7087 20.8325 21.7041 20.838 21.7399 20.9285C21.6728 21.011 21.6108 21.098 21.5374 21.1746C21.4163 21.301 21.2883 21.4207 21.1633 21.5431C21.0714 21.5116 21.0314 21.5424 21.0471 21.6401C21.0281 21.6591 21.0092 21.6781 20.9902 21.6971C20.8599 21.6991 20.8175 21.7369 20.8163 21.8517C20.7974 21.8707 20.7784 21.8896 20.7594 21.9086C20.7339 21.922 20.7085 21.9352 20.6832 21.9487C20.6184 21.9385 20.6226 21.9825 20.624 22.0241L20.6242 22.0239C20.5821 22.0216 20.54 22.0197 20.5471 22.0825C20.5346 22.095 20.5221 22.1075 20.5094 22.12C20.4839 22.1334 20.4585 22.1466 20.4332 22.16C20.3684 22.1498 20.3726 22.1938 20.374 22.2355L20.3742 22.2352C20.349 22.2484 20.3238 22.2619 20.2985 22.2753C20.2789 22.294 20.2592 22.3128 20.2395 22.3315L20.2397 22.3313C20.2145 22.3445 20.1893 22.3579 20.164 22.3713C20.0992 22.3612 20.1034 22.4051 20.1048 22.4468L20.105 22.4466C20.0798 22.46 20.0546 22.4732 20.0293 22.4866C20.0096 22.5054 19.99 22.5241 19.9703 22.5429L19.9705 22.5426C19.9289 22.5406 19.8865 22.5378 19.8934 22.6005L19.8937 22.6003C19.852 22.5982 19.8096 22.5954 19.8166 22.6581L19.8168 22.6579C19.7916 22.6713 19.7664 22.6845 19.7411 22.698V22.6982C19.6559 22.6609 19.6372 22.7056 19.6416 22.779C19.6233 22.7899 19.605 22.801 19.587 22.8118C19.5448 22.8098 19.5022 22.807 19.5092 22.8704C19.4571 22.9086 19.405 22.9468 19.3529 22.985C19.3474 22.9905 19.3418 22.9961 19.3363 23.0017C19.2536 23.053 19.1712 23.1051 19.0879 23.1556C19.0705 23.1662 19.049 23.1702 19.0296 23.1771C18.9659 23.1658 18.8972 23.1468 18.9134 23.2549C18.8303 23.2996 18.7474 23.344 18.6643 23.3887C18.6006 23.3773 18.5319 23.3584 18.5481 23.4665C18.5289 23.4729 18.5097 23.4792 18.4907 23.4857C18.4152 23.4334 18.4416 23.525 18.4136 23.5401C18.3689 23.5602 18.3245 23.5801 18.2798 23.6003C18.24 23.5991 18.1967 23.5931 18.2016 23.6553C18.1634 23.6692 18.1252 23.6831 18.087 23.697C18.0291 23.6519 18.0307 23.6961 18.0291 23.7354C17.881 23.8086 17.7331 23.8824 17.584 23.9537C17.5625 23.9641 17.5352 23.9623 17.5104 23.966C17.4525 23.9209 17.4541 23.9651 17.4525 24.0044C17.4271 24.0109 17.4014 24.0171 17.3759 24.0236C17.318 23.9785 17.3196 24.0227 17.318 24.0621C17.2092 24.1005 17.1002 24.1389 16.9914 24.1773C16.9335 24.1322 16.9352 24.1764 16.9335 24.2158C16.8502 24.2414 16.7671 24.2669 16.6838 24.2926C16.662 24.2813 16.6403 24.2697 16.6185 24.2583C16.6081 24.288 16.5977 24.3174 16.5873 24.347C16.5234 24.3609 16.4595 24.3748 16.3958 24.3887C16.338 24.3435 16.3396 24.3877 16.338 24.4271C16.2354 24.4528 16.1331 24.4783 16.0306 24.5039C15.9727 24.4588 15.9743 24.503 15.9727 24.5424C15.8701 24.5616 15.7678 24.5808 15.6653 24.6C15.6074 24.5549 15.609 24.5991 15.6074 24.6384C15.55 24.6445 15.4926 24.6507 15.4352 24.6567C15.3954 24.6556 15.3521 24.6495 15.357 24.7118C15.3058 24.713 15.2549 24.7141 15.2037 24.7151C15.182 24.7037 15.1602 24.6921 15.1384 24.6808C15.128 24.7104 15.1176 24.7398 15.1072 24.7694C14.9421 24.8005 14.7778 24.8354 14.6121 24.8611C14.5093 24.8771 14.4044 24.8794 14.3005 24.888C14.2493 24.847 14.2431 24.8808 14.2422 24.9232C14.0993 24.9352 13.9493 24.8949 13.8174 24.9833C13.8118 24.9889 13.8063 24.9944 13.8007 25C12.929 25 12.0572 25 11.1855 25C11.1799 24.9944 11.1744 24.9889 11.1688 24.9833C11.1617 24.9762 11.1547 24.9688 11.1475 24.9616C11.1154 24.95 11.0832 24.9382 11.051 24.9266C10.9679 24.9262 10.8843 24.9303 10.8017 24.9236C10.7561 24.9199 10.7119 24.8984 10.667 24.8847C10.654 24.8794 10.6411 24.8741 10.6279 24.869C10.4239 24.8731 10.2283 24.8285 10.0323 24.7766C9.91145 24.7447 9.78368 24.7394 9.66146 24.712C9.55289 24.6877 9.4478 24.6486 9.3404 24.6183C9.2654 24.5972 9.18878 24.582 9.11401 24.5602C9.00684 24.5289 8.90105 24.4928 8.79411 24.4611C8.66286 24.4222 8.53069 24.387 8.39944 24.3475C8.34875 24.3322 8.30014 24.3102 8.25083 24.2905C8.12074 24.2389 7.99065 24.1868 7.86033 24.135C7.82793 24.1167 7.79552 24.0982 7.76288 24.0799C7.7057 24.0597 7.6483 24.0396 7.59112 24.0197C7.58001 23.9757 7.56404 23.9422 7.51358 23.9847C7.4946 23.9771 7.47562 23.9697 7.45664 23.9621C7.44552 23.9181 7.42955 23.8845 7.37909 23.9271C7.36011 23.9195 7.34113 23.9121 7.32192 23.9044C7.28534 23.8334 7.22284 23.8102 7.14761 23.8109C7.14159 23.8104 7.13558 23.8095 7.12956 23.8084C7.11845 23.7644 7.10224 23.7308 7.05201 23.7734C7.03303 23.7658 7.01405 23.7584 6.99507 23.7507C6.97331 23.7331 6.95155 23.7158 6.93003 23.6982C6.91336 23.6966 6.89646 23.6947 6.87979 23.6931C6.81128 23.604 6.72031 23.5551 6.60943 23.5419C6.60341 23.5415 6.59739 23.5405 6.59137 23.5394C6.56961 23.5218 6.54786 23.5044 6.5261 23.4868C6.50943 23.4852 6.49276 23.4834 6.4761 23.4817C6.45434 23.4641 6.43258 23.4468 6.41105 23.4292C6.37517 23.4146 6.33906 23.4 6.30318 23.3857C6.29531 23.369 6.29161 23.344 6.27865 23.3371C6.15272 23.2692 6.02518 23.2042 5.89833 23.1385C5.88606 23.1313 5.87356 23.1239 5.86129 23.1167C5.8312 23.0361 5.76477 23.0121 5.68769 23.0049C5.66222 22.991 5.63676 22.9769 5.6113 22.963C5.59162 22.9447 5.57195 22.9262 5.55227 22.9079C5.54625 22.9074 5.54024 22.9065 5.53445 22.9054C5.52102 22.828 5.45482 22.8271 5.39857 22.8118C5.3863 22.8047 5.3738 22.7973 5.36154 22.7901C5.34834 22.778 5.33492 22.7662 5.32172 22.7542C5.30274 22.747 5.28376 22.7399 5.26501 22.7324C5.25945 22.7269 5.2539 22.7213 5.24834 22.7158C5.24117 22.7086 5.23422 22.7012 5.22705 22.694C5.21594 22.6549 5.20783 22.6114 5.1495 22.6399C5.04696 22.5683 4.94464 22.4968 4.8421 22.4253C4.83654 22.4197 4.83099 22.4142 4.82543 22.4086C4.74141 22.3438 4.65715 22.2788 4.57312 22.2139C4.56757 22.2084 4.56201 22.2028 4.55646 22.1973C4.3185 21.985 4.08054 21.7727 3.84281 21.5607C3.83726 21.5552 3.8317 21.5496 3.82615 21.544C3.69721 21.4151 3.56828 21.2862 3.43912 21.1572C3.43356 21.1517 3.42801 21.1461 3.42245 21.1406C3.35764 21.0693 3.29259 20.998 3.22778 20.9267C3.22222 20.9211 3.21667 20.9156 3.21111 20.91C3.20394 20.9029 3.19653 20.8957 3.18935 20.8883C3.1838 20.8827 3.17824 20.8772 3.17269 20.8716C3.15903 20.8579 3.14537 20.8443 3.13172 20.8306C3.12616 20.8251 3.1206 20.8195 3.11505 20.814C3.01158 20.6915 2.90834 20.5688 2.8051 20.4464C2.79955 20.4408 2.79399 20.4353 2.78843 20.4297C2.65973 20.2624 2.5308 20.095 2.4021 19.9276C2.39006 19.9091 2.37779 19.8906 2.36576 19.8721C2.30071 19.7818 2.2359 19.6913 2.17085 19.601C2.1653 19.5955 2.15974 19.5899 2.15419 19.5844C2.14701 19.5719 2.13984 19.5594 2.13243 19.5466C2.12039 19.527 2.10859 19.5073 2.09655 19.4878C2.03799 19.3985 1.97942 19.3094 1.92086 19.22C1.90882 19.2003 1.89702 19.1807 1.88498 19.1612C1.8778 19.1487 1.8704 19.1364 1.86322 19.124C1.85118 19.1043 1.83938 19.0846 1.82734 19.0652C1.8072 19.0334 1.78706 19.002 1.76716 18.9702C1.75512 18.9506 1.74331 18.9309 1.73128 18.9115C1.7241 18.8927 1.7167 18.874 1.70952 18.855C1.69748 18.8418 1.68568 18.8286 1.67364 18.8152C1.66646 18.7964 1.65906 18.7777 1.65188 18.7589C1.63984 18.7457 1.62804 18.7325 1.616 18.7191C1.60211 18.6936 1.58799 18.6682 1.57411 18.6427C1.56878 18.6297 1.56346 18.6168 1.55836 18.6036C1.55721 18.5976 1.55628 18.5918 1.55582 18.5858C1.54378 18.5726 1.53198 18.5594 1.51994 18.546C1.51276 18.5272 1.50536 18.5085 1.49818 18.4897C1.48614 18.47 1.47434 18.4504 1.4623 18.4307C1.45513 18.4182 1.44772 18.4059 1.44054 18.3934C1.42851 18.3675 1.4167 18.3413 1.40466 18.3154C1.39749 18.3029 1.39008 18.2906 1.38291 18.2781C1.37087 18.2522 1.35906 18.226 1.34703 18.2001C1.33985 18.1876 1.33244 18.1754 1.32527 18.1629C1.31323 18.1369 1.30143 18.1108 1.28939 18.0848C1.28221 18.0777 1.27504 18.0707 1.26809 18.0636C1.25606 18.0386 1.24379 18.0138 1.23175 17.9888C1.23059 17.9828 1.22967 17.9767 1.2292 17.9707C1.21717 17.9448 1.20536 17.9186 1.19333 17.8927C1.17411 17.8605 1.1549 17.8286 1.13569 17.7964C1.14518 17.7899 1.15467 17.7837 1.16393 17.7772C1.15444 17.7707 1.14495 17.7645 1.13569 17.758C1.12851 17.7508 1.12134 17.7439 1.11439 17.7367C1.10235 17.7117 1.09009 17.6869 1.07805 17.6619C1.07689 17.6559 1.07597 17.6499 1.0755 17.6439C1.06347 17.618 1.05166 17.5918 1.03962 17.5659C1.03245 17.5471 1.02504 17.5281 1.01787 17.5094C1.00583 17.4835 0.994023 17.4573 0.981987 17.4314C0.968329 17.4115 0.954672 17.3916 0.940784 17.3717C0.935228 17.3661 0.929673 17.3606 0.924117 17.355C0.924117 17.342 0.924117 17.3288 0.924117 17.3159C0.933608 17.3094 0.943098 17.3032 0.952357 17.2967L0.924117 17.2775C0.904905 17.2518 0.885692 17.2261 0.866479 17.2004C0.87597 17.1939 0.885461 17.1876 0.89472 17.1812C0.885229 17.1747 0.875739 17.1684 0.866479 17.1619C0.847267 17.1235 0.828054 17.0849 0.808842 17.0464C0.818332 17.04 0.827823 17.0337 0.837082 17.0272C0.827591 17.0207 0.818101 17.0145 0.808842 17.008C0.79611 16.9823 0.783148 16.9566 0.770416 16.9309C0.779907 16.9245 0.789398 16.9182 0.798657 16.9117C0.789166 16.9052 0.779675 16.899 0.770416 16.8925C0.756759 16.8726 0.743102 16.8527 0.729213 16.8328C0.723658 16.8272 0.718103 16.8217 0.712547 16.8161C0.712547 16.8032 0.712547 16.79 0.712547 16.777C0.722038 16.7705 0.731528 16.7643 0.740787 16.7578C0.731297 16.7513 0.721806 16.7451 0.712547 16.7386C0.69889 16.7187 0.685233 16.6988 0.671344 16.6789C0.665789 16.6733 0.660233 16.6677 0.654678 16.6622C0.654678 16.6492 0.654678 16.636 0.654678 16.6231C0.664168 16.6166 0.673659 16.6103 0.682918 16.6039C0.673427 16.5974 0.663937 16.5911 0.654678 16.5846C0.635465 16.5397 0.616253 16.4948 0.59704 16.4499C0.606531 16.4437 0.616021 16.4372 0.62528 16.4307C0.61579 16.4242 0.606299 16.418 0.59704 16.4115C0.577827 16.3601 0.558615 16.309 0.539402 16.2576C0.548893 16.2513 0.558383 16.2448 0.567642 16.2384L0.539402 16.2191C0.531995 16.212 0.524819 16.205 0.517412 16.1978C0.511856 16.1923 0.506301 16.1867 0.500745 16.1812C0.500745 16.1617 0.500745 16.1423 0.500745 16.1228C0.510236 16.1164 0.519727 16.1101 0.528986 16.1036L0.500745 16.0844C0.481533 16.033 0.46232 15.9819 0.443108 15.9305C0.452598 15.9242 0.462089 15.9178 0.471348 15.9113C0.461857 15.9048 0.452367 15.8985 0.443108 15.8921C0.423895 15.8344 0.404682 15.7766 0.38547 15.7189C0.39496 15.7127 0.404451 15.7062 0.41371 15.6997C0.404219 15.6932 0.394729 15.687 0.38547 15.6805C0.366257 15.6229 0.347045 15.565 0.327832 15.5074C0.337323 15.5011 0.346813 15.4946 0.356072 15.4881L0.327832 15.4689C0.315101 15.4113 0.302138 15.3534 0.289407 15.2958C0.342184 15.252 0.313017 15.2245 0.270194 15.1999C0.262787 15.1928 0.255611 15.1858 0.248435 15.1787C0.24288 15.1731 0.237324 15.1675 0.231769 15.162C0.231769 15.1168 0.231769 15.0719 0.231769 15.0268C0.24126 15.0206 0.25075 15.0141 0.260009 15.0076C0.250519 15.0011 0.241028 14.9949 0.231769 14.9884C0.15978 14.9173 0.168807 14.8273 0.174131 14.7384C0.183622 14.7321 0.193112 14.7257 0.202371 14.7192L0.174131 14.7C0.166492 14.681 0.159085 14.662 0.151446 14.6428C0.146122 14.6298 0.140798 14.6169 0.135706 14.6037C0.129225 14.5331 0.122975 14.4627 0.116493 14.3921C0.125984 14.3858 0.135474 14.3794 0.144734 14.3729C0.135243 14.3664 0.125752 14.3601 0.116493 14.3537C0.103762 14.3023 0.0907994 14.2511 0.0780681 14.1997C0.0875587 14.1933 0.0970492 14.187 0.106308 14.1805L0.0780681 14.1613C0.0715868 14.1037 0.0653369 14.0458 0.0588555 13.9882C0.111632 13.9444 0.0824662 13.9169 0.0396429 13.8923C0.0262172 13.8507 0.000986202 13.8092 0.000754725 13.7676C-0.000865615 12.9185 0.000523248 12.0697 0.00121768 11.2206C0.0720497 11.1803 0.0975122 11.1079 0.0553833 11.0665C0.0565407 11.0153 0.0576981 10.9641 0.0588555 10.913C0.0750589 10.9017 0.0912623 10.8903 0.107466 10.879L0.074596 10.8549C0.0757533 10.8102 0.0769107 10.7655 0.0780681 10.7206C0.100521 10.7093 0.122975 10.6982 0.145428 10.6868C0.134549 10.6787 0.123901 10.6706 0.113021 10.6625C0.114179 10.5857 0.115336 10.5091 0.116493 10.4322C0.196353 10.3882 0.215103 10.3412 0.170659 10.2973C0.171816 10.2461 0.172974 10.195 0.174131 10.1438C0.251907 10.1007 0.267648 10.0672 0.228297 10.0281C0.229454 9.97065 0.230612 9.91301 0.231769 9.85561C0.259315 9.83709 0.287092 9.81857 0.314638 9.79982C0.305147 9.78616 0.295425 9.77274 0.285935 9.75908C0.287092 9.72065 0.288249 9.68246 0.289407 9.64403C0.362554 9.60931 0.371581 9.58431 0.32436 9.54774C0.325517 9.5158 0.326675 9.48385 0.327832 9.45191C0.405608 9.40885 0.421349 9.37529 0.381998 9.33617C0.383155 9.29798 0.384312 9.25955 0.38547 9.22136C0.413016 9.20284 0.440793 9.18432 0.468339 9.16557C0.458848 9.15191 0.449126 9.13849 0.439635 9.12483C0.440793 9.08016 0.44195 9.03548 0.443108 8.99081C0.471811 8.97969 0.500514 8.96858 0.529217 8.95724C0.518569 8.94914 0.507921 8.94081 0.497273 8.9327C0.498431 8.90724 0.499588 8.88178 0.500745 8.85632C0.523199 8.84498 0.545652 8.83386 0.568105 8.82252C0.557226 8.81442 0.546578 8.80632 0.535698 8.79822C0.536856 8.76627 0.538013 8.73456 0.539171 8.70262C0.566716 8.6841 0.594494 8.66558 0.622039 8.64683C0.612549 8.63317 0.602827 8.61975 0.593336 8.60609C0.594494 8.58063 0.595651 8.55517 0.596808 8.5297C0.624354 8.51119 0.652131 8.49267 0.679677 8.47392C0.670187 8.46026 0.660465 8.44683 0.650974 8.43318C0.652132 8.4142 0.653289 8.39498 0.654446 8.376C0.681992 8.35748 0.709538 8.33897 0.737315 8.32022C0.727825 8.30656 0.718103 8.29313 0.708612 8.27948C0.709769 8.2605 0.710927 8.24128 0.712084 8.2223C0.759768 8.2105 0.840786 8.05957 0.82273 8.01467C0.821341 8.01143 0.810925 8.01189 0.804675 8.0105C0.805832 7.98504 0.80699 7.95957 0.808147 7.93411C0.83685 7.923 0.865554 7.91189 0.894257 7.90055C0.883609 7.89245 0.872961 7.88411 0.862313 7.87601C0.86347 7.85055 0.864628 7.82509 0.865785 7.79962C0.894488 7.78851 0.923191 7.77717 0.951894 7.76606C0.941247 7.75773 0.930599 7.74963 0.919951 7.74129C0.921108 7.72231 0.922265 7.70333 0.923423 7.68412C0.983144 7.66953 1.07666 7.51977 1.06069 7.46167C1.0593 7.45681 1.04402 7.45588 1.03523 7.4531C1.03638 7.44037 1.03754 7.42764 1.0387 7.41514C1.06115 7.4038 1.08361 7.39269 1.10606 7.38134C1.09518 7.37324 1.08453 7.36514 1.07365 7.35704C1.07481 7.34431 1.07597 7.33181 1.07712 7.31908C1.10606 7.30149 1.13499 7.28366 1.16393 7.26607C1.15305 7.25797 1.14217 7.24987 1.13129 7.24176C1.13245 7.22278 1.1336 7.20357 1.13476 7.18459C1.16416 7.17278 1.20536 7.16908 1.22064 7.14732C1.25698 7.09478 1.28291 7.03436 1.30883 6.97533C1.31254 6.96677 1.29379 6.94802 1.28522 6.93413C1.28638 6.9214 1.28754 6.9089 1.28869 6.89617C1.31624 6.87765 1.34402 6.85913 1.37156 6.84038C1.36207 6.82673 1.35235 6.8133 1.34286 6.79964C1.34402 6.78691 1.34517 6.77418 1.34633 6.76168C1.37573 6.74988 1.41716 6.7464 1.43198 6.72488C1.46809 6.6721 1.49355 6.61145 1.51924 6.55242C1.52295 6.54363 1.50489 6.52534 1.49679 6.51145C1.49795 6.49247 1.49911 6.47326 1.50026 6.45428C1.53082 6.44294 1.57364 6.44039 1.58961 6.4184C1.64679 6.339 1.6991 6.25521 1.74447 6.1684C1.76646 6.12628 1.76901 6.07419 1.78035 6.02651C1.77989 6.02142 1.78081 6.01656 1.78336 6.01216C1.8072 6.00336 1.83081 5.99456 1.85466 5.98577C1.84447 5.97512 1.83405 5.9647 1.82387 5.95406C1.82503 5.94133 1.82618 5.92859 1.82734 5.91609C1.88359 5.911 2.00951 5.77674 2.00882 5.72003C2.00882 5.71471 1.98845 5.70962 1.9778 5.70429C1.97896 5.69156 1.98012 5.67883 1.98127 5.66633C2.01299 5.65522 2.08868 5.69226 2.04979 5.60383C2.0491 5.59874 2.05025 5.59388 2.0528 5.58948C2.07664 5.58068 2.10025 5.57189 2.12409 5.56309C2.11391 5.55244 2.10349 5.54203 2.09331 5.53138C2.09447 5.51865 2.09562 5.50592 2.09678 5.49342C2.19979 5.48508 2.2859 5.38184 2.26136 5.29643C2.2609 5.29134 2.26182 5.28648 2.26437 5.28208C2.30117 5.27745 2.35696 5.28948 2.319 5.21958C2.31854 5.21449 2.31946 5.20963 2.32224 5.20523C2.38566 5.19319 2.4845 5.08278 2.48659 5.02028C2.48659 5.01634 2.47756 5.01218 2.4727 5.00824C2.47224 5.00315 2.47316 4.99829 2.47594 4.99389C2.55719 5.0013 2.5683 4.92607 2.60672 4.88324C2.59585 4.87514 2.58473 4.86704 2.57386 4.85894C2.58659 4.83973 2.59955 4.82051 2.61228 4.8013C2.68566 4.81797 2.71066 4.76264 2.74214 4.71542C2.75973 4.68903 2.78265 4.66612 2.79978 4.6395C2.82223 4.60431 2.90093 4.59714 2.85718 4.52793C2.85672 4.52283 2.85765 4.51797 2.86019 4.51357C2.88403 4.50478 2.90765 4.49598 2.93149 4.48719C2.9213 4.47654 2.91089 4.46612 2.9007 4.45547C2.91343 4.43626 2.92639 4.41705 2.93936 4.39783C3.03218 4.39182 3.08542 4.34251 3.06875 4.27793C3.06829 4.27284 3.06922 4.26821 3.07199 4.26381C3.12755 4.22353 3.18333 4.18326 3.23889 4.14298C3.2287 4.13187 3.21875 4.12076 3.20857 4.10965C3.24074 4.07122 3.27268 4.0328 3.30486 3.99437C3.3294 3.99113 3.35393 3.98789 3.37847 3.98465C3.37315 3.96868 3.36782 3.9527 3.3625 3.93673C3.38148 3.90872 3.39652 3.87701 3.4199 3.85363C3.54699 3.72632 3.67615 3.60132 3.80462 3.4754C3.89003 3.4835 3.95022 3.46244 3.94003 3.3592C3.97175 3.32748 4.00346 3.29577 4.0354 3.26383C4.12082 3.27193 4.181 3.25087 4.17082 3.14763C4.18332 3.13513 4.19582 3.12263 4.20855 3.1099C4.29304 3.11476 4.36016 3.09693 4.36132 2.993H4.36155C4.43262 3.00018 4.48146 2.98096 4.4766 2.89694H4.47683C4.56849 2.89393 4.72358 2.77217 4.74557 2.6856H4.74581C4.77844 2.67541 4.85553 2.71847 4.81803 2.62495C4.81756 2.61986 4.81849 2.61523 4.82127 2.61083C4.91316 2.60875 4.99487 2.55088 5.01455 2.47426H5.01478C5.05761 2.47819 5.10089 2.48259 5.0914 2.41662H5.09163C5.15367 2.42889 5.17867 2.4025 5.16987 2.34116C5.16987 2.34116 5.16964 2.34139 5.16987 2.34139C5.29556 2.34209 5.38005 2.29209 5.39903 2.20528H5.39927C5.44209 2.20922 5.48538 2.21362 5.47588 2.14765H5.47612C5.53815 2.15991 5.56315 2.13353 5.55436 2.07218C5.55436 2.07218 5.55412 2.07242 5.55436 2.07242C5.58885 2.06848 5.62542 2.07056 5.65713 2.05922C5.71963 2.037 5.7981 2.0289 5.80273 1.93631H5.80296C5.865 1.94858 5.89 1.92219 5.8812 1.86085C5.8812 1.86085 5.88097 1.86108 5.8812 1.86108C5.91291 1.84788 5.94439 1.83446 5.97611 1.82126C6.01893 1.82566 6.0606 1.82844 6.05435 1.76501L6.05411 1.76525C6.09485 1.76038 6.15527 1.78816 6.15041 1.70738L6.15018 1.70761C6.19092 1.70275 6.25133 1.73052 6.24647 1.64974L6.24624 1.64997C6.32031 1.6377 6.418 1.67196 6.43698 1.55229H6.43744C6.57679 1.55668 6.62147 1.5303 6.63096 1.4384L6.63072 1.43863C6.6673 1.43377 6.70642 1.43493 6.74021 1.42243C6.78095 1.40738 6.84993 1.41988 6.84067 1.34095H6.84114C6.88373 1.3303 6.9578 1.38238 6.95618 1.28331H6.95664C7.07447 1.28724 7.14599 1.24882 7.16937 1.16873C7.18766 1.16086 7.20595 1.15276 7.22423 1.14489C7.25641 1.18169 7.27655 1.17567 7.28534 1.12799C7.29692 1.12081 7.30849 1.11364 7.32006 1.10646C7.37631 1.1597 7.37932 1.11757 7.38071 1.07267C7.399 1.0648 7.41705 1.05692 7.43534 1.04905C7.51474 1.08887 7.60409 1.04697 7.63047 0.95739C7.66265 0.945816 7.69506 0.934011 7.72723 0.922437C7.75524 0.997204 7.79922 0.934473 7.83371 0.931696C7.88394 0.927992 7.91126 0.896511 7.89968 0.841883C7.91913 0.836559 7.93857 0.831466 7.95801 0.826142C7.97931 0.837716 8.00037 0.84929 8.02167 0.860864C8.03232 0.835401 8.04297 0.809707 8.05338 0.784245C8.07283 0.778921 8.09227 0.773828 8.11172 0.768504C8.13671 0.779615 8.16704 0.806004 8.18579 0.799522C8.29667 0.761097 8.40384 0.713181 8.51402 0.672441C8.59458 0.642812 8.67583 0.609942 8.75962 0.596517C8.81888 0.587026 8.82629 0.561332 8.82235 0.515268C8.86101 0.509944 8.89966 0.504852 8.93832 0.499528C8.99226 0.551842 9.03832 0.532166 9.07258 0.44189C9.08554 0.44189 9.09827 0.44189 9.11123 0.44189C9.12281 0.452538 9.13461 0.463417 9.14619 0.474065C9.15359 0.455779 9.16077 0.437492 9.16818 0.419205C9.20035 0.413881 9.23276 0.408789 9.26494 0.403465C9.29248 0.415039 9.32003 0.426612 9.34734 0.438186C9.35799 0.412724 9.36887 0.38703 9.37952 0.361567C9.42465 0.356243 9.46956 0.351151 9.5147 0.345827C9.56863 0.398141 9.6147 0.378465 9.64896 0.288189C9.68113 0.288189 9.71307 0.288189 9.74525 0.288189C9.80844 0.351151 9.86029 0.331707 9.89872 0.230551C9.93715 0.230551 9.9758 0.230551 10.0142 0.230551C10.0258 0.241199 10.0376 0.252079 10.0492 0.262727C10.0566 0.24444 10.0638 0.226153 10.0712 0.207867C10.1033 0.202543 10.1358 0.19745 10.1679 0.192126C10.1795 0.203237 10.1908 0.214579 10.2024 0.22569C10.2165 0.208098 10.2307 0.190506 10.2445 0.172913C10.2638 0.172913 10.2832 0.172913 10.3024 0.172913C10.3631 0.232172 10.3813 0.225922 10.4175 0.134488C10.4688 0.134488 10.5202 0.134488 10.5714 0.134488C10.6388 0.201154 10.7052 0.179163 10.7441 0.0768504C10.8274 0.0768504 10.9107 0.0768504 10.9941 0.0768504C11.0654 0.146757 11.1709 0.111572 11.2246 0C12.0899 0 12.9549 0 13.8202 0C13.8257 0.00555545 13.8313 0.0111109 13.8368 0.0166664C13.844 0.0238422 13.851 0.0312494 13.8581 0.0384252C13.9033 0.11597 13.9574 0.129396 14.0116 0.0768504C14.1014 0.0821744 14.1915 0.0872669 14.2813 0.0925909C14.3378 0.180552 14.3762 0.1912 14.4345 0.134488C14.4989 0.139812 14.563 0.144905 14.6273 0.150229C14.6648 0.215737 14.6824 0.219903 14.7229 0.172913C14.7424 0.178237 14.7618 0.18333 14.7813 0.188654C14.7917 0.200922 14.8021 0.21319 14.8125 0.225459C14.8211 0.214348 14.8296 0.203237 14.8382 0.192358C14.8641 0.197682 14.8898 0.202774 14.9158 0.208098C14.9533 0.273606 14.9708 0.277773 15.0114 0.230783C15.0829 0.222913 15.1519 0.224301 15.2042 0.284948C15.2146 0.297217 15.225 0.309485 15.2354 0.321753C15.244 0.310642 15.2526 0.299531 15.2611 0.288652C15.2998 0.293976 15.3384 0.299069 15.3771 0.304392C15.432 0.389808 15.4576 0.397909 15.5111 0.34629C15.569 0.364345 15.6269 0.3824 15.6847 0.400456C15.6951 0.412724 15.7056 0.424992 15.716 0.43726C15.7245 0.42615 15.7331 0.415039 15.7417 0.404159C15.7801 0.41689 15.8187 0.429853 15.8572 0.442584C15.8637 0.452075 15.8699 0.461566 15.8764 0.470825C15.8829 0.461334 15.8891 0.452075 15.8956 0.442584C15.9215 0.447908 15.9472 0.453001 15.9731 0.458325C15.9924 0.471519 16.0118 0.484482 16.031 0.497676L16.0308 0.497213C16.0412 0.50925 16.0518 0.521287 16.0623 0.533323C16.0708 0.522213 16.0792 0.511102 16.0877 0.500222C16.1137 0.505546 16.1393 0.510639 16.1653 0.515963C16.1845 0.529157 16.2039 0.54212 16.2231 0.555314L16.2229 0.554851C16.2333 0.566888 16.244 0.578924 16.2544 0.590961C16.263 0.57985 16.2713 0.568739 16.2799 0.55786C16.2993 0.55786 16.3187 0.55786 16.3382 0.55786C16.3437 0.563415 16.3493 0.568971 16.3548 0.574526C16.3685 0.587026 16.3822 0.599526 16.3958 0.612026C16.4062 0.624294 16.4167 0.636562 16.4271 0.648831C16.4356 0.63772 16.4442 0.626609 16.4528 0.615729C16.4849 0.628461 16.5171 0.641423 16.5491 0.654155C16.5942 0.672441 16.6391 0.690728 16.6842 0.709246L16.684 0.708783C16.6944 0.72082 16.7051 0.732857 16.7155 0.744894C16.7241 0.733783 16.7324 0.722672 16.741 0.711792C16.7794 0.731005 16.818 0.750218 16.8565 0.76943C16.8629 0.778921 16.8692 0.788411 16.8757 0.79767C16.8822 0.78818 16.8884 0.778921 16.8949 0.76943C16.9078 0.76943 16.921 0.76943 16.934 0.76943C16.9396 0.774986 16.9451 0.780541 16.9507 0.786097C16.9643 0.798596 16.978 0.811096 16.9916 0.823596C17.0021 0.835864 17.0125 0.848132 17.0229 0.860401C17.0315 0.84929 17.04 0.838179 17.0486 0.8273C17.0743 0.840031 17.1 0.852993 17.1257 0.865725C17.1643 0.884011 17.203 0.902298 17.2416 0.920816L17.2414 0.920353C17.2518 0.93239 17.2625 0.944427 17.2729 0.956464C17.2815 0.945353 17.2898 0.934242 17.2984 0.923362C17.3305 0.942575 17.3625 0.961788 17.3946 0.981C17.4011 0.990491 17.4074 0.999982 17.4139 1.00924C17.4203 0.99975 17.4266 0.990491 17.4331 0.981C17.4652 1.00021 17.4972 1.01943 17.5294 1.03864C17.5553 1.05068 17.5814 1.06248 17.6074 1.07452C17.6199 1.08054 17.6324 1.08679 17.6449 1.0928C17.6708 1.106 17.6967 1.11896 17.7226 1.13215C17.7287 1.13262 17.7347 1.13354 17.7407 1.1347C17.7794 1.15299 17.818 1.17127 17.8567 1.18979L17.8564 1.18933C17.8888 1.20229 17.921 1.21526 17.9534 1.22822C17.9659 1.23539 17.9782 1.2428 17.9907 1.24998C18.0104 1.26201 18.0301 1.27382 18.0497 1.28586C18.0622 1.29187 18.0747 1.29812 18.0872 1.30414C18.1245 1.38979 18.2067 1.38655 18.2798 1.40113L18.2796 1.40067C18.3055 1.41363 18.3314 1.42659 18.3574 1.43956C18.3634 1.44558 18.3696 1.45182 18.3756 1.45784C18.4081 1.47104 18.4402 1.484 18.4726 1.49719C18.4851 1.50437 18.4974 1.51178 18.5099 1.51895C18.5293 1.53053 18.5488 1.54233 18.5682 1.55391C18.581 1.56039 18.5937 1.56664 18.6064 1.57312C18.6273 1.65414 18.6962 1.65877 18.7611 1.67011C18.7671 1.67057 18.7731 1.6715 18.7791 1.67265C18.8053 1.69094 18.8312 1.70946 18.8573 1.72775C18.8634 1.72821 18.8694 1.72913 18.8754 1.73029C18.8951 1.74233 18.9148 1.75413 18.9344 1.76617C18.9469 1.77219 18.9594 1.77844 18.9719 1.78446C19.0171 1.81686 19.0622 1.84904 19.1073 1.88145C19.1134 1.88191 19.1194 1.88284 19.1252 1.88399C19.1513 1.90228 19.1773 1.9208 19.2034 1.93908C19.2094 1.93955 19.2154 1.94047 19.2215 1.94163C19.2476 1.95992 19.2735 1.97844 19.2997 1.99672C19.3057 1.99719 19.3117 1.99811 19.3178 1.99927C19.331 2.01131 19.3441 2.02311 19.3576 2.03515C19.3636 2.03561 19.3696 2.03654 19.3754 2.03769C19.4016 2.05598 19.4275 2.0745 19.4536 2.09279C19.4597 2.09325 19.4657 2.09417 19.4717 2.09533C19.4849 2.10737 19.4981 2.11917 19.5115 2.13121C19.5175 2.13723 19.5238 2.14348 19.5298 2.1495C19.5492 2.16269 19.5689 2.17565 19.5884 2.18885C19.5944 2.19487 19.6006 2.20112 19.6066 2.20713C19.6261 2.22033 19.6458 2.23329 19.6652 2.24649C19.6777 2.2525 19.6902 2.25875 19.7027 2.26477C19.7159 2.27797 19.7289 2.29093 19.7421 2.30412C19.7481 2.30459 19.7541 2.30551 19.7599 2.30667C19.786 2.32496 19.812 2.34348 19.8381 2.36176C19.9083 2.41269 19.9786 2.46361 20.0488 2.51454C20.0682 2.52773 20.0879 2.54069 20.1073 2.55389C20.1198 2.56106 20.1323 2.56824 20.1451 2.57565C20.1506 2.5812 20.1562 2.58676 20.1617 2.59231C20.1689 2.60481 20.1761 2.61731 20.1835 2.62981C20.2029 2.64301 20.2224 2.65597 20.242 2.66916C20.2675 2.68814 20.2927 2.70689 20.3182 2.72588C20.3376 2.73907 20.3573 2.75203 20.3768 2.76523C20.3893 2.7724 20.4018 2.77958 20.4145 2.78699C20.4201 2.79254 20.4256 2.7981 20.4312 2.80365C20.4383 2.81615 20.4455 2.82865 20.4529 2.84115C20.4724 2.85435 20.492 2.86731 20.5115 2.8805L20.5092 2.8812ZM1.93938 8.41674C1.93938 8.42369 1.93984 8.4304 1.93984 8.43734C1.93891 8.45609 1.93799 8.47484 1.93729 8.49359C1.86878 8.49776 1.83776 8.52276 1.88313 8.59058C1.86276 8.66743 1.84239 8.74428 1.82225 8.8209C1.81137 8.82623 1.80072 8.83317 1.78938 8.83641C1.75373 8.84613 1.73267 8.85678 1.78359 8.87784C1.83035 8.98687 1.87734 9.09566 1.9241 9.20469C1.91299 9.20955 1.90211 9.21441 1.891 9.21927L1.9241 9.24335C1.99447 9.44195 2.06507 9.64033 2.13544 9.83894C2.12433 9.8438 2.11345 9.84866 2.10234 9.85352L2.13544 9.87759C2.16021 9.94773 2.1852 10.0181 2.20997 10.0882C2.12618 10.1556 2.18775 10.1792 2.24493 10.204C2.25974 10.2424 2.27456 10.2808 2.28937 10.3193C2.27826 10.3241 2.26738 10.329 2.25627 10.3338L2.28937 10.3579C2.32039 10.4098 2.35141 10.4616 2.38219 10.5135C2.38775 10.519 2.3933 10.5246 2.39886 10.5301C2.50858 10.6463 2.61807 10.7625 2.72779 10.8787C2.74098 10.8908 2.75441 10.9026 2.7676 10.9146C2.7801 10.9206 2.7926 10.9269 2.8051 10.9329C2.82686 11.0128 2.89792 11.0137 2.95973 11.0299C2.96575 11.0304 2.97176 11.0313 2.97778 11.0324C3.00394 11.0507 3.02987 11.069 3.05602 11.0875C3.06204 11.088 3.06806 11.0889 3.07408 11.0901C3.10023 11.1084 3.12616 11.1266 3.15232 11.1452C3.15833 11.1456 3.16435 11.1466 3.17037 11.1477C3.18982 11.1593 3.20926 11.1711 3.2287 11.1827C3.24144 11.1891 3.25417 11.1954 3.2669 11.2019C3.28009 11.2151 3.29305 11.228 3.30625 11.2412C3.31227 11.2417 3.31829 11.2426 3.32407 11.2438C3.34375 11.2558 3.36342 11.2676 3.3831 11.2797C3.38912 11.2857 3.39537 11.2919 3.40139 11.2979C3.42731 11.3111 3.45324 11.3241 3.47916 11.3373C3.49166 11.3433 3.50416 11.3496 3.51666 11.3556C3.57337 11.4507 3.66527 11.4887 3.76735 11.5102C3.77337 11.5107 3.77939 11.5116 3.78541 11.5127C3.81156 11.531 3.83749 11.5493 3.86365 11.5678C3.86966 11.5683 3.87568 11.5692 3.8817 11.5704C3.90786 11.5887 3.93378 11.607 3.95994 11.6255L4.01688 11.663C4.04929 11.6824 4.08147 11.7021 4.11387 11.7215C4.11989 11.722 4.12591 11.7229 4.13193 11.7241C4.15809 11.7424 4.18401 11.7607 4.21017 11.7792C4.21619 11.7796 4.2222 11.7806 4.22822 11.7817C4.25438 11.8 4.2803 11.8183 4.30646 11.8368C4.31248 11.8373 4.3185 11.8382 4.32452 11.8394C4.37614 11.8706 4.42776 11.9016 4.47961 11.9329C4.48563 11.9333 4.49164 11.9343 4.49766 11.9354C4.51086 11.9475 4.52428 11.9593 4.53748 11.9713C4.54349 11.9773 4.54974 11.9836 4.55576 11.9896C4.58817 12.009 4.62035 12.0287 4.65275 12.0482C4.65877 12.0486 4.66479 12.0495 4.67081 12.0507L4.74881 12.0866C4.75483 12.087 4.76085 12.088 4.76687 12.0891C4.81548 12.1201 4.86293 12.1528 4.91363 12.1796C4.9208 12.1833 4.94326 12.1583 4.95876 12.1468C5.01663 12.1521 5.0745 12.1572 5.13237 12.1625C5.14325 12.175 5.1539 12.1873 5.16478 12.1998C5.17936 12.1822 5.19418 12.1646 5.20876 12.147C5.28561 12.147 5.36269 12.147 5.43954 12.147C5.45112 12.1579 5.46292 12.1688 5.4745 12.1794C5.48144 12.1671 5.48815 12.1549 5.4951 12.1428C5.54625 12.1236 5.59741 12.1044 5.6488 12.0852C5.69162 12.0894 5.73329 12.0924 5.72704 12.0287H5.72681C5.86407 12.0296 5.87379 12.0222 5.88074 11.9127L5.89926 11.8942C6.01037 11.8942 6.01083 11.8942 5.99023 11.832C5.98976 11.8269 5.99069 11.8222 5.99324 11.8178C6.0143 11.8127 6.04578 11.8148 6.05458 11.8016C6.11268 11.7148 6.16592 11.6248 6.21893 11.5345C6.21985 11.5331 6.19833 11.5183 6.18721 11.5097C6.18837 11.497 6.18953 11.4845 6.19069 11.4718C6.28467 11.4192 6.30851 11.3347 6.24485 11.2792C6.24601 11.1577 6.24717 11.0359 6.24832 10.9144C6.25781 10.9079 6.26731 10.9017 6.27656 10.8952C6.26707 10.8887 6.25758 10.8824 6.24832 10.876C6.22911 10.831 6.2099 10.7861 6.19069 10.7412C6.20018 10.7348 6.20967 10.7285 6.21893 10.722C6.20944 10.7155 6.19995 10.7093 6.19069 10.7028C6.18351 10.6905 6.17634 10.678 6.16893 10.6658C6.15689 10.6396 6.14485 10.6137 6.13305 10.5875L6.07541 10.4528C6.12009 10.3824 6.08374 10.3301 6.03699 10.2801C6.0305 10.2033 6.02425 10.1262 6.01777 10.0494C6.03398 10.038 6.05018 10.0267 6.06615 10.0153C6.05527 10.0072 6.04416 9.99935 6.03328 9.99125C6.03444 9.96579 6.0356 9.94033 6.03675 9.91486C6.05921 9.90352 6.08166 9.89241 6.10411 9.88107C6.09323 9.87296 6.08259 9.86486 6.07171 9.85676C6.07286 9.82482 6.07402 9.79287 6.07518 9.76116C6.10388 9.75005 6.13259 9.73871 6.16129 9.7276C6.15064 9.71926 6.13999 9.71116 6.12934 9.70283C6.1305 9.67737 6.13166 9.6519 6.13282 9.62644C6.16222 9.61417 6.20596 9.61024 6.2187 9.58825C6.27078 9.4989 6.31476 9.40469 6.35804 9.31071C6.36337 9.29913 6.34693 9.27784 6.34068 9.26094C6.34184 9.24196 6.343 9.22275 6.34416 9.20376C6.37286 9.19265 6.40156 9.18154 6.43026 9.1702L6.39832 9.14566C6.39948 9.13293 6.40064 9.12043 6.40179 9.1077C6.48837 9.10423 6.49485 9.09844 6.47031 9.0452C6.46962 9.04011 6.47077 9.03525 6.47332 9.03085C6.49716 9.02206 6.52077 9.01326 6.54461 9.00446C6.53443 8.99381 6.52401 8.9834 6.51383 8.97275C6.546 8.93433 6.57795 8.8959 6.61012 8.85747C6.66591 8.86118 6.72054 8.86372 6.70711 8.78039L6.70688 8.78062C6.73466 8.78039 6.76267 8.78201 6.78975 8.77808C6.79415 8.77738 6.79484 8.75169 6.79739 8.73757C6.79693 8.73248 6.79785 8.72785 6.80063 8.72345C6.85572 8.71396 6.93188 8.74104 6.93627 8.64452H6.93651C6.99854 8.65655 7.02354 8.63016 7.01475 8.56882L7.01451 8.56905C7.04623 8.55586 7.07771 8.54243 7.10942 8.52924C7.22099 8.52206 7.33326 8.4392 7.34136 8.35748H7.34113C7.41705 8.35818 7.49992 8.37068 7.51265 8.26003H7.51288C7.62029 8.25309 7.72538 8.18295 7.7432 8.10633H7.74344C7.80547 8.11837 7.83047 8.09198 7.82167 8.03064H7.82144C7.88001 8.01976 7.96357 8.05749 7.97376 7.9524H7.97399C8.05709 7.9524 8.12838 7.93458 8.14667 7.83712H8.1469C8.22421 7.82833 8.30106 7.81884 8.31958 7.72185H8.32005C8.45939 7.72625 8.5043 7.69963 8.51356 7.60727L8.56842 7.58342C8.64272 7.61537 8.7249 7.58088 8.74272 7.51051H8.74319C8.88253 7.51491 8.92744 7.48829 8.9367 7.39593C8.95499 7.38806 8.97327 7.37996 8.99133 7.37209C9.04758 7.42556 9.05036 7.3832 9.05198 7.33829C9.07026 7.33042 9.08855 7.32232 9.10684 7.31445C9.13716 7.3501 9.15799 7.34963 9.16586 7.29917C9.20846 7.28852 9.28253 7.3406 9.28091 7.24153H9.28114C9.32442 7.24616 9.36563 7.24825 9.35938 7.18459C9.37766 7.17672 9.39595 7.16862 9.41401 7.16075C9.47026 7.21422 9.47303 7.17186 9.47465 7.12695C9.49294 7.11908 9.51123 7.11098 9.52951 7.10311C9.55984 7.13876 9.58067 7.13829 9.58854 7.08783C9.72789 7.09223 9.7728 7.06561 9.78205 6.97325C9.80034 6.96538 9.81863 6.95728 9.83668 6.94941C9.89293 7.00288 9.89571 6.96052 9.89733 6.91561C9.91562 6.90774 9.9339 6.89964 9.95219 6.89177C10.0297 6.94061 10.0871 6.87973 10.1459 6.84964C10.1735 6.83552 10.1858 6.792 10.205 6.76191C10.2233 6.75404 10.2415 6.74594 10.2596 6.73807C10.3158 6.79154 10.3186 6.74918 10.3202 6.70427C10.3385 6.6964 10.3568 6.6883 10.3749 6.68043C10.4311 6.7339 10.4339 6.69154 10.4355 6.64664C10.4543 6.63923 10.473 6.63182 10.4918 6.62441C10.5797 6.66307 10.6182 6.64201 10.6276 6.55057C10.6459 6.5427 10.6642 6.5346 10.6823 6.52673C10.7385 6.5802 10.7413 6.53784 10.7429 6.49294C10.7612 6.48506 10.7795 6.47696 10.7975 6.46909C10.8538 6.52256 10.8566 6.4802 10.8582 6.4353C10.8765 6.42743 10.8948 6.41933 10.9131 6.41146C10.9434 6.4471 10.9642 6.44664 10.9721 6.39618C11.1114 6.40058 11.1563 6.37396 11.1656 6.2816C11.1839 6.27373 11.2022 6.26562 11.2202 6.25775C11.2755 6.31053 11.2795 6.27002 11.2809 6.22442H11.2806C11.3124 6.21146 11.3438 6.19803 11.3755 6.18484C11.513 6.17442 11.5857 6.07581 11.654 5.97535C11.6723 5.9485 11.6709 5.90846 11.6785 5.87443C11.6781 5.86934 11.679 5.86447 11.6816 5.86008C11.742 5.861 11.7779 5.8448 11.739 5.77721L11.7448 5.7448C11.7797 5.69202 11.8154 5.63948 11.848 5.58531C11.8503 5.58161 11.8288 5.56355 11.8181 5.55244C11.8193 5.37953 11.8204 5.20662 11.8216 5.03393C11.8311 5.02745 11.8406 5.0212 11.8498 5.01472C11.8404 5.00824 11.8309 5.00199 11.8216 4.99551C11.8204 4.98949 11.8195 4.9837 11.8191 4.97769C11.8008 4.9388 11.7822 4.89991 11.764 4.86102C11.7628 4.855 11.7619 4.84898 11.7614 4.84297C11.7494 4.82329 11.7376 4.80361 11.7255 4.78417C11.6478 4.68741 11.57 4.59066 11.4922 4.4939C11.4867 4.48834 11.4811 4.48279 11.4755 4.47723C11.4429 4.45061 11.41 4.42422 11.3774 4.39783C11.3575 4.31173 11.2779 4.31265 11.2161 4.28765C11.1545 4.27307 11.0929 4.25849 11.0313 4.24413C11.0184 4.23881 11.0054 4.23372 10.9922 4.22839C10.826 4.22793 10.6594 4.23325 10.4934 4.22585C10.0962 4.20826 9.69548 4.27562 9.30197 4.18603C9.20822 4.16474 9.12188 4.11034 9.0323 4.07122C9.02119 4.0321 9.01309 3.98858 8.95476 4.01706C8.92281 3.99669 8.89087 3.97655 8.85869 3.95618C8.85314 3.95062 8.84758 3.94507 8.84203 3.93951C8.78369 3.8747 8.72536 3.80965 8.66703 3.74484C8.65499 3.72632 8.64272 3.7078 8.63069 3.68928C8.61055 3.65132 8.59041 3.61313 8.5705 3.57517C8.55847 3.54924 8.54666 3.52308 8.53462 3.49716C8.52745 3.48466 8.52004 3.47239 8.51287 3.45989C8.50083 3.44021 8.48902 3.42054 8.47699 3.40109C8.45685 3.35665 8.43671 3.31221 8.4168 3.26776C8.40477 3.24809 8.39296 3.22841 8.38092 3.20897C8.30847 3.12124 8.24296 3.0261 8.16148 2.94763C8.08232 2.87124 7.98649 2.81222 7.89806 2.74555C7.88487 2.73351 7.87144 2.72171 7.85825 2.70967C7.84598 2.7025 7.83348 2.69509 7.82121 2.68791C7.8101 2.64879 7.802 2.60528 7.74367 2.63375C7.69251 2.60065 7.64159 2.56731 7.59043 2.53421C7.57724 2.52218 7.56381 2.51037 7.55062 2.49833C7.53835 2.49116 7.52585 2.48375 7.51358 2.47657C7.50038 2.46454 7.48696 2.45273 7.47376 2.4407C7.44483 2.42241 7.4159 2.40412 7.38696 2.3856H7.31867C7.31335 2.4157 7.30803 2.44602 7.3027 2.47657C7.25803 2.49671 7.21358 2.51662 7.16891 2.53676C7.12909 2.5356 7.08581 2.52958 7.09067 2.59185C7.04391 2.61662 6.99715 2.64162 6.95039 2.66639C6.86313 2.71291 6.77563 2.75921 6.68836 2.80574C6.6548 2.80041 6.62123 2.79509 6.57216 2.78745V2.88328C6.54693 2.89578 6.52147 2.90828 6.49624 2.92101C6.48675 2.92194 6.47725 2.92286 6.468 2.92379C6.41985 2.96129 6.37147 2.99879 6.32332 3.03652C6.29786 3.04994 6.2724 3.06314 6.24717 3.07656V3.07679C6.22008 3.07008 6.19323 3.06337 6.1636 3.05596C6.15087 3.08536 6.13976 3.11105 6.12865 3.13698C6.11685 3.1548 6.10481 3.17263 6.093 3.19022C6.05134 3.18837 6.00851 3.18489 6.01523 3.24809L6.01546 3.24786C5.99023 3.26128 5.965 3.27448 5.93977 3.2879C5.92009 3.30688 5.90041 3.32563 5.88074 3.34438H5.88097C5.8393 3.34207 5.79694 3.33929 5.80389 3.40202H5.80412C5.76245 3.39971 5.72009 3.39693 5.72704 3.45966L5.72727 3.45943C5.70204 3.47285 5.67681 3.48605 5.65158 3.49947C5.6319 3.51822 5.61222 3.53697 5.59255 3.55572H5.59278C5.55111 3.55341 5.50875 3.55063 5.5157 3.61336L5.51593 3.61313C5.4907 3.62655 5.46547 3.63975 5.44024 3.65317C5.42102 3.67239 5.40181 3.6916 5.38283 3.71058H5.3826C5.36339 3.72331 5.34417 3.73604 5.32519 3.74877C5.26038 3.73882 5.26455 3.78257 5.26593 3.82447H5.26617C5.2245 3.82215 5.18214 3.81937 5.18908 3.8821H5.18932C5.14719 3.87956 5.10506 3.87771 5.11223 3.9402C5.08052 3.97192 5.04881 4.00363 5.01687 4.03557C4.86617 4.03511 4.84256 4.05617 4.84303 4.1902C4.82404 4.20918 4.80506 4.22816 4.78608 4.24714C4.76062 4.26057 4.73516 4.27376 4.70993 4.28719C4.64465 4.27724 4.64951 4.32168 4.65067 4.36335C4.62521 4.38881 4.59998 4.41404 4.57451 4.4395C4.53285 4.43811 4.4884 4.43325 4.49859 4.49876C4.47938 4.51797 4.46016 4.53718 4.44118 4.55617C4.37591 4.54621 4.38077 4.59066 4.38192 4.63232C4.31179 4.70894 4.24142 4.78556 4.17128 4.86218C4.05855 4.86334 4.04142 4.88047 4.056 4.97769C4.03725 5.00546 4.02059 5.03486 3.99929 5.06032C3.93587 5.13602 3.87059 5.21009 3.80624 5.28486C3.75207 5.2864 3.73286 5.30569 3.7486 5.34272C3.73587 5.36194 3.72291 5.38092 3.71018 5.40013C3.64907 5.39064 3.62314 5.41657 3.6324 5.47791C3.62615 5.49041 3.62013 5.50291 3.61388 5.51564C3.51041 5.49457 3.51087 5.56078 3.51643 5.63138C3.47199 5.69526 3.42754 5.75915 3.38333 5.82304C3.36157 5.82304 3.33842 5.81795 3.31852 5.82397C3.29467 5.83114 3.27384 5.84804 3.25162 5.86077C3.26991 5.88021 3.28819 5.89966 3.30671 5.9191C3.26829 5.97674 3.22986 6.03461 3.1912 6.09225C3.15185 6.09387 3.10741 6.09225 3.15278 6.15012C3.12709 6.18854 3.10162 6.22697 3.07593 6.26516C3.04746 6.26701 3.01366 6.25984 2.99167 6.27303C2.96389 6.28947 2.94214 6.32048 2.92639 6.34965C2.92339 6.35521 2.96112 6.38229 2.97987 6.39965C2.96598 6.43159 2.95209 6.46354 2.93797 6.49548C2.9257 6.49548 2.91366 6.49548 2.9014 6.49548C2.88751 6.48391 2.87362 6.4721 2.8595 6.46053C2.85325 6.46423 2.84723 6.46817 2.84121 6.47187C2.84839 6.49895 2.85579 6.52604 2.86297 6.55312L2.88357 6.57279C2.79376 6.7265 2.70418 6.8802 2.61436 7.0339C2.57501 7.03552 2.53057 7.0339 2.57594 7.09177C2.55557 7.13667 2.5352 7.18135 2.51483 7.22626C2.43381 7.24686 2.43358 7.24732 2.46043 7.30334C2.44654 7.34153 2.43242 7.37972 2.41853 7.41792C2.38265 7.4207 2.33682 7.41445 2.36437 7.47625L2.3609 7.53319C2.32502 7.53597 2.27918 7.52972 2.30673 7.59153L2.30349 7.64893C2.22247 7.66953 2.22224 7.67 2.24909 7.72601C2.24794 7.73875 2.24678 7.75148 2.24585 7.76421C2.23381 7.77046 2.22155 7.77671 2.20743 7.78736C2.20905 7.78412 2.21067 7.78111 2.21229 7.77787C2.19701 7.76861 2.18173 7.75958 2.16669 7.75032C2.16391 7.75564 2.16113 7.76097 2.15835 7.76629C2.17479 7.77324 2.19099 7.78018 2.20928 7.78273C2.20928 7.78967 2.20974 7.79638 2.20974 7.80333C2.20349 7.82856 2.19747 7.85402 2.19122 7.87925C2.1278 7.88481 2.12132 7.89245 2.13868 7.94129C2.1396 7.94615 2.13891 7.95078 2.13683 7.95541C2.1234 7.96467 2.10997 7.97369 2.09655 7.98295C2.10882 7.99314 2.12109 8.00356 2.13359 8.01374C2.1197 8.05217 2.10558 8.09059 2.09169 8.12925C2.01067 8.14985 2.01044 8.15031 2.03729 8.20633C2.0234 8.24452 2.00928 8.28272 1.99539 8.32114C1.99007 8.3341 1.98475 8.34707 1.97965 8.36003C1.9785 8.37276 1.97734 8.38549 1.97641 8.39822C1.96438 8.40447 1.95211 8.41072 1.93799 8.42137C1.93961 8.41813 1.94123 8.41512 1.94285 8.41188C1.92757 8.40262 1.91229 8.39359 1.89725 8.38434C1.89447 8.38966 1.89169 8.39498 1.88891 8.40031C1.90535 8.40725 1.92155 8.4142 1.93984 8.41674H1.93938ZM20.7585 6.4559L20.7582 6.45544C20.7687 6.46747 20.7793 6.47951 20.7897 6.49155C20.7983 6.48044 20.8069 6.46932 20.8152 6.45845C20.8281 6.45845 20.8413 6.45845 20.8543 6.45845C20.8599 6.464 20.8654 6.46956 20.871 6.47511C20.8846 6.48761 20.8983 6.50011 20.9119 6.51261C20.9159 6.57904 20.9647 6.57141 21.0089 6.57117C21.0149 6.57164 21.021 6.57256 21.027 6.57372C21.0402 6.58576 21.0534 6.59756 21.0668 6.6096C21.0985 6.62974 21.1302 6.64965 21.1619 6.66978C21.1675 6.67534 21.173 6.68089 21.1786 6.68645C21.1858 6.69895 21.193 6.71145 21.2004 6.72395C21.2136 6.73714 21.2265 6.75011 21.2397 6.7633C21.2457 6.76932 21.252 6.77557 21.258 6.78159C21.2712 6.79478 21.2842 6.80774 21.2974 6.82094C21.3034 6.82696 21.3096 6.83321 21.3156 6.83923C21.3288 6.85242 21.3418 6.86538 21.355 6.87858C21.3867 6.89871 21.4182 6.91885 21.4499 6.93876C21.4631 6.9508 21.4763 6.9626 21.4897 6.97464C21.5022 6.98066 21.5147 6.98691 21.5272 6.99293C21.5358 7.04015 21.5508 7.07417 21.6043 7.03158C21.617 7.03783 21.6298 7.04431 21.6425 7.05056C21.6529 7.06283 21.6633 7.0751 21.6737 7.08737C21.6823 7.07626 21.6909 7.06515 21.6994 7.05427C21.7251 7.067 21.7508 7.07996 21.7765 7.09269C21.783 7.10218 21.7892 7.11167 21.7957 7.12093C21.8022 7.11144 21.8085 7.10195 21.8149 7.09269C22.0008 7.09269 22.1867 7.09269 22.3726 7.09269C22.3932 7.10241 22.414 7.11214 22.4346 7.12163C22.4274 7.10496 22.4202 7.08806 22.4131 7.0714C22.4059 7.06422 22.3987 7.05705 22.3915 7.0501C22.3795 7.0251 22.3672 7.00033 22.3552 6.97533C22.3351 6.94362 22.3149 6.91214 22.295 6.88043C22.283 6.8545 22.2712 6.82835 22.2591 6.80242C22.252 6.79524 22.245 6.7883 22.2378 6.78112C22.2258 6.75612 22.2135 6.73136 22.2015 6.70636C22.1943 6.69918 22.1869 6.69224 22.1797 6.68506C22.1742 6.67951 22.1686 6.67395 22.1631 6.6684C22.1559 6.64941 22.1487 6.63043 22.1413 6.61145C22.1293 6.59178 22.1175 6.5721 22.1054 6.55266C22.0983 6.54039 22.0909 6.52789 22.0837 6.51562C22.0716 6.50243 22.0598 6.48923 22.0478 6.47581C22.0214 6.43669 21.995 6.39757 21.9689 6.35845C21.9568 6.33345 21.9446 6.30868 21.9325 6.28368C21.8867 6.21887 21.8411 6.15405 21.7953 6.08947C21.7897 6.08392 21.7841 6.07836 21.7786 6.0728C21.733 6.00799 21.6872 5.94295 21.6416 5.87813C21.636 5.87258 21.6304 5.86702 21.6249 5.86146C21.5744 5.79526 21.5749 5.68878 21.4691 5.66679C21.4691 5.66054 21.4691 5.65452 21.4686 5.64827C21.4045 5.56471 21.3404 5.48138 21.2765 5.39782C21.271 5.39226 21.2654 5.38671 21.2599 5.38115C21.2078 5.31634 21.1557 5.25129 21.1036 5.18648C21.098 5.18092 21.0925 5.17537 21.0869 5.16981C21.0129 5.08741 20.9411 5.00269 20.8643 4.92306C20.6763 4.72792 20.4858 4.53487 20.2964 4.34089C20.2909 4.33534 20.2853 4.32978 20.2798 4.32423C20.0418 4.11844 19.8041 3.91266 19.5661 3.70664C19.5606 3.70109 19.555 3.69553 19.5495 3.68998C19.5108 3.67725 19.4722 3.66428 19.4335 3.65155C19.3937 3.6504 19.3504 3.64438 19.3553 3.70664C19.33 3.70757 19.3048 3.70826 19.2798 3.70919C19.24 3.70803 19.1967 3.70201 19.2016 3.76428C19.0407 3.84206 18.8798 3.9196 18.7189 3.99738C18.7134 4.00293 18.7078 4.00849 18.7023 4.01405C18.6837 4.01798 18.6634 4.01798 18.6472 4.02631C18.5296 4.08627 18.4129 4.14784 18.296 4.20872C18.2905 4.21427 18.2849 4.21983 18.2794 4.22538C18.2537 4.23557 18.2273 4.2439 18.2025 4.25617C18.1444 4.28464 18.0872 4.31473 18.0296 4.34413C18.0229 4.33719 18.0164 4.33048 18.0097 4.32353C18.0048 4.31358 17.9997 4.30362 17.9949 4.29344C17.987 4.30339 17.9791 4.31335 17.9713 4.32353C17.965 4.35594 17.9588 4.38858 17.9525 4.42098C17.7606 4.61288 17.5687 4.80477 17.3766 4.99667C17.253 4.9962 17.2474 5.00083 17.2613 5.09296C17.2102 5.1506 17.1588 5.20801 17.1076 5.26564C17.0868 5.27606 17.0326 5.23717 17.05 5.3043C16.9859 5.37467 16.922 5.44504 16.8579 5.51541C16.8298 5.5168 16.7995 5.51263 16.7743 5.52166C16.7541 5.52906 16.7254 5.5536 16.7264 5.56911C16.728 5.59666 16.7491 5.62304 16.7618 5.64989C16.7426 5.6948 16.7234 5.73971 16.7041 5.78462C16.6648 5.78624 16.6204 5.78462 16.6657 5.84248C16.6646 5.8742 16.6634 5.90614 16.6623 5.93785C16.6007 5.94109 16.5886 5.96679 16.6273 6.0154C16.6463 6.1684 16.6653 6.32164 16.6842 6.47465C16.6963 6.50057 16.7081 6.52673 16.7201 6.55266C16.8069 6.7008 16.9039 6.84061 17.049 6.93922C17.0622 6.95126 17.0754 6.96307 17.0889 6.9751C17.0949 6.98112 17.1011 6.98737 17.1072 6.99339C17.1396 7.00658 17.1717 7.01955 17.2041 7.03274C17.2166 7.03876 17.2291 7.04501 17.2419 7.05103C17.2523 7.0633 17.2627 7.07556 17.2731 7.08783C17.2817 7.07672 17.2902 7.06561 17.2988 7.05473C17.3245 7.06746 17.3502 7.08042 17.3759 7.09316C17.3824 7.10265 17.3886 7.11214 17.3951 7.1214C17.4016 7.11191 17.4078 7.10242 17.4143 7.09316C17.6002 7.09316 17.7861 7.09316 17.9719 7.09316C17.9838 7.1038 17.9953 7.11468 18.0071 7.12533L18.0291 7.07047C18.0486 7.06515 18.068 7.06005 18.0875 7.05473C18.109 7.0663 18.1305 7.07788 18.1523 7.08945C18.1627 7.06955 18.1731 7.04964 18.1835 7.02973C18.1953 7.02255 18.2069 7.01538 18.2185 7.00797C18.2747 7.06144 18.2777 7.01908 18.2791 6.97418C18.2974 6.96631 18.3157 6.9582 18.3337 6.95033C18.39 7.00381 18.393 6.96145 18.3944 6.91654C18.4127 6.90867 18.431 6.90057 18.4493 6.8927C18.5268 6.94154 18.5842 6.88066 18.643 6.85057C18.6705 6.83645 18.6828 6.79293 18.702 6.76284C18.7203 6.75497 18.7386 6.74687 18.7567 6.739C18.8129 6.79247 18.8159 6.75011 18.8173 6.7052C18.8356 6.69733 18.8539 6.68923 18.8719 6.68136C18.9282 6.73483 18.9312 6.69247 18.9326 6.64756C18.9509 6.63969 18.9692 6.63182 18.9872 6.62372C19.0712 6.66585 19.1164 6.64224 19.1247 6.5515C19.143 6.54363 19.1613 6.53553 19.1793 6.52766C19.2356 6.58113 19.2386 6.53877 19.24 6.49386C19.2722 6.48229 19.3046 6.47048 19.3367 6.45891C19.3907 6.51122 19.4367 6.49155 19.471 6.40127C19.8608 6.40058 20.2506 6.39965 20.6404 6.39988C20.6608 6.39988 20.6814 6.41099 20.7018 6.41701C20.721 6.4302 20.7404 6.44317 20.7596 6.45636L20.7585 6.4559ZM15.9914 10.4736C15.9498 10.4716 15.9074 10.4688 15.9143 10.5315H15.9146C15.8072 10.5153 15.7801 10.538 15.7438 10.673C15.7438 10.6811 15.7438 10.6892 15.7438 10.697C15.7428 10.7049 15.7419 10.7128 15.7407 10.7209C15.709 10.7665 15.6775 10.8123 15.6458 10.8579C15.6065 10.8595 15.562 10.8579 15.6074 10.9158C15.5882 10.9641 15.5586 11.0114 15.5514 11.0616C15.5324 11.1952 15.5139 11.3299 15.5118 11.4646C15.5063 11.7972 15.5069 12.1301 15.512 12.4627C15.5134 12.5523 15.5306 12.6442 15.5565 12.7301C15.6079 12.8998 15.6706 13.066 15.728 13.2338C15.7463 13.2875 15.7606 13.3426 15.7803 13.3958C15.8245 13.515 15.8711 13.6335 15.9167 13.7523C15.9343 13.774 15.9516 13.7958 15.9692 13.8173C15.9764 13.8296 15.9838 13.8421 15.991 13.8544C16.0042 13.8676 16.0171 13.8805 16.0303 13.8937C16.0748 13.9331 16.1194 13.9722 16.1639 14.0115C16.1694 14.0171 16.175 14.0227 16.1805 14.0282C16.1877 14.0407 16.1949 14.0532 16.2023 14.0657C16.2215 14.0789 16.241 14.0919 16.2602 14.1051V14.1046C16.3065 14.187 16.3815 14.2176 16.4715 14.2203V14.2199C16.5386 14.2516 16.606 14.2838 16.6745 14.3129C16.6782 14.3145 16.6921 14.2919 16.7014 14.2805C16.868 14.2805 17.0347 14.2805 17.2014 14.2805C17.2227 14.2921 17.2437 14.3037 17.265 14.3152C17.2757 14.2898 17.2863 14.2641 17.2967 14.2386C17.3227 14.2333 17.3484 14.2282 17.3743 14.2229C17.3861 14.2335 17.3977 14.2444 17.4095 14.2551C17.4169 14.2368 17.424 14.2185 17.4314 14.2002C17.4497 14.1923 17.468 14.1842 17.4863 14.1764C17.5166 14.212 17.5375 14.2115 17.5453 14.1611C17.6847 14.1655 17.7296 14.1389 17.7389 14.0465C17.7571 14.0386 17.7754 14.0305 17.7935 14.0227C17.8497 14.0761 17.8527 14.0338 17.8541 13.9889C17.8801 13.9773 17.9057 13.9655 17.9317 13.9539C17.9435 13.9646 17.9551 13.9754 17.9669 13.9861L17.9888 13.9312C18.0083 13.9259 18.0277 13.9208 18.0472 13.9155C18.0685 13.9271 18.0895 13.9386 18.1108 13.9502C18.1215 13.9247 18.1321 13.899 18.1425 13.8736C18.3229 13.8687 18.5032 13.8629 18.6837 13.8609C18.702 13.8609 18.7205 13.884 18.7391 13.8963C18.7907 13.9146 18.8423 13.9328 18.8939 13.9514C18.8999 13.9518 18.906 13.9528 18.912 13.9539C18.9379 13.9659 18.9641 13.9777 18.99 13.9898C19.0025 13.997 19.0148 14.0044 19.0273 14.0115C19.0469 14.0236 19.0666 14.0354 19.0863 14.0474C19.0923 14.0534 19.0985 14.0597 19.1046 14.0657C19.124 14.0789 19.1437 14.0919 19.1631 14.1051C19.2013 14.1315 19.2395 14.1581 19.2775 14.1845C19.283 14.19 19.2886 14.1956 19.2941 14.2011C19.3013 14.2083 19.3085 14.2157 19.3159 14.2229C19.3215 14.2284 19.327 14.234 19.3326 14.2396C19.359 14.2724 19.3851 14.3053 19.4115 14.3382C19.408 14.3946 19.4205 14.4407 19.4863 14.4514C19.4935 14.4639 19.5009 14.4761 19.508 14.4886C19.5201 14.5145 19.5319 14.5407 19.5439 14.5666C19.5638 14.5981 19.5904 14.6273 19.6022 14.6615C19.6682 14.853 19.6557 15.0525 19.6652 15.2509C19.6715 15.3821 19.7136 15.512 19.7395 15.6423C19.7448 15.6617 19.7502 15.6812 19.7553 15.7004C19.7953 15.7942 19.8356 15.8877 19.8756 15.9814C19.8867 15.9967 19.8978 16.012 19.909 16.0272C19.9682 16.1529 20.0277 16.2786 20.087 16.4043C20.0981 16.4196 20.1092 16.4349 20.1203 16.4502C20.1284 16.4733 20.1365 16.4965 20.1446 16.5196C20.1557 16.5349 20.1668 16.5502 20.1779 16.5654C20.218 16.6527 20.2582 16.74 20.2983 16.8272C20.3094 16.8425 20.3205 16.8578 20.3316 16.8731C20.3397 16.8962 20.3478 16.9194 20.3559 16.9425C20.367 16.9578 20.3782 16.9731 20.3893 16.9883C20.4485 17.114 20.508 17.2397 20.5673 17.3654C20.5784 17.3807 20.5895 17.396 20.6006 17.4113C20.6279 17.4728 20.6552 17.5344 20.6825 17.596C20.6937 17.6112 20.7048 17.6265 20.7159 17.6418C20.7298 17.6673 20.7437 17.6927 20.7578 17.7182C20.7631 17.7376 20.7684 17.7571 20.7735 17.7763C20.7874 17.8467 20.8015 17.9168 20.8154 17.9872C20.827 18.0258 20.8388 18.0645 20.8504 18.1029C20.8575 18.143 20.8707 18.1828 20.8707 18.2228C20.8726 18.7337 20.8726 19.2446 20.8731 19.7552C20.8784 19.7682 20.8837 19.7811 20.8888 19.7943C20.9089 19.8515 20.9291 19.9087 20.949 19.9658C20.9619 20.0265 20.9948 20.0084 21.0207 19.9797C21.0735 19.9216 21.1226 19.8603 21.1714 19.7989C21.1737 19.7959 21.1599 19.7802 21.1534 19.7702C21.1529 19.7651 21.1538 19.7603 21.1564 19.7559C21.189 19.7404 21.2224 19.7258 21.2529 19.707C21.2557 19.7054 21.2416 19.6758 21.2353 19.6594C21.2545 19.6337 21.2737 19.6082 21.293 19.5825C21.3911 19.5765 21.5066 19.4265 21.486 19.3318C21.4987 19.3191 21.5115 19.3061 21.5242 19.2934C21.5418 19.2957 21.5594 19.298 21.5772 19.3003C21.577 19.2777 21.5765 19.255 21.5763 19.232C21.5758 19.227 21.5767 19.2221 21.5793 19.2177C21.6758 19.2006 21.752 19.101 21.73 19.0207C21.7295 19.0156 21.7304 19.0108 21.733 19.0064C21.771 18.9839 21.8115 18.9645 21.8448 18.9365C21.8529 18.9297 21.8362 18.8939 21.8311 18.8716C21.8439 18.8459 21.8568 18.8203 21.8696 18.7946C21.9003 18.7841 21.945 18.7832 21.9596 18.7617C22.0487 18.6316 22.1316 18.4973 22.2138 18.3626C22.2193 18.3534 22.2027 18.3304 22.1962 18.314C22.1973 18.3013 22.1985 18.2888 22.1996 18.276C22.2281 18.2675 22.2684 18.2675 22.2825 18.2483C22.3212 18.1962 22.3506 18.1369 22.3793 18.0781C22.3855 18.0654 22.374 18.0436 22.3705 18.0261C22.389 18.0161 22.4112 18.0092 22.424 17.9943C22.429 17.9883 22.4135 17.9645 22.4075 17.9487C22.4087 17.9298 22.4098 17.9108 22.411 17.8916C22.4397 17.8805 22.4684 17.8693 22.4971 17.858C22.4865 17.8499 22.4758 17.8416 22.4652 17.8335C22.4663 17.8145 22.4675 17.7953 22.4686 17.7763C22.498 17.764 22.5418 17.7601 22.5545 17.7381C22.6066 17.6487 22.6506 17.5545 22.6939 17.4606C22.6992 17.449 22.6827 17.4277 22.6765 17.4108C22.6777 17.3918 22.6788 17.3726 22.68 17.3536C22.7087 17.3425 22.7374 17.3314 22.7661 17.32C22.7554 17.3119 22.7448 17.3036 22.7341 17.2955C22.7353 17.2828 22.7364 17.2703 22.7376 17.2575C22.7601 17.2462 22.7825 17.2351 22.805 17.2238C22.7941 17.2157 22.7834 17.2076 22.7726 17.1994C22.7737 17.1867 22.7749 17.1742 22.776 17.1615C22.8047 17.1504 22.8334 17.139 22.8621 17.1279C22.8515 17.1196 22.8408 17.1115 22.8302 17.1032C22.8314 17.0842 22.8325 17.0652 22.8337 17.046C22.8818 17.0344 22.9809 16.8893 22.9709 16.8427C22.97 16.8383 22.9543 16.837 22.9455 16.8342C22.9466 16.8152 22.9478 16.796 22.9489 16.777C22.9945 16.7661 23.0804 16.6201 23.0668 16.5738C23.0654 16.5689 23.0501 16.568 23.0415 16.5652C23.0427 16.5525 23.0438 16.5397 23.045 16.5272C23.0739 16.5096 23.1029 16.4918 23.1318 16.4742C23.1209 16.4661 23.11 16.458 23.0992 16.4499C23.1003 16.4117 23.1015 16.3733 23.1026 16.3351C23.1313 16.324 23.16 16.3129 23.1888 16.3015C23.1781 16.2934 23.1675 16.2851 23.1568 16.277C23.158 16.2516 23.1591 16.2261 23.1603 16.2006C23.1827 16.1893 23.2052 16.1782 23.2276 16.1668C23.2168 16.1587 23.2061 16.1506 23.1952 16.1425C23.1964 16.1298 23.1975 16.1171 23.1987 16.1046C23.2765 16.0613 23.292 16.0279 23.2529 15.9888C23.254 15.9698 23.2552 15.9506 23.2563 15.9316C23.3341 15.8884 23.3496 15.855 23.3105 15.8159C23.3117 15.784 23.3128 15.752 23.314 15.7203C23.3415 15.7018 23.3691 15.6833 23.3968 15.6645C23.3874 15.6509 23.3776 15.6374 23.3681 15.6238C23.3693 15.5983 23.3705 15.5729 23.3716 15.5472C23.4473 15.5048 23.4735 15.4212 23.4258 15.3738C23.4269 15.3611 23.4281 15.3483 23.4293 15.3356C23.5024 15.3009 23.5114 15.2759 23.4642 15.2393L23.4677 15.1435C23.5455 15.1002 23.561 15.0668 23.5218 15.0277C23.523 14.9766 23.5242 14.9254 23.5253 14.8745C23.5529 14.856 23.5804 14.8375 23.6082 14.8187C23.5987 14.805 23.589 14.7916 23.5795 14.778C23.5806 14.7141 23.5818 14.6502 23.583 14.5861C23.6091 14.565 23.638 14.5465 23.6596 14.5215C23.6649 14.5152 23.6452 14.4879 23.6371 14.4703C23.6383 14.4127 23.6394 14.3553 23.6406 14.2977C23.7137 14.2629 23.7228 14.2379 23.6755 14.2014C23.6767 14.131 23.6779 14.0606 23.679 13.9902C23.7566 13.9511 23.7448 13.8729 23.7584 13.806C23.7584 13.8051 23.742 13.8004 23.7332 13.7977C23.7343 13.6697 23.7355 13.5416 23.7367 13.4136C23.7529 13.4023 23.7691 13.391 23.7853 13.3796L23.7524 13.3555C23.7536 13.3428 23.7547 13.3301 23.7559 13.3173C23.7721 13.306 23.7883 13.2947 23.8045 13.2833L23.7716 13.2592C23.7728 13.2465 23.7739 13.2338 23.7751 13.2211C23.7913 13.2097 23.8075 13.1984 23.8237 13.187L23.7908 13.1629C23.792 12.7595 23.7931 12.356 23.7943 11.9526C23.8038 11.9461 23.8133 11.9398 23.8225 11.9333C23.813 11.9269 23.8036 11.9206 23.7943 11.9141C23.7878 11.8884 23.7816 11.8627 23.7751 11.837C23.7846 11.8306 23.7941 11.8243 23.8033 11.8178C23.7938 11.8114 23.7843 11.8051 23.7751 11.7986C23.7723 11.7806 23.7695 11.7623 23.767 11.7442C23.7633 11.7303 23.7596 11.7164 23.7559 11.7026C23.7494 11.5743 23.7431 11.4461 23.7367 11.3181C23.7813 11.2477 23.745 11.1954 23.6982 11.1454C23.6917 11.0685 23.6855 10.9915 23.679 10.9146C23.6885 10.9081 23.698 10.9019 23.7073 10.8954C23.6978 10.8889 23.6883 10.8827 23.679 10.8762C23.6663 10.7929 23.6533 10.7095 23.6406 10.6262C23.6931 10.5824 23.6642 10.5549 23.6214 10.5304C23.6087 10.4662 23.5957 10.4021 23.583 10.338C23.5924 10.3315 23.6019 10.3253 23.6112 10.3188C23.6017 10.3123 23.5922 10.3061 23.583 10.2996C23.5383 10.2359 23.5073 10.1686 23.5253 10.088C23.5348 10.0815 23.5443 10.0753 23.5536 10.0688C23.5441 10.0623 23.5346 10.0561 23.5253 10.0496C23.5061 9.98546 23.4869 9.92134 23.4677 9.85722C23.4772 9.85074 23.4867 9.84449 23.4959 9.83801C23.4864 9.83153 23.4769 9.82528 23.4677 9.8188C23.4587 9.78778 23.4494 9.75676 23.4404 9.72598C23.4367 9.71209 23.433 9.6982 23.4293 9.68431C23.3897 9.67158 23.3501 9.64751 23.3105 9.64751C22.755 9.64496 22.1994 9.64635 21.6439 9.64496C21.6038 9.64496 21.564 9.63153 21.524 9.62459C21.511 9.61927 21.498 9.61417 21.4848 9.60885C21.3835 9.60214 21.2832 9.61695 21.1842 9.55955C21.1101 9.51649 21.014 9.51209 20.9277 9.49033C20.9221 9.48478 20.9166 9.47922 20.911 9.47367C20.8393 9.44797 20.768 9.42043 20.6955 9.39705C20.5536 9.35145 20.4101 9.31094 20.2689 9.26349C20.146 9.22205 20.0282 9.1489 19.9029 9.13525C19.746 9.11812 19.593 9.03803 19.4298 9.09011C19.3786 9.04914 19.3726 9.08317 19.3715 9.12529C19.3141 9.12645 19.2566 9.12738 19.1992 9.12854C19.1414 9.0834 19.143 9.12761 19.1414 9.16696C19.0861 9.17529 19.03 9.18108 18.9754 9.19289C18.8446 9.22113 18.7145 9.25237 18.584 9.28224C18.5261 9.2371 18.5277 9.28131 18.5261 9.32066C18.4685 9.32714 18.4108 9.33339 18.3532 9.33987C18.2953 9.29474 18.2969 9.33895 18.2953 9.3783C18.2379 9.38432 18.1805 9.39057 18.1231 9.39659C18.0833 9.39543 18.04 9.38941 18.0449 9.45168C18.0011 9.45561 17.9564 9.45538 17.9136 9.46395C17.7777 9.49126 17.6426 9.52181 17.5074 9.55098C17.4495 9.50584 17.4511 9.55005 17.4495 9.58941C17.2859 9.62667 17.1384 9.69843 17.0048 9.79959C16.997 9.80051 16.9891 9.80144 16.981 9.8026C16.9643 9.81463 16.9479 9.82667 16.9312 9.83848C16.9058 9.8519 16.8803 9.8651 16.8551 9.87852C16.8009 9.86093 16.7493 9.84727 16.7592 9.93616H16.759C16.7393 9.95514 16.7197 9.97389 16.7 9.99264H16.7002C16.6581 9.99009 16.616 9.98824 16.6231 10.0507C16.5655 10.0827 16.5081 10.1149 16.4504 10.1468C16.3491 10.0915 16.356 10.1665 16.3518 10.2285C16.3336 10.2394 16.3153 10.2505 16.297 10.2614C16.2549 10.2593 16.2123 10.2565 16.2192 10.3199C16.1937 10.3324 16.1685 10.3449 16.143 10.3577C16.1014 10.3558 16.0586 10.3524 16.0653 10.4155H16.0655C16.0238 10.4132 15.9815 10.4105 15.9884 10.4732H15.9887L15.9914 10.4736ZM10.973 22.7149C11.0047 22.7017 11.0362 22.6882 11.0679 22.675C11.1561 22.676 11.1642 22.6693 11.1401 22.6142C11.1397 22.6091 11.1406 22.6044 11.1431 22.6C11.2186 22.5926 11.2228 22.5878 11.1978 22.5375C11.1973 22.5325 11.1982 22.5276 11.2008 22.5232C11.2494 22.5144 11.3353 22.4116 11.3299 22.3653C11.3292 22.3591 11.3098 22.3549 11.2989 22.3498C11.3001 22.3371 11.3012 22.3244 11.3024 22.3116C11.3755 22.2769 11.3846 22.2519 11.3374 22.2153C11.3385 22.1707 11.3397 22.1257 11.3408 22.0811C11.4207 22.0371 11.4394 21.9901 11.395 21.9461C11.3961 21.895 11.3973 21.8438 11.3985 21.7927C11.4762 21.7494 11.4917 21.716 11.4526 21.6769C11.473 21.5362 11.4934 21.3952 11.5137 21.2545C11.5869 21.2197 11.5959 21.1947 11.5487 21.1582C11.5498 21.1135 11.551 21.0686 11.5522 21.0239C11.6306 20.9806 11.6533 20.9165 11.6063 20.8698C11.6075 20.8251 11.6086 20.7802 11.6098 20.7355C11.6897 20.6915 11.7084 20.6445 11.664 20.6005C11.6651 20.5559 11.6663 20.511 11.6674 20.4663C11.7473 20.4223 11.766 20.3753 11.7216 20.3313C11.7228 20.2867 11.7239 20.2418 11.7251 20.1971C11.7957 20.1559 11.8045 20.1269 11.76 20.0816C11.7612 20.0431 11.7623 20.005 11.7635 19.9665C11.842 19.9232 11.8647 19.8591 11.8177 19.8124C11.8188 19.7804 11.82 19.7485 11.8211 19.7165C11.8498 19.7054 11.8785 19.6943 11.9072 19.683C11.8966 19.6749 11.886 19.6665 11.8753 19.6584C11.8765 19.6457 11.8776 19.6332 11.8788 19.6205C11.9246 19.62 11.9744 19.6251 11.97 19.555C11.9677 19.5513 11.9674 19.5476 11.9693 19.5436C11.9748 19.5295 11.9804 19.5156 11.9859 19.5015C11.992 19.4952 11.9978 19.489 12.0038 19.4827C12.0959 19.4695 12.1559 19.4098 12.1397 19.3473C12.1457 19.3411 12.1515 19.3351 12.1575 19.3288C12.1869 19.3158 12.223 19.3098 12.2447 19.2888C12.4413 19.0992 12.6376 18.9089 12.829 18.7142C12.9109 18.6311 12.9832 18.5383 13.0558 18.4466C13.0707 18.4279 13.1202 18.3881 13.048 18.3707C13.0491 18.3517 13.0503 18.3325 13.0514 18.3135C13.0801 18.3024 13.1088 18.2913 13.1375 18.28L13.1056 18.2554C13.1068 18.2427 13.1079 18.23 13.1091 18.2175C13.1822 18.1828 13.1913 18.1578 13.144 18.1212C13.1452 18.1085 13.1463 18.0957 13.1475 18.083C13.2274 18.039 13.2461 17.992 13.2017 17.948C13.2028 17.9353 13.204 17.9226 13.2051 17.9099C13.2829 17.8666 13.2984 17.8332 13.2593 17.7941C13.2605 17.7749 13.2616 17.7559 13.2628 17.7367C13.3406 17.6934 13.3561 17.6601 13.3169 17.621C13.3181 17.6082 13.3193 17.5955 13.3204 17.5828C13.3936 17.5481 13.4026 17.5231 13.3554 17.4865C13.3619 17.4675 13.3681 17.4485 13.3746 17.4295L13.4144 17.3714C13.4139 17.352 13.4135 17.3325 13.413 17.3131C13.4142 17.3004 13.4153 17.2879 13.4165 17.2751C13.4943 17.2319 13.5098 17.1985 13.4706 17.1594C13.4718 17.1402 13.473 17.1212 13.4741 17.102C13.5519 17.0587 13.5674 17.0254 13.5283 16.9863C13.5294 16.9608 13.5306 16.9353 13.5318 16.9099C13.5996 16.893 13.669 16.7513 13.6422 16.683C13.6408 16.6798 13.6304 16.68 13.6243 16.6786C13.6255 16.4034 13.6267 16.1279 13.6278 15.8527C13.6373 15.8462 13.6468 15.84 13.6561 15.8335C13.6466 15.827 13.6371 15.8208 13.6278 15.8143C13.6151 15.7886 13.6021 15.7629 13.5894 15.7372C13.6419 15.6935 13.613 15.6659 13.5702 15.6414C13.55 15.6097 13.5299 15.5782 13.51 15.5465C13.498 15.5268 13.4862 15.5071 13.4741 15.4877C13.422 15.4421 13.3702 15.3965 13.3181 15.3509C13.3049 15.3388 13.2915 15.327 13.2783 15.315C13.2595 15.3078 13.2408 15.3004 13.222 15.2932C13.2003 15.2756 13.1785 15.2583 13.157 15.2407C13.1403 15.2391 13.1234 15.2372 13.1068 15.2356C13.0658 15.2118 13.0251 15.1877 12.9841 15.1638C12.9609 15.1557 12.9378 15.1476 12.9146 15.1395C12.8929 15.1219 12.8711 15.1046 12.8494 15.087C12.8327 15.0854 12.816 15.0835 12.7994 15.0819C12.7714 15.0581 12.7431 15.034 12.7151 15.0101C12.6663 14.9956 12.6177 14.981 12.5688 14.9666C12.5151 14.9298 12.4614 14.8932 12.4075 14.8564C12.3586 14.8419 12.31 14.8275 12.2612 14.8129C12.2394 14.7953 12.2177 14.778 12.1961 14.7604C12.1795 14.7588 12.1626 14.7569 12.1459 14.7553C12.1281 14.6926 12.0878 14.678 12.0299 14.7011C12.0045 14.6872 11.979 14.6733 11.9535 14.6592C11.9255 14.6354 11.8973 14.6113 11.8693 14.5875C11.8204 14.5729 11.7718 14.5583 11.723 14.5439C11.7012 14.5264 11.6795 14.509 11.6579 14.4914C11.5286 14.4722 11.4637 14.3733 11.3959 14.2782L11.36 14.2194C11.3529 14.2069 11.3455 14.1946 11.3383 14.1821C11.32 14.1305 11.3015 14.0789 11.2832 14.0273C11.2128 13.925 11.2515 13.8099 11.2448 13.7004C11.2543 13.694 11.2637 13.6877 11.273 13.6812C11.2635 13.6747 11.254 13.6685 11.2448 13.662L11.2235 13.6407C11.2114 13.6095 11.1994 13.578 11.1871 13.5467C11.1158 13.4562 11.0448 13.366 10.9735 13.2754C10.9603 13.2634 10.9468 13.2516 10.9337 13.2396C10.7938 13.1461 10.6309 13.1588 10.4753 13.1447C10.3047 13.1292 10.1348 13.1197 9.99316 13.0065C9.98228 12.9407 9.93645 12.9282 9.87974 12.9317C9.86608 12.9183 9.85242 12.9049 9.83877 12.8912C9.83321 12.8856 9.82766 12.8801 9.8221 12.8745C9.79571 12.8481 9.76909 12.8215 9.7427 12.7951C9.73715 12.7896 9.73159 12.784 9.72604 12.7785C9.68669 12.7456 9.64757 12.7127 9.60822 12.6799C9.60266 12.6743 9.59711 12.6687 9.59155 12.6632C9.46377 12.6139 9.33623 12.5644 9.20846 12.515C9.19457 12.5187 9.18068 12.5225 9.16679 12.5262C8.92814 12.5268 8.68902 12.5343 8.4506 12.5262C8.22074 12.5185 8.00338 12.5528 7.80015 12.6627C7.78163 12.6694 7.76311 12.6762 7.74459 12.6829H7.74506C7.68395 12.6729 7.65918 12.6998 7.66728 12.7597C7.63464 12.8106 7.60177 12.8616 7.56913 12.9125C7.56381 12.9255 7.55872 12.9384 7.55339 12.9514C7.5395 12.9768 7.52538 13.0023 7.5115 13.0275C7.47515 13.0461 7.43858 13.0643 7.40224 13.0829C7.42053 13.103 7.43904 13.1231 7.45733 13.1433C7.44344 13.1687 7.42932 13.1944 7.41543 13.2199C7.41011 13.2329 7.40502 13.2458 7.39969 13.2588C7.38048 13.2972 7.36127 13.3356 7.34205 13.3741C7.3027 13.3757 7.25826 13.3741 7.30363 13.4319C7.29715 13.4511 7.2909 13.4704 7.28442 13.4893C7.17539 13.4912 7.17192 13.4958 7.20757 13.5856C7.19483 13.6048 7.18187 13.6238 7.16914 13.643C7.13419 13.647 7.07285 13.625 7.11081 13.7016C7.10456 13.7078 7.09831 13.7139 7.09229 13.7201C6.9497 13.6974 6.93905 13.7055 6.93766 13.8363C6.91845 13.8428 6.89924 13.849 6.88026 13.8555C6.82239 13.8104 6.82401 13.8546 6.82239 13.894C6.80317 13.9004 6.78396 13.9067 6.76498 13.9132C6.7092 13.8861 6.7085 13.8865 6.6879 13.9676C6.61105 14.0007 6.5342 14.0338 6.45735 14.0669C6.39948 14.0217 6.4011 14.0659 6.39948 14.1053C6.37402 14.1178 6.34879 14.1303 6.32332 14.143C6.28166 14.1412 6.23883 14.1377 6.24555 14.2009H6.24578C6.21245 14.1953 6.17888 14.19 6.13027 14.1821V14.2974C6.12425 14.3164 6.118 14.3354 6.11198 14.3544C6.07263 14.356 6.02819 14.3544 6.07356 14.4122C6.05435 14.4764 6.03513 14.5402 6.01592 14.6044C5.99115 14.6166 5.96639 14.6289 5.94185 14.6412C5.95389 14.6546 5.96569 14.6678 5.97773 14.6812C5.97703 14.9854 5.94463 15.293 6.07379 15.5835C6.04532 15.6418 6.08884 15.6499 6.12796 15.6611C6.13513 15.6798 6.14254 15.6986 6.14971 15.7173C6.16175 15.7305 6.17356 15.7437 6.18559 15.7571C6.19277 15.7643 6.20018 15.7712 6.20735 15.7784C6.21291 15.784 6.21846 15.7895 6.22402 15.7951C6.24439 15.8335 6.26453 15.8719 6.2849 15.9101C6.25643 15.9685 6.29994 15.9766 6.33906 15.9877C6.35943 16.0194 6.3798 16.0513 6.40017 16.083C6.3717 16.1414 6.41522 16.1495 6.45434 16.1606C6.49369 16.2242 6.53304 16.2879 6.57239 16.3513C6.58443 16.3645 6.59623 16.3777 6.60827 16.3911C6.61545 16.3983 6.62285 16.4053 6.63003 16.4124C6.63559 16.418 6.64114 16.4235 6.6467 16.4291C6.66707 16.4675 6.6872 16.5059 6.70757 16.5441C6.6791 16.6025 6.72262 16.6106 6.76174 16.6217C6.77517 16.6416 6.78882 16.6615 6.80225 16.6814C6.79855 16.7379 6.81128 16.7839 6.87702 16.7946C6.89739 16.8265 6.91776 16.8583 6.93813 16.8902C6.90965 16.9485 6.95317 16.9566 6.99229 16.9677C6.99345 16.9738 6.99438 16.9795 6.99484 16.9856C7.00688 16.9988 7.01868 17.012 7.03072 17.0254C7.03789 17.0326 7.0453 17.0395 7.05248 17.0467C7.05803 17.0522 7.06359 17.0578 7.06914 17.0633C7.10849 17.1089 7.14761 17.1548 7.18696 17.2004C7.19252 17.2059 7.19807 17.2115 7.20363 17.217C7.21729 17.2295 7.23095 17.242 7.2446 17.2545C7.27053 17.274 7.29645 17.2937 7.32238 17.3131C7.3284 17.3136 7.33441 17.3145 7.34043 17.3157C7.36543 17.396 7.43465 17.3839 7.49552 17.39C7.50802 17.3971 7.52029 17.4045 7.53279 17.4117C7.55872 17.4237 7.58487 17.4356 7.6108 17.4476C7.6233 17.4548 7.63557 17.4622 7.64807 17.4694C7.67399 17.4814 7.70015 17.4932 7.72607 17.5052C7.73857 17.5124 7.75084 17.5198 7.76334 17.527C7.78302 17.539 7.80269 17.5508 7.82237 17.5629C7.82839 17.5633 7.83441 17.5643 7.84019 17.5654C7.87237 17.5837 7.90478 17.602 7.93695 17.6205V17.62C7.96889 17.6395 8.0013 17.6587 8.03371 17.6781C8.03973 17.6786 8.04574 17.6795 8.05176 17.6807C8.06496 17.6927 8.07838 17.7045 8.09158 17.7166L8.10986 17.7349C8.12306 17.7481 8.13602 17.761 8.14921 17.7742C8.15523 17.7802 8.16148 17.7865 8.1675 17.7925C8.18046 17.8057 8.19343 17.8187 8.20639 17.8318L8.20593 17.8316C8.22421 17.8638 8.2425 17.8962 8.26102 17.9284C8.34342 18.0142 8.37606 18.1237 8.37653 18.2358C8.38046 19.0941 8.3793 19.9522 8.37977 20.8105C8.33717 20.861 8.37074 20.8767 8.41472 20.888C8.42236 20.907 8.42977 20.926 8.4374 20.9452C8.39481 20.9957 8.42861 21.0114 8.47236 21.0228C8.47351 21.0288 8.47444 21.0348 8.4749 21.0408C8.49319 21.0732 8.51171 21.1056 8.52999 21.1383C8.53115 21.1443 8.53208 21.1503 8.53254 21.1563C8.55083 21.1887 8.56935 21.2211 8.58763 21.2538C8.608 21.292 8.62837 21.3302 8.64874 21.3686C8.60615 21.419 8.63995 21.4348 8.6837 21.4461C8.68485 21.4521 8.68578 21.4582 8.68624 21.4642C8.70453 21.4966 8.72305 21.529 8.74133 21.5616C8.74249 21.5677 8.74342 21.5737 8.74388 21.5797C8.76217 21.6121 8.78068 21.6445 8.79897 21.6771C8.80013 21.6832 8.80105 21.6892 8.80152 21.6952C8.82235 21.8017 8.84828 21.9056 8.95267 21.9656C8.95985 21.9727 8.96726 21.9797 8.97443 21.9869C8.97999 21.9924 8.98554 21.998 8.9911 22.0035C9.28669 22.298 9.58229 22.5922 9.87766 22.8866C9.91006 22.9061 9.94224 22.9257 9.97464 22.9452C9.98066 22.9456 9.98668 22.9466 9.9927 22.9477C9.99918 22.9572 10.0054 22.9667 10.0119 22.976C10.0184 22.9665 10.0246 22.957 10.0311 22.9477C10.0506 22.953 10.07 22.9581 10.0895 22.9635C10.1441 23.0489 10.17 23.057 10.2235 23.0054C10.2492 23.0054 10.2749 23.0054 10.3006 23.0054C10.3638 23.0683 10.4156 23.0489 10.454 22.9477C10.467 22.9477 10.4797 22.9477 10.4927 22.9477C10.5045 22.9584 10.5161 22.9692 10.5276 22.9799C10.5351 22.9616 10.5422 22.9433 10.5496 22.925C10.5679 22.9172 10.5862 22.9091 10.6045 22.9012C10.6348 22.9368 10.6557 22.9364 10.6635 22.8859C10.7061 22.8753 10.7802 22.9274 10.7786 22.8283H10.779C10.8216 22.8176 10.8957 22.8697 10.8941 22.7706H10.8943C10.9371 22.775 10.9788 22.7778 10.9725 22.7142H10.9723L10.973 22.7149ZM7.74598 12.6271C7.75061 12.6294 7.75524 12.6315 7.75987 12.6338C7.76519 12.6231 7.77075 12.6125 7.77607 12.6018C7.77098 12.5995 7.76195 12.5951 7.76172 12.5956C7.75594 12.6058 7.75107 12.6164 7.74621 12.6271H7.74598ZM18.6937 3.93349C18.6884 3.93118 18.6819 3.92585 18.678 3.92724C18.674 3.92886 18.6729 3.9372 18.6705 3.94252C18.6759 3.94483 18.6824 3.95016 18.6863 3.94877C18.6902 3.94715 18.6914 3.93905 18.6937 3.93349ZM18.2638 4.16242C18.2662 4.1571 18.2712 4.15062 18.2699 4.14668C18.2685 4.14298 18.2601 4.14182 18.2546 4.13951C18.2523 4.14483 18.2469 4.15131 18.2486 4.15525C18.2502 4.15918 18.2583 4.16034 18.2638 4.16265V4.16242Z" fill="#685FFF"/>
</svg>
