<svg width="25" height="25" viewBox="0 0 25 25" fill="none" xmlns="http://www.w3.org/2000/svg">
<path d="M4.16167 0H20.8088C20.8769 0.112733 21.0067 0.077547 21.1049 0.116899C21.2757 0.185418 21.4641 0.208567 21.6373 0.272688C21.8111 0.336809 21.9723 0.434263 22.144 0.505329C22.3864 0.605793 22.6061 0.744451 22.813 0.900471C23.0514 1.08033 23.2868 1.26737 23.5017 1.47386C23.8003 1.76043 24.0535 2.08775 24.2686 2.44308C24.3188 2.52595 24.3774 2.60442 24.4204 2.691C24.5017 2.85442 24.5783 3.02063 24.6491 3.18892C24.6933 3.29401 24.7244 3.40489 24.7595 3.51369C24.785 3.59239 24.8091 3.67179 24.8313 3.75166C24.8614 3.85953 24.8892 3.96786 24.9177 4.0762C24.9278 4.11462 24.9383 4.15305 24.9475 4.19171C24.9614 4.24935 24.9864 4.30722 24.9864 4.36509C24.9883 9.76005 24.988 15.1552 24.988 20.5502C24.988 20.6511 25.0035 20.7546 24.9281 20.8419C24.9139 20.8583 24.922 20.8928 24.9172 20.9182C24.9093 20.9611 24.9019 21.0041 24.8899 21.0458C24.8656 21.1308 24.8364 21.2146 24.8128 21.2997C24.7896 21.3824 24.7799 21.4699 24.7484 21.549C24.6748 21.7352 24.5984 21.921 24.5105 22.1007C24.4158 22.2944 24.3227 22.4926 24.1998 22.6683C24.0262 22.9162 23.8325 23.1509 23.635 23.3808C23.4341 23.6143 23.2088 23.8248 22.9521 23.9981C22.7961 24.1037 22.6426 24.2141 22.4794 24.3076C22.2681 24.4287 22.0514 24.5412 21.8313 24.6449C21.6956 24.7088 21.5498 24.7516 21.407 24.7995C21.3179 24.8294 21.2264 24.8542 21.135 24.8757C21.0343 24.8993 20.931 24.9134 20.8308 24.9389C20.797 24.9475 20.7688 24.9789 20.7382 25H4.19686C4.16375 24.9766 4.13366 24.9412 4.09709 24.9319C3.99685 24.9065 3.89361 24.8937 3.79199 24.8729C3.72741 24.8597 3.66213 24.8461 3.60079 24.8234C3.48643 24.781 3.37416 24.7326 3.26213 24.685C3.09106 24.612 2.91768 24.5433 2.75101 24.4611C2.6223 24.3977 2.49916 24.3215 2.37925 24.2421C2.18619 24.1139 1.98966 23.9882 1.81003 23.8426C1.6503 23.7132 1.50192 23.5662 1.36535 23.4123C1.18363 23.2076 1.00933 22.9954 0.848445 22.7741C0.722981 22.6016 0.620665 22.4122 0.512794 22.2275C0.454923 22.1282 0.403534 22.0245 0.355848 21.9199C0.32182 21.8449 0.297977 21.7652 0.270662 21.6872C0.23293 21.5789 0.192884 21.471 0.159782 21.3613C0.126911 21.252 0.0989014 21.1412 0.0732067 21.0298C0.0458916 20.9118 0.00283567 20.7928 0.00260419 20.674C-0.000868064 15.2256 -0.000868064 9.77741 0.00260419 4.32898C0.00260419 4.20745 0.0458916 4.08522 0.0755215 3.96485C0.097281 3.87619 0.132235 3.79101 0.157004 3.70304C0.180384 3.6204 0.188949 3.53267 0.220199 3.4535C0.294505 3.26461 0.371358 3.07572 0.460479 2.89355C0.553767 2.70211 0.646592 2.50697 0.768352 2.33382C0.94428 2.08382 1.13896 1.84585 1.33896 1.61437C1.53827 1.38358 1.76165 1.17501 2.01582 1.00325C2.17184 0.897694 2.3267 0.789591 2.48874 0.693756C2.66351 0.590515 2.84453 0.497227 3.02578 0.405791C3.10773 0.364587 3.19777 0.339818 3.28319 0.305327C3.39916 0.258799 3.51097 0.199076 3.63042 0.165048C3.78204 0.121992 3.93922 0.0979176 4.09431 0.0682877C4.13621 0.0606487 4.16977 0.0527783 4.16167 0ZM12.4675 12.8672C14.3733 10.9591 16.2673 9.06305 18.159 7.16928H6.78021C8.67768 9.07022 10.5684 10.9647 12.4675 12.8672ZM18.1847 16.8617C16.9319 15.6064 15.6847 14.3564 14.4342 13.1036C14.4032 13.1365 14.3782 13.1642 14.3518 13.1906C13.7544 13.7902 13.1569 14.3902 12.5578 14.9881C12.5185 15.0272 12.4673 15.0499 12.4143 14.9953C12.2622 14.8386 12.109 14.6828 11.9546 14.5281C11.652 14.2251 11.3472 13.9242 11.0455 13.6203C10.8759 13.4494 10.7106 13.2742 10.5358 13.0936C9.27445 14.3571 8.02884 15.6048 6.77396 16.8617H18.1845H18.1847ZM19.9618 7.58989C18.4762 9.07624 17.009 10.5443 15.5345 12.0196C17.0021 13.4855 18.472 14.9541 19.9574 16.4381C19.9789 16.318 20.0125 16.217 20.0127 16.1161C20.0155 13.3821 20.0155 10.6482 20.0127 7.91419C20.0127 7.81257 19.9815 7.71095 19.9616 7.59012L19.9618 7.58989ZM9.41866 12.0258C7.94805 10.5533 6.48137 9.08457 5.0045 7.60563C4.98784 7.7179 4.95728 7.82762 4.95705 7.93757C4.9545 10.6566 4.9545 13.3756 4.95682 16.0946C4.95682 16.192 4.98321 16.2895 4.99895 16.3867C5.00103 16.3988 5.01353 16.4092 5.02649 16.4277C6.49711 14.9538 7.9624 13.4855 9.41866 12.026V12.0258Z" fill="#685FFF"/>
</svg>
