<svg width="22" height="21" viewBox="0 0 22 21" fill="none" xmlns="http://www.w3.org/2000/svg">
<path d="M11.6295 8.86811C11.9213 8.5404 12.1618 8.20743 12.4616 7.9248C13.3828 7.0565 14.4729 6.61825 15.7452 6.6291C16.4444 6.63503 17.1357 6.68537 17.8099 6.88048C19.352 7.3263 20.2482 8.38806 20.6756 9.89433C20.9961 11.0242 21.0553 12.184 21.0573 13.3478C21.0616 15.8019 21.0501 18.2565 21.0557 20.7106C21.0563 20.9403 20.9918 21.0008 20.7655 20.9989C19.501 20.9883 18.2366 20.988 16.9722 20.9992C16.7497 21.0012 16.7017 20.9321 16.7024 20.7218C16.7093 18.3864 16.7112 16.051 16.7037 13.7156C16.7017 13.1303 16.6645 12.5456 16.5003 11.9764C16.198 10.9281 15.4475 10.3941 14.3495 10.452C12.8502 10.5313 12.0704 11.2736 11.8792 12.7983C11.8335 13.1625 11.8121 13.5268 11.8124 13.8936C11.8144 16.1649 11.8101 18.4361 11.8183 20.7074C11.8193 20.9337 11.7624 21.0005 11.5311 20.9985C10.2575 20.9874 8.98381 20.9887 7.71016 20.9976C7.50583 20.9989 7.44694 20.9439 7.44727 20.7373C7.45286 16.2405 7.45319 11.7438 7.44727 7.24701C7.44727 7.02459 7.51998 6.97293 7.73023 6.97458C8.93972 6.98346 10.1492 6.98445 11.3587 6.97392C11.5811 6.97195 11.6387 7.044 11.6338 7.25458C11.6213 7.79187 11.6298 8.3295 11.6298 8.86712L11.6295 8.86811Z" fill="white"/>
<path d="M4.70013 14.0069C4.70013 16.2314 4.69651 18.4563 4.70539 20.6808C4.70638 20.9282 4.64485 21.0029 4.38887 20.9999C3.12509 20.9861 1.86098 20.9891 0.597204 20.998C0.394526 20.9993 0.333657 20.9486 0.333986 20.7394C0.339908 16.2354 0.339579 11.731 0.334973 7.22702C0.334973 7.04079 0.380049 6.974 0.577792 6.97532C1.86 6.98354 3.14253 6.98618 4.42473 6.97367C4.67084 6.97137 4.70473 7.06679 4.70407 7.27802C4.69782 9.52097 4.70013 11.7639 4.70013 14.0069Z" fill="white"/>
<path d="M5.04954 2.51177C5.05085 3.90847 3.91704 5.04623 2.52362 5.04689C1.14798 5.04722 0.00462021 3.90847 1.38778e-05 2.53348C-0.00459245 1.14303 1.13811 -0.00131496 2.52889 1.13408e-06C3.9098 0.00131723 5.04789 1.13546 5.04921 2.51177H5.04954Z" fill="white"/>
</svg>
