<svg width="22" height="22" viewBox="0 0 22 22" fill="none" xmlns="http://www.w3.org/2000/svg">
<path d="M11 1.98194C13.937 1.98194 14.2851 1.99326 15.445 2.046C16.5175 2.09485 17.0998 2.27409 17.4874 2.42485C18.0009 2.62447 18.3674 2.86291 18.7521 3.24759C19.1371 3.63259 19.3755 3.99882 19.5748 4.51227C19.7256 4.89985 19.9045 5.48221 19.9537 6.55471C20.0067 7.71456 20.0177 8.06268 20.0177 10.9997C20.0177 13.9367 20.0064 14.2848 19.9537 15.4446C19.9048 16.5171 19.7256 17.0995 19.5748 17.4871C19.3752 18.0005 19.1368 18.3671 18.7521 18.7518C18.3671 19.1368 18.0009 19.3752 17.4874 19.5745C17.0998 19.7253 16.5175 19.9042 15.445 19.9534C14.2851 20.0064 13.9373 20.0174 11 20.0174C8.06268 20.0174 7.71488 20.0061 6.55503 19.9534C5.48253 19.9045 4.90018 19.7253 4.51259 19.5745C3.99915 19.3749 3.63259 19.1364 3.24791 18.7518C2.86291 18.3668 2.62447 18.0005 2.42518 17.4871C2.27441 17.0995 2.0955 16.5171 2.04632 15.4446C1.99326 14.2848 1.98226 13.9367 1.98226 10.9997C1.98226 8.06268 1.99359 7.71456 2.04632 6.55471C2.09518 5.48221 2.27441 4.89985 2.42518 4.51227C2.62479 3.99882 2.86324 3.63227 3.24791 3.24759C3.63291 2.86259 3.99915 2.62415 4.51259 2.42485C4.90018 2.27409 5.48253 2.09518 6.55503 2.046C7.71488 1.99294 8.063 1.98194 11 1.98194ZM11 0C8.01253 0 7.63788 0.0126177 6.46477 0.0663236C5.29391 0.119706 4.49447 0.305736 3.79468 0.5775C3.07127 0.858647 2.45785 1.23459 1.84638 1.84638C1.23491 2.45785 0.858647 3.07127 0.5775 3.79468C0.305736 4.49447 0.119706 5.29391 0.0663236 6.46477C0.0129413 7.63788 0 8.01253 0 11C0 13.9875 0.0126177 14.3621 0.0663236 15.5352C0.119706 16.7061 0.305736 17.5055 0.5775 18.2053C0.858647 18.9287 1.23459 19.5421 1.84638 20.1536C2.45785 20.7651 3.07127 21.1414 3.79468 21.4225C4.49447 21.6943 5.29391 21.8803 6.46477 21.9337C7.63788 21.9871 8.01253 22 11 22C13.9875 22 14.3621 21.9874 15.5352 21.9337C16.7061 21.8803 17.5055 21.6943 18.2053 21.4225C18.9287 21.1414 19.5421 20.7654 20.1536 20.1536C20.7651 19.5421 21.1414 18.9287 21.4225 18.2053C21.6943 17.5055 21.8803 16.7061 21.9337 15.5352C21.9871 14.3621 22 13.9875 22 11C22 8.01253 21.9874 7.63788 21.9337 6.46477C21.8803 5.29391 21.6943 4.49447 21.4225 3.79468C21.1414 3.07127 20.7654 2.45785 20.1536 1.84638C19.5421 1.23491 18.9287 0.858647 18.2053 0.5775C17.5055 0.305736 16.7061 0.119706 15.5352 0.0663236C14.3621 0.0129413 13.9875 0 11 0Z" fill="white"/>
<path d="M11.0001 5.35156C7.88027 5.35156 5.35156 7.88059 5.35156 11.0001C5.35156 14.1195 7.88059 16.6486 11.0001 16.6486C14.1195 16.6486 16.6486 14.1195 16.6486 11.0001C16.6486 7.88059 14.1195 5.35156 11.0001 5.35156ZM11.0001 14.6669C8.97509 14.6669 7.3335 13.0254 7.3335 11.0004C7.3335 8.97542 8.97509 7.33383 11.0001 7.33383C13.025 7.33383 14.6666 8.97542 14.6666 11.0004C14.6666 13.0254 13.025 14.6669 11.0001 14.6669Z" fill="white"/>
<path d="M16.8708 6.44811C17.5998 6.44811 18.1908 5.85712 18.1908 5.12811C18.1908 4.39909 17.5998 3.80811 16.8708 3.80811C16.1418 3.80811 15.5508 4.39909 15.5508 5.12811C15.5508 5.85712 16.1418 6.44811 16.8708 6.44811Z" fill="white"/>
</svg>
