<svg width="99" height="80" viewBox="0 0 99 80" fill="none" xmlns="http://www.w3.org/2000/svg">
<path d="M49.7352 0.46582H31.7754V27.4424H49.7352V0.46582Z" fill="#00A9DF"/>
<path d="M44.2089 37.675C42.3668 35.3494 39.6038 33.954 36.8407 32.5587C33.6172 31.1634 30.3936 30.6982 26.249 30.6982H23.0255C22.1044 30.6982 21.6439 30.2331 20.7229 29.768C18.8809 28.8378 17.9599 26.9773 17.9599 24.6518V0.46582H0V25.1169C0 28.3727 0.460508 31.6285 1.38153 34.4192C2.30254 37.2099 3.68407 40.0005 5.52611 41.861C7.36815 44.1866 9.67069 46.047 12.4337 46.9772C14.7363 47.9075 17.0388 48.8377 19.3414 48.8377V49.3028H22.5649H23.486C29.0121 49.3028 31.7751 51.1633 31.7751 55.3493C31.7751 57.6749 30.8541 59.0702 29.4726 60.4656C28.5516 60.9307 27.6306 61.3958 27.17 61.3958H0V79.5353H19.3414V80.0004H27.17C30.3936 80.0004 33.6172 79.5353 36.3802 78.1399C39.1433 76.7446 41.4458 75.3492 43.2879 73.0237C45.5904 70.6981 46.9719 68.3725 47.893 65.1167C49.2745 62.326 49.735 59.0702 49.735 55.3493V54.8842C49.735 51.6284 49.2745 48.8377 48.3535 45.5819C47.4324 42.7912 46.0509 40.0005 44.2089 37.675Z" fill="#00A9DF"/>
<path d="M97.6273 24.6511C97.6273 21.3953 97.1668 18.1395 95.7852 14.8837C94.8642 11.6279 93.0222 9.30229 91.1801 6.97671C89.3381 4.65114 87.0356 3.2558 84.2725 1.86046C81.5095 0.465115 78.2859 0 75.0623 0H53.8789V18.1395H71.8388C74.1413 18.1395 75.9833 18.6046 77.3649 19.5348C79.2069 20.465 79.6674 21.8604 79.6674 24.6511C79.6674 26.5115 79.2069 27.9069 78.2859 28.8371C77.3649 29.7673 76.4439 30.6975 75.0623 31.1627H53.8789V49.3021H74.1413C75.9833 49.7672 77.3649 50.2323 78.2859 51.1626C79.2069 52.0928 80.1279 53.4881 80.1279 55.3486C80.1279 57.2091 79.6674 58.6044 78.7464 59.5346C77.8254 60.4649 76.9044 61.3951 75.5228 61.8602H54.3394V79.9997H75.5228C78.2859 79.9997 81.0489 79.0694 83.3515 77.6741C86.1145 76.2787 88.4171 74.4183 90.7196 72.0927C93.0222 69.7671 94.8642 67.4416 96.2457 64.1858C97.6273 61.3951 98.5483 58.1393 98.5483 54.8835C98.5483 48.837 96.7063 43.2556 93.0222 39.0696C95.7852 34.8836 97.6273 30.2324 97.6273 24.6511Z" fill="#685FFF"/>
</svg>
