<svg width="19" height="25" viewBox="0 0 19 25" fill="none" xmlns="http://www.w3.org/2000/svg">
<path d="M13.7822 1.27495C13.7878 1.27541 13.7934 1.27634 13.7987 1.27726C13.8167 1.29416 13.8348 1.31105 13.8528 1.32771C13.8584 1.32818 13.8639 1.3291 13.8693 1.33003C13.8931 1.34091 13.9169 1.35201 13.941 1.36289C13.9644 1.38025 13.9875 1.39761 14.0109 1.41496C14.0405 1.43278 14.0701 1.45083 14.1 1.46866C14.1056 1.46912 14.1111 1.47004 14.1164 1.47097C14.1403 1.48786 14.1643 1.50476 14.1882 1.52142C14.2113 1.53994 14.2345 1.55822 14.2576 1.57673C14.2814 1.59363 14.3055 1.61052 14.3293 1.62718C14.3467 1.63876 14.3641 1.6501 14.3814 1.66167C14.3983 1.67393 14.4152 1.68597 14.4321 1.69823C14.4386 1.70471 14.4451 1.71119 14.4515 1.71791C14.4696 1.7348 14.4876 1.75169 14.5057 1.76836C14.5467 1.79752 14.5874 1.82668 14.6284 1.85561C14.6462 1.86764 14.6642 1.87967 14.682 1.89171C14.8049 1.98868 14.9334 2.0794 15.0493 2.18401C15.2504 2.36545 15.4504 2.54897 15.6388 2.74314C15.9207 3.03382 16.1891 3.33699 16.4192 3.6721C16.509 3.80286 16.6018 3.93153 16.6932 4.06113C16.6999 4.13195 16.7221 4.19282 16.7959 4.22036C16.8026 4.23772 16.8094 4.25484 16.8161 4.2722C16.8387 4.30205 16.8614 4.33168 16.8843 4.36153C16.9207 4.4261 16.957 4.49044 16.9933 4.55501C16.9674 4.60847 17.0072 4.61587 17.0431 4.62606C17.0794 4.69641 17.1158 4.76677 17.1521 4.83712C17.113 4.88341 17.144 4.89799 17.1843 4.90817C17.1854 4.91372 17.1861 4.91905 17.1866 4.9246C17.2035 4.95445 17.2204 4.98408 17.237 5.01393C17.2382 5.01949 17.2389 5.02481 17.2394 5.03036C17.2562 5.06022 17.2731 5.08984 17.2898 5.1197C17.291 5.12525 17.2917 5.13057 17.2921 5.13613C17.3039 5.20347 17.3039 5.27637 17.378 5.31363C17.4386 5.3782 17.4837 5.45041 17.487 5.54229C17.5036 5.58371 17.5201 5.62491 17.5367 5.66633C17.5849 5.80149 17.633 5.93641 17.6809 6.07157C17.6976 6.11299 17.714 6.15419 17.7307 6.19561C17.7608 6.28425 17.7936 6.37219 17.82 6.46199C17.8473 6.55502 17.8702 6.64968 17.892 6.74433C17.9334 6.92578 17.9728 7.10768 18.0128 7.28935C18.0026 7.3 17.9922 7.31041 17.982 7.32106C17.9982 7.33402 18.0144 7.34698 18.0304 7.35971C18.0998 7.46223 18.0528 7.5791 18.0704 7.68811C18.0806 7.70222 18.0908 7.71611 18.101 7.72999C18.1074 7.76378 18.1179 7.79711 18.1197 7.83113C18.1243 7.90866 18.1054 7.98989 18.1662 8.05677C18.1757 8.06719 18.1732 8.09033 18.1732 8.10769C18.1729 8.70501 18.1722 9.30233 18.1716 9.89965C18.0924 9.92488 18.0855 9.97556 18.1218 10.0413C18.1209 10.1234 18.1197 10.2056 18.1188 10.2878C18.0267 10.3322 18.0181 10.3535 18.069 10.4118C18.0679 10.4704 18.0669 10.5291 18.0658 10.5877C17.9739 10.6092 17.9628 10.6326 18.016 10.6942C18.0033 10.7999 17.9903 10.9054 17.9776 11.0112C17.9728 11.0232 17.9679 11.035 17.963 11.0471C17.9454 11.1292 17.9279 11.2116 17.91 11.2938C17.8739 11.2952 17.8332 11.2938 17.8746 11.3468C17.8735 11.3877 17.8725 11.4287 17.8716 11.4697C17.8668 11.4817 17.8619 11.4935 17.857 11.5055C17.8394 11.5701 17.8219 11.6349 17.804 11.6995C17.7679 11.7009 17.7272 11.6995 17.7686 11.7525C17.7677 11.7698 17.7665 11.7874 17.7656 11.8048C17.7092 11.8078 17.698 11.8314 17.7335 11.8761C17.7325 11.9052 17.7314 11.9344 17.7304 11.9638C17.7256 11.9758 17.7207 11.9876 17.7159 11.9996C17.7031 12.0524 17.6904 12.1052 17.6777 12.1577C17.645 12.1607 17.6022 12.154 17.6277 12.2112C17.6319 12.3176 17.5828 12.4063 17.5363 12.4968C17.524 12.5208 17.5259 12.5518 17.5212 12.5798C17.5212 12.5866 17.5212 12.5933 17.5212 12.6C17.4909 12.6819 17.4608 12.7638 17.4305 12.8458C17.4257 12.8578 17.4208 12.8696 17.4159 12.8816C17.3983 12.9286 17.3808 12.9756 17.3629 13.0226C17.3268 13.024 17.2861 13.0226 17.3275 13.0756C17.3148 13.1223 17.3018 13.1693 17.2891 13.216C17.2842 13.2281 17.2794 13.2399 17.2745 13.2519C17.2618 13.2929 17.2488 13.3338 17.2361 13.3748C17.203 13.3774 17.1611 13.3716 17.1864 13.4285C17.1806 13.4579 17.1746 13.487 17.1688 13.5164C17.1327 13.5178 17.0919 13.5164 17.1334 13.5694C17.1123 13.628 17.0917 13.6868 17.0704 13.7451C17.0616 13.7689 17.0517 13.7923 17.0422 13.8157C17.0373 13.8277 17.0325 13.8395 17.0276 13.8516C17.0149 13.8867 17.0019 13.9217 16.9892 13.9569C16.9563 13.9596 16.914 13.9536 16.9394 14.0105C16.9218 14.0633 16.9042 14.1163 16.8864 14.1691C16.8589 14.1885 16.8302 14.207 16.8052 14.2295C16.8029 14.2316 16.8235 14.2591 16.8337 14.2748C16.7584 14.4308 16.683 14.5868 16.6085 14.743C16.6025 14.7555 16.6034 14.7715 16.6011 14.7858C16.568 14.7884 16.5261 14.7826 16.5513 14.8395C16.5168 14.9286 16.4856 15.0191 16.4472 15.1064C16.4157 15.1779 16.3759 15.2459 16.3396 15.3156C16.2673 15.3003 16.2417 15.351 16.2266 15.4038C16.2211 15.4232 16.2423 15.4505 16.2514 15.4741C16.2032 15.5681 16.1551 15.662 16.107 15.756C16.0739 15.7585 16.032 15.7527 16.0572 15.8097C16.0248 15.8847 15.9933 15.9601 15.9591 16.0344C15.9415 16.0724 15.9188 16.108 15.8984 16.1446C15.8623 16.1459 15.8216 16.1446 15.863 16.1976C15.8503 16.2209 15.8373 16.2443 15.8246 16.2677C15.8198 16.2797 15.8149 16.2915 15.81 16.3036C15.7325 16.4387 15.655 16.5736 15.5777 16.7088C15.5728 16.7208 15.568 16.7326 15.5631 16.7447C15.5101 16.8328 15.4573 16.921 15.4043 17.0092C15.3682 17.0106 15.3275 17.0092 15.3689 17.0622C15.3513 17.0916 15.3338 17.121 15.3159 17.1501C15.2683 17.1642 15.2252 17.2246 15.2278 17.2739C15.1917 17.3473 15.1579 17.4218 15.119 17.4938C15.0877 17.5514 15.0505 17.6058 15.016 17.6618C14.9799 17.6632 14.9392 17.6618 14.9806 17.7148C14.9165 17.8153 14.8519 17.9152 14.7883 18.0159C14.7517 18.0738 14.7165 18.1325 14.6807 18.1909C14.6446 18.1923 14.6038 18.1909 14.6453 18.2439C14.5811 18.3441 14.5168 18.444 14.4534 18.5447C14.4048 18.622 14.3587 18.7007 14.3092 18.7773C14.2752 18.8298 14.2372 18.8798 14.2011 18.9312C14.168 18.9338 14.1262 18.928 14.1514 18.9849C14.1456 19.0025 14.1396 19.0201 14.1338 19.0374C14.0977 19.0388 14.057 19.0374 14.0984 19.0904C14.0454 19.1668 13.9926 19.2432 13.9396 19.3195C13.9035 19.3209 13.8628 19.3195 13.9042 19.3725C13.8866 19.3959 13.869 19.4195 13.8512 19.4429C13.8151 19.4443 13.7744 19.4429 13.8158 19.4959C13.7922 19.5311 13.7688 19.5663 13.7452 19.6017C13.7091 19.6031 13.6684 19.6017 13.7098 19.6547C13.6617 19.725 13.6135 19.7954 13.5656 19.8657C13.5429 19.8666 13.5184 19.8627 13.4976 19.8697C13.4437 19.8872 13.4358 19.9516 13.4807 19.9898C13.4444 20.0425 13.408 20.0953 13.3717 20.1481C13.3386 20.1506 13.2969 20.1451 13.3219 20.2018C13.2689 20.2781 13.2162 20.3545 13.1632 20.4309C13.1271 20.4323 13.0863 20.4309 13.1278 20.4839C13.0322 20.6163 12.9375 20.7493 12.841 20.881C12.7033 21.0687 12.5659 21.2564 12.4254 21.442C12.3073 21.5977 12.1852 21.7505 12.0646 21.9044C12.0435 21.9312 12.0208 21.9569 11.9988 21.9831C11.9627 21.9845 11.922 21.9831 11.9634 22.0361C11.9516 22.0537 11.9398 22.0713 11.9283 22.0888C11.8848 22.0925 11.8366 22.0916 11.8577 22.1597C11.8165 22.2184 11.7753 22.277 11.7343 22.3358C11.6591 22.3499 11.5962 22.4309 11.6107 22.4948C11.5499 22.5746 11.4904 22.6556 11.4281 22.7343C11.2671 22.9382 11.1081 23.1437 10.9424 23.3437C10.7706 23.551 10.5901 23.7512 10.417 23.9574C10.2983 24.0988 10.1868 24.2462 10.0699 24.3895C10.0405 24.4254 10.0035 24.455 9.97013 24.4876C9.92616 24.4909 9.87895 24.4909 9.89955 24.5584C9.82896 24.6406 9.75837 24.723 9.68779 24.8051C9.6496 24.8035 9.61026 24.8003 9.61651 24.8584C9.59869 24.8704 9.5811 24.8824 9.56328 24.8945C9.52717 24.9234 9.4913 24.9523 9.4552 24.9813C9.42604 24.9875 9.39711 24.9937 9.36795 25C9.21567 25 9.06316 25 8.91088 25C8.84654 24.9937 8.7822 24.9875 8.71786 24.9813C8.70537 24.9688 8.6931 24.9565 8.6806 24.944C8.67042 24.9081 8.66301 24.8681 8.60955 24.8942C8.50356 24.7961 8.38738 24.7068 8.29319 24.5982C8.0127 24.2754 7.73938 23.9463 7.46629 23.617C7.17029 23.2599 6.87475 22.9023 6.58547 22.5399C6.39153 22.2969 6.2087 22.0453 6.02124 21.7975C5.75209 21.4418 5.48224 21.0865 5.21448 20.7299C5.11473 20.597 5.01984 20.4607 4.92264 20.326C4.91176 20.308 4.90066 20.2899 4.88978 20.2721C4.8715 20.248 4.85321 20.2237 4.83493 20.1997C4.82382 20.1828 4.81271 20.1657 4.8016 20.1488C4.74791 20.0717 4.69445 19.9946 4.64076 19.9176C4.62965 19.9007 4.61854 19.8835 4.60743 19.8666C4.44867 19.6387 4.28922 19.411 4.13138 19.1825C4.10384 19.1427 4.08232 19.0985 4.05825 19.0564C4.04737 19.0384 4.03627 19.0203 4.02539 19.0025C4.01891 18.996 4.01243 18.9895 4.00572 18.9828C3.99461 18.9659 3.9835 18.9488 3.97239 18.9319C3.94809 18.897 3.92379 18.862 3.89949 18.8271C3.88861 18.809 3.8775 18.791 3.86663 18.7731C3.84811 18.7442 3.82983 18.7151 3.81132 18.6861C3.80044 18.6681 3.78933 18.65 3.77845 18.6322C3.75415 18.5973 3.72985 18.5623 3.70555 18.5274C3.69467 18.5093 3.68357 18.4913 3.67269 18.4734C3.65417 18.4445 3.63589 18.4154 3.61738 18.3864C3.6065 18.3684 3.59539 18.3503 3.58451 18.3325C3.54263 18.2682 3.5005 18.2038 3.45862 18.1395C3.44774 18.1214 3.43663 18.1034 3.42575 18.0856C3.40724 18.0566 3.38896 18.0275 3.37044 17.9985C3.35956 17.9805 3.34845 17.9624 3.33758 17.9446C3.31328 17.9097 3.28898 17.8747 3.26468 17.8398C3.2538 17.8217 3.24269 17.8037 3.23181 17.7859C3.2133 17.7509 3.19502 17.716 3.1765 17.681C3.16563 17.663 3.15452 17.6449 3.14364 17.6271C3.13693 17.6158 3.13022 17.6044 3.1235 17.5928C3.11263 17.5748 3.10152 17.5567 3.09064 17.5389C3.08393 17.5276 3.07722 17.5162 3.07051 17.5047C3.05963 17.4866 3.04852 17.4686 3.03764 17.4508C3.01913 17.4218 3.00085 17.3927 2.98233 17.3637C2.97146 17.3399 2.96035 17.3161 2.94947 17.292C2.94299 17.2855 2.93651 17.279 2.9298 17.2723C2.91869 17.2554 2.90758 17.2383 2.89647 17.2214C2.85458 17.1513 2.81246 17.0809 2.77057 17.0108C2.7597 16.9928 2.74859 16.9747 2.73771 16.9569C2.73655 16.9513 2.73586 16.946 2.7354 16.9404C2.72452 16.9224 2.71341 16.9043 2.70253 16.8865C2.67198 16.8395 2.64167 16.7928 2.61112 16.7458C2.60626 16.7338 2.6014 16.722 2.59654 16.7099C2.58983 16.6986 2.58312 16.6873 2.5764 16.6757C2.56553 16.6576 2.55442 16.6396 2.54354 16.6218C2.54238 16.6162 2.54169 16.6109 2.54123 16.6053C2.53035 16.5873 2.51924 16.5692 2.50836 16.5514C2.50165 16.5401 2.49494 16.5287 2.48823 16.5172C2.47735 16.4991 2.46624 16.4811 2.45537 16.4632C2.44866 16.4519 2.44194 16.4406 2.43523 16.429C2.42435 16.4109 2.41325 16.3929 2.40237 16.3751C2.38964 16.3517 2.37668 16.3283 2.36395 16.3049C2.35909 16.2929 2.35423 16.2811 2.34937 16.2691C2.33086 16.2341 2.31257 16.1992 2.29406 16.1645C2.28318 16.1406 2.27207 16.1168 2.2612 16.0927C2.25449 16.0814 2.24777 16.07 2.24106 16.0585C2.23018 16.0404 2.21908 16.0224 2.2082 16.0045C2.20704 15.999 2.20635 15.9937 2.20588 15.9881C2.19501 15.9701 2.1839 15.952 2.17302 15.9342C2.16631 15.9229 2.1596 15.9115 2.15289 15.8999C2.14201 15.8761 2.1309 15.8523 2.12002 15.8282C2.11354 15.8217 2.10706 15.8152 2.10035 15.8085C2.08924 15.7856 2.07814 15.7627 2.06703 15.7398C2.06032 15.7284 2.0536 15.7171 2.04689 15.7055C2.03602 15.6817 2.02491 15.6579 2.01403 15.6338C2.00732 15.6225 2.00061 15.6111 1.99389 15.5995C1.98302 15.5815 1.97191 15.5634 1.96103 15.5456C1.92493 15.4755 1.88883 15.4051 1.85272 15.335C1.84185 15.3112 1.83074 15.2873 1.81986 15.2633C1.81315 15.2519 1.80644 15.2406 1.79973 15.229C1.78885 15.2052 1.77774 15.1813 1.76686 15.1573C1.76015 15.1459 1.75344 15.1346 1.74673 15.123C1.73585 15.0992 1.72474 15.0754 1.71386 15.0513C1.71271 15.0457 1.71201 15.0404 1.71155 15.0346C1.70067 15.0108 1.68956 14.9869 1.67869 14.9629C1.67198 14.9515 1.66526 14.9402 1.65855 14.9286C1.64768 14.9048 1.63657 14.881 1.62569 14.8569C1.6081 14.8333 1.59051 14.8097 1.57269 14.7861C1.58126 14.7803 1.59005 14.7745 1.59861 14.7685C1.59005 14.7627 1.58126 14.7567 1.57269 14.7509C1.56598 14.7395 1.55927 14.7282 1.55256 14.7166C1.54168 14.6986 1.53057 14.6805 1.51969 14.6627C1.50789 14.6391 1.49609 14.6155 1.48452 14.5919C1.49308 14.5861 1.50187 14.5803 1.51044 14.5743C1.50187 14.5685 1.49308 14.5625 1.48452 14.5567C1.47781 14.5454 1.47109 14.534 1.46438 14.5225C1.45351 14.4986 1.4424 14.4748 1.43152 14.4507C1.42481 14.4394 1.4181 14.428 1.41139 14.4165C1.40051 14.3926 1.3894 14.3688 1.37852 14.3447C1.36579 14.3214 1.35283 14.298 1.3401 14.2746C1.33524 14.2626 1.33038 14.2508 1.32552 14.2387C1.31881 14.2214 1.3121 14.2043 1.30539 14.1869C1.29451 14.1688 1.2834 14.1508 1.27253 14.133C1.26072 14.1094 1.24892 14.0858 1.23735 14.0622C1.24591 14.0564 1.25471 14.0506 1.26327 14.0446L1.23735 14.027C1.21976 14.0034 1.20217 13.9798 1.18435 13.9562C1.19292 13.9504 1.20171 13.9446 1.21027 13.9386C1.20171 13.9328 1.19292 13.9268 1.18435 13.921C1.17 13.8867 1.15589 13.8525 1.14154 13.8182C1.13807 13.8055 1.13483 13.7928 1.13135 13.78C1.12464 13.7687 1.11793 13.7574 1.11122 13.7458C1.10034 13.722 1.08923 13.6981 1.07836 13.674C1.0772 13.6685 1.07651 13.6632 1.07604 13.6574C1.06517 13.6335 1.05406 13.6097 1.04318 13.5856C1.02559 13.5502 1.008 13.5151 0.990183 13.4796C0.998746 13.4739 1.00754 13.4681 1.0161 13.4621C1.00754 13.4563 0.998746 13.4503 0.990183 13.4445C0.972594 13.4151 0.955005 13.3855 0.937185 13.3561C0.945748 13.3503 0.954542 13.3445 0.963105 13.3385C0.954542 13.3327 0.945748 13.3267 0.937185 13.3209C0.924456 13.2975 0.911496 13.2741 0.898768 13.2508C0.893908 13.2329 0.889048 13.2151 0.884188 13.1973C0.872385 13.1737 0.860582 13.1501 0.848779 13.1265C0.857342 13.1207 0.866136 13.1149 0.874699 13.1089C0.866136 13.1031 0.857342 13.0971 0.848779 13.0913C0.83119 13.0559 0.813601 13.0207 0.795781 12.9853C0.804344 12.9795 0.813138 12.9737 0.821701 12.9677C0.813138 12.9619 0.804344 12.9559 0.795781 12.9501C0.781433 12.9159 0.767316 12.8816 0.752967 12.8474C0.749495 12.8346 0.746255 12.8219 0.742784 12.8092C0.725195 12.768 0.707606 12.7268 0.689786 12.6856C0.698349 12.6798 0.707144 12.674 0.715707 12.668L0.689786 12.6504C0.672198 12.615 0.654609 12.5798 0.636789 12.5444C0.645352 12.5386 0.654146 12.5329 0.662709 12.5268C0.654146 12.5211 0.645352 12.515 0.636789 12.5093C0.624986 12.4799 0.613183 12.4502 0.60138 12.4209C0.609943 12.4151 0.618737 12.4093 0.6273 12.4033L0.60138 12.3857C0.583791 12.3445 0.566203 12.3033 0.548382 12.2621C0.556945 12.2563 0.56574 12.2505 0.574303 12.2445C0.56574 12.2387 0.556945 12.2327 0.548382 12.2269C0.530794 12.1857 0.513205 12.1445 0.495385 12.1033C0.503948 12.0975 0.512742 12.0918 0.521305 12.0857L0.495385 12.0682C0.477796 12.0209 0.460208 11.974 0.442387 11.9267C0.45095 11.921 0.459745 11.9152 0.468308 11.9092C0.459745 11.9034 0.45095 11.8974 0.442387 11.8916C0.434056 11.8631 0.425725 11.8349 0.417393 11.8064C0.413922 11.7937 0.410682 11.7809 0.40721 11.7682C0.389622 11.7152 0.372033 11.6622 0.354213 11.6092C0.362776 11.6034 0.37157 11.5977 0.380133 11.5916C0.37157 11.5859 0.362776 11.5798 0.354213 11.574C0.336624 11.5153 0.319035 11.4562 0.301215 11.3975C0.309778 11.3917 0.318572 11.3859 0.327135 11.3799C0.318572 11.3741 0.309778 11.3681 0.301215 11.3623C0.283627 11.3035 0.266038 11.2445 0.248218 11.1857C0.256781 11.1799 0.265575 11.1741 0.274138 11.1681L0.248218 11.1505C0.24706 11.145 0.246366 11.1397 0.245904 11.1341C0.235026 11.1103 0.223918 11.0864 0.213041 11.0624C0.207255 11.033 0.201237 11.0033 0.195452 10.9739C0.204015 10.9682 0.212809 10.9624 0.221372 10.9564L0.195452 10.9388C0.183649 10.874 0.171846 10.8094 0.160043 10.7446C0.168606 10.7388 0.1774 10.733 0.185963 10.727L0.160043 10.7094C0.105194 10.6349 0.097094 10.5507 0.107046 10.4623C0.115608 10.4565 0.124403 10.4507 0.132966 10.4447L0.107046 10.4271C0.100103 10.4097 0.0931595 10.3921 0.0862166 10.3748C0.0813566 10.3627 0.0764968 10.3509 0.0716367 10.3389C0.065851 10.2565 0.0598336 10.1741 0.0540478 10.0917C0.102648 10.0297 0.062611 9.98968 0.0188707 9.9508C0.0123907 9.9258 0.00012458 9.90081 0.00012458 9.87581C-0.00033828 9.27757 0.000587511 8.67932 0.0012818 8.08084C0.0265077 8.06372 0.051965 8.04682 0.0771908 8.0297C0.0683965 8.0172 0.0596022 8.0047 0.0508078 7.99221C0.051965 7.92764 0.0528907 7.86307 0.0540478 7.7985C0.11908 7.76147 0.142454 7.69505 0.103806 7.65709C0.104963 7.59253 0.105888 7.52796 0.107046 7.46339C0.176706 7.43585 0.193137 7.3854 0.169763 7.31805C0.181566 7.26227 0.193369 7.2065 0.205172 7.15072C0.200774 7.1373 0.196609 7.12388 0.192212 7.11046C0.193369 7.08708 0.194294 7.06371 0.195452 7.0401C0.268815 6.9996 0.285941 6.95656 0.245209 6.91629C0.246366 6.88111 0.247292 6.84593 0.248449 6.81075C0.273675 6.79363 0.299132 6.77673 0.324358 6.75961C0.315564 6.74711 0.30677 6.73461 0.297975 6.72212C0.299132 6.68694 0.300058 6.65176 0.301215 6.61658C0.326441 6.59946 0.351898 6.58256 0.377124 6.56544C0.36833 6.55294 0.359536 6.54044 0.350741 6.52795C0.351898 6.48698 0.352824 6.44579 0.353981 6.40483C0.379207 6.3877 0.404664 6.37081 0.42989 6.35368C0.421096 6.34118 0.412302 6.32869 0.403507 6.31619C0.404665 6.2986 0.40559 6.28124 0.406747 6.26365C0.450488 6.25278 0.525008 6.11438 0.508345 6.07319C0.507188 6.07018 0.497468 6.07064 0.491682 6.06925C0.492839 6.05166 0.493765 6.03431 0.494922 6.01672C0.520148 5.99959 0.545605 5.9827 0.570831 5.96557C0.562037 5.95307 0.553243 5.94058 0.544448 5.92808C0.545605 5.91049 0.546531 5.89313 0.547688 5.87555C0.572914 5.85842 0.598371 5.84153 0.623597 5.8244C0.614803 5.8119 0.606009 5.79941 0.597214 5.78691C0.598371 5.76932 0.599297 5.75196 0.600454 5.73437C0.644194 5.7235 0.718715 5.5851 0.702052 5.54391C0.700895 5.5409 0.691175 5.54136 0.685389 5.53997C0.686546 5.52238 0.687472 5.50503 0.688629 5.48744C0.715012 5.47725 0.741395 5.46684 0.767547 5.45666C0.757827 5.44902 0.748107 5.44161 0.738155 5.43398C0.739312 5.41662 0.740238 5.39903 0.741395 5.38167C0.767778 5.37149 0.794161 5.36108 0.820313 5.35089C0.810593 5.34326 0.800873 5.33585 0.790921 5.32821C0.792079 5.31664 0.793004 5.30507 0.794161 5.2935C0.84253 5.28193 0.912654 5.18473 0.902239 5.14191C0.901313 5.13775 0.887196 5.13682 0.879096 5.13428C0.880253 5.11669 0.881179 5.09933 0.882105 5.08174C0.908488 5.07156 0.934871 5.06138 0.961254 5.05096L0.931862 5.02828C0.933019 5.01069 0.933945 4.99333 0.934871 4.97575C0.961254 4.96556 0.987637 4.95538 1.01402 4.94497L0.984628 4.92229C0.985785 4.91071 0.986711 4.89914 0.987868 4.88734C1.00661 4.88155 1.03508 4.88179 1.04272 4.86929C1.08322 4.8024 1.11909 4.73251 1.1545 4.66262C1.15566 4.66054 1.13575 4.64781 1.1258 4.63994C1.12696 4.62837 1.12788 4.61657 1.12881 4.605C1.14316 4.60453 1.16561 4.60986 1.17047 4.60268C1.21999 4.53279 1.26651 4.46081 1.31418 4.3893C1.30423 4.38467 1.29451 4.37981 1.28456 4.37519C1.29058 4.3576 1.29636 4.33978 1.30238 4.32219C1.32691 4.31756 1.35954 4.32103 1.37389 4.30645C1.3894 4.29071 1.44101 4.256 1.37297 4.23401C1.37413 4.22244 1.37505 4.21064 1.37598 4.19907C1.40236 4.18888 1.42874 4.1787 1.45513 4.16829C1.44541 4.16065 1.43569 4.15324 1.42573 4.14561C1.42689 4.13404 1.42782 4.12246 1.42874 4.11066C1.44309 4.1102 1.45837 4.11298 1.47156 4.10881C1.53335 4.08844 1.56853 4.00513 1.5315 3.96926C1.5433 3.95167 1.5551 3.93385 1.56691 3.91626C1.6324 3.91186 1.78422 3.74685 1.78653 3.67627C1.78653 3.6728 1.77843 3.66886 1.77404 3.66516C1.77357 3.66053 1.7745 3.65613 1.77681 3.65197C1.81037 3.64757 1.86198 3.65891 1.8268 3.59457C1.82634 3.58994 1.82727 3.58555 1.82958 3.58138C1.86314 3.57698 1.91475 3.58832 1.87957 3.52399C1.87911 3.51936 1.88003 3.51496 1.88235 3.51079C1.9078 3.49737 1.93812 3.48835 1.95687 3.46867C1.97006 3.45479 2.02236 3.42262 1.95455 3.4048C1.97214 3.38119 1.98996 3.35782 2.00755 3.33421C2.03 3.3312 2.05268 3.3282 2.07513 3.32519L2.06032 3.28122C2.07212 3.26363 2.08392 3.24581 2.09572 3.22822C2.11817 3.22521 2.14085 3.2222 2.1633 3.21919C2.15844 3.20461 2.15358 3.1898 2.14849 3.17522C2.1721 3.14583 2.1957 3.11644 2.21908 3.08705C2.24152 3.08404 2.2642 3.08103 2.28665 3.07802C2.28179 3.06344 2.27693 3.04863 2.27184 3.03405C2.33063 2.96925 2.38941 2.90468 2.44842 2.83988C2.49263 2.81488 2.53683 2.78989 2.58103 2.76489C2.57201 2.75448 2.56321 2.7443 2.55419 2.73388C2.59538 2.6869 2.63658 2.63992 2.67777 2.59271C2.78053 2.59178 2.81107 2.56517 2.81964 2.46843C2.8606 2.42747 2.90156 2.38651 2.9423 2.34577C2.9939 2.34948 3.04366 2.35087 3.03116 2.27449C3.05454 2.25112 3.07768 2.22798 3.10106 2.2046C3.20312 2.20368 3.23575 2.17567 3.2251 2.09791C3.23667 2.08634 3.24825 2.075 3.25982 2.06343C3.29685 2.05788 3.35494 2.08634 3.3473 2.00904H3.34753C3.38687 2.01252 3.42645 2.01668 3.41788 1.95628H3.41812C3.45746 1.95975 3.49703 1.96392 3.48847 1.90351H3.4887C3.5498 1.90189 3.60465 1.89194 3.61182 1.81534H3.61205C3.64168 1.80585 3.71319 1.84589 3.67847 1.75956C3.67801 1.75493 3.67894 1.75054 3.68148 1.7466C3.77567 1.74452 3.85251 1.68342 3.86038 1.60497C3.86038 1.60497 3.86038 1.60497 3.86038 1.6052C3.93768 1.61006 4.00618 1.60312 4.00178 1.4992C4.03927 1.49481 4.09459 1.52003 4.09019 1.44598C4.09019 1.44598 4.09019 1.44597 4.09019 1.44621C4.15105 1.43834 4.23599 1.46889 4.23159 1.35734C4.24826 1.35016 4.26515 1.34276 4.28181 1.33558C4.30172 1.34114 4.32139 1.34669 4.34129 1.35225C4.33828 1.34114 4.33504 1.3298 4.33203 1.31869C4.33157 1.31406 4.3325 1.30966 4.33504 1.30573C4.373 1.30619 4.41442 1.31198 4.40817 1.25227C4.43965 1.24857 4.47367 1.25134 4.50213 1.24023C4.56369 1.21616 4.64076 1.20413 4.63775 1.1111C4.67547 1.10693 4.73102 1.13169 4.72616 1.0574C4.74282 1.05023 4.75972 1.04282 4.77638 1.03565C4.84535 1.06481 4.9201 1.03334 4.93815 0.967378C4.94879 0.960666 4.95967 0.954186 4.97032 0.947475C5.02193 0.996306 5.0247 0.957658 5.02609 0.916463C5.04275 0.909057 5.05942 0.901883 5.07631 0.894709C5.12792 0.94354 5.1307 0.904892 5.13209 0.863697C5.14875 0.856291 5.16541 0.849117 5.18231 0.841943C5.23392 0.890774 5.23669 0.852125 5.23808 0.810931C5.25474 0.803757 5.27164 0.796351 5.2883 0.789177C5.31607 0.821808 5.33528 0.821345 5.34246 0.775059C5.38157 0.765339 5.44961 0.813245 5.44799 0.722293H5.44822C5.49844 0.721136 5.56694 0.748213 5.55537 0.652401C5.57319 0.647541 5.59101 0.642681 5.60883 0.637821C5.65558 0.682719 5.78102 0.635044 5.80231 0.563995C5.82013 0.559135 5.83795 0.554275 5.85577 0.549415C5.87521 0.560061 5.89465 0.570706 5.91409 0.581352C5.92381 0.557978 5.93353 0.534372 5.94325 0.510998C5.96107 0.506137 5.97889 0.501277 5.99671 0.496417C6.00735 0.506369 6.01823 0.516089 6.02888 0.52604C6.03559 0.509146 6.0423 0.492483 6.04901 0.475589C6.07864 0.464943 6.10826 0.454297 6.13788 0.44342C6.15732 0.454066 6.17676 0.464712 6.1962 0.475357C6.20592 0.451983 6.21564 0.428377 6.22536 0.405003C6.24318 0.400143 6.261 0.395283 6.27882 0.390422C6.28947 0.400374 6.30011 0.410325 6.31099 0.420277C6.31724 0.409168 6.32349 0.397828 6.32997 0.38672C6.37024 0.389034 6.41282 0.395977 6.41976 0.337656C6.43157 0.337656 6.44337 0.337656 6.45517 0.337656C6.46582 0.347608 6.4767 0.357328 6.48734 0.367279C6.49405 0.350385 6.50076 0.333722 6.50748 0.316828C6.54288 0.311968 6.57852 0.307108 6.61393 0.302248C6.63337 0.312893 6.65281 0.323539 6.67225 0.334185C6.68197 0.310811 6.69169 0.287205 6.70141 0.26383C6.73682 0.25897 6.77246 0.25411 6.80787 0.24925C6.82731 0.259896 6.84675 0.270542 6.86619 0.281188C6.87591 0.257813 6.88563 0.234207 6.89535 0.210833C6.93076 0.205973 6.9664 0.201113 7.00181 0.196253C7.05967 0.25411 7.10734 0.236059 7.14275 0.143255C7.16636 0.143255 7.18996 0.143255 7.21357 0.143255C7.22421 0.153207 7.23509 0.162927 7.24574 0.172878C7.25245 0.155984 7.25916 0.139321 7.26587 0.122426C7.33067 0.117566 7.3957 0.112706 7.4605 0.107846C7.5091 0.152975 7.56256 0.136081 7.58339 0.069429C7.66 0.064569 7.7366 0.059709 7.81344 0.0548489C7.87245 0.112938 7.92036 0.0944235 7.95438 0H10.2478C10.2478 0.00555432 10.2478 0.0108772 10.2483 0.0164315C10.2985 0.0948863 10.3221 0.102292 10.3712 0.0548489C10.4543 0.0620233 10.5438 0.0238373 10.6184 0.0900263C10.648 0.129138 10.6771 0.171258 10.7239 0.107615C10.7945 0.119418 10.8651 0.131221 10.9359 0.142792C10.9417 0.151355 10.9477 0.16015 10.9535 0.168712C10.9593 0.16015 10.9653 0.151355 10.9711 0.142792C11.0007 0.147652 11.0303 0.152281 11.0597 0.157141C11.1099 0.235596 11.1335 0.243002 11.1826 0.195558C11.2298 0.212221 11.277 0.228653 11.3242 0.245316C11.3337 0.256656 11.3434 0.267765 11.3529 0.279105C11.3608 0.268922 11.3687 0.258739 11.3765 0.248556C11.4237 0.265219 11.471 0.28165 11.5182 0.298313C11.5277 0.309653 11.5374 0.320762 11.5469 0.332102C11.5547 0.321919 11.5626 0.311736 11.5705 0.301553C11.6117 0.313356 11.6529 0.325159 11.6941 0.336731C11.6998 0.345294 11.7059 0.354088 11.7116 0.362651C11.7174 0.354088 11.7234 0.345294 11.7292 0.336731C11.7471 0.341591 11.7649 0.346219 11.7827 0.351079C11.8107 0.405003 11.8456 0.437171 11.9056 0.389728C11.9352 0.406391 11.9648 0.422823 11.9942 0.439486C12.0037 0.450826 12.0134 0.461934 12.0229 0.473274C12.0308 0.463091 12.0387 0.452909 12.0465 0.442726C12.0819 0.460314 12.1173 0.477903 12.1525 0.495723C12.1583 0.504286 12.1643 0.51308 12.1701 0.521643C12.1759 0.51308 12.1819 0.504286 12.1877 0.495723C12.2173 0.512386 12.2469 0.528818 12.2763 0.545481C12.2858 0.556821 12.2955 0.567929 12.305 0.579269C12.3129 0.569086 12.3208 0.558904 12.3286 0.548721C12.3522 0.560524 12.3758 0.572326 12.3995 0.583898C12.4409 0.600792 12.4821 0.617455 12.5235 0.63435C12.5235 0.63435 12.5233 0.633887 12.5233 0.634118C12.533 0.645227 12.5425 0.656336 12.5522 0.667444C12.5601 0.657261 12.5677 0.647078 12.5756 0.636895C12.6052 0.653558 12.6348 0.66999 12.6644 0.686653C12.6723 0.72993 12.6862 0.761173 12.7353 0.722062C12.7471 0.727847 12.7586 0.733633 12.7704 0.73965C12.7952 0.8269 12.873 0.795888 12.9299 0.810931C12.9412 0.817642 12.9528 0.824354 12.9641 0.831065C12.988 0.841942 13.0118 0.853051 13.0359 0.863928C13.0472 0.87064 13.0588 0.877351 13.0701 0.884063C13.094 0.89494 13.1178 0.906049 13.1419 0.916926C13.1532 0.923637 13.1648 0.930349 13.1761 0.93706C13.2 0.947937 13.2238 0.959046 13.2479 0.969923C13.2534 0.970386 13.259 0.971312 13.2643 0.972238C13.2939 0.989132 13.3236 1.0058 13.3532 1.02269C13.3532 1.02269 13.3529 1.02223 13.3529 1.02246C13.3826 1.03426 13.4122 1.0463 13.442 1.0581C13.4534 1.06481 13.4647 1.07152 13.4763 1.07823C13.5001 1.09513 13.5242 1.11202 13.548 1.12868C13.5654 1.14026 13.5828 1.1516 13.6001 1.16317C13.6591 1.19881 13.7181 1.23422 13.7774 1.26986L13.7822 1.27495ZM6.28507 5.52817C6.26702 5.54553 6.24897 5.56288 6.23092 5.58024C6.21356 5.5976 6.1962 5.61496 6.17884 5.63231C6.1402 5.63046 6.10108 5.62792 6.10756 5.686C6.0784 5.71517 6.04924 5.74433 6.02008 5.77349C5.94001 5.764 5.89835 5.79917 5.89581 5.88017C5.80393 5.98617 5.71298 6.09309 5.61925 6.1977C5.59911 6.22015 5.5688 6.23311 5.54334 6.25069C5.53292 6.24954 5.52228 6.24838 5.51186 6.24745C5.52158 6.25995 5.53107 6.27222 5.54079 6.28471C5.49474 6.34951 5.44891 6.41455 5.40286 6.47935C5.38018 6.48652 5.3575 6.49393 5.33459 6.5011C5.34547 6.51152 5.35657 6.5217 5.36745 6.53211C5.31931 6.61427 5.27118 6.69643 5.22304 6.77859H5.12746C5.12537 6.78761 5.12329 6.79641 5.12144 6.80543C5.1388 6.81423 5.15592 6.82325 5.17328 6.83205C5.16726 6.84963 5.16148 6.86722 5.15546 6.88504C5.13278 6.89222 5.1101 6.89962 5.08719 6.9068C5.09807 6.91721 5.10917 6.9274 5.12005 6.93781C5.06011 7.07297 5.00017 7.20812 4.94046 7.34304C4.91362 7.35762 4.88399 7.36896 4.86224 7.38887C4.85738 7.3935 4.88052 7.42821 4.8907 7.44927C4.87751 7.48884 4.86363 7.52819 4.85136 7.56799C4.82752 7.64575 4.80484 7.72375 4.78147 7.80174C4.75948 7.80984 4.73773 7.81771 4.71574 7.82581C4.72685 7.84154 4.73819 7.85705 4.7493 7.87279C4.74814 7.89616 4.74722 7.91954 4.74606 7.94291C4.71829 7.96582 4.68797 7.98642 4.66506 8.0135C4.66066 8.01859 4.68519 8.04844 4.6963 8.06673C4.69515 8.11371 4.69422 8.16045 4.69306 8.20743C4.66761 8.2241 4.63336 8.2359 4.62016 8.25928C4.61183 8.27409 4.63451 8.30672 4.64354 8.33125C4.64238 8.4016 4.64146 8.47219 4.6403 8.54255C4.61808 8.55597 4.59586 8.56962 4.57365 8.58305C4.58522 8.59901 4.59656 8.61498 4.60813 8.63095C4.60697 8.66613 4.60605 8.70131 4.60489 8.73648C4.59077 8.74134 4.57642 8.7462 4.56231 8.75106C4.57179 8.75801 4.58105 8.76518 4.59054 8.77212C4.5954 8.99545 4.60003 9.21878 4.60489 9.44211C4.59471 9.45276 4.58429 9.46317 4.57411 9.47382C4.59031 9.48678 4.60651 9.49974 4.62248 9.51247C4.62942 9.60643 4.63636 9.70016 4.64331 9.79412C4.60419 9.84041 4.63521 9.85499 4.67548 9.86517C4.69954 9.96839 4.72431 10.0714 4.74791 10.1746C4.7655 10.2524 4.77754 10.3317 4.79975 10.4083C4.82567 10.4988 4.85992 10.5868 4.89047 10.6759C4.87404 10.7333 4.91963 10.8376 4.97564 10.8705C4.99392 10.9124 5.01221 10.954 5.03049 10.9959C5.04322 11.0429 5.04692 11.0952 5.07076 11.1355C5.11496 11.2098 5.1712 11.2769 5.22258 11.3468C5.24109 11.3757 5.25937 11.4049 5.27789 11.4338C5.29478 11.4637 5.31168 11.4933 5.32834 11.5231C5.45632 11.6881 5.57481 11.8615 5.71437 12.0158C5.8766 12.1952 6.05758 12.3577 6.23045 12.5273C6.24249 12.5393 6.25452 12.5514 6.26656 12.5634C6.28391 12.575 6.30127 12.5863 6.31863 12.5979C6.33552 12.6102 6.35242 12.6222 6.36931 12.6345C6.37579 12.6409 6.38227 12.6474 6.38875 12.6541C6.4068 12.671 6.42485 12.6879 6.44291 12.7046C6.46026 12.7162 6.47762 12.7275 6.49498 12.7391C6.5128 12.7511 6.53085 12.7631 6.54867 12.7752C6.56001 12.7819 6.57135 12.7886 6.58292 12.7953C6.60676 12.8122 6.63083 12.8289 6.65466 12.8458C6.66022 12.8462 6.66577 12.8471 6.6711 12.8481C6.69493 12.865 6.719 12.8816 6.74284 12.8985C6.74839 12.899 6.75395 12.8999 6.75927 12.9008C6.78311 12.9177 6.80718 12.9344 6.83102 12.9513C6.84837 12.9629 6.86573 12.9742 6.88309 12.9858C6.91271 13.0036 6.94233 13.0216 6.97196 13.0395C6.97751 13.0399 6.98306 13.0409 6.98862 13.0418C7.01246 13.0527 7.03629 13.0638 7.06036 13.0746C7.07193 13.0802 7.08327 13.0857 7.09484 13.0915C7.10271 13.1348 7.1166 13.1661 7.16566 13.1269L7.20084 13.1445C7.23833 13.2334 7.32813 13.2086 7.39524 13.2336V13.2332C7.40473 13.2443 7.41422 13.2554 7.42394 13.2665L7.44731 13.2359C7.48272 13.2535 7.5179 13.2711 7.55331 13.2889C7.55909 13.2975 7.56511 13.3063 7.5709 13.3149C7.57668 13.3063 7.5827 13.2975 7.58849 13.2889C7.61811 13.3056 7.64773 13.322 7.67712 13.3387C7.68661 13.35 7.69633 13.3612 7.70582 13.3725C7.71369 13.3623 7.72156 13.3521 7.72943 13.3419C7.75882 13.3537 7.78844 13.3655 7.81783 13.3771C7.82362 13.3857 7.82964 13.3945 7.83542 13.403C7.84121 13.3945 7.84722 13.3857 7.85301 13.3771C7.87662 13.382 7.90045 13.3866 7.92406 13.3915C7.96479 13.454 8.00321 13.466 8.04695 13.4301C8.09995 13.4468 8.15317 13.4632 8.20617 13.4799L8.23487 13.5137C8.24274 13.5035 8.25061 13.4933 8.25848 13.4831C8.34156 13.4903 8.43112 13.4521 8.50564 13.5183C8.53712 13.581 8.55216 13.584 8.59359 13.5359C8.92893 13.5359 9.26404 13.5359 9.59938 13.5359C9.62461 13.5465 9.64983 13.5572 9.67506 13.5678C9.68501 13.5444 9.69473 13.5208 9.70468 13.4975C9.78129 13.4926 9.85789 13.4877 9.93472 13.4831C9.95416 13.4938 9.9736 13.5044 9.99304 13.5151C10.0028 13.4917 10.0125 13.4681 10.0222 13.4447C10.0636 13.4398 10.1048 13.435 10.1463 13.4301L10.1784 13.46C10.1847 13.4489 10.1909 13.4375 10.1972 13.4264C10.2374 13.4287 10.28 13.4357 10.287 13.3773H10.3402C10.3508 13.3873 10.3617 13.397 10.3724 13.407C10.3791 13.3901 10.3858 13.3734 10.3925 13.3565C10.4161 13.3517 10.4399 13.3468 10.4635 13.3422C10.483 13.3528 10.5024 13.3635 10.5221 13.3741C10.5318 13.3507 10.5415 13.3271 10.5513 13.3038C10.5691 13.2989 10.5869 13.294 10.6047 13.2894C10.6154 13.2994 10.6262 13.3091 10.6369 13.319C10.6436 13.3021 10.6503 13.2855 10.657 13.2686C10.6866 13.2579 10.7163 13.2473 10.7459 13.2364C10.788 13.2771 10.866 13.2517 10.9204 13.1797C10.9595 13.1698 11.0275 13.2177 11.0259 13.1267H11.0261C11.0671 13.1188 11.1335 13.1614 11.1335 13.0726C11.1442 13.0658 11.1551 13.0594 11.1657 13.0527C11.2164 13.1013 11.2201 13.0638 11.2212 13.0221C11.2814 13.0138 11.367 13.0459 11.3626 12.9339C11.4001 12.9298 11.4555 12.9552 11.4511 12.8809C11.4885 12.8768 11.5439 12.9022 11.5395 12.8279C11.5684 12.8159 11.5975 12.8036 11.6265 12.7916C11.657 12.7814 11.6883 12.7729 11.7184 12.7611C11.7454 12.7504 11.7873 12.7437 11.7459 12.7009C11.7454 12.6963 11.7464 12.6919 11.7489 12.6879C11.8334 12.6858 11.9084 12.6331 11.9264 12.5627H11.9266C11.9843 12.5741 12.0065 12.5491 11.9986 12.4928C12.0396 12.4519 12.0805 12.4109 12.1213 12.3702C12.1729 12.3739 12.2226 12.3753 12.2101 12.2989C12.2335 12.2755 12.2567 12.2524 12.28 12.229C12.3025 12.226 12.3252 12.223 12.3476 12.22C12.3428 12.2054 12.3379 12.1906 12.3328 12.176C12.3622 12.1406 12.3916 12.1054 12.4212 12.07C12.5126 12.0802 12.5376 11.9941 12.5918 11.9504C12.5927 11.9497 12.5811 11.9337 12.5753 11.9247C12.5749 11.92 12.5758 11.9156 12.5781 11.9115C12.6168 11.9043 12.7258 11.7826 12.7288 11.7416C12.729 11.7384 12.7207 11.7342 12.7163 11.7305C12.7158 11.7259 12.7167 11.7215 12.7191 11.7173C12.7883 11.7106 12.7922 11.7062 12.7693 11.6599C12.7688 11.6553 12.7697 11.6509 12.7721 11.6467C12.8572 11.6307 12.8998 11.5629 12.875 11.4836C12.8746 11.4789 12.8755 11.4743 12.8778 11.4704C12.9033 11.4569 12.9336 11.4479 12.9526 11.4282C12.9658 11.4144 13.0181 11.3822 12.9503 11.3644C12.9514 11.3528 12.9523 11.341 12.9535 11.3294C12.9799 11.3192 13.0063 11.3088 13.0326 11.2986C13.0229 11.291 13.013 11.2836 13.0033 11.276C13.0044 11.2644 13.0053 11.2528 13.0065 11.241C13.0329 11.2308 13.0593 11.2204 13.0856 11.2102C13.0759 11.2026 13.066 11.1952 13.0563 11.1876C13.0574 11.176 13.0583 11.1644 13.0595 11.1526C13.0801 11.1422 13.1007 11.132 13.1213 11.1216C13.1113 11.1142 13.1014 11.1068 13.0914 11.0994C13.0926 11.0818 13.0935 11.0644 13.0947 11.0469C13.1211 11.0367 13.1474 11.0263 13.1738 11.0161C13.1641 11.0084 13.1541 11.001 13.1444 10.9934C13.1456 10.9758 13.1465 10.9584 13.1477 10.9409C13.1741 10.9307 13.2004 10.9203 13.2268 10.9101C13.2171 10.9024 13.2071 10.895 13.1974 10.8874C13.1986 10.8758 13.1995 10.8643 13.2007 10.8524C13.2502 10.8402 13.318 10.736 13.309 10.6837C13.3083 10.6798 13.2937 10.6784 13.2858 10.6759C13.287 10.6467 13.2879 10.6173 13.2891 10.5882C13.3155 10.578 13.3418 10.5676 13.3682 10.5574C13.3585 10.5497 13.3485 10.5423 13.3388 10.5347C13.34 10.5113 13.3409 10.4879 13.3421 10.4646C13.3685 10.4544 13.3948 10.444 13.421 10.4338C13.4113 10.4262 13.4015 10.4187 13.3916 10.4111C13.3928 10.382 13.3937 10.3526 13.3948 10.3234C13.4619 10.2915 13.4703 10.2686 13.4268 10.235C13.4279 10.2116 13.4289 10.1882 13.43 10.1646C13.5034 10.1241 13.5205 10.0811 13.4798 10.0408C13.4809 10.0056 13.4819 9.97047 13.483 9.93529C13.548 9.89826 13.5714 9.83184 13.5328 9.79389C13.5339 9.72353 13.5348 9.65295 13.536 9.58259C13.6008 9.54487 13.6089 9.51825 13.5679 9.4766C13.5691 9.45322 13.57 9.42985 13.5712 9.40624C13.586 9.39583 13.6008 9.38541 13.6156 9.375L13.5855 9.35301C13.5867 9.17666 13.5876 9.00031 13.5888 8.8242C13.5973 8.81841 13.6061 8.81239 13.6147 8.80661C13.6061 8.80082 13.5973 8.7948 13.5888 8.78902C13.583 8.75361 13.577 8.71843 13.5712 8.68302C13.6196 8.64276 13.5929 8.61776 13.5536 8.59508C13.5478 8.52449 13.5418 8.45391 13.536 8.38332C13.5844 8.34305 13.5578 8.31806 13.5184 8.29538C13.5066 8.2366 13.4948 8.17758 13.4832 8.1188C13.4918 8.11301 13.5006 8.10699 13.5092 8.10121C13.5006 8.09542 13.4918 8.08941 13.4832 8.08362C13.4763 8.06626 13.4694 8.04867 13.4624 8.03132C13.4576 8.01928 13.4527 8.00748 13.4478 7.99544C13.442 7.97184 13.436 7.94823 13.4302 7.92463C13.4388 7.91884 13.4476 7.91282 13.4562 7.90704C13.4476 7.90125 13.4388 7.89524 13.4302 7.88945C13.4184 7.84826 13.4066 7.80706 13.3951 7.76587C13.4036 7.76008 13.4124 7.75406 13.421 7.74828C13.4124 7.74249 13.4036 7.73647 13.3951 7.73069C13.3775 7.69528 13.3599 7.6601 13.3421 7.62469C13.3506 7.61891 13.3594 7.61289 13.368 7.60711C13.3594 7.60132 13.3506 7.5953 13.3421 7.58952C13.3245 7.56013 13.3069 7.5305 13.2891 7.50111C13.2976 7.49532 13.3064 7.48931 13.315 7.48352C13.3064 7.47774 13.2976 7.47172 13.2891 7.46593L13.2507 7.37822C13.2458 7.3604 13.2409 7.34258 13.2361 7.32476C13.2349 7.31921 13.2342 7.31388 13.2338 7.30833C13.2229 7.28449 13.2118 7.26065 13.2009 7.23659C13.1942 7.22525 13.1875 7.21391 13.1808 7.20233C13.1699 7.1785 13.1588 7.15466 13.1479 7.13059C13.1412 7.11925 13.1345 7.10791 13.1278 7.09634C13.1169 7.0725 13.1058 7.04867 13.0949 7.0246C13.0937 7.01904 13.0931 7.01372 13.0926 7.00816C13.0817 6.99011 13.0706 6.97206 13.0597 6.95424C13.053 6.93688 13.0463 6.91976 13.0396 6.9024C13.0287 6.88435 13.0176 6.8663 13.0067 6.84848C13.0002 6.842 12.9938 6.83552 12.9871 6.82881C12.9759 6.80589 12.9648 6.78298 12.9537 6.7603C12.9352 6.73137 12.9169 6.70221 12.8984 6.67329C12.8875 6.65523 12.8764 6.63718 12.8656 6.61936C12.8343 6.57377 12.8056 6.5261 12.7714 6.48305C12.6642 6.34905 12.5598 6.21205 12.4448 6.08499C12.3143 5.94104 12.1812 5.79732 12.035 5.67027C11.8727 5.52933 11.6943 5.40713 11.5228 5.27684C11.4953 5.20301 11.4344 5.18079 11.3636 5.17408C11.2511 5.11646 11.1409 5.05328 11.0255 5.00259C10.8873 4.94196 10.744 4.89266 10.6038 4.83712C10.5332 4.80912 10.4638 4.77764 10.3939 4.74779C10.3818 4.74293 10.37 4.73807 10.358 4.73321C10.3228 4.73205 10.2858 4.73714 10.2527 4.72835C10.109 4.69016 9.97036 4.62814 9.816 4.64249C9.79772 4.64411 9.77781 4.63068 9.75884 4.6242C9.74472 4.61402 9.73083 4.60384 9.71672 4.59366C9.5804 4.59273 9.44386 4.59574 9.30778 4.58926C9.23418 4.58579 9.16152 4.56588 9.08838 4.55362C9.0826 4.54505 9.07658 4.53649 9.07079 4.52793C9.06501 4.54251 9.05922 4.55686 9.05321 4.57144C8.86528 4.57838 8.67736 4.58532 8.48921 4.59203C8.44223 4.55454 8.43668 4.58556 8.43575 4.6242C8.34202 4.63092 8.24829 4.6374 8.15456 4.64411C8.118 4.64295 8.07819 4.6374 8.08282 4.69479C7.99048 4.71192 7.89791 4.72765 7.80626 4.74686C7.75928 4.75658 7.71276 4.77047 7.66763 4.78667C7.60723 4.80865 7.54891 4.83619 7.48874 4.85864C7.42301 4.88317 7.35613 4.90447 7.28971 4.92715C7.23648 4.88572 7.2381 4.92622 7.23671 4.96255C7.20246 4.98107 7.1696 5.00213 7.13396 5.01717C7.07517 5.04193 7.01477 5.06276 6.95506 5.08521C6.91317 5.08984 6.84004 5.03453 6.84999 5.1396H6.84976C6.83171 5.15696 6.81366 5.17431 6.79561 5.19167C6.73705 5.22662 6.6785 5.26179 6.61995 5.29674C6.59658 5.30901 6.5732 5.32127 6.55006 5.33331C6.53201 5.35066 6.51396 5.36779 6.4959 5.38515C6.45749 5.38306 6.41884 5.38052 6.42509 5.43814C6.38667 5.43606 6.34802 5.43351 6.35427 5.49114C6.33113 5.50341 6.30798 5.51567 6.28484 5.52771L6.28507 5.52817Z" fill="#685FFF"/>
</svg>
