<svg width="25" height="25" viewBox="0 0 25 25" fill="none" xmlns="http://www.w3.org/2000/svg">
<path d="M3.75927 0H21.2174C21.2427 0.0624994 21.2748 0.100694 21.3549 0.0747678C21.3848 0.0650457 21.4276 0.095601 21.4644 0.107869C21.4841 0.162036 21.5103 0.183332 21.5524 0.125462C21.5762 0.130091 21.5998 0.134721 21.6237 0.139351C21.6586 0.222452 21.741 0.187961 21.8003 0.210878L21.8001 0.210415C21.8096 0.221063 21.8191 0.231942 21.8285 0.24259C21.8364 0.232868 21.8443 0.223378 21.8522 0.213655C21.9186 0.23634 21.9869 0.254396 22.0508 0.282636C22.1177 0.312266 22.179 0.353932 22.245 0.386108C22.3364 0.430552 22.4299 0.47106 22.5225 0.513421C22.5403 0.524069 22.5582 0.534486 22.576 0.545134C22.5876 0.550921 22.5994 0.556708 22.6109 0.562726C22.6292 0.635642 22.6917 0.640272 22.7494 0.652309C22.8207 0.698836 22.8922 0.745363 22.9635 0.791891C22.9813 0.803928 22.9994 0.815965 23.0172 0.828233C23.1394 0.930547 23.2667 1.02777 23.3829 1.13656C23.5369 1.28054 23.6818 1.43401 23.8315 1.58239C23.9026 1.65276 23.9727 1.72082 24.0274 1.80855C24.1079 1.93771 24.21 2.05206 24.2938 2.18146C24.5394 2.56039 24.7024 2.97544 24.8609 3.39372C24.8669 3.40946 24.8625 3.42867 24.8665 3.44557C24.8901 3.54974 24.898 3.662 24.9447 3.75459C24.9774 3.81918 24.9908 3.87682 24.9908 3.94371C24.9908 9.64343 24.9908 15.3431 24.9908 21.0429C24.9908 21.0868 24.9894 21.1311 24.9887 21.175C24.9644 21.1725 24.9399 21.1702 24.8889 21.1649C24.9014 21.2086 24.9116 21.2445 24.922 21.2806C24.9209 21.3098 24.9195 21.3392 24.9183 21.3683C24.8931 21.385 24.8588 21.3966 24.8456 21.4202C24.8373 21.4352 24.8602 21.4676 24.869 21.4922C24.8605 21.557 24.8968 21.6385 24.7931 21.6669C24.8373 21.7424 24.7908 21.7905 24.7607 21.85C24.7269 21.9169 24.7209 21.9975 24.6987 22.0709C24.6598 22.1991 24.5482 22.2901 24.5176 22.4246C24.5075 22.469 24.47 22.5072 24.445 22.5482C24.445 22.5549 24.445 22.5614 24.445 22.5681H24.4452C24.4202 22.5741 24.3929 22.5764 24.3704 22.5882C24.3521 22.5977 24.3399 22.6183 24.3248 22.634C24.3417 22.6472 24.3584 22.6604 24.3753 22.6736C24.3635 22.6991 24.3551 22.7271 24.3387 22.7493C24.3125 22.7845 24.2547 22.8172 24.2563 22.8486C24.2621 22.9604 24.1306 22.9727 24.1151 23.0658C24.1105 23.094 24.0832 23.1195 24.0632 23.1438C24.0049 23.2155 23.9473 23.288 23.885 23.3563C23.8538 23.3903 23.8091 23.4123 23.7781 23.4463C23.7554 23.4713 23.7528 23.5202 23.7274 23.5361C23.6369 23.5928 23.5994 23.7148 23.4797 23.7338C23.4732 23.7347 23.4674 23.7442 23.4623 23.7505C23.4082 23.8162 23.3637 23.8942 23.2984 23.9454C23.1237 24.0817 22.9408 24.2081 22.7586 24.3347C22.7077 24.3701 22.6473 24.3919 22.5924 24.4222C22.5005 24.4732 22.4126 24.5324 22.3174 24.5766C22.1931 24.6345 22.0637 24.681 21.9366 24.7324C21.8628 24.7623 21.791 24.8009 21.7147 24.8211C21.5732 24.8581 21.429 24.8843 21.286 24.9157C21.2721 24.9188 21.2596 24.9289 21.2457 24.9331C21.1894 24.95 21.1329 24.9803 21.0765 24.9803C19.5374 24.9829 17.9983 24.9822 16.4589 24.9831C16.4226 24.9831 16.3862 24.9942 16.3499 25H15.8737C15.8432 24.9942 15.8129 24.9831 15.7823 24.9831C12.9571 24.9824 10.1317 24.9824 7.30646 24.9831C7.2759 24.9831 7.24558 24.9942 7.21502 25H7.14442C7.10808 24.9942 7.07174 24.9831 7.0354 24.9831C5.98332 24.9822 4.93125 24.9826 3.87941 24.9812C3.83774 24.9812 3.79538 24.9669 3.75487 24.9544C3.65765 24.9243 3.56205 24.8889 3.46436 24.8597C3.28566 24.8065 3.10094 24.7692 2.92849 24.7009C2.75326 24.6315 2.58706 24.5375 2.42201 24.4451C2.26461 24.3572 2.10674 24.2671 1.96229 24.1602C1.79586 24.037 1.63845 23.9005 1.4873 23.7588C1.33198 23.6132 1.17943 23.4625 1.04286 23.2993C0.901424 23.1301 0.779203 22.9447 0.65189 22.7641C0.591705 22.679 0.528743 22.5933 0.484762 22.4998C0.374346 22.2646 0.273652 22.0248 0.169718 21.7864C0.16532 21.7762 0.167403 21.7635 0.164394 21.7526C0.155366 21.7185 0.145876 21.6848 0.135459 21.6512C0.12782 21.6271 0.114626 21.6044 0.109765 21.5799C0.0887004 21.4762 0.070645 21.372 0.0495804 21.2683C0.0354602 21.1986 0.00467342 21.1297 0.00467342 21.0605C0.0025901 15.4871 0.0025901 9.9138 0.00328454 4.34047C0.00328454 4.09626 -0.0196319 3.8502 0.0555989 3.61061C0.0815246 3.52798 0.0900893 3.43978 0.117172 3.35761C0.158144 3.23353 0.205135 3.11131 0.255134 2.99048C0.325735 2.82034 0.385225 2.64257 0.478975 2.48539C0.619251 2.25021 0.780824 2.02683 0.94147 1.80438C1.16971 1.48795 1.45211 1.22152 1.7535 0.977306C2.06692 0.723604 2.40373 0.503699 2.77849 0.348608C2.93242 0.284951 3.08497 0.21597 3.24353 0.166202C3.38311 0.122221 3.5308 0.104397 3.67316 0.0682864C3.70533 0.0601846 3.73033 0.0240739 3.75881 0.000694438L3.75927 0ZM19.6987 19.7788C19.7383 19.7829 19.7762 19.7845 19.7688 19.726H19.7693C19.7938 19.7204 19.826 19.7227 19.842 19.7079C19.9862 19.5725 20.1286 19.435 20.2677 19.2945C20.2827 19.2792 20.2737 19.2399 20.2758 19.2119C20.2749 19.2072 20.2758 19.2031 20.279 19.1994C20.2906 19.1984 20.3091 19.2019 20.3128 19.1961C20.3603 19.1209 20.4054 19.0445 20.4512 18.9683C20.4415 18.963 20.432 18.9575 20.4223 18.9521C20.486 18.7832 20.5705 18.6188 20.6073 18.4443C20.6427 18.276 20.7239 18.1149 20.7073 17.9357C20.7049 17.9112 20.7179 17.8853 20.7239 17.86C20.7355 17.8133 20.7563 17.7665 20.7573 17.7195C20.7612 17.5376 20.7517 17.3549 20.7626 17.1735C20.7667 17.1031 20.7542 17.0568 20.7012 17.0172C20.6105 16.9491 20.5237 16.8753 20.4288 16.814C20.2168 16.6769 20.0022 16.5441 19.786 16.4137C19.6441 16.3283 19.4973 16.2508 19.3531 16.1693C19.239 16.1049 19.1258 16.0385 19.0107 15.9758C18.8712 15.8999 18.7293 15.8286 18.5899 15.7522C18.4168 15.6573 18.2443 15.561 18.0735 15.4621C17.9223 15.3746 17.77 15.2881 17.6249 15.1911C17.4024 15.0422 17.1828 14.8883 16.921 14.8172C16.8557 14.7996 16.7777 14.801 16.7124 14.8191C16.6235 14.8438 16.5416 14.8927 16.4566 14.9313C16.4566 14.9381 16.4566 14.945 16.4566 14.9517C16.4274 14.9749 16.3985 14.9982 16.3693 15.0214C16.2693 15.0056 16.1522 15.0948 16.1388 15.1971C16.0501 15.1459 16.0754 15.2681 16.0203 15.2795C16.0367 15.2874 16.0531 15.2955 16.0698 15.3033C16.03 15.3468 15.9899 15.3904 15.9501 15.4339L15.9515 15.4353C15.9203 15.473 15.8888 15.5105 15.8575 15.5482C15.8575 15.5549 15.8575 15.5619 15.8575 15.5686C15.8344 15.5918 15.811 15.6151 15.7879 15.6383C15.7575 15.6337 15.7272 15.6288 15.7013 15.6249C15.6777 15.6573 15.6571 15.6857 15.6323 15.72C15.6492 15.7281 15.6656 15.7362 15.6823 15.7443C15.5795 15.8781 15.495 16.0292 15.3402 16.1089C15.3203 16.2144 15.2369 16.2723 15.17 16.3417C15.17 16.3485 15.17 16.3554 15.17 16.3621C15.0994 16.4258 15.0291 16.4897 14.9585 16.5533C14.9585 16.56 14.9585 16.5665 14.9585 16.5732H14.9587C14.8316 16.5487 14.827 16.5468 14.8527 16.6795C14.767 16.7434 14.6863 16.8158 14.5939 16.8679C14.5272 16.9054 14.4397 16.9441 14.3712 16.9311C14.2562 16.9093 14.1332 16.9035 14.0275 16.8329C13.962 16.7892 13.8784 16.7742 13.808 16.7362C13.6131 16.6311 13.4194 16.5232 13.2284 16.4114C13.09 16.3304 12.9562 16.2415 12.8205 16.1556C12.5965 16.0135 12.3678 15.8779 12.1504 15.7262C11.9377 15.5781 11.7328 15.4179 11.5314 15.2547C11.3002 15.0672 11.071 14.8763 10.8513 14.6756C10.6592 14.5001 10.4775 14.3124 10.2981 14.1237C10.1553 13.9735 10.0159 13.8186 9.88745 13.6561C9.69069 13.4071 9.5025 13.151 9.31431 12.8953C9.11292 12.6216 8.9201 12.3425 8.75552 12.0436C8.64117 11.836 8.49788 11.6443 8.37983 11.4386C8.28075 11.2659 8.19534 11.0853 8.11293 10.9038C8.08145 10.8344 8.09117 10.7441 8.0539 10.68C7.99164 10.5731 8.0421 10.4747 8.08377 10.4011C8.16015 10.2663 8.26038 10.1374 8.3752 10.0332C8.67543 9.76033 8.99186 9.50524 9.29649 9.23695C9.50597 9.05246 9.71176 8.86288 9.90921 8.66543C9.99416 8.58048 10.0699 8.4777 10.1206 8.36913C10.2113 8.17516 10.162 7.98233 10.0576 7.80618C9.89787 7.5365 9.72843 7.27285 9.56847 7.00341C9.44 6.78697 9.31755 6.56684 9.19649 6.34624C9.08607 6.14485 8.98491 5.93814 8.87242 5.73791C8.72682 5.47888 8.57728 5.22148 8.42265 4.96778C8.29626 4.7606 8.16316 4.55713 8.02636 4.35667C7.97659 4.28376 7.9171 4.21941 7.80645 4.2289C7.56247 4.24996 7.31549 4.20112 7.0722 4.26431C6.95276 4.29533 6.82614 4.29834 6.70716 4.33028C6.55832 4.37056 6.41295 4.4245 6.2685 4.47843C6.1405 4.52612 6.01087 4.57311 5.89027 4.6363C5.66504 4.75412 5.49421 4.94208 5.33425 5.13143C5.19745 5.2937 5.08564 5.48004 4.98171 5.66638C4.84792 5.90573 4.72523 6.15226 4.61296 6.40226C4.54792 6.54716 4.51204 6.70549 4.4632 6.85781C4.44329 6.91961 4.42246 6.98119 4.40394 7.04368C4.37662 7.13581 4.3507 7.22864 4.32524 7.32123C4.31436 7.36035 4.31297 7.40363 4.29514 7.43882C4.25278 7.52238 4.29607 7.63442 4.20625 7.70132C4.20209 7.70433 4.20579 7.71798 4.20579 7.72678C4.20926 8.01983 4.21181 8.31289 4.21713 8.60571C4.21806 8.65409 4.23033 8.70223 4.23936 8.75015C4.26737 8.8976 4.297 9.04482 4.32431 9.19228C4.33866 9.26982 4.34329 9.34991 4.36436 9.42537C4.38959 9.51496 4.42824 9.60084 4.46042 9.6888C4.46435 9.69945 4.4625 9.71218 4.46574 9.72329C4.49607 9.82884 4.52384 9.93509 4.5588 10.039C4.58773 10.1251 4.62778 10.2075 4.6581 10.2932C4.68426 10.3668 4.69977 10.4443 4.72731 10.5173C4.76505 10.6173 4.81435 10.7129 4.85069 10.8131C4.90555 10.9638 4.95162 11.118 5.00555 11.2691C5.04953 11.392 5.09745 11.514 5.14838 11.6342C5.22546 11.8163 5.29884 12.0006 5.38796 12.1767C5.5493 12.4953 5.7199 12.8089 5.88888 13.1235C5.93726 13.2135 5.99304 13.2996 6.04628 13.3869C6.13864 13.5376 6.22637 13.6915 6.32591 13.8371C6.46526 14.0411 6.61225 14.2399 6.75878 14.439C6.84674 14.5584 6.93702 14.6765 7.03169 14.7908C7.17081 14.9587 7.31664 15.1212 7.45646 15.2885C7.54372 15.3931 7.62057 15.5066 7.70993 15.6091C7.84233 15.7607 7.98145 15.9066 8.11826 16.0542C8.20599 16.1489 8.29186 16.2457 8.38376 16.3362C8.57057 16.5209 8.75922 16.7035 8.94973 16.8843C9.0826 17.0105 9.21917 17.1329 9.35574 17.2554C9.40343 17.2982 9.45667 17.3346 9.50551 17.3758C9.73028 17.5658 9.95366 17.7575 10.1791 17.9464C10.2344 17.9927 10.2965 18.0309 10.3555 18.0727C10.3678 18.0836 10.3798 18.0945 10.3921 18.1054C10.3976 18.1109 10.4032 18.1165 10.4087 18.1221C10.4266 18.1341 10.4446 18.1461 10.4624 18.1584C10.4856 18.1758 10.509 18.1931 10.5321 18.2102L10.5858 18.2466C10.5972 18.2533 10.6085 18.2602 10.6199 18.267C10.6321 18.2778 10.6442 18.2887 10.6564 18.2996C10.662 18.3052 10.6675 18.3107 10.6731 18.3163C10.6911 18.3283 10.709 18.3403 10.727 18.3526C10.7384 18.3582 10.7499 18.3637 10.7613 18.3693C10.7733 18.3813 10.7854 18.3933 10.7976 18.4056C10.809 18.4112 10.8205 18.4167 10.8319 18.4223C10.8675 18.4461 10.903 18.47 10.9386 18.4938C10.9969 18.5359 11.0553 18.5778 11.1136 18.62L11.1502 18.6526C11.1557 18.6533 11.1611 18.6542 11.1664 18.6554C11.1891 18.6723 11.212 18.6892 11.2347 18.7061C11.2942 18.7422 11.3536 18.7781 11.4131 18.8142C11.431 18.8248 11.4488 18.8352 11.4666 18.8459C11.4958 18.8646 11.5249 18.8836 11.5541 18.9024C11.5779 18.919 11.602 18.9357 11.6259 18.9526C11.6314 18.9533 11.6367 18.9542 11.6423 18.9554L11.6789 18.988C11.6902 18.9936 11.7018 18.9991 11.7131 19.0047C11.7314 19.0776 11.7939 19.0822 11.8516 19.0943C11.9228 19.1304 11.9941 19.1663 12.0654 19.2024C12.0833 19.213 12.1011 19.2234 12.1189 19.2341C12.1305 19.2399 12.1423 19.2457 12.1539 19.2514C12.1722 19.3244 12.2347 19.329 12.2923 19.341C12.3423 19.366 12.3914 19.3926 12.4423 19.4158C12.5157 19.4491 12.5937 19.4734 12.6634 19.513C12.8272 19.6058 12.9842 19.7116 13.1784 19.7341C13.1951 19.7359 13.2085 19.76 13.2247 19.772C13.2377 19.7815 13.2515 19.791 13.2666 19.7959C13.3258 19.8153 13.3879 19.8278 13.4446 19.8526C13.5397 19.8943 13.6312 19.9438 13.7249 19.9887C13.7335 19.9929 13.7478 19.9829 13.7582 19.985C13.7733 19.988 13.7872 19.9966 13.802 20.0019C13.8344 20.0139 13.8668 20.026 13.8995 20.0368C13.9131 20.0415 13.9286 20.0406 13.9418 20.0461C14.0066 20.0732 14.0698 20.1054 14.136 20.1287C14.1988 20.1507 14.2668 20.1581 14.3279 20.1831C14.4008 20.2128 14.467 20.2591 14.5402 20.2889C14.5786 20.3047 14.7166 20.3466 14.7506 20.3676C14.7615 20.3743 14.7777 20.3718 14.7906 20.376C14.8196 20.3855 14.8485 20.3961 14.8768 20.4074C14.8927 20.4139 14.9087 20.4313 14.9231 20.4297C15.0214 20.4188 15.0934 20.4843 15.1779 20.513C15.2409 20.5343 15.3052 20.5697 15.368 20.5676C15.4318 20.5653 15.4749 20.578 15.5325 20.6058C15.5983 20.6375 15.6802 20.6447 15.7555 20.669C15.8902 20.7125 16.0434 20.6956 16.1837 20.7267C16.2666 20.7449 16.3439 20.757 16.4288 20.7537C16.6251 20.7463 16.8223 20.757 17.0186 20.7493C17.1397 20.7445 17.267 20.7993 17.383 20.7188C17.3966 20.7093 17.423 20.7181 17.4436 20.7183C17.5078 20.7776 17.5659 20.7581 17.602 20.6653C17.6108 20.6649 17.6214 20.6607 17.6279 20.6642C17.736 20.7234 17.8142 20.5725 17.9209 20.622C17.9237 20.6232 17.9316 20.6081 17.939 20.6051C17.9793 20.5892 18.02 20.5743 18.0608 20.5593C18.0689 20.569 18.0767 20.5785 18.0848 20.5882C18.0936 20.5771 18.1027 20.566 18.1115 20.5549H18.1117C18.1679 20.5385 18.2499 20.5806 18.2719 20.4852C18.2957 20.4806 18.3193 20.476 18.3432 20.4713C18.3635 20.4801 18.3895 20.5014 18.4033 20.4954C18.5108 20.4477 18.6161 20.3959 18.7207 20.3424C18.7346 20.3352 18.7395 20.3112 18.7487 20.295C18.854 20.247 18.9594 20.1991 19.0647 20.1512C19.0938 20.1389 19.123 20.1267 19.1522 20.1144C19.2767 20.119 19.3179 20.0954 19.3304 20.013C19.3594 19.9945 19.3883 19.976 19.4172 19.9575C19.4716 19.9484 19.5471 19.9801 19.5573 19.8852H19.5577C19.5973 19.8892 19.6353 19.8908 19.6279 19.8322H19.6283C19.6679 19.8362 19.7059 19.8378 19.6985 19.7794H19.6989L19.6987 19.7788Z" fill="#685FFF"/>
</svg>
