<svg width="220" height="25" viewBox="0 0 220 25" fill="none" xmlns="http://www.w3.org/2000/svg">
<path d="M12.8771 10.4749C12.8771 12.0671 12.8212 13.0448 12.7374 13.38C12.6257 13.7989 11.4525 15.6705 9.21788 18.9665C6.98324 22.2626 5.67039 24.1062 5.2514 24.4973C4.86033 24.8325 3.65922 25.0001 1.59218 25.0001C1.34078 25.0001 1.17318 24.9721 1.11732 24.9163C1.03352 24.8604 0.893854 24.5252 0.642457 23.8827C0.39106 23.2403 0.27933 22.8772 0.27933 22.7375C0.27933 22.542 0.530726 22.4302 1.03352 22.4302C2.09497 22.4302 2.87709 22.2906 3.37989 21.9833C3.54749 21.8716 3.79888 21.5643 4.16201 21.0056C4.49721 20.447 4.69274 20.0839 4.69274 19.8883C4.69274 19.6369 3.99441 18.6313 2.6257 16.8995C1.17318 15.0559 0.363128 13.8827 0.19553 13.38C0.0558651 12.9889 0 12.0671 0 10.5867C0 10.2235 -4.26639e-07 9.6928 0.0279325 8.96654C0.0279325 8.24028 0.0558651 7.68162 0.0558651 7.31849C0.0558651 7.12296 0.167596 7.01123 0.39106 7.01123C0.698322 7.01123 1.14525 7.03917 1.73184 7.0671C2.31844 7.09503 2.76536 7.12296 3.07263 7.12296C3.21229 7.12296 3.29609 7.23469 3.29609 7.43022C3.29609 7.70955 3.26816 8.10062 3.24022 8.63135C3.21229 9.16207 3.18436 9.55313 3.18436 9.83246C3.18436 10.9777 3.21229 11.8436 3.29609 12.4302C3.35195 12.7934 3.88268 13.6872 4.86033 15.1118C5.83799 16.5364 6.45251 17.2626 6.67598 17.2626C6.84358 17.2626 7.34637 16.5643 8.21229 15.1397C9.07821 13.7431 9.52514 12.8492 9.58101 12.542C9.66481 12.0671 9.69274 11.2012 9.69274 9.94419C9.69274 9.66486 9.6648 9.2738 9.60894 8.71514C9.55307 8.18442 9.52514 7.76543 9.52514 7.51403C9.52514 7.29057 9.60894 7.1509 9.7486 7.1509C10.0559 7.1509 10.5028 7.12296 11.1173 7.09503C11.7318 7.03916 12.1788 7.03917 12.486 7.03917C12.7095 7.03917 12.8771 8.18441 12.8771 10.4749Z" fill="#00A9DF"/>
<path d="M28.575 7.51402C28.575 7.54196 28.547 7.62575 28.5191 7.76542C28.156 9.94419 27.9604 11.8157 27.9604 13.3799C27.9604 13.4637 28.0722 15.6146 28.3236 19.7766L28.3515 19.9721C28.3515 20.2515 28.2398 20.3911 27.9884 20.3911C27.737 20.3911 27.3459 20.4191 26.8152 20.4749C26.2845 20.5308 25.8934 20.5587 25.642 20.5587C25.4744 20.5587 25.3347 20.2235 25.223 19.5531C25.1392 18.8827 25.0275 18.5475 24.9437 18.5475C24.8878 18.5475 24.6364 18.7431 24.1616 19.1062C23.6029 19.5531 23.0722 19.9163 22.5973 20.1397C21.8431 20.5308 21.0889 20.6984 20.3627 20.6984C18.5191 20.6984 16.9828 19.9721 15.6979 18.4917C14.4967 17.095 13.9102 15.447 13.9102 13.5755C13.9102 11.4805 14.5247 9.72073 15.7258 8.35201C16.9828 6.92743 18.6588 6.20117 20.6979 6.20117C22.1504 6.20117 23.4074 6.70396 24.4967 7.70955C24.6643 7.90508 24.9157 8.18441 25.2509 8.54754C25.2789 8.57547 25.3068 8.60341 25.3347 8.60341C25.3906 8.60341 25.4744 8.29614 25.5861 7.70955C25.6979 7.12296 25.8096 6.8157 25.9772 6.8157C26.2286 6.8157 26.7035 6.8995 27.4018 7.03916C28.1839 7.23469 28.575 7.37436 28.575 7.51402ZM24.9437 13.4637C24.9437 12.2906 24.6085 11.285 23.9102 10.4749C23.1839 9.58106 22.2342 9.13413 21.1169 9.13413C19.9716 9.13413 19.0219 9.58106 18.2677 10.4749C17.5414 11.3408 17.1783 12.3464 17.1783 13.4917C17.1783 14.6369 17.5414 15.6425 18.2677 16.4805C19.0219 17.3744 19.9716 17.7934 21.1169 17.7934C22.2342 17.7934 23.156 17.3464 23.9102 16.4526C24.6085 15.5587 24.9437 14.5811 24.9437 13.4637Z" fill="#00A9DF"/>
<path d="M37.5706 16.0055C37.5706 17.4301 37.012 18.5474 35.8667 19.4133C34.8332 20.1955 33.6041 20.5865 32.1237 20.5865C31.565 20.5865 31.2298 20.5586 31.146 20.5307C30.9784 20.4469 30.8946 20.2234 30.8946 19.8323C30.8946 19.6368 30.8667 19.3016 30.8108 18.8826C30.755 18.4636 30.727 18.1564 30.727 17.9608C30.727 17.8491 30.8108 17.7653 30.9784 17.7094C31.0902 17.6815 31.2857 17.6815 31.5092 17.7094C31.8164 17.7374 31.9561 17.7653 31.9282 17.7653C33.7159 17.7653 34.6097 17.2066 34.6097 16.1173C34.6097 15.5865 34.2187 15.1117 33.4365 14.6927C32.1516 13.9943 31.4254 13.5474 31.2298 13.4078C30.4477 12.7374 30.0566 11.8435 30.0566 10.7541C30.0566 9.32954 30.5874 8.21222 31.6768 7.4301C32.6544 6.73178 33.8555 6.36865 35.336 6.36865C35.4756 6.36865 35.5594 6.42452 35.6153 6.56418C35.6712 6.67591 35.7829 7.06697 35.9784 7.70943C36.146 8.35189 36.2298 8.74295 36.2298 8.88262C36.2298 8.99435 36.146 9.05021 35.9505 9.07814C35.336 9.16194 34.7214 9.24575 34.1069 9.32955C33.3807 9.52508 33.0175 9.91614 33.0175 10.5307C33.0175 10.9497 33.4086 11.3966 34.1628 11.8156C35.308 12.458 36.0343 12.905 36.3136 13.1843C37.1795 13.9106 37.5706 14.8323 37.5706 16.0055Z" fill="#00A9DF"/>
<path d="M46.2562 16.0055C46.2562 17.4301 45.6975 18.5474 44.5522 19.4133C43.5187 20.1955 42.2897 20.5865 40.8092 20.5865C40.2506 20.5865 39.9154 20.5586 39.8316 20.5307C39.664 20.4469 39.5802 20.2234 39.5802 19.8323C39.5802 19.6368 39.5522 19.3016 39.4964 18.8826C39.4405 18.4636 39.4126 18.1564 39.4126 17.9608C39.4126 17.8491 39.4964 17.7653 39.664 17.7094C39.7757 17.6815 39.9712 17.6815 40.1947 17.7094C40.502 17.7374 40.6416 17.7653 40.6137 17.7653C42.4014 17.7653 43.2953 17.2066 43.2953 16.1173C43.2953 15.5865 42.9042 15.1117 42.1221 14.6927C40.8372 13.9943 40.1109 13.5474 39.9154 13.4078C39.1332 12.7374 38.7422 11.8435 38.7422 10.7541C38.7422 9.32954 39.2729 8.21222 40.3623 7.4301C41.34 6.73178 42.5411 6.36865 44.0215 6.36865C44.1612 6.36865 44.245 6.42452 44.3008 6.56418C44.3567 6.67591 44.4684 7.06697 44.664 7.70943C44.8316 8.35189 44.9154 8.74295 44.9154 8.88262C44.9154 8.99435 44.8316 9.05021 44.636 9.07814C44.0215 9.16194 43.407 9.24575 42.7925 9.32955C42.0662 9.52508 41.7031 9.91614 41.7031 10.5307C41.7031 10.9497 42.0941 11.3966 42.8483 11.8156C43.9936 12.458 44.7198 12.905 44.9992 13.1843C45.8651 13.9106 46.2562 14.8323 46.2562 16.0055Z" fill="#00A9DF"/>
<path d="M52.0108 3.37989C52.0108 4.55308 51.3684 5.13967 50.0555 5.13967C48.7427 5.13967 48.0723 4.55308 48.0723 3.37989C48.0723 2.84916 48.2678 2.43017 48.6868 2.09498C49.0779 1.75978 49.5248 1.62012 50.0555 1.62012C50.5862 1.62012 51.0332 1.78771 51.4242 2.12291C51.8153 2.43017 52.0108 2.84916 52.0108 3.37989ZM51.927 7.23464C51.927 7.9609 51.8712 9.07822 51.7874 10.5307C51.7036 12.0112 51.6477 13.1006 51.6477 13.8548C51.6477 14.5531 51.6756 15.5866 51.7036 16.9553C51.7315 18.324 51.7594 19.3575 51.7594 20.0559C51.7594 20.2514 51.6756 20.3631 51.508 20.3631H48.7427C48.5471 20.3631 48.4354 20.1676 48.4354 19.7765C48.4354 19.1341 48.4633 18.1285 48.4913 16.8156C48.5192 15.5028 48.5471 14.5251 48.5471 13.8548C48.5471 13.1285 48.4913 12.0112 48.3795 10.5307C48.2678 9.05028 48.2119 7.93297 48.2119 7.20671C48.2119 7.03911 48.3237 6.95531 48.5192 6.95531C48.6868 6.95531 48.9661 6.98324 49.3013 7.03911C49.6644 7.09498 49.9158 7.12291 50.1114 7.12291C50.279 7.12291 50.5583 7.09498 50.9214 7.03911C51.2846 6.98324 51.536 6.95531 51.7315 6.95531C51.8432 6.95531 51.927 7.03911 51.927 7.23464Z" fill="#00A9DF"/>
<path d="M67.2633 20.1116C67.2633 20.3071 67.1795 20.4188 66.9839 20.4188C66.6767 20.4188 66.2018 20.4188 65.5873 20.3909C64.9728 20.3909 64.4979 20.363 64.1906 20.363C64.023 20.363 63.9392 20.2233 63.9392 19.944C63.9392 19.4691 63.9672 18.7708 63.9951 17.8211C64.023 16.8713 64.051 16.173 64.051 15.6982C64.051 15.3071 64.051 14.7484 64.023 13.9943C64.023 13.2401 63.9951 12.6814 63.9951 12.2903C63.9951 11.201 63.8275 10.4468 63.5202 9.99984C63.1292 9.46911 62.4309 9.18979 61.4253 9.18979C60.9504 9.18979 60.28 9.46911 59.442 9.99984C58.5482 10.5585 58.1012 11.0613 58.1012 11.4803V20.0278C58.1012 20.2512 58.0174 20.3909 57.8219 20.3909C57.5146 20.3909 57.0677 20.3909 56.4532 20.363C55.8387 20.363 55.3917 20.335 55.0845 20.335C54.889 20.335 54.7772 20.2233 54.7772 19.9998C54.7772 19.2456 54.7772 18.1283 54.8052 16.6199C54.8331 15.1116 54.8331 13.9943 54.8331 13.2401C54.8331 11.2289 54.6096 9.35738 54.1906 7.65347C54.1627 7.56967 54.1348 7.5138 54.1348 7.45794C54.1348 7.37414 54.1906 7.29034 54.3303 7.2624C54.3862 7.2624 54.9448 7.17861 55.9504 7.01101C56.956 6.84341 57.5146 6.75961 57.5426 6.75961C57.5984 6.75961 57.6264 6.84341 57.6543 6.98308C57.7102 7.56967 57.8219 8.15627 57.9895 8.77079C58.4923 8.37973 59.1348 7.90487 59.9448 7.31827C60.9504 6.70375 61.9001 6.39648 62.8219 6.39648C64.6096 6.39648 65.8107 6.92721 66.4811 7.96073C66.956 8.71492 67.2074 9.94397 67.2074 11.6479C67.2074 11.9551 67.2074 12.4021 67.1795 12.9887C67.1515 13.6032 67.1515 14.0501 67.1515 14.3574C67.1515 14.9998 67.1515 15.9496 67.1795 17.2065C67.2633 18.5194 67.2633 19.4691 67.2633 20.1116Z" fill="#00A9DF"/>
<path d="M82.0111 12.7374C82.0111 13.4357 81.7038 13.9106 81.0893 14.134C80.6703 14.2737 77.7373 14.553 72.2904 14.972C72.4021 15.81 72.877 16.5084 73.6591 17.0949C74.4133 17.6536 75.2234 17.9329 76.1172 17.9329C77.6256 17.9329 78.9943 17.4581 80.2513 16.4804C80.391 16.3687 80.5586 16.229 80.6982 16.1173C80.782 16.1173 80.81 16.1173 80.8379 16.1452C80.8658 16.1732 81.0334 16.4804 81.3686 17.1229C81.7038 17.7653 81.8714 18.1005 81.8714 18.1564C81.8714 18.2123 81.7876 18.324 81.648 18.4916C80.2513 19.972 78.4636 20.6983 76.2848 20.6983C74.0781 20.6983 72.3183 20.0279 71.0334 18.7151C69.7206 17.4022 69.0781 15.6424 69.0781 13.4637C69.0781 11.5083 69.6926 9.80444 70.9496 8.35193C72.2625 6.84355 73.8826 6.08936 75.81 6.08936C77.5977 6.08936 79.0781 6.73181 80.2792 8.04466C81.4245 9.38545 82.0111 10.9218 82.0111 12.7374ZM78.6312 11.8715C78.6312 11.0894 78.3239 10.391 77.7094 9.7765C77.0949 9.16198 76.3966 8.85472 75.6144 8.85472C74.7485 8.85472 73.9664 9.21784 73.296 9.91617C72.6256 10.6145 72.2904 11.3966 72.2904 12.2905C72.2904 12.486 72.458 12.5977 72.7932 12.5977C74.1899 12.5977 75.8658 12.4581 77.8211 12.1787C78.3519 12.0949 78.6312 11.9832 78.6312 11.8715Z" fill="#00A9DF"/>
<path d="M98.1281 13.5196C98.1281 15.3911 97.5415 17.0391 96.3683 18.4358C95.1392 19.9162 93.575 20.6425 91.7314 20.6425C90.5024 20.6425 89.413 20.3352 88.4633 19.6927C88.0722 19.3575 87.7091 19.0503 87.318 18.743C87.2063 18.771 87.1504 19.0503 87.1225 19.6089C87.0945 20.1397 87.0107 20.419 86.899 20.419H83.9102C83.7985 20.419 83.7426 20.3631 83.7426 20.2235C83.7426 20.2235 83.7426 20.1397 83.7705 19.9721C83.9102 18.4637 83.994 15.5587 83.994 11.257C83.994 9.49721 83.9102 6.92737 83.7705 3.51955C83.6867 1.36871 83.6309 0.418993 83.6309 0.670389C83.6309 0.418993 83.7426 0.279328 83.994 0.251395C84.3292 0.251395 84.832 0.223463 85.5024 0.19553C85.642 0.19553 85.8934 0.139666 86.3124 0.0837997C86.6476 0.0279338 86.9269 0 87.1504 0C87.2901 0 87.3739 0.111731 87.3739 0.335195C87.3739 0.67039 87.3459 1.14525 87.2901 1.81564C87.2342 2.48603 87.2063 2.98883 87.2063 3.29609C87.2063 3.79888 87.1783 4.52514 87.1504 5.53073C87.0945 6.50838 87.0945 7.26257 87.0945 7.76537C87.0945 8.12849 87.1504 8.29609 87.2901 8.29609C87.3459 8.29609 87.4297 8.24022 87.5135 8.12849C88.5471 6.81564 89.9437 6.17318 91.6476 6.17318C93.6029 6.17318 95.1951 6.89944 96.4242 8.37989C97.5415 9.8324 98.1281 11.5084 98.1281 13.5196ZM94.9158 13.3799C94.9158 12.2626 94.5526 11.257 93.8543 10.3911C93.1001 9.46927 92.1504 9.02235 91.061 9.02235C89.9158 9.02235 88.9661 9.46927 88.2119 10.3631C87.4856 11.229 87.1225 12.2346 87.1225 13.3799C87.1225 14.5531 87.4856 15.5587 88.2119 16.4246C88.9661 17.3184 89.9158 17.7654 91.089 17.7654C92.2063 17.7654 93.156 17.3184 93.8823 16.3967C94.5526 15.5307 94.9158 14.5251 94.9158 13.3799Z" fill="#00A9DF"/>
<path d="M113.045 13.4637C113.045 15.447 112.403 17.1509 111.09 18.5475C109.749 20 108.129 20.7263 106.146 20.7263C104.162 20.7263 102.514 20 101.201 18.5755C99.8886 17.1788 99.2461 15.5028 99.2461 13.5196C99.2461 11.5364 99.8886 9.86038 101.201 8.46373C102.542 7.03915 104.19 6.34082 106.146 6.34082C108.101 6.34082 109.749 7.03915 111.062 8.46373C112.403 9.80451 113.045 11.4805 113.045 13.4637ZM110.056 13.4917C110.056 12.3464 109.693 11.3408 108.995 10.5308C108.268 9.66484 107.319 9.24585 106.173 9.24585C105.028 9.24585 104.078 9.66484 103.352 10.5308C102.654 11.3688 102.291 12.3464 102.291 13.4917C102.291 14.6369 102.654 15.6146 103.38 16.4526C104.134 17.3464 105.084 17.7654 106.201 17.7654C107.319 17.7654 108.268 17.3185 109.023 16.4526C109.693 15.6146 110.056 14.609 110.056 13.4917Z" fill="#00A9DF"/>
<path d="M128.212 7.48619C128.212 8.18452 128.184 9.21803 128.128 10.6147C128.072 12.0113 128.044 13.0728 128.044 13.7711C128.044 14.4694 128.072 15.503 128.1 16.8717C128.128 18.2404 128.156 19.3018 128.156 19.9722C128.156 20.1678 128.072 20.2795 127.876 20.3354C127.793 20.3633 126.843 20.3633 124.999 20.3633C124.887 20.3633 124.804 20.0002 124.804 19.3018C124.776 18.6035 124.72 18.2404 124.636 18.2404C124.58 18.2404 124.524 18.2963 124.413 18.38C122.82 19.7488 121.256 20.4471 119.72 20.4471C117.625 20.4471 116.228 19.6929 115.558 18.1845C115.139 17.2348 114.943 15.5588 114.943 13.1286C114.943 10.9219 115.111 9.07837 115.474 7.54205C115.558 7.17892 115.725 6.9834 115.949 6.9834C116.228 6.9834 116.647 6.9834 117.178 7.01133C117.737 7.01133 118.128 7.03926 118.407 7.03926C118.603 7.03926 118.686 7.151 118.686 7.34653C118.686 7.70966 118.631 8.32418 118.491 9.19011C118.351 10.1119 118.295 10.7544 118.267 11.1454C118.239 11.7041 118.212 12.3465 118.212 13.0169C118.212 14.665 118.323 15.7823 118.575 16.3689C118.994 17.4024 119.887 17.9052 121.284 17.9052C121.871 17.9052 122.597 17.5979 123.407 17.0113C124.273 16.3968 124.72 15.8102 124.748 15.2236C124.804 14.5253 124.832 12.0113 124.832 7.70965C124.832 7.23479 125.027 7.01133 125.418 7.01133H127.765C128.1 6.9834 128.212 7.151 128.212 7.48619Z" fill="#00A9DF"/>
<path d="M143.66 20.1116C143.66 20.3071 143.576 20.4188 143.38 20.4188C143.073 20.4188 142.598 20.4188 141.984 20.3909C141.369 20.3909 140.894 20.363 140.587 20.363C140.42 20.363 140.336 20.2233 140.336 19.944C140.336 19.4691 140.364 18.7708 140.392 17.8211C140.42 16.8713 140.447 16.173 140.447 15.6982C140.447 15.3071 140.447 14.7484 140.42 13.9943C140.42 13.2401 140.392 12.6814 140.392 12.2903C140.392 11.201 140.224 10.4468 139.917 9.99984C139.526 9.46911 138.827 9.18979 137.822 9.18979C137.347 9.18979 136.677 9.46911 135.839 9.99984C134.945 10.5585 134.498 11.0613 134.498 11.4803V20.0278C134.498 20.2512 134.414 20.3909 134.218 20.3909C133.911 20.3909 133.464 20.3909 132.85 20.363C132.235 20.363 131.788 20.335 131.481 20.335C131.285 20.335 131.174 20.2233 131.174 19.9998C131.174 19.2456 131.174 18.1283 131.202 16.6199C131.23 15.1116 131.23 13.9943 131.23 13.2401C131.23 11.2289 131.006 9.35738 130.587 7.65347C130.559 7.56967 130.531 7.5138 130.531 7.45794C130.531 7.37414 130.587 7.29034 130.727 7.2624C130.783 7.2624 131.341 7.17861 132.347 7.01101C133.352 6.84341 133.911 6.75961 133.939 6.75961C133.995 6.75961 134.023 6.84341 134.051 6.98308C134.107 7.56967 134.218 8.15627 134.386 8.77079C134.889 8.37973 135.531 7.90487 136.341 7.31827C137.347 6.70375 138.297 6.39648 139.218 6.39648C141.006 6.39648 142.207 6.92721 142.878 7.96073C143.352 8.71492 143.604 9.94397 143.604 11.6479C143.604 11.9551 143.604 12.4021 143.576 12.9887C143.548 13.6032 143.548 14.0501 143.548 14.3574C143.548 14.9998 143.548 15.9496 143.576 17.2065C143.66 18.5194 143.66 19.4691 143.66 20.1116Z" fill="#00A9DF"/>
<path d="M159.246 13.4637C159.246 15.447 158.604 17.1509 157.291 18.5475C155.95 20 154.33 20.7263 152.347 20.7263C150.363 20.7263 148.715 20 147.403 18.5755C146.09 17.1788 145.447 15.5028 145.447 13.5196C145.447 11.5364 146.09 9.86038 147.403 8.46373C148.743 7.03915 150.391 6.34082 152.347 6.34082C154.302 6.34082 155.95 7.03915 157.263 8.46373C158.604 9.80451 159.246 11.4805 159.246 13.4637ZM156.257 13.4917C156.257 12.3464 155.894 11.3408 155.196 10.5308C154.47 9.66484 153.52 9.24585 152.375 9.24585C151.229 9.24585 150.28 9.66484 149.553 10.5308C148.855 11.3688 148.492 12.3464 148.492 13.4917C148.492 14.6369 148.855 15.6146 149.581 16.4526C150.336 17.3464 151.285 17.7654 152.403 17.7654C153.52 17.7654 154.47 17.3185 155.224 16.4526C155.894 15.6146 156.257 14.609 156.257 13.4917Z" fill="#00A9DF"/>
<path d="M174.442 7.48619C174.442 8.18452 174.414 9.21803 174.358 10.6147C174.302 12.0113 174.274 13.0728 174.274 13.7711C174.274 14.4694 174.302 15.503 174.33 16.8717C174.358 18.2404 174.386 19.3018 174.386 19.9722C174.386 20.1678 174.302 20.2795 174.107 20.3354C174.023 20.3633 173.073 20.3633 171.23 20.3633C171.118 20.3633 171.034 20.0002 171.034 19.3018C171.006 18.6035 170.95 18.2404 170.867 18.2404C170.811 18.2404 170.755 18.2963 170.643 18.38C169.051 19.7488 167.487 20.4471 165.95 20.4471C163.855 20.4471 162.459 19.6929 161.788 18.1845C161.369 17.2348 161.174 15.5588 161.174 13.1286C161.174 10.9219 161.341 9.07837 161.705 7.54205C161.788 7.17892 161.956 6.9834 162.179 6.9834C162.459 6.9834 162.878 6.9834 163.408 7.01133C163.967 7.01133 164.358 7.03926 164.638 7.03926C164.833 7.03926 164.917 7.151 164.917 7.34653C164.917 7.70966 164.861 8.32418 164.721 9.19011C164.582 10.1119 164.526 10.7544 164.498 11.1454C164.47 11.7041 164.442 12.3465 164.442 13.0169C164.442 14.665 164.554 15.7823 164.805 16.3689C165.224 17.4024 166.118 17.9052 167.515 17.9052C168.101 17.9052 168.827 17.5979 169.638 17.0113C170.503 16.3968 170.95 15.8102 170.978 15.2236C171.034 14.5253 171.062 12.0113 171.062 7.70965C171.062 7.23479 171.258 7.01133 171.649 7.01133H173.995C174.302 6.9834 174.442 7.151 174.442 7.48619Z" fill="#00A9DF"/>
<path d="M180.866 17.2627H177.012L175.811 20.9219L178.939 23.1845L182.04 20.9219L180.866 17.2627Z" fill="#685FFF"/>
<path d="M195.755 14.0501C195.755 15.9775 195.112 17.5976 193.855 18.9663C192.571 20.363 190.978 21.0613 189.079 21.0613C187.179 21.0613 185.559 20.363 184.274 18.9663C183.017 17.6256 182.375 15.9775 182.375 14.0501C182.375 12.1228 183.017 10.5026 184.274 9.13393C185.559 7.76522 187.179 7.06689 189.079 7.06689C190.978 7.06689 192.571 7.76522 193.855 9.13393C195.112 10.5026 195.755 12.1228 195.755 14.0501ZM192.85 14.0501C192.85 12.9328 192.515 11.9831 191.816 11.173C191.09 10.335 190.196 9.91605 189.079 9.91605C187.962 9.91605 187.068 10.3351 186.341 11.1451C185.643 11.9552 185.308 12.9049 185.308 14.0222C185.308 15.1116 185.643 16.0892 186.341 16.8993C187.068 17.7652 187.99 18.1842 189.079 18.1842C190.168 18.1842 191.09 17.7652 191.816 16.8993C192.515 16.1172 192.85 15.1675 192.85 14.0501Z" fill="#00A9DF"/>
<path d="M205.588 7.82134C205.588 8.82692 205.532 9.74872 205.392 10.5867C205.364 10.8102 205.28 10.894 205.113 10.894C204.917 10.894 204.638 10.866 204.247 10.8381C203.856 10.8102 203.548 10.7822 203.353 10.7822C202.208 10.7822 201.453 11.1174 201.146 11.7599C200.951 12.1509 200.867 12.9889 200.867 14.218V15.7264C200.867 16.2292 200.895 17.0113 200.923 18.0727C200.951 19.1063 200.979 19.8884 200.979 20.4191C200.979 20.6705 200.867 20.7822 200.671 20.7822C200.392 20.7822 199.945 20.7822 199.386 20.7822C198.8 20.7822 198.381 20.7822 198.101 20.7822C197.878 20.7822 197.794 20.6705 197.794 20.447C197.794 19.6929 197.794 18.5755 197.822 17.0951C197.85 15.5867 197.85 14.4694 197.85 13.7152C197.85 11.4526 197.627 9.63698 197.208 8.24033C197.18 8.15653 197.18 8.10067 197.18 8.07274C197.18 7.96101 197.236 7.87721 197.347 7.84927C197.682 7.82134 198.157 7.76547 198.772 7.68167C199.777 7.48614 200.224 7.40234 200.141 7.40234C200.28 7.40234 200.392 7.68168 200.42 8.21241C200.476 8.74313 200.56 9.02246 200.671 9.02246C200.699 9.02246 200.699 9.02246 200.727 8.99453C201.09 8.74313 201.481 8.51966 201.844 8.26827C202.263 8.01687 202.682 7.84927 203.101 7.70961C203.465 7.59788 203.912 7.54201 204.47 7.54201C205.224 7.51408 205.588 7.62581 205.588 7.82134Z" fill="#00A9DF"/>
<path d="M219.218 7.90519C219.218 8.99457 219.218 10.6705 219.19 12.8773C219.162 15.084 219.162 16.732 219.162 17.8493C219.162 20.0281 218.687 21.6482 217.765 22.6817C216.788 23.7711 215.224 24.3298 213.045 24.3298C210.95 24.3298 209.274 23.9387 207.989 23.1566C207.793 23.0169 207.682 22.9052 207.682 22.8214C207.682 22.9331 207.821 22.2348 208.101 20.7823C208.129 20.6147 208.184 20.5588 208.296 20.5588C208.352 20.5588 208.408 20.5868 208.464 20.6147C209.832 21.3968 211.229 21.7879 212.598 21.7879C213.52 21.7879 214.274 21.5923 214.86 21.1733C215.559 20.7264 215.894 20.056 215.894 19.1622C215.894 18.9666 215.866 18.5476 215.838 17.8773C214.832 19.1063 213.52 19.7488 211.955 19.7488C210.251 19.7488 208.855 19.1342 207.765 17.9052C206.732 16.732 206.201 15.2795 206.201 13.5756C206.201 11.8437 206.704 10.3354 207.71 9.13424C208.771 7.82139 210.168 7.17893 211.9 7.17893C213.408 7.17893 214.609 7.76552 215.503 8.9387C215.643 9.13423 215.754 9.21803 215.81 9.21803C215.894 9.21803 215.922 9.13423 215.922 8.96664C215.922 8.8549 215.922 8.65937 215.894 8.40798C215.866 8.15658 215.866 7.96105 215.866 7.82138C215.866 7.26272 215.922 6.9834 216.034 6.9834C216.117 6.9834 216.62 7.0672 217.514 7.2348C218.408 7.4024 218.911 7.51412 218.994 7.54205C219.162 7.59792 219.218 7.70966 219.218 7.90519ZM215.922 13.5756C215.922 12.5421 215.643 11.6761 215.084 10.9499C214.469 10.1678 213.659 9.77669 212.654 9.77669C211.648 9.77669 210.866 10.1678 210.251 10.9499C209.693 11.6761 209.413 12.5421 209.413 13.5476C209.413 14.5532 209.693 15.4192 210.279 16.1454C210.894 16.9275 211.704 17.3186 212.682 17.3186C213.659 17.3186 214.441 16.9275 215.084 16.1454C215.643 15.4471 215.922 14.5812 215.922 13.5756Z" fill="#00A9DF"/>
</svg>
