<svg width="24" height="19" viewBox="0 0 24 19" fill="none" xmlns="http://www.w3.org/2000/svg">
<path d="M7.35267 19C16.1748 19 20.9996 11.6911 20.9996 5.35302C20.9996 5.1453 20.9953 4.93858 20.9859 4.73286C21.9225 4.05583 22.7364 3.21121 23.3786 2.24952C22.5193 2.63119 21.5944 2.88842 20.624 3.00449C21.6141 2.41075 22.3744 1.47114 22.733 0.351226C21.8061 0.900477 20.7799 1.30021 19.6874 1.51529C18.812 0.583036 17.5657 0 16.1862 0C13.5373 0 11.3891 2.14817 11.3891 4.79608C11.3891 5.17239 11.4312 5.53867 11.5135 5.88956C7.52728 5.6892 3.99261 3.78053 1.62735 0.8784C1.21491 1.58687 0.977747 2.41075 0.977747 3.28915C0.977747 4.95329 1.8247 6.42209 3.1122 7.28176C2.32545 7.25767 1.5862 7.04125 0.939948 6.68166C0.938944 6.70173 0.938944 6.7218 0.938944 6.74287C0.938944 9.06599 2.59238 11.0054 4.78705 11.4453C4.38431 11.555 3.96016 11.6139 3.52263 11.6139C3.21355 11.6139 2.91317 11.5834 2.62082 11.5272C3.23128 13.4329 5.00213 14.8194 7.10146 14.8585C5.45939 16.145 3.39151 16.9117 1.14433 16.9117C0.75731 16.9117 0.375645 16.8896 0 16.8451C2.12274 18.2056 4.64321 18.9997 7.35234 18.9997" fill="white"/>
</svg>
