<svg width="25" height="17" viewBox="0 0 25 17" fill="none" xmlns="http://www.w3.org/2000/svg">
<path d="M23.7783 2.65485C23.499 1.60991 22.676 0.78691 21.6311 0.507629C19.7371 6.11172e-07 12.143 0 12.143 0C12.143 0 4.54876 6.11172e-07 2.65485 0.507629C1.60991 0.78691 0.786909 1.60991 0.507629 2.65485C9.65008e-08 4.54876 0 8.50017 0 8.50017C0 8.50017 9.65008e-08 12.4516 0.507629 14.3455C0.786909 15.3904 1.60991 16.2131 2.65485 16.4927C4.54876 17 12.143 17 12.143 17C12.143 17 19.7371 17 21.6311 16.4927C22.676 16.2134 23.499 15.3904 23.7783 14.3455C24.2859 12.4516 24.2859 8.50017 24.2859 8.50017C24.2859 8.50017 24.2859 4.54876 23.7783 2.65485ZM9.71477 12.143V4.85738L16.0239 8.50017L9.71477 12.143Z" fill="white"/>
</svg>
