<svg width="320" height="258" viewBox="0 0 320 258" fill="none" xmlns="http://www.w3.org/2000/svg">
<g style="mix-blend-mode:multiply" opacity="0.6">
<path d="M333 258L333 0L-2.99997 -1.42499e-05L-2.99997 31.9277C17.6459 47.8135 54.1573 68.2045 107.194 70.2879C185.409 73.3348 301.228 -59.4804 333 258Z" fill="#857EFF"/>
</g>
<g style="mix-blend-mode:multiply" opacity="0.6">
<path d="M333 191L333 0L-2.99997 -1.42499e-05L-2.99997 23.6533C17.6459 35.4148 54.1573 50.5143 107.194 52.053C185.409 54.2957 301.228 -44.0468 333 191Z" fill="#857EFF"/>
</g>
<g style="mix-blend-mode:multiply" opacity="0.6">
<path d="M14.0009 -7.81311e-06C36.1314 17.7742 66.9782 43.0693 106.781 44.0062C139.347 44.7869 167.555 22.4065 192.744 0L14.0009 -7.81311e-06Z" fill="#685FFF"/>
</g>
<g style="mix-blend-mode:multiply" opacity="0.6">
<path d="M320.316 0L266.999 -2.33056e-06C270.918 19.5699 277.495 38.1769 288.45 53.7391C296.906 65.7621 307.862 73.5692 320.316 78.4877L320.316 0Z" fill="#685FFF"/>
</g>
</svg>
