<svg width="160" height="550" viewBox="0 0 160 550" fill="none" xmlns="http://www.w3.org/2000/svg">
<path d="M160 0H0V550H160V0Z" fill="#ACA7FF"/>
<path d="M194.08 450.16C290.774 450.16 369.16 371.774 369.16 275.08C369.16 178.386 290.774 100 194.08 100C97.386 100 19 178.386 19 275.08C19 371.774 97.386 450.16 194.08 450.16Z" stroke="white" stroke-width="2" stroke-linecap="round" stroke-linejoin="round"/>
<path d="M194.08 433.499C281.572 433.499 352.498 362.573 352.498 275.081C352.498 187.589 281.572 116.663 194.08 116.663C106.588 116.663 35.6621 187.589 35.6621 275.081C35.6621 362.573 106.588 433.499 194.08 433.499Z" stroke="white" stroke-width="2" stroke-linecap="round" stroke-linejoin="round"/>
<path d="M194.08 416.848C272.377 416.848 335.848 353.377 335.848 275.08C335.848 196.784 272.377 133.312 194.08 133.312C115.784 133.312 52.3125 196.784 52.3125 275.08C52.3125 353.377 115.784 416.848 194.08 416.848Z" stroke="white" stroke-width="2" stroke-linecap="round" stroke-linejoin="round"/>
<path d="M194.081 400.197C263.181 400.197 319.198 344.18 319.198 275.08C319.198 205.979 263.181 149.962 194.081 149.962C124.98 149.962 68.9629 205.979 68.9629 275.08C68.9629 344.18 124.98 400.197 194.081 400.197Z" stroke="white" stroke-width="2" stroke-linecap="round" stroke-linejoin="round"/>
<path d="M194.243 383.505C254.148 383.421 302.642 334.791 302.559 274.886C302.475 214.981 253.845 166.487 193.94 166.57C134.035 166.654 85.5405 215.284 85.6241 275.189C85.7077 335.094 134.338 383.588 194.243 383.505Z" stroke="white" stroke-width="2" stroke-linecap="round" stroke-linejoin="round"/>
</svg>
