<svg width="57" height="55" viewBox="0 0 57 55" fill="none" xmlns="http://www.w3.org/2000/svg">
<path d="M51.9199 102.84C80.0422 102.84 102.84 80.0422 102.84 51.9199C102.84 23.7976 80.0422 1 51.9199 1C23.7976 1 1 23.7976 1 51.9199C1 80.0422 23.7976 102.84 51.9199 102.84Z" stroke="#68D5F9" stroke-width="2" stroke-linecap="round" stroke-linejoin="round"/>
<path d="M51.9197 97.9942C77.3657 97.9942 97.9937 77.3661 97.9937 51.9202C97.9937 26.4742 77.3657 5.84619 51.9197 5.84619C26.4737 5.84619 5.8457 26.4742 5.8457 51.9202C5.8457 77.3661 26.4737 97.9942 51.9197 97.9942Z" stroke="#68D5F9" stroke-width="2" stroke-linecap="round" stroke-linejoin="round"/>
<path d="M51.919 93.1514C74.6905 93.1514 93.1504 74.6915 93.1504 51.9199C93.1504 29.1484 74.6905 10.6885 51.919 10.6885C29.1475 10.6885 10.6875 29.1484 10.6875 51.9199C10.6875 74.6915 29.1475 93.1514 51.919 93.1514Z" stroke="#68D5F9" stroke-width="2" stroke-linecap="round" stroke-linejoin="round"/>
<path d="M51.9202 88.3087C72.0173 88.3087 88.3092 72.0168 88.3092 51.9197C88.3092 31.8226 72.0173 15.5308 51.9202 15.5308C31.8232 15.5308 15.5312 31.8226 15.5312 51.9197C15.5312 72.0168 31.8232 88.3087 51.9202 88.3087Z" stroke="#68D5F9" stroke-width="2" stroke-linecap="round" stroke-linejoin="round"/>
<path d="M51.9665 83.454C69.3891 83.4297 83.4932 69.2862 83.4689 51.8636C83.4445 34.441 69.301 20.3369 51.8784 20.3612C34.4558 20.3856 20.3518 34.5291 20.3761 51.9517C20.4004 69.3743 34.5439 83.4784 51.9665 83.454Z" stroke="#68D5F9" stroke-width="2" stroke-linecap="round" stroke-linejoin="round"/>
</svg>
