<svg width="122" height="86" viewBox="0 0 122 86" fill="none" xmlns="http://www.w3.org/2000/svg">
<path d="M-49.9828 73.3858L89.5894 125.136C92.8982 126.362 96.8578 123.988 98.3885 119.86L105.715 100.1C103.994 100.572 101.945 101.123 101.7 101.139C85.4625 102.261 75.1452 91.7073 66.9416 78.5353C48.5304 48.968 26.5016 6.8534 -11.5346 12.7934C-11.7705 12.8297 -12.0034 12.8672 -12.2407 12.9073C-20.8892 15.2204 -30.1177 18.8212 -38.6618 24.3961L-53.2158 63.6491C-54.7465 67.7775 -53.2916 72.159 -49.9828 73.3858Z" fill="#089DCD"/>
<path d="M-49.9834 73.3859L89.5889 125.136C92.8977 126.363 96.8573 123.989 98.388 119.86L100.705 113.611C98.9834 114.083 96.9349 114.634 96.6896 114.65C80.4524 115.772 71.5267 101.465 63.3231 88.2933C44.4796 58.0279 24.823 6.58996 -14.337 13.5306C-14.4541 13.5512 -14.5727 13.5756 -14.6898 13.5962C-22.6157 15.9168 -30.9207 19.352 -38.6651 24.4038L-53.2178 63.653C-54.7484 67.7814 -53.2936 72.1629 -49.9848 73.3897L-49.9834 73.3859Z" fill="#68D5F9"/>
</svg>
