<svg width="73" height="15" viewBox="0 0 73 15" fill="none" xmlns="http://www.w3.org/2000/svg">
<rect y="1" width="17.875" height="3.25" fill="white"/>
<rect y="5.875" width="17.875" height="3.25" fill="white"/>
<rect y="10.75" width="17.875" height="3.25" fill="white"/>
<path d="M26.33 7.12H27.26C27.94 7.12 28.23 6.78 28.23 6.24C28.23 5.7 27.94 5.36 27.26 5.36H26.33V7.12ZM29.97 6.24C29.97 7.4 29.18 8.48 27.39 8.48H26.33V11H24.62V3.98H27.39C29.11 3.98 29.97 4.95 29.97 6.24ZM34.5702 6.26C34.5702 5.74 34.2702 5.4 33.6302 5.4H32.5702V7.14H33.6302C34.2702 7.14 34.5702 6.81 34.5702 6.26ZM30.8602 3.98H33.7302C35.4502 3.98 36.3102 4.97 36.3102 6.19C36.3102 7.07 35.8302 7.9 34.7502 8.22L36.3702 11H34.4402L32.9802 8.35H32.5702V11H30.8602V3.98ZM44.2937 7.47C44.2937 9.58 42.6937 11.07 40.7037 11.07C38.7137 11.07 37.0937 9.58 37.0937 7.47C37.0937 5.36 38.7137 3.88 40.7037 3.88C42.7037 3.88 44.2937 5.36 44.2937 7.47ZM38.8437 7.47C38.8437 8.7 39.5637 9.51 40.7037 9.51C41.8237 9.51 42.5537 8.7 42.5537 7.47C42.5537 6.22 41.8237 5.43 40.7037 5.43C39.5637 5.43 38.8437 6.22 38.8437 7.47ZM47.875 3.98C50.115 3.98 51.555 5.4 51.555 7.49C51.555 9.57 50.115 11 47.875 11H45.245V3.98H47.875ZM46.955 9.52H47.765C49.055 9.52 49.815 8.78 49.815 7.49C49.815 6.2 49.055 5.44 47.765 5.44H46.955V9.52ZM52.4806 8.17V3.98H54.1906V8.18C54.1906 9.01 54.6006 9.49 55.4106 9.49C56.2206 9.49 56.6506 9.01 56.6506 8.18V3.98H58.3606V8.17C58.3606 10.11 57.0006 11.07 55.3806 11.07C53.7506 11.07 52.4806 10.11 52.4806 8.17ZM59.2714 7.48C59.2714 5.38 60.7314 3.9 62.8014 3.9C64.4714 3.9 65.7314 4.84 66.1314 6.36H64.2514C63.9614 5.76 63.4314 5.46 62.7814 5.46C61.7314 5.46 61.0114 6.24 61.0114 7.48C61.0114 8.72 61.7314 9.5 62.7814 9.5C63.4314 9.5 63.9614 9.2 64.2514 8.6H66.1314C65.7314 10.12 64.4714 11.05 62.8014 11.05C60.7314 11.05 59.2714 9.58 59.2714 7.48ZM66.7986 5.35V3.98H72.2286V5.35H70.3686V11H68.6586V5.35H66.7986Z" fill="white"/>
</svg>
