<svg width="320" height="128" viewBox="0 0 320 128" fill="none" xmlns="http://www.w3.org/2000/svg">
<g style="mix-blend-mode:multiply" opacity="0.6">
<path d="M322 -35L322 127.909C281.657 54.4437 221.743 30.7881 127.124 69.9538C53.1155 100.584 12.293 68.6787 -4 55.927L-4 -35L322 -35Z" fill="#68D5F9"/>
</g>
<g style="mix-blend-mode:multiply" opacity="0.6">
<path d="M322 -35L322 76.3817C303.528 43.0192 262.745 -10.5897 196.414 4.00962C114.269 22.0961 60.2924 136.861 -3.99999 81.7166L-4 -35L322 -35Z" fill="#48CAF3"/>
</g>
<g style="mix-blend-mode:multiply" opacity="0.6">
<path d="M322 -35L322 41.9523C303.528 18.8952 262.745 -18.1366 196.414 -8.06541C114.269 4.45203 60.2924 83.7465 -4 45.6477L-4 -35L322 -35Z" fill="#48CAF3"/>
</g>
</svg>
