<svg width="97" height="25" viewBox="0 0 97 25" fill="none" xmlns="http://www.w3.org/2000/svg">
<path d="M0 25.7676H114V0.000453949H0V25.7676Z" fill="#685FFF"/>
<path d="M19.5198 25.7676C19.5198 12.8319 30.0079 2.34292 42.9424 2.34292C55.8769 2.34292 66.3691 12.8276 66.3691 25.7676H19.5198Z" fill="#089DCD"/>
<path d="M76.2488 12.9614C75.7231 15.7817 77.5832 18.4943 80.4035 19.02C83.2238 19.5458 85.9363 17.6857 86.4621 14.8654C86.9878 12.0451 85.1278 9.33257 82.3074 8.8068C79.4871 8.28103 76.7746 10.1411 76.2488 12.9614Z" fill="#C1BDFF"/>
<path d="M30.4516 25.7676C30.4516 18.4378 36.2219 12.4936 43.3373 12.4936C50.4527 12.4936 56.2188 18.4334 56.2188 25.7676H30.4516Z" fill="#68D5F9"/>
</svg>
