<svg width="101" height="21" viewBox="0 0 101 21" fill="none" xmlns="http://www.w3.org/2000/svg">
<path fill-rule="evenodd" clip-rule="evenodd" d="M89.1712 21H76.2309H24.7691H11.8288V20.991L9.46364 20.9893C4.23546 20.9893 0 16.2918 0 10.4946C0 4.69749 4.23546 0 9.46364 0L11.8288 2.76565e-05H89.1712L91.5364 0C96.7645 0 101 4.69749 101 10.4946C101 16.2918 96.7645 20.9893 91.5364 20.9893L89.1712 20.991V21Z" fill="#00A9DF"/>
<path d="M33.72 12.5799C33.72 13.7599 32.8 14.7399 31.16 14.7399C29.65 14.7399 28.47 13.9899 28.42 12.5699H30.24C30.29 13.1099 30.63 13.3699 31.11 13.3699C31.61 13.3699 31.93 13.1199 31.93 12.7099C31.93 11.4099 28.42 12.1099 28.44 9.61992C28.44 8.28992 29.53 7.54992 31 7.54992C32.53 7.54992 33.56 8.30992 33.63 9.64992H31.78C31.75 9.19992 31.43 8.92992 30.97 8.91992C30.56 8.90992 30.25 9.11992 30.25 9.55992C30.25 10.7799 33.72 10.2299 33.72 12.5799ZM37.2323 10.3799C36.6723 10.3799 36.2423 10.7199 36.1423 11.3399H38.2823C38.2823 10.7299 37.8023 10.3799 37.2323 10.3799ZM39.9023 12.8199C39.6323 13.9099 38.6423 14.7499 37.2523 14.7499C35.6123 14.7499 34.4323 13.6499 34.4323 11.8799C34.4323 10.1099 35.5923 9.00992 37.2523 9.00992C38.8823 9.00992 40.0323 10.0899 40.0323 11.7899C40.0323 11.9499 40.0223 12.1199 40.0023 12.2899H36.1323C36.1923 13.0199 36.6423 13.3599 37.1923 13.3599C37.6723 13.3599 37.9423 13.1199 38.0823 12.8199H39.9023ZM40.9345 14.6699V7.26992H42.6445V14.6699H40.9345ZM43.5437 11.8699C43.5437 10.1099 44.6337 9.00992 46.0037 9.00992C46.8337 9.00992 47.4237 9.38992 47.7237 9.87992V9.08992H49.4337V14.6699H47.7237V13.8799C47.4137 14.3699 46.8237 14.7499 45.9937 14.7499C44.6337 14.7499 43.5437 13.6299 43.5437 11.8699ZM47.7237 11.8799C47.7237 10.9899 47.1537 10.4999 46.5037 10.4999C45.8637 10.4999 45.2837 10.9799 45.2837 11.8699C45.2837 12.7599 45.8637 13.2599 46.5037 13.2599C47.1537 13.2599 47.7237 12.7699 47.7237 11.8799ZM54.5208 14.6699V11.6399C54.5208 10.8799 54.1008 10.4599 53.4508 10.4599C52.8008 10.4599 52.3808 10.8799 52.3808 11.6399V14.6699H50.6708V9.08992H52.3808V9.82992C52.7208 9.35992 53.3208 9.02992 54.0708 9.02992C55.3608 9.02992 56.2208 9.90992 56.2208 11.4099V14.6699H54.5208ZM58.2591 8.50992C57.6491 8.50992 57.2391 8.09992 57.2391 7.58992C57.2391 7.06992 57.6491 6.65992 58.2591 6.65992C58.8591 6.65992 59.2691 7.06992 59.2691 7.58992C59.2691 8.09992 58.8591 8.50992 58.2591 8.50992ZM57.4091 9.08992H59.1191V15.3899C59.1191 16.8399 58.3091 17.3299 57.1491 17.3299H56.4791V15.8799H56.8891C57.2691 15.8799 57.4091 15.7399 57.4091 15.4099V9.08992ZM65.8585 9.08992V14.6699H64.1485V13.9099C63.8085 14.3899 63.2085 14.7299 62.4585 14.7299C61.1685 14.7299 60.2985 13.8399 60.2985 12.3499V9.08992H61.9985V12.1199C61.9985 12.8799 62.4285 13.2999 63.0685 13.2999C63.7285 13.2999 64.1485 12.8799 64.1485 12.1199V9.08992H65.8585ZM67.3568 12.7299V10.5099H66.6768V9.08992H67.3568V7.72992H69.0668V9.08992H70.1868V10.5099H69.0668V12.7499C69.0668 13.0799 69.2068 13.2199 69.5868 13.2199H70.1968V14.6699H69.3268C68.1668 14.6699 67.3568 14.1799 67.3568 12.7299ZM74.9993 14.6699V11.6399C74.9993 10.8799 74.5793 10.4599 73.9293 10.4599C73.2793 10.4599 72.8593 10.8799 72.8593 11.6399V14.6699H71.1493V9.08992H72.8593V9.82992C73.1993 9.35992 73.7993 9.02992 74.5493 9.02992C75.8393 9.02992 76.6993 9.90992 76.6993 11.4099V14.6699H74.9993ZM80.4576 12.5799L81.7376 9.08992H83.5876L80.0876 17.3199H78.2476L79.5276 14.4799L77.2576 9.08992H79.1676L80.4576 12.5799ZM83.8659 11.8699C83.8659 10.1099 84.9559 9.00992 86.3259 9.00992C87.1559 9.00992 87.7459 9.38992 88.0459 9.87992V9.08992H89.7559V14.6699H88.0459V13.8799C87.7359 14.3699 87.1459 14.7499 86.3159 14.7499C84.9559 14.7499 83.8659 13.6299 83.8659 11.8699ZM88.0459 11.8799C88.0459 10.9899 87.4759 10.4999 86.8259 10.4999C86.1859 10.4999 85.6059 10.9799 85.6059 11.8699C85.6059 12.7599 86.1859 13.2599 86.8259 13.2599C87.4759 13.2599 88.0459 12.7699 88.0459 11.8799Z" fill="white"/>
<path opacity="0.987" fill-rule="evenodd" clip-rule="evenodd" d="M16.4366 5C16.796 5 17.1554 5 17.5147 5C18.9014 5.156 20.1085 5.70287 21.1358 6.64062C21.4913 6.28516 21.8468 5.92969 22.2022 5.57422C22.5571 5.40993 22.8227 5.49978 22.9991 5.84375C22.9991 7.10937 22.9991 8.375 22.9991 9.64062C22.9281 9.84036 22.7875 9.96146 22.5772 10.0039C21.3262 10.0269 20.0762 10.0191 18.8272 9.98047C18.5295 9.83764 18.4318 9.60716 18.5343 9.28906C18.5499 9.25782 18.5655 9.22655 18.5811 9.19531C18.9483 8.82812 19.3155 8.46094 19.6827 8.09375C19.6983 8.07812 19.6983 8.06251 19.6827 8.04687C18.5221 7.05377 17.2057 6.77642 15.7335 7.21484C14.8885 7.50542 14.2127 8.01716 13.7061 8.75C13.4935 9.14579 13.2943 9.54814 13.1085 9.95703C13.0772 9.97266 13.046 9.98827 13.0147 10.0039C12.7374 10.0078 12.46 10.0117 12.1827 10.0156C11.8729 10.0186 11.5643 10.0069 11.2569 9.98047C11.1454 9.87521 11.1102 9.7463 11.1515 9.59375C11.7561 7.36409 13.1585 5.89925 15.3585 5.19922C15.717 5.10958 16.0764 5.04317 16.4366 5Z" fill="white"/>
<path opacity="0.987" fill-rule="evenodd" clip-rule="evenodd" d="M17.5156 17.0002C17.1641 17.0002 16.8125 17.0002 16.4609 17.0002C15.075 16.8575 13.8758 16.3106 12.8633 15.3596C12.5078 15.7151 12.1523 16.0705 11.7969 16.426C11.442 16.5903 11.1764 16.5004 11 16.1565C11 14.8908 11 13.6252 11 12.3596C11.0704 12.1605 11.211 12.0394 11.4219 11.9963C12.6729 11.9733 13.9229 11.9811 15.1719 12.0197C15.4696 12.1626 15.5673 12.393 15.4648 12.7111C15.4492 12.7424 15.4336 12.7736 15.418 12.8049C15.0469 13.176 14.6758 13.5471 14.3047 13.9182C15.4625 14.9282 16.7828 15.2173 18.2656 14.7854C19.1106 14.4948 19.7864 13.983 20.293 13.2502C20.5056 12.8544 20.7048 12.4521 20.8906 12.0432C20.9219 12.0275 20.9531 12.0119 20.9844 11.9963C21.5234 11.9807 22.0625 11.9807 22.6016 11.9963C22.767 12.0496 22.8334 12.1629 22.8008 12.3361C22.3816 14.0669 21.409 15.3833 19.8828 16.2854C19.139 16.6831 18.35 16.9214 17.5156 17.0002Z" fill="white"/>
</svg>
