<svg width="63" height="15" viewBox="0 0 63 15" fill="none" xmlns="http://www.w3.org/2000/svg">
<rect y="1" width="17.875" height="3.25" fill="white"/>
<rect y="5.875" width="17.875" height="3.25" fill="white"/>
<rect y="10.75" width="17.875" height="3.25" fill="white"/>
<path d="M27.9 3.9C29.58 3.9 30.8 4.76 31.17 6.2H29.28C29.02 5.73 28.54 5.48 27.9 5.48C26.8 5.48 26.07 6.26 26.07 7.48C26.07 8.78 26.81 9.54 28.04 9.54C28.89 9.54 29.48 9.09 29.74 8.3H27.57V7.04H31.29V8.63C30.93 9.84 29.76 11.05 27.91 11.05C25.81 11.05 24.33 9.58 24.33 7.48C24.33 5.38 25.8 3.9 27.9 3.9ZM37.0272 11L36.6072 9.76H33.9872L33.5672 11H31.7772L34.3172 3.98H36.2972L38.8372 11H37.0272ZM36.1672 8.44L35.2972 5.87L34.4372 8.44H36.1672ZM39.6102 3.98H41.3202V9.68H43.5602V11H39.6102V3.98ZM48.6759 3.98V5.35H46.0859V6.77H48.3759V8.09H46.0859V9.63H48.6759V11H44.3759V3.98H48.6759ZM53.496 6.26C53.496 5.74 53.196 5.4 52.556 5.4H51.496V7.14H52.556C53.196 7.14 53.496 6.81 53.496 6.26ZM49.786 3.98H52.656C54.376 3.98 55.236 4.97 55.236 6.19C55.236 7.07 54.756 7.9 53.676 8.22L55.296 11H53.366L51.906 8.35H51.496V11H49.786V3.98ZM58.1895 8.68L55.7595 3.98H57.6995L59.0595 6.92L60.4095 3.98H62.3295L59.8995 8.68V11H58.1895V8.68Z" fill="white"/>
</svg>
