<svg width="165" height="178" viewBox="0 0 165 178" fill="none" xmlns="http://www.w3.org/2000/svg">
<g style="mix-blend-mode:multiply" opacity="0.6">
<path d="M164.85 -9.15527e-05L60.6853 -0.000100659C107.659 25.7951 122.785 64.1045 97.7418 124.604C78.1569 171.926 98.5571 198.028 106.711 208.445L164.85 208.445L164.85 -9.15527e-05Z" fill="#CBC8FF"/>
</g>
<g style="mix-blend-mode:multiply" opacity="0.6">
<path d="M164.85 -9.15527e-05L93.6318 -9.77788e-05C114.964 11.811 149.242 37.8875 139.907 80.3C128.342 132.824 54.9612 167.337 90.2207 208.445L164.85 208.445L164.85 -9.15527e-05Z" fill="#A6A0FF"/>
</g>
<g style="mix-blend-mode:multiply" opacity="0.6">
<path d="M164.85 -9.15527e-05L115.646 -9.58542e-05C130.389 11.811 154.067 37.8875 147.628 80.3C139.624 132.824 88.9228 167.337 113.283 208.445L164.85 208.445L164.85 -9.15527e-05Z" fill="#A6A0FF"/>
</g>
<g style="mix-blend-mode:multiply" opacity="0.6">
<path d="M0.000350952 208.445L164.85 208.445L164.85 -9.15527e-05L144.449 -9.33362e-05C134.299 12.808 121.27 35.4588 119.939 68.3611C117.992 116.884 202.855 188.735 0.000350952 208.445Z" fill="#857EFF"/>
</g>
<g style="mix-blend-mode:multiply" opacity="0.6">
<path d="M42.9806 208.445L164.85 208.445L164.85 -9.15527e-05L149.757 -9.28721e-05C142.253 12.808 132.619 35.4588 131.637 68.3611C130.206 116.884 192.954 188.735 42.9806 208.445Z" fill="#857EFF"/>
</g>
<g style="mix-blend-mode:multiply" opacity="0.6">
<path d="M164.85 13.92C153.485 28.0703 137.311 47.7938 136.712 73.2439C136.213 94.0667 150.523 112.103 164.85 128.209L164.85 13.92Z" fill="#685FFF"/>
</g>
<g style="mix-blend-mode:multiply" opacity="0.6">
<path d="M164.85 208.445L164.85 174.354C152.337 176.86 140.439 181.065 130.489 188.07C122.801 193.477 117.809 200.482 114.664 208.445L164.85 208.445Z" fill="#685FFF"/>
</g>
</svg>
