<svg width="65" height="111" viewBox="0 0 65 111" fill="none" xmlns="http://www.w3.org/2000/svg">
<path d="M64.9991 110.02C37.9138 110.02 15.875 85.3442 15.875 55.01C15.875 24.6758 37.9138 0 64.9991 0V0.587051C38.2005 0.587051 16.3999 25.0014 16.3999 55.0051C16.3999 85.0087 38.2005 109.423 64.9991 109.423V110.01V110.02Z" fill="#00A9DF"/>
<path d="M64.9989 36.4707C55.8543 36.4707 48.4434 44.7733 48.4434 55.0096C48.4434 65.246 55.8543 73.5486 64.9989 73.5486V36.4707Z" fill="#00A9DF"/>
<path d="M1.89685 58.8731C1.89685 59.4602 1.47337 59.9338 0.948423 59.9338C0.423481 59.9338 0 59.4602 0 58.8731C0 58.2861 0.423481 57.8125 0.948423 57.8125C1.47337 57.8125 1.89685 58.2861 1.89685 58.8731Z" fill="#5046F0"/>
<path d="M14.2797 58.8731C14.2797 59.4602 13.8562 59.9338 13.3312 59.9338C12.8063 59.9338 12.3828 59.4602 12.3828 58.8731C12.3828 58.2861 12.8063 57.8125 13.3312 57.8125C13.8562 57.8125 14.2797 58.2861 14.2797 58.8731Z" fill="#5046F0"/>
<path d="M26.6664 58.8731C26.6664 59.4602 26.2429 59.9338 25.718 59.9338C25.193 59.9338 24.7695 59.4602 24.7695 58.8731C24.7695 58.2861 25.193 57.8125 25.718 57.8125C26.2429 57.8125 26.6664 58.2861 26.6664 58.8731Z" fill="#5046F0"/>
<path d="M39.0492 58.8731C39.0492 59.4602 38.6257 59.9338 38.1008 59.9338C37.5758 59.9338 37.1523 59.4602 37.1523 58.8731C37.1523 58.2861 37.5758 57.8125 38.1008 57.8125C38.6257 57.8125 39.0492 58.2861 39.0492 58.8731Z" fill="#5046F0"/>
<path d="M1.89685 72.6026C1.89685 73.1897 1.47337 73.6633 0.948423 73.6633C0.423481 73.6633 0 73.1897 0 72.6026C0 72.0156 0.423481 71.542 0.948423 71.542C1.47337 71.542 1.89685 72.0156 1.89685 72.6026Z" fill="#5046F0"/>
<path d="M14.2797 72.6026C14.2797 73.1897 13.8562 73.6633 13.3312 73.6633C12.8063 73.6633 12.3828 73.1897 12.3828 72.6026C12.3828 72.0156 12.8063 71.542 13.3312 71.542C13.8562 71.542 14.2797 72.0156 14.2797 72.6026Z" fill="#5046F0"/>
<path d="M26.6664 72.6026C26.6664 73.1897 26.2429 73.6633 25.718 73.6633C25.193 73.6633 24.7695 73.1897 24.7695 72.6026C24.7695 72.0156 25.193 71.542 25.718 71.542C26.2429 71.542 26.6664 72.0156 26.6664 72.6026Z" fill="#5046F0"/>
<path d="M39.0492 72.6026C39.0492 73.1897 38.6257 73.6633 38.1008 73.6633C37.5758 73.6633 37.1523 73.1897 37.1523 72.6026C37.1523 72.0156 37.5758 71.542 38.1008 71.542C38.6257 71.542 39.0492 72.0156 39.0492 72.6026Z" fill="#5046F0"/>
<path d="M1.89685 86.3311C1.89685 86.9182 1.47337 87.3918 0.948423 87.3918C0.423481 87.3918 0 86.9182 0 86.3311C0 85.7441 0.423481 85.2705 0.948423 85.2705C1.47337 85.2705 1.89685 85.7441 1.89685 86.3311Z" fill="#5046F0"/>
<path d="M14.2797 86.3311C14.2797 86.9182 13.8562 87.3918 13.3312 87.3918C12.8063 87.3918 12.3828 86.9182 12.3828 86.3311C12.3828 85.7441 12.8063 85.2705 13.3312 85.2705C13.8562 85.2705 14.2797 85.7441 14.2797 86.3311Z" fill="#5046F0"/>
<path d="M26.6664 86.3311C26.6664 86.9182 26.2429 87.3918 25.718 87.3918C25.193 87.3918 24.7695 86.9182 24.7695 86.3311C24.7695 85.7441 25.193 85.2705 25.718 85.2705C26.2429 85.2705 26.6664 85.7441 26.6664 86.3311Z" fill="#5046F0"/>
<path d="M39.0492 86.3311C39.0492 86.9182 38.6257 87.3918 38.1008 87.3918C37.5758 87.3918 37.1523 86.9182 37.1523 86.3311C37.1523 85.7441 37.5758 85.2705 38.1008 85.2705C38.6257 85.2705 39.0492 85.7441 39.0492 86.3311Z" fill="#5046F0"/>
<path d="M1.89685 100.061C1.89685 100.648 1.47337 101.121 0.948423 101.121C0.423481 101.121 0 100.648 0 100.061C0 99.4736 0.423481 99 0.948423 99C1.47337 99 1.89685 99.4736 1.89685 100.061Z" fill="#5046F0"/>
<path d="M14.2797 100.061C14.2797 100.648 13.8562 101.121 13.3312 101.121C12.8063 101.121 12.3828 100.648 12.3828 100.061C12.3828 99.4736 12.8063 99 13.3312 99C13.8562 99 14.2797 99.4736 14.2797 100.061Z" fill="#5046F0"/>
<path d="M26.6664 100.061C26.6664 100.648 26.2429 101.121 25.718 101.121C25.193 101.121 24.7695 100.648 24.7695 100.061C24.7695 99.4736 25.193 99 25.718 99C26.2429 99 26.6664 99.4736 26.6664 100.061Z" fill="#5046F0"/>
<path d="M39.0492 100.061C39.0492 100.648 38.6257 101.121 38.1008 101.121C37.5758 101.121 37.1523 100.648 37.1523 100.061C37.1523 99.4736 37.5758 99 38.1008 99C38.6257 99 39.0492 99.4736 39.0492 100.061Z" fill="#5046F0"/>
</svg>
