<svg width="81" height="27" viewBox="0 0 81 27" fill="none" xmlns="http://www.w3.org/2000/svg">
<path d="M7.10008 23.2898C7.10008 21.4898 5.64008 20.0298 3.84008 20.0298C2.04008 20.0298 0.580078 21.4898 0.580078 23.2898C0.580078 25.0898 2.04008 26.5498 3.84008 26.5498C5.64008 26.5498 7.10008 25.0898 7.10008 23.2898Z" fill="#685FFF"/>
<path d="M55.9692 23.2898C55.9692 21.4898 54.5092 20.0298 52.7092 20.0298C50.9092 20.0298 49.4492 21.4898 49.4492 23.2898C49.4492 25.0898 50.9092 26.5498 52.7092 26.5498C54.5092 26.5498 55.9692 25.0898 55.9692 23.2898Z" fill="#685FFF"/>
<path d="M3.25999 -0.000469208C5.06044 -0.000469208 6.52 1.45908 6.52 3.25953C6.52 5.05998 5.06044 6.51953 3.25999 6.51953C1.45955 6.51953 0 5.05998 0 3.25953C0 1.45908 1.45955 -0.000469208 3.25999 -0.000469208Z" fill="#685FFF"/>
<path d="M31.5317 3.25953C31.5317 1.45953 30.0717 -0.000469208 28.2717 -0.000469208C26.4717 -0.000469208 25.0117 1.45953 25.0117 3.25953C25.0117 5.05953 26.4717 6.51953 28.2717 6.51953C30.0717 6.51953 31.5317 5.05953 31.5317 3.25953Z" fill="#685FFF"/>
<path d="M52.7014 -0.000469208C54.5019 -0.000469208 55.9614 1.45908 55.9614 3.25953C55.9614 5.05998 54.5019 6.51953 52.7014 6.51953C50.901 6.51953 49.4414 5.05998 49.4414 3.25953C49.4414 1.45908 50.901 -0.000469208 52.7014 -0.000469208Z" fill="#685FFF"/>
<path d="M80.3989 3.25953C80.3989 1.45953 78.9389 -0.000469208 77.1389 -0.000469208C75.3389 -0.000469208 73.8789 1.45953 73.8789 3.25953C73.8789 5.05953 75.3389 6.51953 77.1389 6.51953C78.9389 6.51953 80.3989 5.05953 80.3989 3.25953Z" fill="#685FFF"/>
</svg>
