<svg width="79" height="16" viewBox="0 0 79 16" fill="none" xmlns="http://www.w3.org/2000/svg">
<rect width="21.0685" height="3.83065" fill="white"/>
<rect y="5.74609" width="21.0685" height="3.83065" fill="white"/>
<rect y="11.4917" width="21.0685" height="3.83065" fill="white"/>
<path d="M27.912 7.48C27.912 5.38 29.372 3.9 31.442 3.9C33.112 3.9 34.372 4.84 34.772 6.36H32.892C32.602 5.76 32.072 5.46 31.422 5.46C30.372 5.46 29.652 6.24 29.652 7.48C29.652 8.72 30.372 9.5 31.422 9.5C32.072 9.5 32.602 9.2 32.892 8.6H34.772C34.372 10.12 33.112 11.05 31.442 11.05C29.372 11.05 27.912 9.58 27.912 7.48ZM42.7292 7.47C42.7292 9.58 41.1292 11.07 39.1392 11.07C37.1492 11.07 35.5292 9.58 35.5292 7.47C35.5292 5.36 37.1492 3.88 39.1392 3.88C41.1392 3.88 42.7292 5.36 42.7292 7.47ZM37.2792 7.47C37.2792 8.7 37.9992 9.51 39.1392 9.51C40.2592 9.51 40.9892 8.7 40.9892 7.47C40.9892 6.22 40.2592 5.43 39.1392 5.43C37.9992 5.43 37.2792 6.22 37.2792 7.47ZM48.2505 3.98H49.9605V11H48.2505L45.3905 6.67V11H43.6805V3.98H45.3905L48.2505 8.33V3.98ZM50.8201 5.35V3.98H56.2501V5.35H54.3901V11H52.6801V5.35H50.8201ZM61.8983 11L61.4783 9.76H58.8583L58.4383 11H56.6483L59.1883 3.98H61.1683L63.7083 11H61.8983ZM61.0383 8.44L60.1683 5.87L59.3083 8.44H61.0383ZM64.1913 7.48C64.1913 5.38 65.6513 3.9 67.7213 3.9C69.3913 3.9 70.6513 4.84 71.0513 6.36H69.1713C68.8813 5.76 68.3513 5.46 67.7013 5.46C66.6513 5.46 65.9313 6.24 65.9313 7.48C65.9313 8.72 66.6513 9.5 67.7013 9.5C68.3513 9.5 68.8813 9.2 69.1713 8.6H71.0513C70.6513 10.12 69.3913 11.05 67.7213 11.05C65.6513 11.05 64.1913 9.58 64.1913 7.48ZM71.7185 5.35V3.98H77.1485V5.35H75.2885V11H73.5785V5.35H71.7185Z" fill="white"/>
</svg>
